<svg width="20" height="20" viewBox="0 0 20 20" fill="none" xmlns="http://www.w3.org/2000/svg">
<path d="M6.94412 18.0355C6.87708 18.0355 6.8112 18.0179 6.75302 17.9846C6.69483 17.9513 6.64637 17.9034 6.61243 17.8456C5.17478 15.3963 1.34382 10.1836 1.30528 10.1312C1.25054 10.0568 1.22441 9.96519 1.23165 9.87311C1.2389 9.78103 1.27904 9.69463 1.34474 9.62971L2.52236 8.46605C2.58633 8.40283 2.67045 8.36403 2.76007 8.3564C2.84969 8.34877 2.93915 8.37279 3.01289 8.42428L6.86393 11.1134C9.42424 7.82428 11.8035 5.5544 13.3674 4.21694C15.1203 2.71759 16.2347 2.04386 16.2813 2.01578C16.3411 1.9799 16.4095 1.96094 16.4792 1.96094H18.3843C18.4623 1.96092 18.5384 1.98461 18.6026 2.02886C18.6668 2.07311 18.7161 2.13583 18.7438 2.2087C18.7716 2.28157 18.7765 2.36116 18.758 2.4369C18.7395 2.51265 18.6984 2.58097 18.6401 2.63282C15.8159 5.14821 12.8795 9.14486 10.9137 12.0546C8.77663 15.2174 7.29309 17.8153 7.27836 17.8412C7.24496 17.8998 7.19673 17.9486 7.13851 17.9827C7.08029 18.0168 7.01413 18.035 6.94666 18.0354L6.94412 18.0355Z" fill="#20282D" fill-opacity="0.38"/>
</svg>
