<svg width="44" height="44" viewBox="0 0 44 44" fill="none" xmlns="http://www.w3.org/2000/svg">
<rect width="44" height="44" rx="22" fill="#0C1E21"/>
<path d="M19.8204 8.46252C20.3545 8.15413 20.9532 8 21.5521 8C22.1509 8 22.7496 8.15419 23.2836 8.46246L32.373 13.71L32.3802 13.7142C32.7101 13.9051 32.7097 14.3815 32.3796 14.5721L21.8358 20.6595C21.6601 20.7609 21.4437 20.7609 21.268 20.6595L10.7249 14.5721C10.3948 14.3815 10.3945 13.9052 10.7243 13.7142L10.7315 13.7101L19.8204 8.46258L19.8204 8.46252Z" fill="white"/>
<path d="M10.7314 30.2034C9.66347 29.5868 9 28.4375 9 27.2043V16.7092C9 16.7065 9 16.7037 9 16.701C9.00091 16.3202 9.41969 16.0866 9.74943 16.277L20.2859 22.3606C20.4616 22.462 20.5698 22.6494 20.5698 22.8522V35.0188C20.5698 35.3994 20.1583 35.6454 19.8282 35.456C19.8256 35.4545 19.8229 35.4529 19.8203 35.4514L10.7314 30.2035V30.2034Z" fill="white"/>
<path d="M34.1047 27.2042C34.1047 28.4375 33.4411 29.5868 32.3731 30.2034L23.2837 35.4514C23.281 35.453 23.2783 35.4545 23.2756 35.4561C22.9455 35.6454 22.5341 35.3995 22.5341 35.0189V22.8523C22.5341 22.6495 22.6423 22.462 22.8179 22.3606L33.3552 16.2769C33.685 16.0865 34.1037 16.3201 34.1046 16.7009C34.1046 16.7037 34.1046 16.7065 34.1046 16.7093V27.2042H34.1047Z" fill="white"/>
</svg>
