<svg width="14" height="17" viewBox="0 0 14 17" fill="none" xmlns="http://www.w3.org/2000/svg">
<path d="M3.5 5.48047V3.98047C3.52083 2.98047 3.86458 2.15755 4.53125 1.51172C5.17708 0.845052 6 0.501302 7 0.480469C8 0.501302 8.82292 0.845052 9.46875 1.51172C10.1354 2.15755 10.4792 2.98047 10.5 3.98047V5.48047H12.5C12.9167 5.5013 13.2708 5.64714 13.5625 5.91797C13.8333 6.20964 13.9792 6.5638 14 6.98047V13.4805C13.9792 14.3346 13.6875 15.043 13.125 15.6055C12.5625 16.168 11.8542 16.4596 11 16.4805H3C2.14583 16.4596 1.4375 16.168 0.875 15.6055C0.3125 15.043 0.0208333 14.3346 0 13.4805V6.98047C0.0208333 6.5638 0.166667 6.20964 0.4375 5.91797C0.729167 5.64714 1.08333 5.5013 1.5 5.48047H3.5ZM5 5.48047H9V3.98047C8.97917 3.41797 8.78125 2.94922 8.40625 2.57422C8.03125 2.19922 7.5625 2.0013 7 1.98047C6.4375 2.0013 5.96875 2.19922 5.59375 2.57422C5.21875 2.94922 5.02083 3.41797 5 3.98047V5.48047ZM1.5 6.98047V13.4805C1.52083 13.8971 1.66667 14.2513 1.9375 14.543C2.22917 14.8138 2.58333 14.9596 3 14.9805H11C11.4167 14.9596 11.7708 14.8138 12.0625 14.543C12.3333 14.2513 12.4792 13.8971 12.5 13.4805V6.98047H10.5V8.73047C10.4583 9.1888 10.2083 9.4388 9.75 9.48047C9.29167 9.4388 9.04167 9.1888 9 8.73047V6.98047H5V8.73047C4.95833 9.1888 4.70833 9.4388 4.25 9.48047C3.79167 9.4388 3.54167 9.1888 3.5 8.73047V6.98047H1.5Z" fill="#1F242E"/>
</svg>
