<svg width="18" height="18" viewBox="0 0 18 18" fill="none" xmlns="http://www.w3.org/2000/svg">
<path d="M1 1H1.24217C1.66972 1 1.88369 1 2.05808 1.07598C2.21183 1.14297 2.34347 1.25093 2.43827 1.3877C2.54578 1.54281 2.58449 1.74992 2.66211 2.16406L4.6098 12.5556L14.0127 12.5556C14.4229 12.5556 14.6283 12.5555 14.798 12.4843C14.9476 12.4214 15.0771 12.3198 15.1729 12.1903C15.2816 12.0435 15.3274 11.8467 15.4197 11.4531L16.8358 5.40864C16.9752 4.81355 17.045 4.5161 16.9684 4.28234C16.9011 4.07739 16.7602 3.90342 16.5725 3.79282C16.3585 3.66667 16.0489 3.66667 15.4289 3.66667H3.2561M14.5366 17C14.0382 17 13.6342 16.602 13.6342 16.1111C13.6342 15.6202 14.0382 15.2222 14.5366 15.2222C15.035 15.2222 15.4391 15.6202 15.4391 16.1111C15.4391 16.602 15.035 17 14.5366 17ZM5.5122 17C5.0138 17 4.60976 16.602 4.60976 16.1111C4.60976 15.6202 5.0138 15.2222 5.5122 15.2222C6.01061 15.2222 6.41465 15.6202 6.41465 16.1111C6.41465 16.602 6.01061 17 5.5122 17Z" stroke="#2C3C28" stroke-width="1.5" stroke-linecap="round" stroke-linejoin="round"/>
</svg>
