<svg width="1223" height="833" viewBox="0 0 1223 833" fill="none" xmlns="http://www.w3.org/2000/svg">
<mask id="mask0_42_15696" style="mask-type:alpha" maskUnits="userSpaceOnUse" x="0" y="0" width="1223" height="833">
<rect width="1223" height="833" transform="matrix(-1 0 0 1 1223 0)" fill="#D69801"/>
</mask>
<g mask="url(#mask0_42_15696)">
<rect width="252.453" height="925.663" transform="matrix(-0.871332 -0.490694 -0.509365 0.860551 1255 -78.0312)" fill="url(#paint0_linear_42_15696)" fill-opacity="0.5"/>
<rect width="252.453" height="925.663" transform="matrix(-0.871332 -0.490694 -0.509365 0.860551 1569 -366.754)" fill="url(#paint1_linear_42_15696)"/>
<rect width="252.453" height="925.663" transform="matrix(0.871332 0.490693 0.509365 -0.860551 734.529 898.992)" fill="url(#paint2_linear_42_15696)"/>
<rect width="252.453" height="925.663" transform="matrix(0.871332 0.490693 0.509365 -0.860551 420.529 1187.71)" fill="url(#paint3_linear_42_15696)"/>
</g>
<defs>
<linearGradient id="paint0_linear_42_15696" x1="126.227" y1="0" x2="126.227" y2="925.663" gradientUnits="userSpaceOnUse">
<stop stop-color="#1A747B" stop-opacity="0.37"/>
<stop offset="1" stop-opacity="0"/>
</linearGradient>
<linearGradient id="paint1_linear_42_15696" x1="126.227" y1="0" x2="126.227" y2="925.663" gradientUnits="userSpaceOnUse">
<stop stop-color="#1A747B" stop-opacity="0.8"/>
<stop offset="1" stop-opacity="0"/>
</linearGradient>
<linearGradient id="paint2_linear_42_15696" x1="126.227" y1="0" x2="126.227" y2="925.663" gradientUnits="userSpaceOnUse">
<stop stop-color="#1A747B" stop-opacity="0.4"/>
<stop offset="1" stop-opacity="0"/>
</linearGradient>
<linearGradient id="paint3_linear_42_15696" x1="126.227" y1="0" x2="126.227" y2="925.663" gradientUnits="userSpaceOnUse">
<stop stop-color="#1A747B" stop-opacity="0.4"/>
<stop offset="1" stop-opacity="0"/>
</linearGradient>
</defs>
</svg>
