<svg width="65" height="65" viewBox="0 0 65 65" fill="none" xmlns="http://www.w3.org/2000/svg">
<g clip-path="url(#clip0_68_75)">
<path d="M45.5 26V3.25C45.5 1.3 44.2 0 42.25 0H3.25C1.3 0 0 1.3 0 3.25V55.25C0 57.2 1.3 58.5 3.25 58.5H30.875C34.45 62.725 39.65 65 45.5 65C56.225 65 65 56.225 65 45.5C65 34.775 56.225 26 45.5 26ZM6.5 6.5H39V27.3C31.2 29.9 26 37.05 26 45.5C26 47.775 26.325 50.05 26.975 52H6.5V6.5ZM45.5 58.5C38.35 58.5 32.5 52.65 32.5 45.5C32.5 38.35 38.35 32.5 45.5 32.5C52.65 32.5 58.5 38.35 58.5 45.5C58.5 52.65 52.65 58.5 45.5 58.5Z" fill="#1A747B"/>
<path d="M16.25 19.5H29.25C31.2 19.5 32.5 18.2 32.5 16.25C32.5 14.3 30.875 13 29.25 13H16.25C14.3 13 13 14.3 13 16.25C13 18.2 14.3 19.5 16.25 19.5Z" fill="#1A747B"/>
<path d="M32.5 26C32.5 24.05 31.2 22.75 29.25 22.75H16.25C14.3 22.75 13 24.05 13 26C13 27.95 14.3 29.25 16.25 29.25H29.25C30.875 29.25 32.5 27.95 32.5 26Z" fill="#1A747B"/>
<path d="M49.075 39.0004L43.225 45.1754L41.6 43.8754C40.3 42.5754 38.35 42.5754 37.05 43.8754C35.75 45.1754 35.75 47.1254 37.05 48.4254L40.95 52.0004C42.25 53.3004 44.2 53.3004 45.5 52.0004L53.625 43.5504C54.925 42.2504 54.925 40.3004 53.625 39.0004C52.65 37.7004 50.375 37.7004 49.075 39.0004Z" fill="#1A747B"/>
</g>
<defs>
<clipPath id="clip0_68_75">
<rect width="65" height="65" fill="white"/>
</clipPath>
</defs>
</svg>
