<svg width="65" height="65" viewBox="0 0 65 65" fill="none" xmlns="http://www.w3.org/2000/svg">
<g clip-path="url(#clip0_68_85)">
<path d="M14.3563 64.8459C13.5409 64.8459 12.8791 64.3259 12.8791 63.6852V56.9704C12.8791 56.3297 13.5409 55.8097 14.3563 55.8097C15.1718 55.8097 15.8336 56.3297 15.8336 56.9704V63.6852C15.8336 64.3259 15.1718 64.8459 14.3563 64.8459ZM24.4757 63.2035C24.2999 63.2035 24.1226 63.1791 23.9483 63.1269C19.6361 61.8327 16.9342 59.5611 16.7215 57.0482C16.6668 56.4086 17.2828 55.8561 18.0968 55.8132C18.896 55.7552 19.614 56.2531 19.6686 56.8938C19.7986 58.4294 21.8934 60.0243 25.0031 60.9575C25.7653 61.1861 26.1465 61.857 25.8554 62.456C25.6309 62.9191 25.071 63.2035 24.4757 63.2035ZM4.41283 63.2035C3.81896 63.2035 3.2576 62.9191 3.03305 62.456C2.74203 61.857 3.12464 61.1861 3.88544 60.9575C6.94635 60.0382 8.94362 58.491 9.22873 56.8172C9.33658 56.1811 10.0885 55.7424 10.8892 55.8202C11.6973 55.9049 12.266 56.4887 12.1582 57.1248C11.7268 59.6563 9.0293 61.9 4.94169 63.1269C4.76737 63.1779 4.58862 63.2035 4.41283 63.2035Z" fill="#1A747B"/>
<path d="M-0.0383301 52.3822H5.90178V44.8271L-0.0383301 48.488V52.3822Z" fill="#1A747B"/>
<path d="M8.85645 36.0395V55.81H19.8592V36.0395L14.3563 28.6934L8.85645 36.0395ZM17.6699 39.1502C17.6699 40.5199 16.2768 41.7572 14.3563 41.7572C12.6132 41.7572 11.0413 40.5199 11.0413 39.1502C11.0413 37.7806 12.6132 36.5479 14.3563 36.5479C16.2768 36.5491 17.6699 37.7818 17.6699 39.1502Z" fill="#1A747B"/>
<path d="M52.0384 13.0447H62.9496L48.6304 1.79395V10.3693C48.6304 11.92 50.0633 13.0447 52.0384 13.0447Z" fill="#1A747B"/>
<path d="M22.812 44.7998V52.3828H28.9264V48.4955L22.812 44.7998Z" fill="#1A747B"/>
<path d="M52.0385 15.3658C48.4103 15.3658 45.6759 13.2173 45.6759 10.369V0.152344H19.7645C17.5974 0.152344 15.8335 1.53824 15.8335 3.24217V26.0885L22.6083 35.134C22.7412 35.3127 22.8121 35.5158 22.8121 35.7224V41.8696L31.305 47.0034C31.6684 47.2228 31.8811 47.5629 31.8811 47.9227V53.5417C31.8811 54.1824 31.2193 54.7024 30.4038 54.7024H22.8121V55.8086H61.106C63.2362 55.8086 65.037 54.3937 65.037 52.7199V15.3658H52.0385ZM23.4267 13.0444H39.3044C40.1199 13.0444 40.7817 13.5644 40.7817 14.2051C40.7817 14.8458 40.1199 15.3658 39.3044 15.3658H23.4267C22.6112 15.3658 21.9494 14.8458 21.9494 14.2051C21.9494 13.5644 22.6112 13.0444 23.4267 13.0444ZM47.1532 23.8657H23.4267C22.6112 23.8657 21.9494 23.3457 21.9494 22.705C21.9494 22.0643 22.6112 21.5443 23.4267 21.5443H47.1532C47.9686 21.5443 48.6304 22.0643 48.6304 22.705C48.6304 23.3457 47.9686 23.8657 47.1532 23.8657Z" fill="#1A747B"/>
</g>
<defs>
<clipPath id="clip0_68_85">
<rect width="65" height="65" fill="white"/>
</clipPath>
</defs>
</svg>
