<svg width="65" height="65" viewBox="0 0 65 65" fill="none" xmlns="http://www.w3.org/2000/svg">
<g clip-path="url(#clip0_68_96)">
<path d="M17.6081 52.9061L13.41 52.2961C12.9824 52.2341 12.6127 51.9654 12.4215 51.578L10.544 47.7738C10.0625 46.7981 8.67108 46.7981 8.18954 47.7738L6.31204 51.578C6.12084 51.9654 5.75116 52.2341 5.32358 52.2961L1.12549 52.9061C0.0486758 53.0626 -0.381314 54.3859 0.397924 55.1453L3.43578 58.1065C3.74517 58.4082 3.88634 58.8427 3.81334 59.2685L3.09619 63.4497C2.91223 64.5222 4.03792 65.3401 5.00099 64.8336L8.75588 62.8595C9.13839 62.6584 9.5953 62.6584 9.97768 62.8595L13.7326 64.8336C14.6956 65.3399 15.8213 64.5221 15.6374 63.4497L14.9202 59.2685C14.8472 58.8426 14.9884 58.4082 15.2978 58.1065L18.3356 55.1453C19.1148 54.3859 18.6849 53.0626 17.6081 52.9061Z" fill="#1A747B"/>
<path d="M40.7411 52.9061L36.543 52.2961C36.1155 52.2341 35.7458 51.9654 35.5546 51.578L33.6771 47.7738C33.1955 46.7981 31.8041 46.7981 31.3226 47.7738L29.4451 51.578C29.2539 51.9654 28.8842 52.2341 28.4566 52.2961L24.2585 52.9061C23.1817 53.0626 22.7517 54.3859 23.531 55.1453L26.5688 58.1065C26.8782 58.4082 27.0194 58.8427 26.9464 59.2685L26.2292 63.4497C26.0453 64.5222 27.171 65.3401 28.134 64.8336L31.8889 62.8595C32.2714 62.6584 32.7284 62.6584 33.1107 62.8595L36.8656 64.8336C37.8287 65.3399 38.9544 64.5221 38.7704 63.4497L38.0533 59.2685C37.9803 58.8426 38.1214 58.4082 38.4308 58.1065L41.4687 55.1453C42.2479 54.3859 41.8179 53.0626 40.7411 52.9061Z" fill="#1A747B"/>
<path d="M64.602 55.1453C65.3812 54.3858 64.9512 53.0626 63.8744 52.9061L59.6763 52.2961C59.2488 52.2341 58.8791 51.9654 58.6879 51.578L56.8104 47.7738C56.3288 46.7981 54.9374 46.7981 54.4559 47.7738L52.5784 51.578C52.3872 51.9654 52.0175 52.2341 51.5899 52.2961L47.3919 52.9061C46.315 53.0626 45.885 54.3859 46.6643 55.1453L49.702 58.1065C50.0114 58.4082 50.1526 58.8427 50.0796 59.2685L49.3624 63.4497C49.1785 64.5222 50.3042 65.3401 51.2672 64.8336L55.0221 62.8595C55.4046 62.6584 55.8615 62.6584 56.2439 62.8595L59.9988 64.8336C60.9619 65.3399 62.0876 64.5221 61.9036 63.4497L61.1865 59.2685C61.1135 58.8426 61.2546 58.4082 61.564 58.1065L64.602 55.1453Z" fill="#1A747B"/>
<path d="M32.4999 41.2484C43.8866 41.2484 53.1172 32.0177 53.1172 20.6311C53.1172 9.24456 43.8866 0.0136719 32.4999 0.0136719C21.1132 0.0136719 11.8826 9.24443 11.8826 20.631C11.8826 32.0175 21.1132 41.2484 32.4999 41.2484ZM39.0248 12.3365C40.0764 12.3365 40.9291 13.1891 40.9291 14.2408C40.9291 15.2925 40.0764 16.1451 39.0248 16.1451C37.9731 16.1451 37.1205 15.2925 37.1205 14.2408C37.1205 13.1891 37.9731 12.3365 39.0248 12.3365ZM25.975 12.3365C27.0267 12.3365 27.8793 13.1891 27.8793 14.2408C27.8793 15.2925 27.0267 16.1451 25.975 16.1451C24.9233 16.1451 24.0707 15.2925 24.0707 14.2408C24.0707 13.1891 24.9232 12.3365 25.975 12.3365ZM22.5294 23.5496C23.5477 23.2881 24.5859 23.9018 24.8474 24.9205C25.6431 28.0194 29.0135 30.4468 32.5204 30.4468C35.946 30.4468 39.302 28.0052 40.1609 24.8882C40.4402 23.8743 41.4884 23.2791 42.5025 23.558C43.5164 23.8374 44.1119 24.8858 43.8326 25.8997C42.5203 30.6631 37.6571 34.2552 32.5206 34.2552C27.2711 34.2552 22.3864 30.6492 21.1585 25.8676C20.897 24.8491 21.5107 23.8113 22.5294 23.5496Z" fill="#1A747B"/>
</g>
<defs>
<clipPath id="clip0_68_96">
<rect width="65" height="65" fill="white"/>
</clipPath>
</defs>
</svg>
