<svg width="140" height="44" viewBox="0 0 140 44" fill="none" xmlns="http://www.w3.org/2000/svg">
<rect width="44" height="44" rx="22" fill="#0C1E21"/>
<path d="M19.8203 8.46252C20.3544 8.15413 20.9531 8 21.5519 8C22.1507 8 22.7495 8.15419 23.2835 8.46246L32.3729 13.71L32.3801 13.7142C32.7099 13.9051 32.7096 14.3815 32.3795 14.5721L21.8357 20.6595C21.66 20.7609 21.4436 20.7609 21.2679 20.6595L10.7248 14.5721C10.3947 14.3815 10.3944 13.9052 10.7242 13.7142L10.7314 13.7101L19.8202 8.46258L19.8203 8.46252Z" fill="white"/>
<path d="M10.7314 30.2031C9.66347 29.5864 9 28.4372 9 27.204V16.7089C9 16.7061 9 16.7034 9 16.7006C9.00091 16.3199 9.41969 16.0863 9.74943 16.2766L20.2859 22.3602C20.4616 22.4617 20.5698 22.6491 20.5698 22.8519V35.0185C20.5698 35.3991 20.1583 35.645 19.8282 35.4556C19.8256 35.4541 19.8229 35.4526 19.8203 35.4511L10.7314 30.2032V30.2031Z" fill="white"/>
<path d="M34.1048 27.204C34.1048 28.4373 33.4413 29.5865 32.3732 30.2031L23.2838 35.4512C23.2811 35.4527 23.2785 35.4542 23.2757 35.4558C22.9456 35.6452 22.5342 35.3992 22.5342 35.0187V22.852C22.5342 22.6492 22.6424 22.4617 22.8181 22.3603L33.3554 16.2766C33.6851 16.0863 34.1038 16.3199 34.1047 16.7006C34.1047 16.7034 34.1047 16.7062 34.1047 16.709V27.204H34.1048Z" fill="white"/>
<path d="M64.629 33.261C63.0437 33.261 61.6033 33.0193 60.308 32.536C59.0127 32.0527 57.8913 31.347 56.944 30.419C56.016 29.491 55.3007 28.36 54.798 27.026C54.2953 25.6727 54.044 24.1357 54.044 22.415C54.044 20.6943 54.2953 19.167 54.798 17.833C55.3007 16.499 56.016 15.368 56.944 14.44C57.8913 13.512 59.0127 12.8063 60.308 12.323C61.6033 11.8397 63.0437 11.598 64.629 11.598C66.4463 11.598 68.0607 11.917 69.472 12.555C70.8833 13.1737 72.024 14.0437 72.894 15.165C73.7833 16.2863 74.315 17.6107 74.489 19.138H69.907C69.733 18.4033 69.4043 17.7653 68.921 17.224C68.457 16.6633 67.8577 16.2283 67.123 15.919C66.4077 15.6097 65.5763 15.455 64.629 15.455C63.4303 15.455 62.3863 15.716 61.497 16.238C60.6077 16.7407 59.9117 17.514 59.409 18.558C58.9257 19.5827 58.684 20.8683 58.684 22.415C58.684 23.575 58.8193 24.5997 59.09 25.489C59.38 26.359 59.786 27.084 60.308 27.664C60.83 28.244 61.4487 28.679 62.164 28.969C62.8987 29.259 63.7203 29.404 64.629 29.404C65.5377 29.404 66.3593 29.2493 67.094 28.94C67.8287 28.6307 68.4377 28.1957 68.921 27.635C69.4237 27.0743 69.7523 26.4267 69.907 25.692H74.489C74.3343 27.2 73.8123 28.5243 72.923 29.665C72.0337 30.8057 70.8737 31.695 69.443 32.333C68.0317 32.9517 66.427 33.261 64.629 33.261ZM84.0744 33.261C82.8951 33.261 81.8317 33.087 80.8844 32.739C79.9371 32.3717 79.1154 31.84 78.4194 31.144C77.7234 30.448 77.1917 29.607 76.8244 28.621C76.4571 27.6157 76.2734 26.4847 76.2734 25.228C76.2734 23.6233 76.5827 22.2217 77.2014 21.023C77.8201 19.805 78.7094 18.8577 79.8694 18.181C81.0294 17.5043 82.4311 17.166 84.0744 17.166C85.2344 17.166 86.2881 17.3497 87.2354 17.717C88.1827 18.0843 88.9947 18.616 89.6714 19.312C90.3674 20.008 90.8991 20.849 91.2664 21.835C91.6531 22.821 91.8464 23.952 91.8464 25.228C91.8464 26.8133 91.5371 28.215 90.9184 29.433C90.2997 30.6317 89.4104 31.5693 88.2504 32.246C87.1097 32.9227 85.7177 33.261 84.0744 33.261ZM84.0454 29.81C84.7414 29.81 85.3504 29.6457 85.8724 29.317C86.4137 28.969 86.8197 28.4567 87.0904 27.78C87.3804 27.1033 87.5254 26.2527 87.5254 25.228C87.5254 24.4547 87.4481 23.7877 87.2934 23.227C87.1387 22.647 86.9067 22.1637 86.5974 21.777C86.2881 21.3903 85.9207 21.11 85.4954 20.936C85.0701 20.7427 84.5964 20.646 84.0744 20.646C83.3784 20.646 82.7597 20.8103 82.2184 21.139C81.6964 21.4677 81.2904 21.9703 81.0004 22.647C80.7104 23.3237 80.5654 24.184 80.5654 25.228C80.5654 26.0013 80.6427 26.678 80.7974 27.258C80.9714 27.8187 81.2131 28.2923 81.5224 28.679C81.8317 29.0463 82.1991 29.3267 82.6244 29.52C83.0497 29.7133 83.5234 29.81 84.0454 29.81ZM94.617 33V17.456H98.474L98.648 19.95H98.793C99.141 18.9447 99.692 18.2487 100.446 17.862C101.219 17.456 102.099 17.253 103.085 17.253C103.259 17.253 103.414 17.253 103.549 17.253C103.684 17.253 103.82 17.253 103.955 17.253V21.255C103.858 21.255 103.723 21.255 103.549 21.255C103.375 21.255 103.191 21.255 102.998 21.255C102.051 21.255 101.277 21.4 100.678 21.69C100.079 21.9607 99.634 22.3667 99.344 22.908C99.054 23.4493 98.8994 24.1067 98.88 24.88V33H94.617ZM110.538 33L105.231 17.456H109.813L112.22 26.359L113.09 29.752H113.264L114.134 26.359L116.541 17.456H121.152L115.845 33H110.538ZM128.618 33.261C127.671 33.261 126.81 33.087 126.037 32.739C125.264 32.3717 124.597 31.8497 124.036 31.173C123.475 30.477 123.04 29.6263 122.731 28.621C122.441 27.6157 122.296 26.4847 122.296 25.228C122.296 23.5267 122.557 22.0767 123.079 20.878C123.62 19.66 124.365 18.7417 125.312 18.123C126.259 17.485 127.361 17.166 128.618 17.166C129.411 17.166 130.126 17.2917 130.764 17.543C131.402 17.775 131.953 18.1133 132.417 18.558C132.881 18.9833 133.219 19.486 133.432 20.066H133.664L133.838 17.456H137.869V33H133.838L133.664 30.361H133.432C133.123 31.231 132.533 31.9367 131.663 32.478C130.812 33 129.797 33.261 128.618 33.261ZM130.155 29.81C130.928 29.81 131.566 29.6457 132.069 29.317C132.591 28.9883 132.978 28.534 133.229 27.954C133.48 27.374 133.606 26.7167 133.606 25.982V24.445C133.606 23.691 133.471 23.0337 133.2 22.473C132.949 21.893 132.562 21.4387 132.04 21.11C131.537 20.7813 130.948 20.617 130.271 20.617C129.459 20.617 128.782 20.8007 128.241 21.168C127.719 21.5353 127.323 22.067 127.052 22.763C126.781 23.4397 126.646 24.2613 126.646 25.228C126.646 26.156 126.772 26.968 127.023 27.664C127.274 28.36 127.661 28.8917 128.183 29.259C128.705 29.6263 129.362 29.81 130.155 29.81Z" fill="#0C1E21"/>
</svg>
