<svg width="88" height="88" viewBox="0 0 88 88" fill="none" xmlns="http://www.w3.org/2000/svg">
<g clip-path="url(#clip0_645_168)">
<path d="M30.0031 50.3812H38.8035V82.2941H27.3049V51.1991C28.1804 50.9527 29.0798 50.68 30.0031 50.3812ZM66.2253 14.236C66.3501 13.9402 66.5796 13.7021 66.8686 13.5685C67.1577 13.4349 67.4857 13.4154 67.7883 13.5137L70.3557 14.3476L67.3601 3.07817L58.2031 9.4279L61.3604 10.8349C61.6515 10.9644 61.8843 11.1993 62.0132 11.4935C62.1421 11.7877 62.1578 12.1201 62.0572 12.4254C59.7065 19.5718 55.6457 26.1875 49.9893 32.0892C45.4882 36.7851 39.9736 41.0403 33.5967 44.7367C30.8142 46.3465 27.9531 47.813 25.0245 49.1307C27.9829 48.3801 30.8882 47.4291 33.7206 46.284C48.9165 40.1257 59.8522 29.3425 66.2253 14.236ZM53.0471 37.3138C51.7248 38.5003 50.3472 39.6288 48.9143 40.6994V82.2941H60.413V35.9872H54.4723C54.0027 36.4367 53.5302 36.8794 53.0471 37.3138ZM17.1924 62.8654H5.6938V82.2941H17.1924V62.8654ZM82.0233 23.0609H70.5247V82.2941H82.0233V23.0609ZM31.7777 16.2417C31.7777 19.3312 30.8726 22.3513 29.1769 24.92C27.4811 27.4888 25.0709 29.491 22.251 30.6733C19.4311 31.8556 16.3282 32.1649 13.3346 31.5622C10.341 30.9595 7.59123 29.4718 5.43296 27.2872C3.27469 25.1027 1.80488 22.3193 1.20939 19.2893C0.61391 16.2592 0.919498 13.1184 2.08751 10.2641C3.25553 7.40979 5.23351 4.97017 7.77134 3.25373C10.3092 1.53729 13.2928 0.62113 16.3451 0.621094C20.4366 0.625683 24.3593 2.27289 27.2525 5.20132C30.1457 8.12976 31.7731 12.1003 31.7777 16.2417ZM26.2891 10.466C26.2165 10.1811 26.0713 9.92041 25.868 9.71003C25.6647 9.49966 25.4105 9.34692 25.1307 9.26706C24.9804 9.22465 24.825 9.20324 24.6689 9.20342C24.0949 9.20342 23.507 9.48471 22.9706 10.015L14.1142 18.7425C14.0113 18.8437 13.8731 18.8999 13.7296 18.8989C13.586 18.8979 13.4486 18.8398 13.3471 18.7372L9.6735 15.0265C9.1731 14.5204 8.61475 14.253 8.0595 14.253C7.9114 14.2529 7.76394 14.2725 7.62087 14.3112C7.32965 14.3911 7.0642 14.5469 6.85102 14.763C6.63784 14.9792 6.48438 15.2481 6.40595 15.543C6.22372 16.2351 6.47538 16.9723 7.11519 17.6188L12.0077 22.5621C12.2323 22.79 12.4994 22.9704 12.7934 23.0931C13.0875 23.2158 13.4026 23.2783 13.7206 23.2769C14.3532 23.2792 14.9614 23.0293 15.4133 22.5813L25.5021 12.634C26.1913 11.9525 26.4706 11.1822 26.2891 10.466ZM87.4098 86.0862C87.4098 85.7438 87.2754 85.4153 87.0362 85.1732C86.797 84.9311 86.4725 84.795 86.1342 84.795H0.80551C0.467199 84.795 0.142744 84.9311 -0.0964774 85.1732C-0.335699 85.4153 -0.470093 85.7438 -0.470093 86.0862C-0.470093 86.4286 -0.335699 86.757 -0.0964774 86.9992C0.142744 87.2413 0.467199 87.3774 0.80551 87.3774H86.1342C86.4725 87.3774 86.797 87.2413 87.0362 86.9992C87.2754 86.757 87.4098 86.4286 87.4098 86.0862Z" fill="#1A747B"/>
</g>
<defs>
<clipPath id="clip0_645_168">
<rect width="88" height="88" fill="white"/>
</clipPath>
</defs>
</svg>
