<svg width="88" height="88" viewBox="0 0 88 88" fill="none" xmlns="http://www.w3.org/2000/svg">
<g clip-path="url(#clip0_645_171)">
<path fill-rule="evenodd" clip-rule="evenodd" d="M6.28208 42.3057C4.63512 32.6702 14.2666 26.4969 21.6646 28.3956C24.3643 29.0834 26.479 30.734 27.8203 33.1757C28.0334 33.3543 34.061 34.9039 32.8066 40.122C32.7881 40.199 32.7705 40.2757 32.7536 40.3524C32.0543 39.2832 31.1643 38.2615 30.55 37.6129C29.0192 35.997 25.88 33.1197 23.5278 34.7808C23.1823 35.0249 22.9035 35.3391 22.7078 35.7145C22.0582 36.9601 22.7308 37.8111 21.7219 38.9457C21.0176 39.7376 19.771 40.0307 18.7129 40.1314C14.4763 38.4398 9.27372 38.6174 6.28208 42.3057Z" fill="#1A747B"/>
<path fill-rule="evenodd" clip-rule="evenodd" d="M19.5843 62.0448C12.6207 62.0448 6.94655 56.3707 6.94655 49.4071C6.94655 48.5714 6.79044 44.5982 7.10124 44.1112C9.85253 39.6064 15.578 40.638 18.4324 41.8761C20.5128 41.7557 22.0603 41.154 23.0061 40.0879C24.6809 38.2095 23.5964 36.8364 24.5193 36.1847C26.4021 34.8549 32.016 41.3197 32.1193 43.0452C32.2474 45.1883 32.1826 47.2691 32.1879 49.4414C32.222 56.3705 26.5479 62.0448 19.5843 62.0448Z" fill="#1A747B"/>
<path fill-rule="evenodd" clip-rule="evenodd" d="M20.9309 65.9303H18.203L16.025 77.1409L19.567 79.3418L23.1089 77.1409L20.9309 65.9303ZM38.154 87.6295H32.4283V78.1211C32.4283 76.7638 30.3648 76.7638 30.3648 78.1211V87.6295H8.80344V77.399C8.80344 76.0417 6.73993 76.0417 6.73993 77.399V87.6295H1.0315C0.464104 87.6295 -0.000366211 87.1652 -0.000366211 86.5978V74.5102C-0.000366211 67.8828 4.45817 62.2791 10.5334 60.5396C12.0862 61.8047 13.9069 62.7521 15.8958 63.282L16.3101 64.9245L13.8929 77.4503C13.8069 77.863 13.9961 78.293 14.357 78.5163C15.1526 79.0112 18.9599 81.5942 19.5841 81.5942C20.1578 81.5942 24.012 78.9923 24.7767 78.5163C25.1379 78.2928 25.3269 77.8628 25.241 77.4503L22.8384 65.0012L23.2723 63.2814C25.2619 62.7509 27.0842 61.8019 28.6372 60.5352C34.7204 62.2696 39.1856 67.8773 39.1856 74.5103V86.5979C39.1854 87.1823 38.7212 87.6295 38.154 87.6295Z" fill="#1A747B"/>
<path fill-rule="evenodd" clip-rule="evenodd" d="M44 33.7261C34.8012 33.7261 27.3215 26.2467 27.3215 17.0476C27.3215 7.84878 34.801 0.369141 44 0.369141C53.1989 0.369141 60.6785 7.84857 60.6785 17.0476C60.6785 26.2294 53.1989 33.7261 44 33.7261ZM41.094 22.5841C40.819 22.5841 40.5612 22.481 40.3722 22.2747L37.1396 19.0594C36.1986 18.1209 37.6081 16.6256 38.601 17.5978L41.0941 20.0909L49.3991 11.786C50.3469 10.8382 51.8209 12.2665 50.8605 13.2476L41.8336 22.2746C41.6274 22.4638 41.3691 22.5841 41.094 22.5841Z" fill="#1A747B"/>
<path fill-rule="evenodd" clip-rule="evenodd" d="M55.0965 42.3057C53.4496 32.6702 63.081 26.4969 70.4791 28.3956C73.1788 29.0834 75.2935 30.734 76.6347 33.1757C76.8479 33.3543 82.8754 34.9039 81.6211 40.122C81.6026 40.199 81.5849 40.2757 81.5681 40.3524C80.8687 39.2832 79.9788 38.2615 79.3645 37.6129C77.8336 35.997 74.6944 33.1197 72.3422 34.7808C71.9967 35.0249 71.718 35.3391 71.5223 35.7145C70.8727 36.9601 71.5452 37.8111 70.5363 38.9457C69.8321 39.7376 68.5855 40.0307 67.5274 40.1314C63.2907 38.4398 58.0882 38.6174 55.0965 42.3057Z" fill="#1A747B"/>
<path fill-rule="evenodd" clip-rule="evenodd" d="M68.3986 62.0448C61.435 62.0448 55.7609 56.3707 55.7609 49.4071C55.7609 48.5714 55.6048 44.5982 55.9156 44.1112C58.6669 39.6064 64.3923 40.638 67.2468 41.8761C69.3272 41.7557 70.8746 41.154 71.8204 40.0879C73.4952 38.2095 72.4108 36.8364 73.3336 36.1847C75.2165 34.8549 80.8303 41.3197 80.9336 43.0452C81.0617 45.1883 80.9969 47.2691 81.0022 49.4414C81.0363 56.3705 75.3622 62.0448 68.3986 62.0448Z" fill="#1A747B"/>
<path fill-rule="evenodd" clip-rule="evenodd" d="M69.7453 65.9303H67.0173L64.8393 77.1409L68.3813 79.3418L71.9233 77.1409L69.7453 65.9303ZM86.9683 87.6295H81.2427V78.1211C81.2427 76.7638 79.1791 76.7638 79.1791 78.1211V87.6295H57.6178V77.399C57.6178 76.0417 55.5543 76.0417 55.5543 77.399V87.6295H49.8458C49.2784 87.6295 48.814 87.1652 48.814 86.5978V74.5102C48.814 67.8828 53.2725 62.2791 59.3478 60.5396C60.9005 61.8047 62.7213 62.7521 64.7101 63.282L65.1244 64.9245L62.7073 77.4503C62.6212 77.863 62.8104 78.293 63.1713 78.5163C63.9669 79.0112 67.7742 81.5942 68.3984 81.5942C68.9721 81.5942 72.8263 78.9923 73.591 78.5163C73.9522 78.2928 74.1412 77.8628 74.0553 77.4503L71.6528 65.0012L72.0866 63.2814C74.0762 62.7509 75.8986 61.8019 77.4515 60.5352C83.5347 62.2696 88 67.8773 88 74.5103V86.5979C87.9998 87.1823 87.5355 87.6295 86.9683 87.6295Z" fill="#1A747B"/>
</g>
<defs>
<clipPath id="clip0_645_171">
<rect width="88" height="88" fill="white"/>
</clipPath>
</defs>
</svg>
