<svg width="88" height="63" viewBox="0 0 88 63" fill="none" xmlns="http://www.w3.org/2000/svg">
<path opacity="0.1" d="M68.8906 62.75C58.5391 62.75 50.1406 54.3516 50.1406 44L50.1406 25.25C50.1406 11.3828 61.4687 0.250002 75.1406 0.25C78.6562 0.25 81.3906 2.98437 81.3906 6.5C81.3906 9.82031 78.6563 12.75 75.1406 12.75C68.3047 12.75 62.6406 18.2188 62.6406 25.25L62.6406 26.2266C64.7891 25.6406 66.7422 25.25 68.8906 25.25C79.4375 25.25 87.6406 33.4531 87.6406 44C87.6406 54.3516 79.4375 62.75 68.8906 62.75ZM0.140628 44L0.140626 25.25C0.140625 11.3828 11.4687 0.250006 25.1406 0.250005C28.6562 0.250004 31.3906 2.98438 31.3906 6.5C31.3906 9.82032 28.6563 12.75 25.1406 12.75C18.3047 12.75 12.6406 18.2188 12.6406 25.25L12.6406 26.2266C14.7891 25.6406 16.7422 25.25 18.8906 25.25C29.4375 25.25 37.6406 33.4531 37.6406 44C37.6406 54.3516 29.4375 62.75 18.8906 62.75C8.53907 62.75 0.140629 54.3516 0.140628 44Z" fill="#717580"/>
</svg>
