<svg width="71" height="49" viewBox="0 0 71 49" fill="none" xmlns="http://www.w3.org/2000/svg">
<rect width="38" height="1" transform="matrix(1 0 0 -1 10 25)" fill="#1A747B"/>
<path d="M22 24L21.9397 25.1498L21.7596 26.287L21.4616 27.3992L21.049 28.4741L20.5263 29.5L19.8992 30.4656L19.1746 31.3604L18.3604 32.1746L17.4656 32.8992L16.5 33.5263L15.4741 34.049L14.3992 34.4616L13.287 34.7596L12.1498 34.9397L11 35L9.85019 34.9397L8.71297 34.7596L7.60081 34.4616L6.5259 34.049L5.5 33.5263L4.53436 32.8992L3.63956 32.1746L2.82541 31.3604L2.10081 30.4656L1.47372 29.5L0.951 28.4741L0.53838 27.3992L0.240376 26.287L0.0602589 25.1498L0 24L0.0602589 22.8502L0.240376 21.713L0.53838 20.6008L0.951 19.5259L1.47372 18.5L2.10081 17.5344L2.82541 16.6396L3.63956 15.8254L4.53436 15.1008L5.5 14.4737L6.5259 13.951L7.60081 13.5384L8.71297 13.2404L9.85019 13.0603L11 13L12.1498 13.0603L13.287 13.2404L14.3992 13.5384L15.4741 13.951L16.5 14.4737L17.4656 15.1008L18.3604 15.8254L19.1746 16.6396L19.8992 17.5344L20.5263 18.5L21.049 19.5259L21.4616 20.6008L21.7596 21.713L21.9397 22.8502L22 24Z" fill="#1A747B" fill-opacity="0.08"/>
<path d="M15 24L14.9781 24.4181L14.9126 24.8316L14.8042 25.2361L14.6542 25.6269L14.4641 26L14.2361 26.3511L13.9726 26.6765L13.6765 26.9726L13.3511 27.2361L13 27.4641L12.6269 27.6542L12.2361 27.8042L11.8316 27.9126L11.4181 27.9781L11 28L10.5819 27.9781L10.1684 27.9126L9.76393 27.8042L9.37305 27.6542L9 27.4641L8.64886 27.2361L8.32348 26.9726L8.02742 26.6765L7.76393 26.3511L7.5359 26L7.34582 25.6269L7.19577 25.2361L7.08741 24.8316L7.02191 24.4181L7 24L7.02191 23.5819L7.08741 23.1684L7.19577 22.7639L7.34582 22.3731L7.5359 22L7.76393 21.6489L8.02742 21.3235L8.32348 21.0274L8.64886 20.7639L9 20.5359L9.37305 20.3458L9.76393 20.1958L10.1684 20.0874L10.5819 20.0219L11 20L11.4181 20.0219L11.8316 20.0874L12.2361 20.1958L12.6269 20.3458L13 20.5359L13.3511 20.7639L13.6765 21.0274L13.9726 21.3235L14.2361 21.6489L14.4641 22L14.6542 22.3731L14.8042 22.7639L14.9126 23.1684L14.9781 23.5819L15 24Z" fill="#1A747B"/>
<path d="M70.1738 24.0873L34.0429 44.9475V3.22709L70.1738 24.0873Z" fill="#1A747B" fill-opacity="0.08"/>
<path d="M58 24L40 34.3923V13.6077L58 24Z" fill="#1A747B"/>
</svg>
