<svg width="60" height="60" viewBox="0 0 60 60" fill="none" xmlns="http://www.w3.org/2000/svg">
<g clip-path="url(#clip0_64_35)">
<path fill-rule="evenodd" clip-rule="evenodd" d="M21.0092 0.0302734C19.6678 0.0302734 18.5196 0.933527 18.1431 2.15899C16.9176 2.53554 16.0144 3.68383 16.0144 5.02515V10.02H4.02666C1.83022 10.02 0.0307617 11.8195 0.0307617 14.0159V25.0047C0.0307617 26.4743 0.837654 27.764 2.02871 28.4581V48.9801C2.02871 51.1765 3.82817 52.976 6.02461 52.976H20.0103V56.9719C20.0103 58.6152 21.3639 59.9688 23.0072 59.9688H29.001C30.6444 59.9688 31.998 58.6152 31.998 56.9719V52.976H33.9959V56.9719C33.9959 58.6152 35.3495 59.9688 36.9929 59.9688H42.9867C44.63 59.9688 45.9836 58.6152 45.9836 56.9719V52.976H47.9816V56.9719C47.9816 58.6152 49.3352 59.9688 50.9785 59.9688H56.9724C58.6157 59.9688 59.9693 58.6152 59.9693 56.9719V34.9944C59.9693 33.3514 58.6154 31.9975 56.9724 31.9975H52.9765V28.4581C54.1675 27.764 54.9744 26.4743 54.9744 25.0047V14.0159C54.9744 11.8195 53.175 10.02 50.9785 10.02H38.9908V5.02515C38.9908 3.68373 38.0875 2.5355 36.8621 2.15899C36.4855 0.933547 35.3373 0.0302734 33.9959 0.0302734H21.0092ZM18.3069 4.30319C18.7907 5.31485 19.8223 6.02413 21.0092 6.02413H33.9959C35.1829 6.02413 36.2145 5.31494 36.6983 4.30319C36.882 4.48214 36.9929 4.73503 36.9929 5.02511V10.02H18.0123V5.02511C18.0123 4.73503 18.1232 4.48214 18.3069 4.30319ZM4.02656 12.018H17.0132H37.9917H50.9784C52.1026 12.018 52.9764 12.8918 52.9764 14.0159V25.0047C52.9764 26.1288 52.1026 27.0026 50.9784 27.0026H34.9948C34.9948 24.8062 33.1953 23.0067 30.9989 23.0067H24.0061C21.8096 23.0067 20.0102 24.8062 20.0102 27.0026H4.02656C2.90242 27.0026 2.02861 26.1288 2.02861 25.0047V14.0159C2.02861 12.8918 2.90242 12.018 4.02656 12.018ZM4.02656 29.0006H20.0102C20.0102 31.197 21.8096 32.9965 24.0061 32.9965H30.9989C33.1953 32.9965 34.9948 31.197 34.9948 29.0006H50.9784V31.9975C49.3354 31.9975 47.9815 33.3514 47.9815 34.9944V50.978H45.9835V40.9883C45.9835 39.3453 44.6296 37.9913 42.9866 37.9913H36.9928C35.3497 37.9913 33.9958 39.3453 33.9958 40.9883V50.978H31.9979V46.9821C31.9979 45.3391 30.644 43.9852 29.001 43.9852H23.0071C21.3641 43.9852 20.0102 45.3391 20.0102 46.9821V50.978H6.02451C4.90037 50.978 4.02656 50.1042 4.02656 48.9801V29.0006Z" fill="#1A747B"/>
</g>
<defs>
<clipPath id="clip0_64_35">
<rect width="60" height="60" fill="white"/>
</clipPath>
</defs>
</svg>
