<svg width="60" height="60" viewBox="0 0 60 60" fill="none" xmlns="http://www.w3.org/2000/svg">
<path d="M24.5122 16.7614L26.9937 14.28C27.3595 13.9141 27.9526 13.9141 28.3185 14.28L30.0545 16.0159L32.8322 13.2382H32.2569C31.7395 13.2382 31.3201 12.8188 31.3201 12.3014C31.3201 11.784 31.7395 11.3646 32.2569 11.3646H35.0931C35.1242 11.3646 35.1553 11.3662 35.1863 11.3693C35.1991 11.3706 35.2114 11.3729 35.2241 11.3748C35.2417 11.3773 35.2594 11.3794 35.2769 11.3829C35.292 11.3859 35.3067 11.39 35.3216 11.3938C35.3363 11.3974 35.3511 11.4007 35.3658 11.4052C35.3806 11.4096 35.3951 11.4152 35.4096 11.4205C35.4238 11.4255 35.4382 11.4302 35.4521 11.4361C35.466 11.4418 35.4793 11.4486 35.4928 11.455C35.507 11.4616 35.5213 11.468 35.5351 11.4754C35.5483 11.4824 35.5609 11.4905 35.5737 11.4982C35.587 11.5062 35.6006 11.5138 35.6136 11.5225C35.6281 11.5322 35.6419 11.543 35.6558 11.5534C35.6662 11.5612 35.677 11.5685 35.6872 11.577C35.7351 11.6162 35.779 11.66 35.8182 11.708C35.8265 11.718 35.8337 11.7287 35.8415 11.7391C35.8521 11.7532 35.863 11.767 35.8727 11.7816C35.8813 11.7943 35.8886 11.8077 35.8965 11.8207C35.9044 11.8338 35.9126 11.8466 35.9198 11.8602C35.927 11.8736 35.9331 11.8874 35.9395 11.9011C35.9462 11.915 35.9531 11.9289 35.9591 11.9433C35.9646 11.9566 35.969 11.9704 35.974 11.9839C35.9795 11.9992 35.9852 12.0142 35.9899 12.0298C35.994 12.0434 35.997 12.0573 36.0006 12.071C36.0045 12.0868 36.009 12.1025 36.0122 12.1186C36.0153 12.1344 36.0171 12.1505 36.0194 12.1664C36.0215 12.1807 36.0242 12.1948 36.0256 12.2092C36.0285 12.2381 36.0299 12.2672 36.0301 12.2963C36.0301 12.298 36.0303 12.2996 36.0303 12.3014V15.3742C36.0303 15.8916 35.6109 16.311 35.0935 16.311C34.5762 16.311 34.1567 15.8916 34.1567 15.3742V14.563L30.7167 18.003C30.3508 18.3689 29.7578 18.3689 29.3919 18.003L27.6559 16.2671L25.8369 18.0861C25.654 18.2691 25.4143 18.3605 25.1746 18.3605C24.9348 18.3605 24.6951 18.2691 24.5122 18.0861C24.1463 17.7203 24.1463 17.1272 24.5122 16.7613V16.7614ZM59.1737 54.0505V58.1264C59.1737 58.6438 58.7543 59.0632 58.2369 59.0632H5.97432C5.45693 59.0632 5.03752 58.6438 5.03752 58.1264V54.0505C5.03752 53.5331 5.45693 53.1137 5.97432 53.1137H6.99408V47.0912C6.99408 46.5738 7.4135 46.1544 7.93088 46.1544H15.9399C16.4573 46.1544 16.8767 46.5738 16.8767 47.0912V53.1137H20.4411V33.7308C20.4411 33.2134 20.8605 32.794 21.3779 32.794H29.3869C29.9042 32.794 30.3237 33.2134 30.3237 33.7308V53.1137H33.888V35.7969C33.888 35.2795 34.3074 34.8601 34.8248 34.8601H42.8338C43.3512 34.8601 43.7706 35.2795 43.7706 35.7969V53.1137H47.3349V14.6168C47.3349 14.0994 47.7544 13.68 48.2717 13.68H56.2807C56.7981 13.68 57.2175 14.0994 57.2175 14.6168V53.1137H58.2372C58.7546 53.1137 59.174 53.5331 59.174 54.0505H59.1737ZM57.3002 54.9873H6.91111V57.1896H57.3002V54.9873ZM6.20213 44.0432L1.80396 39.6451C1.31857 39.1597 1.05127 38.5127 1.05127 37.8233C1.05127 37.1339 1.31857 36.487 1.80396 36.0016L10.6036 27.202C11.4882 26.3175 12.8608 26.2129 13.8621 26.8863L18.0292 22.7166C16.7553 20.5651 16.0228 18.0572 16.0228 15.3809C16.0228 7.4168 22.5021 0.9375 30.4662 0.9375C38.4302 0.9375 44.9095 7.4168 44.9095 15.3809C44.9095 23.3449 38.4302 29.8242 30.4662 29.8242C27.7899 29.8242 25.2819 29.0917 23.1305 27.8179L18.9614 31.9843C19.245 32.4052 19.3978 32.9012 19.3978 33.4218C19.3978 34.1112 19.1305 34.758 18.6451 35.2434L9.84549 44.043C9.34322 44.5452 8.68346 44.7964 8.02381 44.7964C7.36416 44.7964 6.70439 44.5453 6.20213 44.043V44.0432ZM24.967 9.88078C23.4968 11.3496 22.6874 13.3027 22.6874 15.3809C22.6874 17.4591 23.4967 19.412 24.9663 20.8801L24.9669 20.8808C26.435 22.3505 28.3881 23.1598 30.4662 23.1598C32.5442 23.1598 34.4973 22.3504 35.9655 20.8808C37.4358 19.412 38.2452 17.4589 38.2452 15.3809C38.2452 13.3028 37.4358 11.3497 35.9662 9.88148C34.4974 8.41125 32.5444 7.60184 30.4662 7.60184C28.3879 7.60184 26.435 8.41125 24.9669 9.88078H24.967ZM15.2216 28.1763L17.6708 30.6257L21.5571 26.7417C20.6455 26.0252 19.8219 25.2016 19.1054 24.29L15.2215 28.1764L15.2216 28.1763Z" fill="#1A747B"/>
</svg>
