<svg width="88" height="88" viewBox="0 0 88 88" fill="none" xmlns="http://www.w3.org/2000/svg">
<g clip-path="url(#clip0_719_74)">
<path d="M65.9999 53.4277C63.5135 53.4277 61.083 54.165 59.0156 55.5464C56.9482 56.9278 55.3369 58.8912 54.3854 61.1883C53.4339 63.4854 53.185 66.0131 53.67 68.4517C54.1551 70.8903 55.3524 73.1304 57.1106 74.8885C58.8687 76.6466 61.1087 77.844 63.5473 78.329C65.986 78.8141 68.5136 78.5652 70.8108 77.6136C73.1079 76.6621 75.0713 75.0508 76.4527 72.9835C77.834 70.9161 78.5713 68.4856 78.5713 65.9992C78.5668 62.6664 77.2408 59.4715 74.8842 57.1149C72.5276 54.7583 69.3326 53.4323 65.9999 53.4277ZM65.9999 64.4277C67.1055 64.4363 68.1728 64.8332 69.0155 65.549C69.8581 66.2648 70.4223 67.2539 70.6095 68.3436C70.7968 69.4332 70.595 70.554 70.0397 71.51C69.4843 72.466 68.6106 73.1963 67.5713 73.5734V75.4277C67.5713 75.8445 67.4058 76.2442 67.1111 76.5389C66.8164 76.8336 66.4167 76.9992 65.9999 76.9992C65.5831 76.9992 65.1834 76.8336 64.8887 76.5389C64.594 76.2442 64.4285 75.8445 64.4285 75.4277V73.5734C63.5127 73.2473 62.7197 72.6469 62.1574 71.854C61.595 71.061 61.2906 70.1141 61.2856 69.142C61.2856 68.7253 61.4512 68.3256 61.7459 68.0309C62.0406 67.7362 62.4403 67.5706 62.857 67.5706C63.2738 67.5706 63.6735 67.7362 63.9682 68.0309C64.2629 68.3256 64.4285 68.7253 64.4285 69.142C64.4285 69.4528 64.5206 69.7566 64.6933 70.0151C64.866 70.2735 65.1114 70.4749 65.3985 70.5938C65.6857 70.7128 66.0016 70.7439 66.3065 70.6833C66.6113 70.6226 66.8913 70.473 67.1111 70.2532C67.3308 70.0334 67.4805 69.7534 67.5411 69.4486C67.6018 69.1438 67.5706 68.8278 67.4517 68.5407C67.3328 68.2535 67.1314 68.0081 66.8729 67.8354C66.6145 67.6628 66.3107 67.5706 65.9999 67.5706C64.8943 67.562 63.827 67.1651 62.9843 66.4494C62.1417 65.7336 61.5775 64.7444 61.3903 63.6548C61.2031 62.5651 61.4048 61.4444 61.9601 60.4884C62.5155 59.5324 63.3892 58.802 64.4285 58.4249V56.5706C64.4285 56.1538 64.594 55.7541 64.8887 55.4594C65.1834 55.1647 65.5831 54.9992 65.9999 54.9992C66.4167 54.9992 66.8164 55.1647 67.1111 55.4594C67.4058 55.7541 67.5713 56.1538 67.5713 56.5706V58.4249C68.4871 58.751 69.2801 59.3514 69.8424 60.1444C70.4048 60.9373 70.7092 61.8842 70.7142 62.8563C70.7142 63.2731 70.5486 63.6728 70.2539 63.9675C69.9592 64.2622 69.5595 64.4277 69.1428 64.4277C68.726 64.4277 68.3263 64.2622 68.0316 63.9675C67.7369 63.6728 67.5713 63.2731 67.5713 62.8563C67.5713 62.5455 67.4792 62.2417 67.3065 61.9833C67.1338 61.7248 66.8884 61.5234 66.6013 61.4045C66.3141 61.2856 65.9982 61.2544 65.6933 61.3151C65.3885 61.3757 65.1085 61.5254 64.8887 61.7451C64.669 61.9649 64.5193 62.2449 64.4587 62.5497C64.398 62.8546 64.4292 63.1705 64.5481 63.4577C64.667 63.7448 64.8684 63.9902 65.1269 64.1629C65.3853 64.3356 65.6891 64.4277 65.9999 64.4277Z" fill="#1A747B"/>
<path d="M66 44C61.6488 44 57.3953 45.2903 53.7775 47.7077C50.1596 50.1251 47.3398 53.561 45.6747 57.581C44.0095 61.6009 43.5739 66.0244 44.4227 70.292C45.2716 74.5596 47.3669 78.4796 50.4437 81.5563C53.5204 84.6331 57.4404 86.7284 61.708 87.5773C65.9756 88.4262 70.3991 87.9905 74.419 86.3254C78.439 84.6602 81.875 81.8404 84.2923 78.2225C86.7097 74.6047 88 70.3512 88 66C87.9938 60.1672 85.6739 54.575 81.5495 50.4505C77.425 46.3261 71.8329 44.0062 66 44ZM66 81.7143C62.892 81.7143 59.8538 80.7927 57.2696 79.066C54.6854 77.3392 52.6713 74.885 51.4819 72.0136C50.2925 69.1422 49.9813 65.9826 50.5877 62.9343C51.194 59.886 52.6907 57.086 54.8883 54.8883C57.086 52.6906 59.886 51.194 62.9343 50.5877C65.9826 49.9813 69.1422 50.2925 72.0136 51.4819C74.885 52.6713 77.3393 54.6854 79.066 57.2696C80.7927 59.8538 81.7143 62.892 81.7143 66C81.7076 70.1656 80.0499 74.1588 77.1043 77.1043C74.1588 80.0499 70.1657 81.7076 66 81.7143Z" fill="#1A747B"/>
<path d="M47.1429 6.28578H39.1286C38.7679 4.50961 37.8043 2.91275 36.401 1.76576C34.9977 0.618766 33.241 -0.0078125 31.4286 -0.0078125C29.6162 -0.0078125 27.8595 0.618766 26.4562 1.76576C25.0529 2.91275 24.0892 4.50961 23.7286 6.28578H15.7143C14.464 6.28578 13.2649 6.78246 12.3808 7.66656C11.4967 8.55066 11 9.74976 11 11.0001V14.1429C11 15.3932 11.4967 16.5923 12.3808 17.4764C13.2649 18.3605 14.464 18.8572 15.7143 18.8572H47.1429C48.3932 18.8572 49.5923 18.3605 50.4764 17.4764C51.3605 16.5923 51.8571 15.3932 51.8571 14.1429V11.0001C51.8571 9.74976 51.3605 8.55066 50.4764 7.66656C49.5923 6.78246 48.3932 6.28578 47.1429 6.28578Z" fill="#1A747B"/>
<path d="M12.5715 40.8564H18.8588V47.1422H12.5715V40.8564Z" fill="#1A747B"/>
<path d="M28.2856 36.1426H34.5729V47.1426H28.2856V36.1426Z" fill="#1A747B"/>
<path d="M50.2857 29.8564V46.3879C49.9871 46.6236 49.6886 46.875 49.4057 47.1422H44V29.8564H50.2857Z" fill="#1A747B"/>
<path d="M55 11V14.1429C55 16.2267 54.1722 18.2252 52.6987 19.6987C51.2252 21.1722 49.2267 22 47.1429 22H15.7143C13.6304 22 11.6319 21.1722 10.1584 19.6987C8.68495 18.2252 7.85714 16.2267 7.85714 14.1429V11C5.7733 11 3.7748 11.8278 2.3013 13.3013C0.827804 14.7748 0 16.7733 0 18.8571V78.5714C0 80.6553 0.827804 82.6538 2.3013 84.1273C3.7748 85.6008 5.7733 86.4286 7.85714 86.4286H51.37C48.5903 84.4438 46.245 81.9124 44.4777 78.9896C42.7105 76.0668 41.5584 72.814 41.092 69.4304C40.6257 66.0468 40.8549 62.6037 41.7656 59.3118C42.6764 56.0198 44.2494 52.9485 46.3886 50.2857H44C43.1672 50.2832 42.3693 49.9513 41.7804 49.3624C41.1915 48.7736 40.8596 47.9756 40.8571 47.1429V29.8571C40.8596 29.0244 41.1915 28.2264 41.7804 27.6376C42.3693 27.0487 43.1672 26.7168 44 26.7143H50.2857C51.1185 26.7168 51.9164 27.0487 52.5053 27.6376C53.0942 28.2264 53.4261 29.0244 53.4286 29.8571V44.2514C56.32 42.554 59.5291 41.4682 62.8571 41.0614V18.8571C62.8571 16.7733 62.0293 14.7748 60.5558 13.3013C59.0823 11.8278 57.0838 11 55 11ZM25.1429 36.1429C25.1453 35.3101 25.4773 34.5121 26.0661 33.9233C26.655 33.3344 27.4529 33.0025 28.2857 33H34.5714C35.4042 33.0025 36.2022 33.3344 36.791 33.9233C37.3799 34.5121 37.7118 35.3101 37.7143 36.1429V47.1429C37.7118 47.9756 37.3799 48.7736 36.791 49.3624C36.2022 49.9513 35.4042 50.2832 34.5714 50.2857H28.2857C27.4529 50.2832 26.655 49.9513 26.0661 49.3624C25.4773 48.7736 25.1453 47.9756 25.1429 47.1429V36.1429ZM23.5714 58.1429H28.2857C28.7025 58.1429 29.1022 58.3084 29.3969 58.6031C29.6916 58.8978 29.8571 59.2975 29.8571 59.7143C29.8571 60.1311 29.6916 60.5308 29.3969 60.8255C29.1022 61.1202 28.7025 61.2857 28.2857 61.2857H23.5714C23.1547 61.2857 22.755 61.1202 22.4603 60.8255C22.1656 60.5308 22 60.1311 22 59.7143C22 59.2975 22.1656 58.8978 22.4603 58.6031C22.755 58.3084 23.1547 58.1429 23.5714 58.1429ZM9.42857 40.8571C9.43106 40.0244 9.76298 39.2264 10.3518 38.6376C10.9407 38.0487 11.7387 37.7168 12.5714 37.7143H18.8571C19.6899 37.7168 20.4879 38.0487 21.0767 38.6376C21.6656 39.2264 21.9975 40.0244 22 40.8571V47.1429C21.9975 47.9756 21.6656 48.7736 21.0767 49.3624C20.4879 49.9513 19.6899 50.2832 18.8571 50.2857H12.5714C11.7387 50.2832 10.9407 49.9513 10.3518 49.3624C9.76298 48.7736 9.43106 47.9756 9.42857 47.1429V40.8571ZM9.42857 58.1429H18.8571C19.2739 58.1429 19.6736 58.3084 19.9683 58.6031C20.263 58.8978 20.4286 59.2975 20.4286 59.7143C20.4286 60.1311 20.263 60.5308 19.9683 60.8255C19.6736 61.1202 19.2739 61.2857 18.8571 61.2857H9.42857C9.0118 61.2857 8.6121 61.1202 8.3174 60.8255C8.0227 60.5308 7.85714 60.1311 7.85714 59.7143C7.85714 59.2975 8.0227 58.8978 8.3174 58.6031C8.6121 58.3084 9.0118 58.1429 9.42857 58.1429ZM9.42857 66H12.5714C12.9882 66 13.3879 66.1656 13.6826 66.4603C13.9773 66.755 14.1429 67.1547 14.1429 67.5714C14.1429 67.9882 13.9773 68.3879 13.6826 68.6826C13.3879 68.9773 12.9882 69.1429 12.5714 69.1429H9.42857C9.0118 69.1429 8.6121 68.9773 8.3174 68.6826C8.0227 68.3879 7.85714 67.9882 7.85714 67.5714C7.85714 67.1547 8.0227 66.755 8.3174 66.4603C8.6121 66.1656 9.0118 66 9.42857 66ZM18.8571 77H9.42857C9.0118 77 8.6121 76.8344 8.3174 76.5397C8.0227 76.245 7.85714 75.8453 7.85714 75.4286C7.85714 75.0118 8.0227 74.6121 8.3174 74.3174C8.6121 74.0227 9.0118 73.8571 9.42857 73.8571H18.8571C19.2739 73.8571 19.6736 74.0227 19.9683 74.3174C20.263 74.6121 20.4286 75.0118 20.4286 75.4286C20.4286 75.8453 20.263 76.245 19.9683 76.5397C19.6736 76.8344 19.2739 77 18.8571 77ZM37.7143 77H23.5714C23.1547 77 22.755 76.8344 22.4603 76.5397C22.1656 76.245 22 75.8453 22 75.4286C22 75.0118 22.1656 74.6121 22.4603 74.3174C22.755 74.0227 23.1547 73.8571 23.5714 73.8571H37.7143C38.1311 73.8571 38.5308 74.0227 38.8255 74.3174C39.1202 74.6121 39.2857 75.0118 39.2857 75.4286C39.2857 75.8453 39.1202 76.245 38.8255 76.5397C38.5308 76.8344 38.1311 77 37.7143 77ZM37.7143 69.1429H17.2857C16.8689 69.1429 16.4692 68.9773 16.1745 68.6826C15.8798 68.3879 15.7143 67.9882 15.7143 67.5714C15.7143 67.1547 15.8798 66.755 16.1745 66.4603C16.4692 66.1656 16.8689 66 17.2857 66H37.7143C38.1311 66 38.5308 66.1656 38.8255 66.4603C39.1202 66.755 39.2857 67.1547 39.2857 67.5714C39.2857 67.9882 39.1202 68.3879 38.8255 68.6826C38.5308 68.9773 38.1311 69.1429 37.7143 69.1429Z" fill="#1A747B"/>
</g>
<defs>
<clipPath id="clip0_719_74">
<rect width="88" height="88" fill="white"/>
</clipPath>
</defs>
</svg>
