<svg width="88" height="88" viewBox="0 0 88 88" fill="none" xmlns="http://www.w3.org/2000/svg">
<g clip-path="url(#clip0_43_20743)">
<path fill-rule="evenodd" clip-rule="evenodd" d="M75.5959 64.0408H79.951V22.3586H59.5608V46.3079C68.7687 47.5748 75.5959 55.1411 75.5959 64.0408ZM65.428 55.8605C70.1464 60.3784 70.1464 67.7033 65.428 72.221C60.7096 76.7389 53.0595 76.7389 48.3413 72.221C43.6229 67.7032 43.6229 60.3782 48.3413 55.8605C53.0597 51.3427 60.7098 51.3427 65.428 55.8605ZM68.5307 52.8896C74.9626 59.0482 74.9626 69.0332 68.5307 75.1919C62.3269 81.1319 52.4059 81.3419 45.9385 75.8233L44.5795 74.5221C38.8158 68.3293 39.0349 58.83 45.2388 52.8898C51.6707 46.7312 62.0988 46.7312 68.5307 52.8898V52.8896ZM67.0132 54.3427C72.6063 59.6982 72.6063 68.383 67.0132 73.7387C61.42 79.0941 52.3497 79.0941 46.7563 73.7387C41.1632 68.3832 41.1632 59.6984 46.7563 54.3427C52.3495 48.9872 61.4198 48.9872 67.0132 54.3427ZM43.5611 79.623C44.1124 80.1509 45.0142 80.1509 45.5653 79.623L46.3635 78.8588C44.4161 77.5881 42.736 75.9794 41.409 74.1148L40.6108 74.8791C40.0595 75.4069 40.0595 76.2703 40.6108 76.7981L43.5611 79.623ZM32.416 83.3876C30.2944 85.1665 34.8215 89.5012 36.6792 87.4695L42.2498 81.3777L38.7781 78.0535L32.4159 83.3874L32.416 83.3876ZM9.76611 34.2306C11.7664 34.2306 13.388 35.7833 13.388 37.6985C13.388 39.6138 11.7664 41.1665 9.76611 41.1665C7.76585 41.1665 6.14424 39.6138 6.14424 37.6985C6.14424 35.7833 7.76567 34.2306 9.76611 34.2306ZM76.3293 0C78.3295 0 79.9511 1.5527 79.9511 3.46795C79.9511 5.38321 78.3295 6.93591 76.3293 6.93591C74.329 6.93591 72.7074 5.38321 72.7074 3.46795C72.7074 1.5527 74.329 0 76.3293 0ZM50.573 15.0282C52.5735 15.0282 54.1949 16.5809 54.1949 18.4961C54.1949 20.4114 52.5733 21.9641 50.573 21.9641C48.5728 21.9641 46.9512 20.4114 46.9512 18.4961C46.9512 16.5809 48.5728 15.0282 50.573 15.0282ZM24.817 15.0282C26.8173 15.0282 28.4389 16.5809 28.4389 18.4961C28.4389 20.4114 26.8173 21.9641 24.817 21.9641C22.8167 21.9641 21.1951 20.4114 21.1951 18.4961C21.1951 16.5809 22.8167 15.0282 24.817 15.0282ZM12.3288 32.6482L20.469 22.2624C20.9702 22.7924 21.5754 23.2304 22.2541 23.5466L14.1139 33.9324C13.6127 33.4025 13.0075 32.9644 12.3288 32.6482ZM30.5729 17.4229H44.817C44.6735 18.1316 44.6735 18.8606 44.817 19.5693H30.5729C30.7163 18.8606 30.7163 18.1316 30.5729 17.4229ZM54.9061 14.7143L70.8312 5.42238C71.0955 6.10384 71.4941 6.72288 71.9961 7.24999L56.0709 16.5419C55.8064 15.8606 55.4082 15.2414 54.9061 14.7143ZM0 73.2963H39.0938L40.228 72.2103C39.5679 70.9767 39.0663 69.6855 38.7245 68.3641H0V73.2963ZM72.9095 73.2963H88V68.3641H75.0454C74.6017 70.0792 73.8895 71.7435 72.9095 73.2963ZM8.04886 64.0406H28.4391V45.0456H8.04867L8.04886 64.0406ZM33.8049 64.0406H38.1738C38.1738 55.146 44.9935 47.5821 54.1951 46.3097V33.702H33.8049V64.0406Z" fill="#1A747B"/>
</g>
<defs>
<clipPath id="clip0_43_20743">
<rect width="88" height="88" fill="white"/>
</clipPath>
</defs>
</svg>
