<svg width="88" height="88" viewBox="0 0 88 88" fill="none" xmlns="http://www.w3.org/2000/svg">
<g clip-path="url(#clip0_412_79)">
<path fill-rule="evenodd" clip-rule="evenodd" d="M71.9187 70.3553C70.3553 71.472 68.3451 71.472 66.7817 70.3553C66.5583 70.3553 66.5583 70.3553 66.5583 70.3553V70.5786C66.7817 72.8121 67.005 75.269 67.005 76.3857V88H71.6954V76.3857C71.6954 75.269 71.9187 72.8121 72.3654 70.5786C72.3654 70.3553 72.1421 70.3553 72.1421 70.3553C72.1421 70.3553 72.1421 70.3553 71.9187 70.3553ZM64.5482 64.7715C64.3248 64.3248 64.3248 63.8781 64.1015 63.6548C65.6649 64.7715 67.2284 66.1116 69.4619 66.1116C71.0253 65.8883 73.9289 64.3248 74.8223 62.9847C74.5989 63.6548 74.3756 64.1015 74.1523 64.7715V64.9949H74.3756C75.0457 64.7715 75.4924 64.3248 75.9391 63.8781C76.6091 63.4314 77.2792 62.7614 77.7259 61.868C77.5025 62.538 77.2792 62.9847 77.0558 63.6548C77.9492 62.9847 78.8426 62.3147 79.2893 61.6446C79.9594 60.9746 80.4061 60.3045 80.8528 59.8578C80.4061 56.9543 79.9594 54.2741 79.5127 52.0406C79.066 49.8071 78.6193 48.2436 77.9492 46.6802C77.2792 45.3401 76.1624 44.2233 75.0457 43.1066C73.9289 42.2132 72.3654 41.5431 71.0253 41.0964C69.4619 40.8731 68.1218 41.0964 67.005 41.5431C65.8883 41.7665 64.9949 42.4365 64.1015 43.1066C63.6548 43.3299 62.9847 43.5533 62.3147 44C61.868 44.4467 60.9746 45.3401 60.3045 46.9035C59.6345 48.6903 58.9644 51.1472 58.5177 53.3807C58.2944 55.6142 58.071 57.401 58.071 58.2944C57.8477 59.1878 57.8477 59.1878 58.071 59.6345C58.2944 60.0812 58.7411 60.5279 59.4111 61.1979C59.8578 61.868 60.5279 62.538 61.1979 62.9847C61.1979 62.538 61.1979 62.0913 60.9746 61.868C62.3147 63.8781 62.538 63.8781 64.3248 64.9949H64.5482C64.5482 64.9949 64.5482 64.9949 64.5482 64.7715ZM62.9847 51.5939H63.6548C63.6548 51.8172 63.8781 51.5939 63.8781 51.5939C63.8781 51.5939 63.8781 51.5939 63.8781 51.3705C64.1015 50.7005 64.1015 50.0304 64.5482 49.5837C64.7715 48.6903 65.4416 48.0203 65.8883 47.3502C65.4416 48.2436 65.2182 49.137 64.9949 49.8071V51.1472C64.9949 51.3705 64.9949 51.5939 65.2182 51.5939H66.7817C67.005 51.5939 67.005 51.3705 67.005 51.3705C67.2284 50.4771 67.2284 49.8071 67.2284 49.3604C67.4517 48.6903 67.6751 48.0203 67.6751 47.3502C67.6751 48.467 67.4517 49.3604 67.4517 50.0304C67.4517 50.7005 67.6751 51.1472 67.6751 51.3705V51.5939C67.8984 51.8172 67.8984 51.8172 67.8984 51.8172C68.1218 51.5939 68.3451 51.5939 68.3451 51.3705C68.1218 50.7005 68.1218 50.0304 68.3451 49.3604C68.3451 48.467 68.3451 47.7969 68.5685 47.1269V50.0304C68.5685 50.7005 68.5685 50.9238 68.7918 51.3705V51.5939C69.0152 51.5939 69.0152 51.8172 69.2385 51.5939H71.2487C71.472 51.5939 71.472 51.3705 71.472 51.3705C71.6954 51.3705 71.6954 51.1472 71.472 51.1472C71.2487 50.7005 71.2487 50.4771 71.0253 50.0304C70.802 49.8071 70.802 49.3604 70.802 49.137C71.0253 49.5837 71.472 50.0304 71.9187 50.4771C71.9187 50.7005 72.1421 50.7005 72.3654 50.9238H72.8121C72.8121 50.9238 72.8121 50.7005 72.8121 50.4771C72.5888 50.0304 72.5888 49.5837 72.3654 48.9137C72.8121 49.5837 73.2588 50.2538 73.7055 50.7005C74.1523 51.1472 74.8223 51.5939 75.4924 51.8172C75.4924 53.3807 76.1624 59.8578 75.0457 60.9746C73.7055 62.7614 71.9187 64.3248 69.4619 64.5482C66.1116 64.3248 64.5482 62.0913 63.6548 60.9746C62.3147 59.4111 62.538 53.604 62.9847 51.5939ZM81.2995 87.7766H84.203C85.3198 87.7766 86.2132 87.5533 86.8832 86.6599C87.7766 85.7665 88 84.8731 88 83.7563C87.5533 79.5127 87.1066 73.4822 86.6599 72.3654C86.2132 70.802 85.9898 70.1319 85.5431 69.9086C85.0964 69.4619 84.4264 69.4619 82.8629 69.0152L81.2995 68.5685C80.4061 68.3451 79.736 68.1218 79.066 67.8984C77.5025 67.4517 76.1624 67.005 74.5989 65.6649C74.5989 65.4416 74.5989 65.4416 74.5989 65.4416C74.3756 65.6649 74.3756 65.6649 74.3756 65.6649C74.5989 67.005 74.3756 68.1218 73.7055 69.0152C73.2588 71.472 73.0355 75.4923 73.0355 76.6091V88C75.7157 88 78.6193 88 81.2995 87.7766ZM57.401 87.7766H54.4974C53.3807 87.7766 52.4873 87.5533 51.8172 86.6599C51.1472 85.7665 50.7005 84.8731 50.9238 83.7563C51.3705 79.5127 51.5939 73.4822 52.0406 72.3654C52.4873 70.802 52.7106 70.1319 53.1573 69.9086C53.604 69.4619 54.2741 69.4619 55.8375 69.0152L57.401 68.5685C58.2944 68.3451 58.9644 68.1218 59.8578 67.8984C61.1979 67.4517 62.538 67.005 64.1015 65.6649C64.1015 65.4416 64.1015 65.4416 64.3248 65.4416V65.6649C64.1015 67.005 64.3248 68.1218 64.9949 69.0152C65.4416 71.472 65.6649 75.4923 65.6649 76.6091V88C62.9847 88 60.3045 88 57.401 87.7766Z" fill="#1A747B"/>
<path fill-rule="evenodd" clip-rule="evenodd" d="M16.0812 54.9444C15.6345 54.9444 15.4112 54.7211 15.1878 54.4977C14.9645 54.4977 14.9645 54.2744 14.7411 53.8277C14.5178 53.381 14.2944 52.7109 14.2944 52.0409C14.0711 51.5942 14.0711 50.9241 14.0711 50.4774C14.0711 50.0307 14.0711 49.8074 14.0711 49.3607C14.2944 49.1373 14.5178 48.914 14.7411 48.914H15.1878L14.9645 48.6906L14.7411 45.3404C14.7411 43.7769 14.9645 41.5434 16.0812 40.65C16.3046 40.4267 17.198 40.2033 17.4213 40.4267C17.198 39.98 17.198 39.5333 17.4213 39.0866C17.868 38.6399 18.5381 37.7465 19.4315 37.2998C20.5482 36.8531 21.8883 36.4064 23.2284 36.6297C24.7919 36.6297 26.132 37.2998 27.4721 38.1932C28.3655 38.8632 29.2589 39.7566 29.7056 40.8734C30.3757 41.9901 30.599 43.1069 30.599 44.447C30.8224 45.7871 30.599 47.5739 30.599 48.914H30.8224C31.2691 48.914 31.4924 49.1373 31.4924 49.584C31.7158 49.8074 31.7158 50.4774 31.7158 50.9241C31.4924 51.3708 31.4924 52.0409 31.4924 52.4876C31.2691 52.9343 31.0457 53.381 31.0457 53.8277C30.8224 54.2744 30.599 54.4977 30.3757 54.4977C30.1523 54.7211 29.929 54.9444 29.7056 54.9444H29.4823V56.5079C29.2589 57.4013 29.0355 58.2947 28.3655 58.9647V61.6449C28.3655 62.0916 28.1421 62.5383 27.6954 62.985L23.6751 66.112L25.2386 67.0054C25.4619 67.0054 25.2386 67.4521 25.2386 67.6754L24.5685 69.0155C24.3452 69.4622 24.3452 69.6856 24.3452 70.1323L24.5685 70.3556L25.4619 73.7059L25.9086 85.5434L28.8122 71.6957C29.4823 70.1323 29.929 69.2389 29.929 67.6754C29.929 66.112 29.929 63.8785 29.7056 61.6449C29.7056 61.6449 29.7056 61.4216 29.929 61.4216H30.1523C30.8224 62.0916 31.4924 62.5383 33.0559 63.2084C34.8427 63.8785 37.9696 64.7719 39.7564 65.2186C41.5432 65.6653 42.4366 65.8886 43.1066 66.3353C43.5533 66.782 44 67.4521 44.4467 69.2389C44.8934 70.579 45.3401 80.8531 45.7868 82.8632C46.0102 83.7566 45.7868 84.4267 45.3401 85.3201C44.8934 85.9901 44 86.4368 43.1066 86.6602C29.7056 88.447 16.3046 88.2236 2.68022 86.6602C1.78682 86.4368 1.11677 85.9901 0.670067 85.3201C1.61082e-05 84.4267 -0.223334 83.7566 1.61082e-05 82.6399C0.670067 80.8531 0.893417 70.579 1.34012 69.2389C2.01017 67.4521 2.23352 66.782 2.90357 66.3353C3.35027 65.8886 4.24367 65.6653 6.25382 65.2186C8.04063 64.7719 10.9442 63.8785 12.731 63.2084C14.2944 62.5383 15.1878 62.0916 15.8579 61.4216H16.0812V61.6449C16.0812 63.8785 15.8579 66.112 15.8579 67.6754C16.0812 69.2389 16.3046 70.1323 17.198 71.6957L20.1015 85.5434L20.3249 73.7059L21.4416 70.3556V70.1323C21.665 69.9089 21.4416 69.4622 21.2183 69.2389L20.5482 67.6754C20.3249 67.4521 20.3249 67.0054 20.5482 67.0054L22.1117 65.8886L18.0914 62.985C17.6447 62.5383 17.4213 62.0916 17.4213 61.6449V59.4114L17.198 58.9647C16.5279 58.2947 16.3046 57.6246 16.0812 56.5079V54.9444Z" fill="#1A747B"/>
<path fill-rule="evenodd" clip-rule="evenodd" d="M46.2334 0C55.6142 0 63.2081 7.59391 63.2081 16.9746C63.2081 22.5584 60.5279 27.4721 56.2842 30.599C54.4974 31.7157 53.604 33.7259 53.604 35.9594V39.3096C53.604 39.9797 53.1573 40.4264 52.4873 40.4264H39.9796C39.5329 40.4264 38.8629 39.9797 38.8629 39.3096V35.9594C38.8629 33.7259 37.9695 31.7157 36.1827 30.599C32.1624 27.4721 29.4822 22.5584 29.4822 16.9746C29.4822 7.59391 36.8527 0 46.2334 0ZM40.873 15.8579L44.67 17.4213L37.7461 24.1218V24.3452C37.7461 24.5685 37.9695 24.5685 38.1928 24.3452L52.2639 17.4213C52.7106 17.198 52.7106 16.9746 52.7106 16.7513C52.7106 16.3046 52.7106 16.0812 52.2639 16.0812L49.5837 14.7411L54.7208 7.81726C54.9441 7.59391 54.9441 7.37056 54.7208 7.37056H54.4974L40.873 14.5178C40.6497 14.7411 40.4263 14.9645 40.4263 15.1878C40.4263 15.6345 40.6497 15.8579 40.873 15.8579Z" fill="#1A747B"/>
<path fill-rule="evenodd" clip-rule="evenodd" d="M42.2132 52.9344H50.4771C51.5939 52.9344 52.4873 52.2643 52.934 51.1476C53.1573 50.4775 52.7106 49.8075 51.8172 49.8075H40.6497C39.9796 49.8075 39.5329 50.4775 39.7563 51.1476C39.9796 52.2643 41.0964 52.9344 42.2132 52.9344ZM54.9441 47.574C55.3908 47.1273 55.8375 46.2339 55.8375 45.5638V44.4471C55.8375 43.107 54.7208 41.9902 53.3807 41.9902H39.3096C37.9695 41.9902 36.6294 43.107 36.6294 44.4471V45.5638C36.6294 46.2339 37.0761 47.1273 37.7461 47.574C37.9695 47.7973 38.6395 48.0207 39.0862 48.0207H53.3807C54.0507 48.0207 54.4974 47.7973 54.9441 47.574Z" fill="#1A747B"/>
</g>
<defs>
<clipPath id="clip0_412_79">
<rect width="88" height="88" fill="white"/>
</clipPath>
</defs>
</svg>
