<svg width="46" height="46" viewBox="0 0 46 46" fill="none" xmlns="http://www.w3.org/2000/svg">
<g clip-path="url(#clip0_504_120)">
<path d="M44.8925 36.5517C45.2047 36.8639 45.2047 37.3763 44.8925 37.6885C44.7324 37.8407 44.5322 37.9208 44.3241 37.9208C44.1159 37.9208 43.9157 37.8407 43.7556 37.6885L41.5939 35.5189H28.7117C28.2714 35.5189 27.9111 35.8792 27.9111 36.3195C27.9111 36.7598 28.2714 37.1201 28.7117 37.1201H31.8102C31.4579 38.5052 30.2009 39.522 28.7117 39.522C26.9423 39.522 25.5092 38.0889 25.5092 36.3195C25.5092 34.5501 26.9423 33.117 28.7117 33.117C29.5194 33.117 30.2523 33.4229 30.8161 33.9176H32.8683C32.0394 32.4816 30.4879 31.5157 28.7117 31.5157C26.0616 31.5157 23.9079 33.6694 23.9079 36.3195C23.9079 38.9696 26.0616 41.1233 28.7117 41.1233C31.0896 41.1233 33.0672 39.3939 33.4434 37.1201H37.4787C37.0784 41.6037 33.2993 45.1265 28.7117 45.1265C23.8519 45.1265 19.9048 41.1793 19.9048 36.3195C19.9048 31.4596 23.8519 27.5125 28.7117 27.5125C32.7366 27.5125 36.1378 30.2246 37.1823 33.9176H41.5939L43.7556 31.7479C44.0679 31.4356 44.5803 31.4356 44.8925 31.7479C45.2047 32.0601 45.2047 32.5725 44.8925 32.8847L43.8517 33.9176H44.3241C44.7644 33.9176 45.1247 34.2779 45.1247 34.7182C45.1247 35.1586 44.7644 35.5189 44.3241 35.5189H43.8517L44.8925 36.5517ZM5.17687 24.8304H5.1929C5.98551 24.8304 6.72213 24.4301 7.17048 23.7735L7.94707 22.6207C8.09919 22.4045 8.34739 22.2684 8.61161 22.2684H14.1359C14.4722 22.2604 14.8325 22.2524 15.1367 22.1643C17.3786 21.74 19.1239 19.9065 19.4202 17.6327C19.4762 17.2324 19.8125 16.9362 20.2128 16.9362C20.6611 16.9362 21.0214 17.3045 21.0214 17.7448C21.0214 17.7768 21.0134 17.8089 21.0134 17.8409C20.6371 20.7152 18.4914 23.085 15.6091 23.7015C15.1208 23.8216 14.6404 23.8697 14.1359 23.8697H12.8789L11.686 27.4085C10.7333 30.2267 8.47547 32.4604 5.64926 33.3892C5.32102 33.4932 5.09682 33.7975 5.09682 34.1498V37.1201H18.3473C18.3153 36.8559 18.3073 36.5917 18.3073 36.3195C18.3073 30.5789 22.975 25.9113 28.7155 25.9113C28.8516 25.9113 28.9797 25.9113 29.1158 25.9193V17.7368C29.1158 11.5079 24.1679 6.40787 17.987 6.17565L16.2576 3.54159C14.9286 1.51596 12.6628 0.291016 10.2369 0.291016H9.04394C8.78773 0.291016 8.53954 0.419093 8.38741 0.627265C8.24331 0.843452 8.20328 1.11564 8.29134 1.35582L10.2129 6.79215L0.901511 17.2404C0.164944 18.073 0.0848491 19.29 0.717381 20.2027L3.20734 23.7976C3.6557 24.4461 4.39226 24.8304 5.17687 24.8304ZM18.5875 38.7214H4.29619C2.97513 38.7214 1.8943 39.8022 1.8943 41.1233V42.7246C1.8943 44.0456 2.97513 45.1265 4.29619 45.1265H23.1751C20.9093 43.6933 19.228 41.4115 18.5875 38.7214Z" fill="#1A747B"/>
</g>
<defs>
<clipPath id="clip0_504_120">
<rect width="46" height="46" fill="white"/>
</clipPath>
</defs>
</svg>
