<svg width="46" height="46" viewBox="0 0 46 46" fill="none" xmlns="http://www.w3.org/2000/svg">
<g clip-path="url(#clip0_504_122)">
<path fill-rule="evenodd" clip-rule="evenodd" d="M39.516 33.4759H41.7925V11.6875H31.134V24.2064C35.9473 24.8686 39.516 28.8238 39.516 33.4759ZM34.201 29.1998C36.6674 31.5614 36.6674 35.3904 34.201 37.7519C31.7346 40.1135 27.7357 40.1135 25.2693 37.7519C22.8029 35.3903 22.8029 31.5613 25.2693 29.1998C27.7358 26.8382 31.7347 26.8382 34.201 29.1998ZM35.8229 27.6469C39.185 30.8661 39.185 36.0855 35.8229 39.3049C32.58 42.4099 27.394 42.5196 24.0133 39.6349L23.3029 38.9547C20.2901 35.7176 20.4046 30.752 23.6475 27.6469C27.0097 24.4277 32.4607 24.4277 35.8229 27.6469V27.6469ZM35.0296 28.4064C37.9533 31.2059 37.9533 35.7457 35.0296 38.5452C32.1059 41.3447 27.3646 41.3447 24.4408 38.5452C21.5171 35.7458 21.5171 31.206 24.4408 28.4064C27.3645 25.607 32.1058 25.607 35.0296 28.4064ZM22.7706 41.6211C23.0587 41.897 23.5302 41.897 23.8182 41.6211L24.2355 41.2216C23.2175 40.5574 22.3393 39.7165 21.6456 38.7418L21.2284 39.1413C20.9402 39.4172 20.9402 39.8686 21.2284 40.1445L22.7706 41.6211ZM16.9447 43.5889C15.8357 44.5189 18.2021 46.7847 19.1732 45.7227L22.0851 42.5383L20.2704 40.8007L16.9446 43.5889L16.9447 43.5889ZM5.10501 17.8933C6.1506 17.8933 6.99827 18.7049 6.99827 19.7061C6.99827 20.7072 6.1506 21.5188 5.10501 21.5188C4.05942 21.5188 3.21176 20.7072 3.21176 19.7061C3.21176 18.7049 4.05933 17.8933 5.10501 17.8933ZM39.8994 0C40.945 0 41.7926 0.811639 41.7926 1.81279C41.7926 2.81395 40.945 3.62559 39.8994 3.62559C38.8538 3.62559 38.0061 2.81395 38.0061 1.81279C38.0061 0.811639 38.8538 0 39.8994 0ZM26.4359 7.85563C27.4816 7.85563 28.3292 8.66726 28.3292 9.66842C28.3292 10.6696 27.4815 11.4812 26.4359 11.4812C25.3903 11.4812 24.5427 10.6696 24.5427 9.66842C24.5427 8.66726 25.3903 7.85563 26.4359 7.85563ZM12.9725 7.85563C14.0181 7.85563 14.8658 8.66726 14.8658 9.66842C14.8658 10.6696 14.0181 11.4812 12.9725 11.4812C11.9269 11.4812 11.0793 10.6696 11.0793 9.66842C11.0793 8.66726 11.9269 7.85563 12.9725 7.85563ZM6.44461 17.0661L10.6997 11.6372C10.9617 11.9142 11.2781 12.1432 11.6328 12.3085L7.37772 17.7374C7.11573 17.4604 6.79936 17.2314 6.44461 17.0661ZM15.9813 9.10744H23.4271C23.3521 9.47787 23.3521 9.85896 23.4271 10.2294H15.9813C16.0563 9.85896 16.0563 9.47787 15.9813 9.10744ZM28.7009 7.69154L37.0254 2.83442C37.1636 3.19064 37.3719 3.51423 37.6343 3.78977L29.3098 8.64688C29.1715 8.29076 28.9634 7.96707 28.7009 7.69154ZM0 38.314H20.4354L21.0283 37.7463C20.6832 37.1014 20.421 36.4265 20.2423 35.7358H0V38.314ZM38.1118 38.314H46V35.7358H39.2283C38.9964 36.6323 38.624 37.5023 38.1118 38.314ZM4.20736 33.4758H14.8659V23.5466H4.20726L4.20736 33.4758ZM17.6707 33.4758H19.9545C19.9545 28.8263 23.5193 24.8725 28.3293 24.2073V17.617H17.6707V33.4758Z" fill="#1A747B"/>
</g>
<defs>
<clipPath id="clip0_504_122">
<rect width="46" height="46" fill="white"/>
</clipPath>
</defs>
</svg>
