<svg width="46" height="46" viewBox="0 0 46 46" fill="none" xmlns="http://www.w3.org/2000/svg">
<g clip-path="url(#clip0_504_198)">
<path d="M18.7926 12.8504L20.6951 10.948C20.9756 10.6675 21.4303 10.6675 21.7108 10.948L23.0417 12.2789L25.1713 10.1493H24.7302C24.3336 10.1493 24.012 9.82774 24.012 9.43108C24.012 9.03442 24.3336 8.71287 24.7302 8.71287H26.9046C26.9285 8.71287 26.9523 8.71412 26.9761 8.71646C26.9859 8.71745 26.9954 8.71925 27.0051 8.72068C27.0185 8.72257 27.0321 8.72419 27.0456 8.72688C27.0572 8.72922 27.0684 8.73236 27.0798 8.73524C27.0911 8.73802 27.1025 8.74054 27.1137 8.74395C27.1251 8.74737 27.1361 8.75168 27.1473 8.75572C27.1582 8.75959 27.1692 8.76318 27.1799 8.76767C27.1905 8.77207 27.2007 8.77729 27.2111 8.78214C27.2219 8.78726 27.2329 8.79211 27.2435 8.79777C27.2537 8.80316 27.2633 8.80936 27.2731 8.81529C27.2833 8.8214 27.2937 8.82724 27.3037 8.83389C27.3148 8.84134 27.3254 8.84961 27.336 8.85761C27.344 8.86362 27.3523 8.8692 27.3601 8.87566C27.3969 8.90576 27.4305 8.93936 27.4606 8.97611C27.4669 8.98384 27.4724 8.99201 27.4784 9.00001C27.4865 9.01079 27.4949 9.02139 27.5024 9.03253C27.5089 9.04232 27.5146 9.05257 27.5206 9.06254C27.5266 9.0726 27.5329 9.08239 27.5385 9.09282C27.5439 9.10306 27.5486 9.11366 27.5536 9.12417C27.5587 9.13486 27.564 9.14546 27.5686 9.15652C27.5728 9.16676 27.5762 9.17727 27.58 9.18769C27.5842 9.19937 27.5886 9.21087 27.5922 9.22282C27.5953 9.23324 27.5977 9.24393 27.6004 9.25445C27.6034 9.26657 27.6068 9.27861 27.6093 9.29092C27.6117 9.30305 27.613 9.31536 27.6148 9.32758C27.6165 9.33854 27.6185 9.34932 27.6196 9.36037C27.6218 9.38256 27.6228 9.40484 27.623 9.42713C27.623 9.42847 27.6232 9.42973 27.6232 9.43108V11.7869C27.6232 12.1835 27.3016 12.5051 26.905 12.5051C26.5083 12.5051 26.1868 12.1835 26.1868 11.7869V11.165L23.5494 13.8023C23.2689 14.0828 22.8142 14.0828 22.5337 13.8023L21.2028 12.4715L19.8082 13.866C19.668 14.0063 19.4842 14.0764 19.3004 14.0764C19.1166 14.0764 18.9329 14.0063 18.7926 13.866C18.5121 13.5855 18.5121 13.1308 18.7926 12.8504V12.8504ZM45.3664 41.4387V44.5636C45.3664 44.9602 45.0449 45.2818 44.6482 45.2818H4.58024C4.18358 45.2818 3.86203 44.9602 3.86203 44.5636V41.4387C3.86203 41.0421 4.18358 40.7205 4.58024 40.7205H5.36206V36.1033C5.36206 35.7066 5.68362 35.385 6.08028 35.385H12.2206C12.6172 35.385 12.9388 35.7066 12.9388 36.1033V40.7205H15.6715V25.8603C15.6715 25.4636 15.993 25.1421 16.3897 25.1421H22.5299C22.9265 25.1421 23.2481 25.4636 23.2481 25.8603V40.7205H25.9808V27.4443C25.9808 27.0476 26.3023 26.7261 26.699 26.7261H32.8392C33.2358 26.7261 33.5574 27.0476 33.5574 27.4443V40.7205H36.2901V11.2062C36.2901 10.8096 36.6116 10.488 37.0083 10.488H43.1485C43.5451 10.488 43.8667 10.8096 43.8667 11.2062V40.7205H44.6485C45.0452 40.7205 45.3667 41.0421 45.3667 41.4387H45.3664ZM43.9301 42.1569H5.29845V43.8454H43.9301V42.1569ZM4.7549 33.7664L1.38297 30.3946C1.01084 30.0225 0.805908 29.5264 0.805908 28.9979C0.805908 28.4693 1.01084 27.9734 1.38297 27.6013L8.12934 20.8549C8.80757 20.1768 9.85991 20.0965 10.6275 20.6129L13.8223 17.416C12.8457 15.7666 12.2841 13.8438 12.2841 11.792C12.2841 5.68621 17.2515 0.71875 23.3573 0.71875C29.4631 0.71875 34.4306 5.68621 34.4306 11.792C34.4306 17.8978 29.4631 22.8652 23.3573 22.8652C21.3056 22.8652 19.3827 22.3036 17.7333 21.327L14.537 24.5213C14.7544 24.844 14.8716 25.2243 14.8716 25.6233C14.8716 26.1519 14.6666 26.6478 14.2945 27.02L7.54814 33.7663C7.16307 34.1513 6.65725 34.3439 6.15152 34.3439C5.64579 34.3439 5.13997 34.1514 4.7549 33.7663V33.7664ZM19.1413 7.57527C18.0141 8.70137 17.3936 10.1987 17.3936 11.792C17.3936 13.3853 18.014 14.8825 19.1408 16.0081L19.1412 16.0086C20.2668 17.1354 21.7641 17.7558 23.3573 17.7558C24.9505 17.7558 26.4479 17.1353 27.5735 16.0086C28.7007 14.8825 29.3212 13.3852 29.3212 11.792C29.3212 10.1988 28.7007 8.70146 27.574 7.5758C26.4479 6.44862 24.9506 5.82807 23.3573 5.82807C21.764 5.82807 20.2668 6.44863 19.1412 7.57527H19.1413ZM11.6698 21.6019L13.5475 23.4797L16.527 20.502C15.8281 19.9527 15.1967 19.3213 14.6474 18.6224L11.6697 21.6019L11.6698 21.6019Z" fill="#1A747B"/>
</g>
<defs>
<clipPath id="clip0_504_198">
<rect width="46" height="46" fill="white"/>
</clipPath>
</defs>
</svg>
