<svg width="46" height="46" viewBox="0 0 46 46" fill="none" xmlns="http://www.w3.org/2000/svg">
<path d="M2.30011 41.3995H6.90011C7.10345 41.3995 7.29845 41.3187 7.44223 41.1749C7.58601 41.0312 7.66678 40.8361 7.66678 40.6328V29.8995C7.66678 29.6961 7.58601 29.5011 7.44223 29.3574C7.29845 29.2136 7.10345 29.1328 6.90011 29.1328H2.30011C2.09678 29.1328 1.90178 29.2136 1.758 29.3574C1.61422 29.5011 1.53345 29.6961 1.53345 29.8995V40.6328C1.53345 40.8361 1.61422 41.0312 1.758 41.1749C1.90178 41.3187 2.09678 41.3995 2.30011 41.3995ZM3.83345 30.6661H5.36678C5.57011 30.6661 5.76512 30.7469 5.9089 30.8907C6.05267 31.0345 6.13345 31.2295 6.13345 31.4328C6.13345 31.6361 6.05267 31.8312 5.9089 31.9749C5.76512 32.1187 5.57011 32.1995 5.36678 32.1995H3.83345C3.63011 32.1995 3.43511 32.1187 3.29133 31.9749C3.14755 31.8312 3.06678 31.6361 3.06678 31.4328C3.06678 31.2295 3.14755 31.0345 3.29133 30.8907C3.43511 30.7469 3.63011 30.6661 3.83345 30.6661ZM3.83345 38.3328H5.36678C5.57011 38.3328 5.76512 38.4136 5.9089 38.5574C6.05267 38.7011 6.13345 38.8961 6.13345 39.0995C6.13345 39.3028 6.05267 39.4978 5.9089 39.6416C5.76512 39.7854 5.57011 39.8661 5.36678 39.8661H3.83345C3.63011 39.8661 3.43511 39.7854 3.29133 39.6416C3.14755 39.4978 3.06678 39.3028 3.06678 39.0995C3.06678 38.8961 3.14755 38.7011 3.29133 38.5574C3.43511 38.4136 3.63011 38.3328 3.83345 38.3328Z" fill="#1A747B"/>
<path d="M39.2609 9.0092C39.3222 8.93275 39.3575 8.83872 39.3617 8.7408C39.3658 8.64289 39.3386 8.54621 39.2839 8.46487C38.8232 7.83957 38.3157 7.25011 37.7659 6.70153C37.2145 6.14943 36.6225 5.63944 35.9949 5.17587C35.9135 5.12406 35.8179 5.09915 35.7216 5.10465C35.6253 5.11016 35.5332 5.1458 35.4582 5.20653L32.3149 7.6292C32.1974 7.72061 32.0557 7.77582 31.9073 7.78807C31.7589 7.80032 31.6102 7.76909 31.4792 7.6982C30.6977 7.27896 29.8757 6.9399 29.0259 6.6862C28.8847 6.64308 28.7589 6.5601 28.6637 6.44721C28.5685 6.33433 28.5079 6.19635 28.4892 6.04987L27.9756 2.1092C27.9664 2.01283 27.9264 1.922 27.8614 1.85018C27.7965 1.77836 27.7102 1.72939 27.6152 1.71053C26.0728 1.4767 24.504 1.4767 22.9616 1.71053C22.8666 1.72939 22.7803 1.77836 22.7154 1.85018C22.6505 1.922 22.6104 2.01283 22.6012 2.1092L22.0876 6.04987C22.0689 6.19635 22.0083 6.33433 21.9131 6.44721C21.8179 6.5601 21.6921 6.64308 21.5509 6.6862C20.7011 6.9399 19.8791 7.27896 19.0976 7.6982C18.9666 7.76909 18.8179 7.80032 18.6695 7.78807C18.5211 7.77582 18.3795 7.72061 18.2619 7.6292L15.1109 5.20653C15.0351 5.14696 14.9426 5.11269 14.8463 5.10856C14.75 5.10444 14.6548 5.13066 14.5742 5.18353C13.9475 5.64239 13.3579 6.14996 12.8109 6.70153C12.2625 7.25632 11.7527 7.84804 11.2852 8.47253C11.2322 8.55346 11.2065 8.6493 11.212 8.74593C11.2175 8.84255 11.254 8.93484 11.3159 9.0092L13.7386 12.1525C13.83 12.2701 13.8852 12.4117 13.8974 12.5601C13.9097 12.7085 13.8785 12.8573 13.8076 12.9882C13.3883 13.7697 13.0493 14.5917 12.7956 15.4415C12.7525 15.5828 12.6695 15.7085 12.5566 15.8038C12.4437 15.899 12.3057 15.9595 12.1592 15.9782L8.21091 16.4919C8.11481 16.5051 8.02508 16.5475 7.9538 16.6133C7.88252 16.6791 7.83312 16.7651 7.81224 16.8599C7.69862 17.629 7.64225 18.4054 7.64358 19.1829C7.6428 19.9628 7.69917 20.7418 7.81224 21.5135C7.8363 21.6052 7.88703 21.6876 7.958 21.7504C8.02898 21.8132 8.117 21.8535 8.21091 21.8662L12.1592 22.3799C12.3057 22.3985 12.4437 22.4591 12.5566 22.5543C12.6695 22.6495 12.7525 22.7753 12.7956 22.9165C13.0493 23.7664 13.3883 24.5883 13.8076 25.3699C13.8785 25.5008 13.9097 25.6496 13.8974 25.798C13.8852 25.9464 13.83 26.088 13.7386 26.2055L12.3279 28.0379C13.541 27.6056 14.8432 27.4844 16.1152 27.6852L31.8626 30.2229C31.8824 30.2292 31.9032 30.2318 31.9239 30.2305L33.2349 30.4529C33.6832 30.5263 34.1019 30.724 34.4434 31.0235C34.785 31.323 35.0356 31.7123 35.1669 32.1472L39.3376 29.7859C39.3613 29.7135 39.3667 29.6365 39.3534 29.5615C39.34 29.4866 39.3082 29.4162 39.2609 29.3565L36.8382 26.2055C36.7468 26.088 36.6916 25.9464 36.6794 25.798C36.6671 25.6496 36.6983 25.5008 36.7692 25.3699C37.1885 24.5883 37.5275 23.7664 37.7812 22.9165C37.8244 22.7753 37.9073 22.6495 38.0202 22.5543C38.1331 22.4591 38.2711 22.3985 38.4176 22.3799L42.3582 21.8662C42.4535 21.8573 42.5435 21.8184 42.6152 21.755C42.6869 21.6916 42.7365 21.607 42.7569 21.5135C42.8734 20.7421 42.9323 19.9631 42.9332 19.1829C42.9326 18.4052 42.8736 17.6287 42.7569 16.8599C42.7398 16.7634 42.6915 16.6752 42.6195 16.6087C42.5475 16.5423 42.4558 16.5012 42.3582 16.4919L38.4176 15.9782C38.2711 15.9595 38.1331 15.899 38.0202 15.8038C37.9073 15.7085 37.8244 15.5828 37.7812 15.4415C37.5275 14.5917 37.1885 13.7697 36.7692 12.9882C36.6983 12.8573 36.6671 12.7085 36.6794 12.5601C36.6916 12.4117 36.7468 12.2701 36.8382 12.1525L39.2609 9.0092ZM35.6959 24.0205C35.4805 24.4141 35.1634 24.7427 34.7777 24.9719C34.392 25.2012 33.9519 25.3227 33.5032 25.3239H17.0966C16.6479 25.3227 16.2078 25.2012 15.8221 24.9719C15.4364 24.7427 15.1193 24.4141 14.9039 24.0205C14.674 23.6043 14.5586 23.1345 14.5694 22.6591C14.5802 22.1837 14.7167 21.7196 14.9652 21.3142L23.1686 8.11987C23.3931 7.75655 23.7068 7.45666 24.0798 7.24867C24.4528 7.04069 24.8728 6.93151 25.2999 6.93151C25.727 6.93151 26.147 7.04069 26.52 7.24867C26.8931 7.45666 27.2067 7.75655 27.4312 8.11987L35.6346 21.3065C35.8831 21.7134 36.0196 22.1787 36.0304 22.6553C36.0412 23.1319 35.9258 23.6029 35.6959 24.0205Z" fill="#1A747B"/>
<path d="M26.1281 8.93256C26.0421 8.78985 25.9206 8.6718 25.7756 8.58985C25.6305 8.50791 25.4667 8.46484 25.3001 8.46484C25.1335 8.46484 24.9697 8.50791 24.8246 8.58985C24.6795 8.6718 24.5581 8.78985 24.4721 8.93256L16.2687 22.1192C16.1599 22.2904 16.1002 22.4882 16.0962 22.691C16.0921 22.8938 16.1439 23.0938 16.2457 23.2692C16.3263 23.4257 16.4482 23.557 16.5983 23.649C16.7484 23.7409 16.9208 23.7899 17.0967 23.7906H33.5034C33.6794 23.7899 33.8518 23.7409 34.0019 23.649C34.1519 23.557 34.2739 23.4257 34.3544 23.2692C34.4563 23.0938 34.508 22.8938 34.504 22.691C34.4999 22.4882 34.4402 22.2904 34.3314 22.1192L26.1281 8.93256ZM26.0667 21.4906C26.0667 21.6939 25.986 21.8889 25.8422 22.0327C25.6984 22.1765 25.5034 22.2572 25.3001 22.2572C25.0967 22.2572 24.9017 22.1765 24.758 22.0327C24.6142 21.8889 24.5334 21.6939 24.5334 21.4906V20.7239C24.5334 20.5206 24.6142 20.3256 24.758 20.1818C24.9017 20.038 25.0967 19.9572 25.3001 19.9572C25.5034 19.9572 25.6984 20.038 25.8422 20.1818C25.986 20.3256 26.0667 20.5206 26.0667 20.7239V21.4906ZM26.0667 17.6572C26.0667 17.8606 25.986 18.0556 25.8422 18.1993C25.6984 18.3431 25.5034 18.4239 25.3001 18.4239C25.0967 18.4239 24.9017 18.3431 24.758 18.1993C24.6142 18.0556 24.5334 17.8606 24.5334 17.6572V11.5239C24.5334 11.3206 24.6142 11.1256 24.758 10.9818C24.9017 10.838 25.0967 10.7572 25.3001 10.7572C25.5034 10.7572 25.6984 10.838 25.8422 10.9818C25.986 11.1256 26.0667 11.3206 26.0667 11.5239V17.6572Z" fill="#1A747B"/>
<path d="M43.1457 29.3971L34.9599 34.0232C34.8514 34.2203 34.7153 34.401 34.5559 34.5599C34.1003 35.0114 33.4854 35.2656 32.844 35.2675H32.7611L27.8468 38.0436C27.5024 38.2359 27.1143 38.3365 26.7199 38.3355C26.3254 38.3346 25.9378 38.2322 25.5943 38.0382L21.1324 35.2675H18.285C18.0816 35.2675 17.8866 35.1867 17.7428 35.043C17.5991 34.8992 17.5183 34.7042 17.5183 34.5008C17.5183 34.2975 17.5991 34.1025 17.7428 33.9587C17.8866 33.815 18.0816 33.7342 18.285 33.7342H32.844C33.0835 33.7326 33.3128 33.6371 33.4826 33.4681C33.5612 33.3883 33.6232 33.2938 33.6651 33.1898V33.1814C33.709 33.0746 33.7321 32.9603 33.7333 32.8448C33.7309 32.6337 33.6542 32.4301 33.5166 32.2699C33.3791 32.1096 33.1895 32.0029 32.9812 31.9685L31.7055 31.7523L31.6564 31.7462L15.87 29.2009C14.8524 29.0369 13.8099 29.1329 12.8393 29.4799L9.19995 31.0562V39.2465H9.22065C9.52222 39.2462 9.82208 39.2917 10.11 39.3814L25.7178 44.374C26.068 44.4765 26.4375 44.4946 26.7961 44.4269C27.1547 44.3592 27.4921 44.2076 27.7809 43.9845L44.1247 30.8814C44.2309 30.7972 44.3169 30.6901 44.3761 30.5682C44.4353 30.4462 44.4662 30.3124 44.4666 30.1768C44.4659 30.0236 44.4272 29.8729 44.3539 29.7383C44.2383 29.5335 44.0465 29.3826 43.8201 29.3187C43.5937 29.2548 43.3513 29.283 43.1457 29.3971Z" fill="#1A747B"/>
</svg>
