<svg width="80" height="80" viewBox="0 0 80 80" fill="none" xmlns="http://www.w3.org/2000/svg">
<g clip-path="url(#clip0_1_14875)">
<path d="M14.8957 20.8771C15.1513 21.0876 15.48 21.1882 15.8096 21.1566C16.1393 21.125 16.4429 20.9639 16.6538 20.7086C16.8648 20.4534 16.9658 20.1248 16.9347 19.7951C16.9037 19.4654 16.743 19.1616 16.4881 18.9502L14.5429 17.3425C14.4164 17.2376 14.2705 17.1587 14.1135 17.1103C13.9565 17.0618 13.7914 17.0448 13.6278 17.0602C13.4642 17.0756 13.3053 17.1231 13.1601 17.2C13.0148 17.2769 12.8862 17.3817 12.7815 17.5083C12.6769 17.635 12.5982 17.7811 12.55 17.9382C12.5019 18.0953 12.4851 18.2603 12.5008 18.4239C12.5165 18.5875 12.5643 18.7464 12.6415 18.8914C12.7186 19.0365 12.8237 19.165 12.9505 19.2694L14.8957 20.8771Z" fill="#FF5E14"/>
<path d="M10.6037 28.135L8.21726 27.2799C7.90527 27.1686 7.56183 27.1856 7.26238 27.3272C6.96292 27.4689 6.73194 27.7236 6.62017 28.0355C6.5084 28.3473 6.52499 28.6908 6.66629 28.9904C6.80759 29.29 7.06204 29.5213 7.37375 29.6335L9.76023 30.4886C10.0721 30.5994 10.4152 30.5821 10.7143 30.4404C11.0134 30.2986 11.2441 30.0441 11.3558 29.7325C11.4674 29.4209 11.451 29.0777 11.31 28.7783C11.169 28.4788 10.915 28.2475 10.6037 28.135Z" fill="#FF5E14"/>
<path d="M5.72949 38.75C5.39797 38.75 5.08003 38.8817 4.84561 39.1161C4.61119 39.3505 4.47949 39.6685 4.47949 40C4.47949 40.3315 4.61119 40.6495 4.84561 40.8839C5.08003 41.1183 5.39797 41.25 5.72949 41.25H8.26882C8.60034 41.25 8.91829 41.1183 9.15271 40.8839C9.38713 40.6495 9.51882 40.3315 9.51882 40C9.51882 39.6685 9.38713 39.3505 9.15271 39.1161C8.91829 38.8817 8.60034 38.75 8.26882 38.75H5.72949Z" fill="#FF5E14"/>
<path d="M9.76015 49.5097L7.37368 50.3648C7.21895 50.4201 7.07664 50.5053 6.95487 50.6155C6.8331 50.7258 6.73426 50.859 6.66401 51.0075C6.59375 51.1561 6.55346 51.317 6.54544 51.481C6.53741 51.6451 6.56181 51.8092 6.61724 51.9639C6.67267 52.1185 6.75804 52.2607 6.86847 52.3824C6.9789 52.504 7.11222 52.6027 7.26082 52.6727C7.40941 52.7428 7.57036 52.7829 7.73446 52.7907C7.89856 52.7986 8.0626 52.774 8.21718 52.7183L10.6036 51.8632C10.9149 51.7508 11.1689 51.5195 11.3099 51.22C11.4509 50.9206 11.4674 50.5774 11.3557 50.2658C11.244 49.9542 11.0133 49.6997 10.7142 49.5579C10.4151 49.4162 10.072 49.3988 9.76015 49.5097Z" fill="#FF5E14"/>
<path d="M14.5429 62.6596L16.4881 61.0519C16.743 60.8406 16.9037 60.5367 16.9347 60.207C16.9658 59.8773 16.8648 59.5488 16.6538 59.2935C16.4429 59.0382 16.1393 58.8771 15.8096 58.8455C15.48 58.814 15.1513 58.9145 14.8957 59.125L12.9505 60.7327C12.8237 60.8372 12.7186 60.9656 12.6415 61.1107C12.5643 61.2558 12.5165 61.4146 12.5008 61.5782C12.4851 61.7418 12.5019 61.9068 12.55 62.0639C12.5982 62.221 12.6769 62.3671 12.7815 62.4938C12.8862 62.6205 13.0148 62.7252 13.1601 62.8021C13.3053 62.879 13.4642 62.9265 13.6278 62.9419C13.7914 62.9573 13.9565 62.9403 14.1135 62.8919C14.2705 62.8434 14.4164 62.7645 14.5429 62.6596Z" fill="#FF5E14"/>
<path d="M24.7667 65.9837C24.4806 65.8164 24.1397 65.7694 23.819 65.853C23.4983 65.9367 23.2238 66.1441 23.0559 66.4299L21.7864 68.5954C21.7029 68.7371 21.6482 68.8938 21.6254 69.0566C21.6026 69.2194 21.6121 69.3851 21.6534 69.5443C21.6947 69.7034 21.767 69.8528 21.8661 69.984C21.9653 70.1151 22.0893 70.2254 22.2311 70.3086C22.373 70.3918 22.5298 70.4461 22.6927 70.4686C22.8555 70.491 23.0212 70.4812 23.1803 70.4395C23.3393 70.3978 23.4886 70.3252 23.6195 70.2258C23.7505 70.1264 23.8605 70.0021 23.9433 69.8601L25.2128 67.6946C25.3804 67.4085 25.4276 67.0676 25.3439 66.7468C25.2603 66.426 25.0526 66.1515 24.7667 65.9837Z" fill="#FF5E14"/>
<path d="M46.7408 70.5544C46.6817 70.2286 46.4958 69.9396 46.2239 69.7507C45.952 69.5619 45.6163 69.4886 45.2905 69.5469C44.9646 69.6053 44.6752 69.7905 44.4857 70.062C44.2962 70.3335 44.2222 70.669 44.2798 70.9951L44.7208 73.4578C44.7494 73.6197 44.8097 73.7743 44.8982 73.9129C44.9866 74.0514 45.1016 74.1712 45.2364 74.2653C45.3712 74.3593 45.5232 74.4259 45.6838 74.4611C45.8444 74.4964 46.0103 74.4996 46.1721 74.4706C46.3339 74.4417 46.4884 74.3811 46.6268 74.2923C46.7652 74.2035 46.8846 74.0883 46.9784 73.9533C47.0722 73.8183 47.1384 73.6661 47.1733 73.5055C47.2082 73.3448 47.2111 73.1789 47.1818 73.0171L46.7408 70.5544Z" fill="#FF5E14"/>
<path d="M56.944 66.43C56.8613 66.2878 56.7513 66.1633 56.6204 66.0637C56.4894 65.9641 56.3401 65.8914 56.1809 65.8496C56.0218 65.8078 55.856 65.7978 55.693 65.8203C55.53 65.8427 55.3731 65.8971 55.2311 65.9803C55.0892 66.0635 54.9651 66.1739 54.8659 66.3052C54.7668 66.4365 54.6945 66.586 54.6532 66.7453C54.612 66.9046 54.6026 67.0704 54.6255 67.2333C54.6485 67.3962 54.7034 67.553 54.7871 67.6947L56.0566 69.8602C56.1396 70.002 56.2497 70.126 56.3806 70.2252C56.5115 70.3244 56.6607 70.3968 56.8196 70.4383C56.9786 70.4799 57.1441 70.4896 57.3068 70.4671C57.4695 70.4446 57.6262 70.3903 57.7679 70.3072C57.9096 70.2241 58.0336 70.114 58.1327 69.9829C58.2317 69.8519 58.3041 69.7027 58.3454 69.5437C58.3868 69.3848 58.3965 69.2192 58.3738 69.0565C58.3512 68.8938 58.2967 68.7372 58.2135 68.5956L56.944 66.43Z" fill="#FF5E14"/>
<path d="M65.1039 59.1248C64.8483 58.9144 64.5196 58.8139 64.1901 58.8456C63.8605 58.8772 63.5569 59.0383 63.346 59.2935C63.1351 59.5487 63.034 59.8772 63.0651 60.2068C63.0961 60.5365 63.2567 60.8403 63.5115 61.0517L65.4567 62.6594C65.7123 62.8698 66.041 62.9703 66.3705 62.9387C66.7001 62.907 67.0037 62.7459 67.2146 62.4907C67.4255 62.2355 67.5266 61.907 67.4955 61.5774C67.4645 61.2477 67.3039 60.9439 67.0491 60.7325L65.1039 59.1248Z" fill="#FF5E14"/>
<path d="M68.6416 50.2659C68.5298 50.578 68.5465 50.9218 68.6881 51.2215C68.8297 51.5213 69.0845 51.7526 69.3966 51.8644L71.7831 52.7195C72.095 52.8304 72.4381 52.8131 72.7372 52.6714C73.0363 52.5296 73.267 52.2751 73.3786 51.9635C73.4903 51.6519 73.4738 51.3087 73.3328 51.0093C73.1919 50.7098 72.9379 50.4785 72.6266 50.366L70.2401 49.5109C70.0856 49.4555 69.9217 49.431 69.7577 49.439C69.5937 49.4469 69.4329 49.4871 69.2844 49.5572C69.136 49.6273 69.0028 49.726 68.8925 49.8476C68.7822 49.9692 68.697 50.1114 68.6416 50.2659Z" fill="#FF5E14"/>
<path d="M71.7314 38.75C71.3999 38.75 71.082 38.8817 70.8476 39.1161C70.6131 39.3505 70.4814 39.6685 70.4814 40C70.4814 40.3315 70.6131 40.6495 70.8476 40.8839C71.082 41.1183 71.3999 41.25 71.7314 41.25H74.2708C74.6023 41.25 74.9202 41.1183 75.1547 40.8839C75.3891 40.6495 75.5208 40.3315 75.5208 40C75.5208 39.6685 75.3891 39.3505 75.1547 39.1161C74.9202 38.8817 74.6023 38.75 74.2708 38.75H71.7314Z" fill="#FF5E14"/>
<path d="M72.6261 29.6328C72.9374 29.5203 73.1914 29.289 73.3324 28.9895C73.4734 28.6901 73.4898 28.3469 73.3782 28.0353C73.2665 27.7238 73.0358 27.4692 72.7367 27.3274C72.4376 27.1857 72.0945 27.1684 71.7826 27.2793L69.3961 28.1344C69.2414 28.1896 69.0991 28.2748 68.9773 28.3851C68.8556 28.4954 68.7567 28.6286 68.6865 28.7771C68.6162 28.9256 68.5759 29.0865 68.5679 29.2506C68.5599 29.4147 68.5843 29.5787 68.6397 29.7334C68.6951 29.888 68.7805 30.0303 68.8909 30.1519C69.0014 30.2735 69.1347 30.3722 69.2833 30.4423C69.4319 30.5124 69.5928 30.5525 69.7569 30.5603C69.921 30.5681 70.0851 30.5435 70.2396 30.4879L72.6261 29.6328Z" fill="#FF5E14"/>
<path d="M65.4572 17.3436L63.512 18.9513C63.3852 19.0557 63.2802 19.1842 63.203 19.3292C63.1258 19.4743 63.078 19.6332 63.0624 19.7968C63.0467 19.9603 63.0634 20.1254 63.1115 20.2825C63.1597 20.4396 63.2384 20.5857 63.3431 20.7123C63.4477 20.839 63.5764 20.9438 63.7216 21.0207C63.8668 21.0976 64.0258 21.1451 64.1894 21.1605C64.353 21.1759 64.518 21.1589 64.675 21.1104C64.832 21.062 64.978 20.983 65.1044 20.8781L67.0496 19.2705C67.3045 19.0591 67.465 18.7552 67.4961 18.4256C67.5271 18.096 67.426 17.7675 67.2151 17.5123C67.0042 17.257 66.7006 17.0959 66.3711 17.0643C66.0415 17.0327 65.7128 17.1331 65.4572 17.3436Z" fill="#FF5E14"/>
<path d="M18.6519 16.8733C18.7583 16.9985 18.8883 17.1015 19.0345 17.1764C19.1808 17.2513 19.3403 17.2967 19.5041 17.3098C19.6678 17.323 19.8326 17.3038 19.9889 17.2533C20.1453 17.2028 20.2901 17.1219 20.4151 17.0154C20.5402 16.9088 20.643 16.7786 20.7177 16.6323C20.7925 16.486 20.8376 16.3264 20.8506 16.1626C20.8636 15.9988 20.8441 15.8341 20.7934 15.6778C20.7427 15.5216 20.6616 15.3768 20.5549 15.2519L15.6596 9.50698C15.5533 9.38178 15.4232 9.27879 15.277 9.20389C15.1308 9.12898 14.9712 9.08363 14.8075 9.07044C14.6437 9.05725 14.4789 9.07647 14.3226 9.127C14.1663 9.17753 14.0214 9.25839 13.8964 9.36494C13.7713 9.47149 13.6685 9.60164 13.5938 9.74797C13.5191 9.89429 13.4739 10.0539 13.4609 10.2177C13.448 10.3815 13.4674 10.5462 13.5181 10.7025C13.5689 10.8587 13.6499 11.0035 13.7566 11.1284L18.6519 16.8733Z" fill="#FF5E14"/>
<path d="M5.30601 21.7118L11.9014 25.4618C12.0441 25.5433 12.2015 25.5958 12.3646 25.6164C12.5277 25.637 12.6932 25.6253 12.8517 25.5818C13.0102 25.5384 13.1586 25.4641 13.2884 25.3633C13.4182 25.2624 13.5268 25.137 13.6081 24.9941C13.6893 24.8512 13.7416 24.6937 13.7619 24.5306C13.7822 24.3675 13.7702 24.202 13.7264 24.0436C13.6827 23.8852 13.6082 23.7369 13.5071 23.6073C13.406 23.4777 13.2804 23.3693 13.1374 23.2883L6.54194 19.5383C6.25372 19.3744 5.9122 19.3317 5.59251 19.4196C5.27281 19.5075 5.00114 19.7188 4.83724 20.0071C4.67335 20.2953 4.63066 20.6368 4.71858 20.9565C4.80649 21.2762 5.01779 21.5479 5.30601 21.7118Z" fill="#FF5E14"/>
<path d="M1.03615 34.5012L8.53611 35.8037C8.60727 35.816 8.67935 35.8223 8.75157 35.8223C9.06442 35.8219 9.36574 35.7042 9.59606 35.4925C9.82638 35.2808 9.96894 34.9904 9.99562 34.6787C10.0223 34.367 9.93114 34.0566 9.74014 33.8088C9.54915 33.561 9.2722 33.3939 8.96397 33.3403L1.46401 32.0378C1.13747 31.9814 0.801894 32.0569 0.531017 32.2478C0.260139 32.4386 0.0761282 32.7293 0.019422 33.0557C-0.0372841 33.3822 0.0379547 33.7179 0.228604 33.9889C0.419253 34.2599 0.709712 34.4442 1.03615 34.5012Z" fill="#FF5E14"/>
<path d="M9.98172 45.2118C9.92464 44.8853 9.74038 44.5948 9.46937 44.404C9.19835 44.2132 8.86271 44.1377 8.5361 44.194L1.03614 45.4965C0.727927 45.5501 0.450996 45.7173 0.260016 45.965C0.0690356 46.2128 -0.0221162 46.5232 0.00455434 46.8349C0.0312249 47.1466 0.17378 47.4369 0.404078 47.6487C0.634376 47.8604 0.935681 47.9781 1.24851 47.9785C1.32073 47.9785 1.39282 47.9722 1.46397 47.9599L8.96393 46.6574C9.2906 46.6006 9.58135 46.4165 9.77222 46.1454C9.96309 45.8743 10.0384 45.5384 9.98172 45.2118Z" fill="#FF5E14"/>
<path d="M13.6061 55.007C13.4421 54.719 13.1704 54.5078 12.8508 54.4199C12.5311 54.332 12.1897 54.3746 11.9014 54.5383L5.30601 58.2883C5.1633 58.3695 5.03797 58.4779 4.93718 58.6075C4.83638 58.7371 4.7621 58.8853 4.71857 59.0436C4.67504 59.2019 4.66312 59.3672 4.68348 59.5301C4.70384 59.693 4.75609 59.8503 4.83724 59.993C4.91839 60.1357 5.02686 60.261 5.15645 60.3618C5.28604 60.4626 5.43421 60.5369 5.5925 60.5804C5.7508 60.624 5.91612 60.6359 6.07902 60.6155C6.24193 60.5952 6.39922 60.5429 6.54194 60.4618L13.1374 56.7118C13.4255 56.5478 13.6368 56.2761 13.7247 55.9565C13.8126 55.6368 13.7699 55.2953 13.6061 55.007Z" fill="#FF5E14"/>
<path d="M18.6518 63.1281L13.7565 68.873C13.5415 69.1254 13.4356 69.4528 13.462 69.7833C13.4884 70.1138 13.645 70.4202 13.8974 70.6352C14.1497 70.8502 14.4772 70.9562 14.8076 70.9298C15.1381 70.9034 15.4446 70.7468 15.6596 70.4944L20.5549 64.7495C20.6616 64.6245 20.7426 64.4798 20.7934 64.3236C20.8441 64.1673 20.8635 64.0026 20.8505 63.8388C20.8376 63.675 20.7924 63.5154 20.7177 63.3691C20.643 63.2227 20.5402 63.0926 20.4151 62.986C20.29 62.8795 20.1452 62.7986 19.9889 62.7481C19.8325 62.6976 19.6678 62.6783 19.504 62.6915C19.3403 62.7047 19.1807 62.7501 19.0345 62.825C18.8882 62.8999 18.7582 63.0029 18.6518 63.1281Z" fill="#FF5E14"/>
<path d="M52.0251 68.93C51.9681 68.776 51.8815 68.6347 51.77 68.5142C51.6585 68.3938 51.5243 68.2964 51.3752 68.2278C51.2261 68.1592 51.0649 68.1206 50.9009 68.1142C50.7369 68.1079 50.5732 68.1339 50.4192 68.1908C50.2652 68.2477 50.124 68.3344 50.0035 68.4459C49.883 68.5574 49.7857 68.6915 49.7171 68.8406C49.6484 68.9898 49.6098 69.1509 49.6035 69.315C49.5971 69.479 49.6232 69.6427 49.6801 69.7967L52.2847 76.8444C52.3411 76.9991 52.4275 77.1411 52.5389 77.2623C52.6503 77.3835 52.7846 77.4815 52.934 77.5507C53.0833 77.6198 53.2449 77.6588 53.4094 77.6654C53.5739 77.6719 53.7381 77.6459 53.8925 77.5888C54.0469 77.5318 54.1886 77.4447 54.3093 77.3328C54.43 77.2208 54.5273 77.0861 54.5958 76.9364C54.6643 76.7867 54.7026 76.6249 54.7084 76.4604C54.7142 76.2959 54.6874 76.1318 54.6297 75.9777L52.0251 68.93Z" fill="#FF5E14"/>
<path d="M61.3481 63.1269C61.1331 62.8745 60.8266 62.7179 60.4961 62.6915C60.1657 62.6651 59.8382 62.771 59.5859 62.986C59.3335 63.201 59.1769 63.5075 59.1505 63.838C59.124 64.1685 59.23 64.4959 59.445 64.7483L64.3403 70.4932C64.4468 70.6182 64.5768 70.7209 64.723 70.7956C64.8692 70.8703 65.0286 70.9155 65.1922 70.9286C65.3559 70.9417 65.5205 70.9224 65.6767 70.8718C65.8329 70.8213 65.9776 70.7405 66.1025 70.634C66.2275 70.5276 66.3303 70.3975 66.405 70.2514C66.4797 70.1052 66.5248 69.9457 66.5379 69.7821C66.551 69.6184 66.5317 69.4538 66.4812 69.2976C66.4306 69.1415 66.3498 68.9968 66.2434 68.8718L61.3481 63.1269Z" fill="#FF5E14"/>
<path d="M74.694 58.2883L68.0986 54.5383C67.9559 54.4571 67.7986 54.4049 67.6357 54.3845C67.4728 54.3642 67.3074 54.3761 67.1491 54.4196C66.9908 54.4632 66.8427 54.5374 66.7131 54.6382C66.5835 54.739 66.475 54.8643 66.3939 55.0071C66.3127 55.1498 66.2605 55.3071 66.2401 55.47C66.2198 55.6329 66.2317 55.7982 66.2752 55.9565C66.3187 56.1148 66.393 56.263 66.4938 56.3925C66.5946 56.5221 66.7199 56.6306 66.8627 56.7118L73.458 60.4618C73.7462 60.6249 74.0874 60.6671 74.4066 60.579C74.7258 60.4909 74.9971 60.2798 75.1608 59.9919C75.3245 59.704 75.3673 59.3629 75.2798 59.0435C75.1923 58.7241 74.9816 58.4525 74.694 58.2883Z" fill="#FF5E14"/>
<path d="M78.9639 45.4965L71.464 44.194C71.1375 44.1376 70.8019 44.2131 70.531 44.404C70.2601 44.5949 70.0761 44.8855 70.0194 45.212C69.9627 45.5385 70.038 45.8741 70.2286 46.1452C70.4193 46.4162 70.7097 46.6004 71.0361 46.6574L78.5361 47.9599C78.6072 47.9723 78.6793 47.9785 78.7515 47.9785C79.0644 47.9781 79.3657 47.8605 79.596 47.6487C79.8263 47.437 79.9689 47.1466 79.9956 46.8349C80.0223 46.5232 79.9311 46.2128 79.7401 45.9651C79.5491 45.7173 79.2722 45.5501 78.9639 45.4965Z" fill="#FF5E14"/>
<path d="M70.0184 34.7859C70.0688 35.0758 70.2197 35.3386 70.4448 35.5282C70.6698 35.7177 70.9544 35.8219 71.2486 35.8223C71.3208 35.8223 71.3929 35.816 71.4641 35.8037L78.964 34.5012C79.2904 34.4442 79.5809 34.2599 79.7715 33.9889C79.9622 33.7179 80.0374 33.3822 79.9807 33.0557C79.924 32.7293 79.74 32.4386 79.4691 32.2478C79.1982 32.0569 78.8627 31.9814 78.5361 32.0378L71.0362 33.3403C70.7095 33.397 70.4188 33.5812 70.2279 33.8523C70.0371 34.1234 69.9617 34.4593 70.0184 34.7859Z" fill="#FF5E14"/>
<path d="M66.3938 24.992C66.4749 25.1348 66.5834 25.2602 66.7129 25.361C66.8425 25.4618 66.9907 25.5361 67.149 25.5796C67.3073 25.6232 67.4727 25.6351 67.6356 25.6147C67.7985 25.5943 67.9558 25.542 68.0985 25.4608L74.6939 21.7108C74.9815 21.5466 75.1922 21.2749 75.2797 20.9555C75.3672 20.6361 75.3244 20.2951 75.1607 20.0072C74.997 19.7193 74.7258 19.5081 74.4065 19.42C74.0873 19.3319 73.7461 19.3741 73.4579 19.5373L66.8626 23.2873C66.5744 23.4513 66.3631 23.7229 66.2752 24.0426C66.1873 24.3623 66.23 24.7038 66.3938 24.992Z" fill="#FF5E14"/>
<path d="M60.3961 17.3101C60.5772 17.3103 60.7561 17.2711 60.9206 17.1952C61.085 17.1194 61.2309 17.0086 61.3482 16.8706L66.2435 11.1257C66.3505 11.0008 66.4317 10.856 66.4826 10.6997C66.5336 10.5433 66.5531 10.3785 66.5402 10.2146C66.5274 10.0506 66.4823 9.89087 66.4075 9.74441C66.3328 9.59794 66.2299 9.46766 66.1047 9.36103C65.9796 9.25439 65.8346 9.1735 65.6781 9.12297C65.5217 9.07245 65.3568 9.05329 65.1929 9.0666C65.029 9.07991 64.8693 9.12541 64.7231 9.20052C64.5768 9.27562 64.4468 9.37884 64.3404 9.50427L59.4452 15.2492C59.2903 15.4309 59.1907 15.6531 59.1582 15.8896C59.1256 16.1261 59.1615 16.367 59.2615 16.5838C59.3615 16.8005 59.5215 16.9841 59.7226 17.1128C59.9236 17.2415 60.1573 17.31 60.3961 17.3101Z" fill="#FF5E14"/>
<path d="M52.9083 48.0472C52.7643 47.8358 52.559 47.6736 52.32 47.5824C52.081 47.4913 51.8199 47.4755 51.5716 47.5373L46.2805 48.8602L51.1856 34.1452C51.1916 34.1271 51.1918 34.1082 51.1969 34.09C51.2133 34.0322 51.2254 33.9732 51.2332 33.9136C51.2379 33.8783 51.2422 33.8436 51.2438 33.8083C51.2447 33.7885 51.2497 33.77 51.2497 33.75C51.2497 32.1838 51.5204 31.4865 52.4521 29.9014L53.3392 28.3908C54.4198 26.5634 54.993 24.4806 54.9996 22.3575V10.4413C54.9735 9.30594 54.4983 8.22724 53.6783 7.44161C52.8582 6.65597 51.7601 6.22747 50.6247 6.25002C49.9774 6.25028 49.3379 6.39018 48.7497 6.66017V6.62935C48.7497 4.52486 46.7871 2.81252 44.3747 2.81252C43.6816 2.81107 42.9962 2.95786 42.3644 3.24304C42.1164 2.33229 41.5821 1.52547 40.8403 0.94179C40.0985 0.35811 39.1886 0.0285368 38.2451 0.0017698C37.3015 -0.0249972 36.3744 0.252462 35.6007 0.793149C34.827 1.33384 34.2478 2.10907 33.9486 3.00429C33.308 2.67171 32.5966 2.49872 31.8748 2.50002C30.7368 2.4799 29.6372 2.91181 28.8171 3.70108C27.997 4.49035 27.5233 5.57257 27.4999 6.71053V11.0966L29.9998 9.58377V6.71053C30.0428 6.24296 30.2589 5.80833 30.6058 5.49188C30.9527 5.17542 31.4053 4.99999 31.8748 4.99999C32.3444 4.99999 32.797 5.17542 33.1438 5.49188C33.4907 5.80833 33.7068 6.24296 33.7498 6.71053V7.3147L33.7678 7.30379C34.5315 6.84549 35.3727 6.53124 36.2498 6.37666V4.28041C36.2747 3.79994 36.4831 3.34737 36.832 3.0161C37.1809 2.68483 37.6437 2.50013 38.1248 2.50013C38.6059 2.50013 39.0686 2.68483 39.4175 3.0161C39.7664 3.34737 39.9748 3.79994 39.9998 4.28041V6.64366C40.9254 6.95156 41.7768 7.44885 42.4998 8.10384V6.62935C42.4998 5.91554 43.3585 5.31252 44.3747 5.31252C45.3909 5.31252 46.2497 5.91554 46.2497 6.62935V15.8707C46.2497 16.5845 45.391 17.1875 44.3747 17.1875C43.8863 17.1941 43.4086 17.0439 43.0117 16.7591C42.9382 16.8427 42.8689 16.9288 42.7906 17.0093L40.5091 19.3552C40.9804 19.685 41.428 20.0475 41.8486 20.44C42.0803 20.0745 42.2543 19.6755 42.3644 19.257C42.9962 19.5422 43.6816 19.689 44.3747 19.6875C45.0805 19.7003 45.7797 19.5488 46.417 19.2452C47.0543 18.9415 47.6124 18.494 48.0471 17.9378C48.6897 18.3875 49.4387 18.6613 50.2198 18.7318C51.001 18.8023 51.787 18.6672 52.4997 18.3399V22.3575C52.4931 24.0353 52.0388 25.6809 51.1838 27.1244L50.2966 28.635C49.5208 29.7962 49.0168 31.1172 48.8219 32.5H29.9989V27.6709C30.0728 26.8174 29.8371 25.9657 29.3349 25.2716L25.3328 20.2017C25.2016 20.047 25.1058 19.8655 25.0519 19.6699C24.9981 19.4743 24.9875 19.2693 25.0209 19.0692C25.0767 18.824 25.1841 18.5934 25.3361 18.393C25.4881 18.1926 25.6811 18.027 25.9023 17.9071L36.3563 11.5814C36.7906 11.3305 37.2912 11.2184 37.791 11.26C38.2909 11.3016 38.7661 11.495 39.1529 11.8143C39.2774 11.9214 39.3789 12.0526 39.4513 12.1999C39.5238 12.3473 39.5656 12.5078 39.5743 12.6718C39.5737 12.8313 39.5407 12.9889 39.4775 13.1352C39.4142 13.2816 39.322 13.4136 39.2063 13.5233L33.1602 19.7397C33.0031 19.9018 32.8927 20.1034 32.8408 20.3232C32.789 20.5429 32.7975 20.7726 32.8656 20.9878C32.9337 21.2031 33.0587 21.3959 33.2275 21.5459C33.3963 21.6959 33.6025 21.7973 33.8243 21.8396C34.1026 21.8927 40.6302 23.2007 39.9469 28.3771C39.9252 28.54 39.9357 28.7056 39.978 28.8644C40.0203 29.0232 40.0935 29.1721 40.1934 29.3026C40.2933 29.4331 40.4179 29.5426 40.5602 29.6248C40.7024 29.7071 40.8595 29.7605 41.0224 29.782C41.1853 29.8035 41.3509 29.7927 41.5096 29.7502C41.6684 29.7076 41.8172 29.6342 41.9475 29.5341C42.0778 29.434 42.1871 29.3092 42.2692 29.1668C42.3512 29.0244 42.4043 28.8672 42.4256 28.7043C43.0628 23.8746 39.4782 21.1762 36.4021 19.9924L40.9986 15.2661C41.3461 14.9186 41.6203 14.5049 41.8049 14.0495C41.9896 13.594 42.081 13.1062 42.0737 12.6148C42.0578 12.1188 41.9424 11.631 41.7346 11.1804C41.5268 10.7297 41.2306 10.3253 40.8637 9.99118C40.0779 9.30005 39.0938 8.87488 38.052 8.77639C37.0101 8.67791 35.9638 8.91114 35.0624 9.44278L24.6084 15.7681C24.0822 16.0694 23.627 16.4803 23.2738 16.973C22.9205 17.4657 22.6774 18.0287 22.5609 18.6237C22.4633 19.1725 22.4851 19.7359 22.6248 20.2755C22.7645 20.8151 23.0189 21.3183 23.3706 21.7508L27.3729 26.821C27.4825 26.9596 27.4989 27.1362 27.4989 27.6709V33.75L27.4999 33.7591V58.75C27.4999 58.9525 27.5491 59.1519 27.6432 59.3312C27.7374 59.5104 27.8736 59.6641 28.0403 59.779C28.207 59.894 28.3991 59.9667 28.6 59.991C28.801 60.0153 29.0049 59.9905 29.1942 59.9185L32.639 58.6084L29.1548 78.5349C29.1061 78.8139 29.1535 79.1011 29.2894 79.3496C29.4252 79.5981 29.6414 79.7931 29.9026 79.9027C30.1637 80.0122 30.4543 80.0299 30.7268 79.9527C30.9993 79.8755 31.2375 79.7081 31.4024 79.4779L52.8909 49.4779C53.0399 49.2698 53.1215 49.0211 53.1246 48.7653C53.1277 48.5094 53.0522 48.2588 52.9083 48.0472ZM50.6247 16.25C50.1522 16.2726 49.69 16.1075 49.3388 15.7906C48.9875 15.4738 48.7758 15.031 48.7497 14.5587V10.4413C48.7976 9.97741 49.0159 9.54778 49.3622 9.23543C49.7085 8.92309 50.1583 8.75021 50.6247 8.75021C51.091 8.75021 51.5408 8.92309 51.8872 9.23543C52.2335 9.54778 52.4517 9.97741 52.4997 10.4413V14.5587C52.4736 15.031 52.2618 15.4738 51.9106 15.7906C51.5594 16.1075 51.0971 16.2726 50.6247 16.25ZM32.5615 73.5666L35.4801 56.8741C35.5181 56.6566 35.4977 56.433 35.4212 56.2259C35.3447 56.0188 35.2147 55.8357 35.0445 55.6952C34.8743 55.5546 34.6699 55.4616 34.4521 55.4256C34.2343 55.3897 34.0108 55.412 33.8045 55.4904L29.9998 56.9373V40H32.4998V50C32.4989 50.1647 32.5306 50.328 32.593 50.4805C32.6554 50.6329 32.7473 50.7715 32.8635 50.8883C32.9797 51.0051 33.1178 51.0978 33.2699 51.1611C33.422 51.2243 33.5851 51.2569 33.7498 51.2569C33.9145 51.2569 34.0776 51.2243 34.2297 51.1611C34.3818 51.0978 34.5199 51.0051 34.6361 50.8883C34.7523 50.7715 34.8442 50.6329 34.9066 50.4805C34.969 50.328 35.0007 50.1647 34.9998 50V40H46.5987L43.1888 50.2298C43.1181 50.4423 43.1057 50.6699 43.153 50.8888C43.2002 51.1077 43.3055 51.3099 43.4576 51.4742C43.6098 51.6386 43.8033 51.759 44.0179 51.823C44.2326 51.8869 44.4605 51.892 44.6778 51.8378L48.8775 50.7877L32.5615 73.5666Z" fill="#FF5E14"/>
<path d="M68.125 40.0009C68.1246 35.7715 67.1688 31.5969 65.3291 27.7887C63.4893 23.9804 60.8131 20.6369 57.5002 18.0078V22.3584C57.4935 24.9269 56.8012 27.447 55.4949 29.6585L54.6084 31.1682C53.8085 32.5293 53.7502 32.7835 53.7502 33.7509C53.7502 33.8348 53.7444 33.9337 53.7353 34.0265C53.7298 34.0945 53.7221 34.1641 53.713 34.2349C53.694 34.378 53.6672 34.5199 53.6327 34.66C53.6135 34.7473 53.5903 34.8364 53.5656 34.9127L50.093 45.3311L50.9658 45.1129C51.7105 44.9268 52.4944 44.9736 53.2116 45.2472C53.9288 45.5208 54.5448 46.0078 54.9764 46.6426C55.4079 47.2774 55.6343 48.0294 55.6249 48.7969C55.6156 49.5645 55.3709 50.3107 54.9239 50.9347L42.7051 67.9931C49.66 67.3127 56.1135 64.0709 60.8115 58.8975C65.5094 53.7242 68.1161 46.989 68.125 40.0009Z" fill="#FF5E14"/>
<path d="M28.7495 62.4997C27.755 62.4997 26.8013 62.1046 26.0981 61.4014C25.3949 60.6982 24.9998 59.7445 24.9998 58.75L24.9989 27.8485L21.4082 23.2999C20.6893 22.4012 20.2235 21.3268 20.0592 20.1877C16.8277 23.4342 14.4389 27.4215 13.1007 31.8023C11.7626 36.1831 11.5157 40.8246 12.3816 45.3226C13.2475 49.8207 15.1998 54.0388 18.0687 57.6098C20.9375 61.1808 24.6358 63.9963 28.8416 65.8111L29.4315 62.4375C29.2066 62.479 28.9783 62.4998 28.7495 62.4997Z" fill="#FF5E14"/>
</g>
<defs>
<clipPath id="clip0_1_14875">
<rect width="80" height="80" fill="white"/>
</clipPath>
</defs>
</svg>
