<svg width="68" height="68" viewBox="0 0 68 68" fill="none" xmlns="http://www.w3.org/2000/svg">
<g clip-path="url(#clip0_1_14920)">
<path d="M38.25 65.875H29.75C27.4061 65.875 25.5 63.9689 25.5 61.625V60.2586C24.1017 59.8081 22.7439 59.245 21.4412 58.5799L20.4765 59.5446C18.8211 61.2 16.1224 61.2021 14.467 59.5446L8.4575 53.5351C7.65425 52.7319 7.21225 51.6651 7.21225 50.5304C7.21225 49.3935 7.65425 48.3268 8.4575 47.5235L9.42225 46.5588C8.75287 45.2561 8.19187 43.8983 7.74137 42.5H6.375C4.03112 42.5 2.125 40.5939 2.125 38.25V29.75C2.125 27.4061 4.03112 25.5 6.375 25.5H7.74137C8.194 24.1017 8.755 22.7439 9.42225 21.4412L8.45538 20.4765C7.65425 19.6754 7.21225 18.6065 7.21225 17.4718C7.21225 16.337 7.65425 15.2703 8.4575 14.467L14.467 8.4575C16.1224 6.8 18.8211 6.8 20.4765 8.4575L21.4412 9.42225C22.7439 8.75712 24.1017 8.194 25.5 7.7435V6.375C25.5 4.03112 27.4061 2.125 29.75 2.125H38.25C40.5939 2.125 42.5 4.03112 42.5 6.375V7.74137C43.8983 8.19187 45.2561 8.755 46.5588 9.42013L47.5235 8.45538C49.1789 6.8 51.8776 6.79788 53.533 8.45538L59.5425 14.4649C60.3458 15.2681 60.7878 16.3349 60.7878 17.4696C60.7878 18.6065 60.3458 19.6733 59.5425 20.4765L58.5778 21.4412C59.245 22.7439 59.806 24.1017 60.2586 25.5H61.625C63.9689 25.5 65.875 27.4061 65.875 29.75V38.25C65.875 40.5939 63.9689 42.5 61.625 42.5H60.2586C59.806 43.8983 59.245 45.2561 58.5778 46.5588L59.5425 47.5235C60.3458 48.3246 60.7878 49.3914 60.7878 50.5283C60.7878 51.663 60.3458 52.7297 59.5425 53.533L53.533 59.5425C51.8776 61.2 49.1789 61.2 47.5235 59.5425L46.5588 58.5778C45.2561 59.2429 43.8983 59.806 42.5 60.2565V61.625C42.5 63.9689 40.5939 65.875 38.25 65.875ZM20.7315 53.2822L22.1489 54.1216C24.0168 55.2245 26.0376 56.0617 28.1562 56.6079L29.75 57.018V61.625H38.25V57.018L39.8438 56.6079C41.9624 56.0617 43.9832 55.2245 45.8511 54.1216L47.2685 53.2822L50.5283 56.5378L56.5378 50.5283L53.2822 47.2706L54.1195 45.8532C55.2245 43.9832 56.0596 41.9624 56.6058 39.8438L57.018 38.25H61.625V29.75H57.018L56.6058 28.1562C56.0596 26.0376 55.2245 24.0168 54.1195 22.1467L53.2822 20.7294L56.5378 17.4718L50.5283 11.4622L47.2685 14.7199L45.8511 13.8805C43.9832 12.7776 41.9624 11.9404 39.8438 11.3942L38.25 10.982V6.375H29.75V10.982L28.1562 11.3921C26.0376 11.9383 24.0168 12.7755 22.1489 13.8784L20.7315 14.7178L17.4718 11.4622L11.4622 17.4718L14.7178 20.7294L13.8805 22.1467C12.7755 24.0168 11.9404 26.0376 11.3942 28.1562L10.982 29.75H6.375V38.25H10.982L11.3942 39.8438C11.9404 41.9624 12.7755 43.9832 13.8805 45.8532L14.7178 47.2706L11.4622 50.5283L17.4718 56.5378L20.7315 53.2822Z" fill="#FF5E14"/>
<path d="M34 48.875C25.7996 48.875 19.125 42.2025 19.125 34C19.125 25.7975 25.7996 19.125 34 19.125C42.2004 19.125 48.875 25.7975 48.875 34C48.875 42.2025 42.2004 48.875 34 48.875ZM34 23.375C28.1414 23.375 23.375 28.1414 23.375 34C23.375 39.8586 28.1414 44.625 34 44.625C39.8586 44.625 44.625 39.8586 44.625 34C44.625 28.1414 39.8586 23.375 34 23.375Z" fill="#FF5E14"/>
<path d="M34 40.375C32.8249 40.375 31.875 39.423 31.875 38.25V29.75C31.875 28.577 32.8249 27.625 34 27.625C35.1751 27.625 36.125 28.577 36.125 29.75V38.25C36.125 39.423 35.1751 40.375 34 40.375Z" fill="#FF5E14"/>
<path d="M33.9996 40.3748C33.4556 40.3748 32.9116 40.1666 32.4972 39.7522C31.6663 38.9213 31.6663 37.5783 32.4972 36.7475L37.0043 32.2403C37.8352 31.4095 39.1782 31.4095 40.0091 32.2403C40.8399 33.0712 40.8399 34.4142 40.0091 35.2451L35.5019 39.7522C35.0876 40.1666 34.5436 40.3748 33.9996 40.3748Z" fill="#FF5E14"/>
<path d="M33.9998 40.375C33.4558 40.375 32.9118 40.1667 32.4975 39.7523L27.9903 35.2452C27.1595 34.4143 27.1595 33.0713 27.9903 32.2405C28.8212 31.4096 30.1642 31.4096 30.9951 32.2405L35.5022 36.7476C36.3331 37.5785 36.3331 38.9215 35.5022 39.7523C35.0878 40.1667 34.5438 40.375 33.9998 40.375Z" fill="#FF5E14"/>
</g>
<defs>
<clipPath id="clip0_1_14920">
<rect width="68" height="68" fill="white"/>
</clipPath>
</defs>
</svg>
