<svg width="88" height="88" viewBox="0 0 88 88" fill="none" xmlns="http://www.w3.org/2000/svg">
<path d="M85.8811 69.9248C86.4783 70.5222 86.4783 71.5025 85.8811 72.0997C85.5747 72.3908 85.1918 72.544 84.7936 72.544C84.3953 72.544 84.0124 72.3908 83.7061 72.0997L79.5707 67.949H54.9265C54.0841 67.949 53.3948 68.6383 53.3948 69.4807C53.3948 70.3231 54.0841 71.0123 54.9265 71.0123H60.854C60.18 73.662 57.7753 75.6073 54.9265 75.6073C51.5415 75.6073 48.7999 72.8656 48.7999 69.4807C48.7999 66.0958 51.5415 63.3541 54.9265 63.3541C56.4715 63.3541 57.8737 63.9394 58.9522 64.8857H62.8783C61.2924 62.1386 58.3243 60.2908 54.9265 60.2908C49.8567 60.2908 45.7366 64.4109 45.7366 69.4807C45.7366 74.5504 49.8567 78.6706 54.9265 78.6706C59.4754 78.6706 63.2586 75.3622 63.9785 71.0123H71.698C70.9322 79.5895 63.7028 86.3288 54.9265 86.3288C45.6294 86.3288 38.0784 78.7778 38.0784 69.4807C38.0784 60.1836 45.6294 52.6326 54.9265 52.6326C62.6263 52.6326 69.1328 57.8209 71.131 64.8857H79.5707L83.7061 60.735C84.3034 60.1376 85.2837 60.1376 85.8811 60.735C86.4783 61.3323 86.4783 62.3126 85.8811 62.9099L83.8898 64.8857H84.7936C85.6359 64.8857 86.3252 65.575 86.3252 66.4174C86.3252 67.2598 85.6359 67.949 84.7936 67.949H83.8898L85.8811 69.9248ZM9.90326 47.5015H9.93393C11.4502 47.5015 12.8594 46.7357 13.7171 45.4797L15.2028 43.2743C15.4938 42.8607 15.9686 42.6003 16.4741 42.6003H27.0424C27.6857 42.585 28.3749 42.5697 28.9569 42.4012C33.2456 41.5894 36.5846 38.082 37.1513 33.7321C37.2585 32.9662 37.9018 32.3995 38.6676 32.3995C39.5253 32.3995 40.2146 33.1041 40.2146 33.9465C40.2146 34.0077 40.1993 34.0691 40.1993 34.1303C39.4793 39.6289 35.3745 44.1626 29.8606 45.342C28.9264 45.5717 28.0073 45.6636 27.0424 45.6636H24.6377L22.3555 52.4335C20.5329 57.8249 16.2136 62.0982 10.807 63.8748C10.179 64.0739 9.75013 64.656 9.75013 65.3299V71.0123H35.0988C35.0376 70.5069 35.0223 70.0014 35.0223 69.4807C35.0223 58.4987 43.9518 49.5693 54.9337 49.5693C55.194 49.5693 55.4391 49.5693 55.6995 49.5846V33.9312C55.6995 22.015 46.2339 12.2584 34.4096 11.8142L31.1013 6.77512C28.5588 2.90001 24.2242 0.556641 19.5833 0.556641H17.3011C16.811 0.556641 16.3362 0.801658 16.0452 1.1999C15.7695 1.61348 15.6929 2.13419 15.8614 2.59365L19.5374 12.9936L1.72432 32.9815C0.315238 34.5744 0.162012 36.9026 1.37207 38.6486L6.13548 45.5257C6.9932 46.7664 8.40228 47.5015 9.90326 47.5015ZM35.5583 74.0756H8.2185C5.69125 74.0756 3.62356 76.1433 3.62356 78.6706V81.7339C3.62356 84.261 5.69125 86.3288 8.2185 86.3288H44.3347C40.0001 83.5871 36.7837 79.2219 35.5583 74.0756Z" fill="#1A747B"/>
</svg>
