<svg width="88" height="88" viewBox="0 0 88 88" fill="none" xmlns="http://www.w3.org/2000/svg">
<path d="M35.9514 24.5825L39.5908 20.943C40.1274 20.4064 40.9973 20.4064 41.5339 20.943L44.08 23.489L48.154 19.4151H47.3102C46.5514 19.4151 45.9363 18.7999 45.9363 18.0411C45.9363 17.2823 46.5514 16.6671 47.3102 16.6671H51.47C51.5157 16.6671 51.5612 16.6695 51.6068 16.674C51.6255 16.6759 51.6436 16.6793 51.6621 16.6821C51.6879 16.6857 51.7138 16.6888 51.7396 16.6939C51.7618 16.6984 51.7833 16.7044 51.8051 16.7099C51.8268 16.7152 51.8484 16.7201 51.8699 16.7266C51.8917 16.7331 51.9129 16.7414 51.9342 16.7491C51.955 16.7565 51.9761 16.7634 51.9966 16.772C52.0169 16.7804 52.0365 16.7904 52.0562 16.7996C52.077 16.8094 52.098 16.8187 52.1183 16.8295C52.1377 16.8399 52.1561 16.8517 52.1748 16.8631C52.1944 16.8747 52.2143 16.8859 52.2334 16.8986C52.2547 16.9129 52.2748 16.9287 52.2953 16.944C52.3106 16.9555 52.3264 16.9662 52.3414 16.9786C52.4117 17.0361 52.4759 17.1004 52.5335 17.1707C52.5457 17.1855 52.5562 17.2011 52.5677 17.2164C52.5832 17.2371 52.5992 17.2573 52.6134 17.2786C52.626 17.2974 52.6368 17.317 52.6483 17.3361C52.6598 17.3553 52.6719 17.374 52.6825 17.394C52.693 17.4136 52.702 17.4339 52.7114 17.454C52.7212 17.4744 52.7313 17.4947 52.7401 17.5158C52.7482 17.5354 52.7547 17.5555 52.7619 17.5755C52.77 17.5978 52.7784 17.6198 52.7853 17.6427C52.7913 17.6626 52.7958 17.6831 52.801 17.7032C52.8068 17.7264 52.8133 17.7494 52.818 17.773C52.8226 17.7962 52.8252 17.8197 52.8286 17.8431C52.8317 17.8641 52.8357 17.8847 52.8377 17.9058C52.8419 17.9483 52.8439 17.9909 52.8443 18.0335C52.8443 18.0361 52.8446 18.0385 52.8446 18.0411V22.5478C52.8446 23.3066 52.2295 23.9218 51.4706 23.9218C50.7118 23.9218 50.0967 23.3066 50.0967 22.5478V21.3581L45.0513 26.4035C44.5147 26.9401 43.6448 26.9401 43.1082 26.4035L40.5621 23.8575L37.8942 26.5254C37.6259 26.7936 37.2745 26.9277 36.9228 26.9277C36.5711 26.9277 36.2197 26.7936 35.9514 26.5254C35.4148 25.9888 35.4148 25.1189 35.9514 24.5823V24.5825ZM86.7882 79.2731V85.2511C86.7882 86.0099 86.1731 86.6251 85.4142 86.6251H8.76246C8.00363 86.6251 7.38849 86.0099 7.38849 85.2511V79.2731C7.38849 78.5143 8.00363 77.8991 8.76246 77.8991H10.2581V69.0661C10.2581 68.3073 10.8733 67.6922 11.6321 67.6922H23.3787C24.1375 67.6922 24.7527 68.3073 24.7527 69.0661V77.8991H29.9804V49.4708C29.9804 48.712 30.5956 48.0969 31.3544 48.0969H43.1009C43.8597 48.0969 44.4748 48.712 44.4748 49.4708V77.8991H49.7026V52.5012C49.7026 51.7423 50.3177 51.1272 51.0765 51.1272H62.823C63.5818 51.1272 64.197 51.7423 64.197 52.5012V77.8991H69.4247V21.437C69.4247 20.6782 70.0398 20.063 70.7987 20.063H82.5451C83.304 20.063 83.9191 20.6782 83.9191 21.437V77.8991H85.4148C86.1736 77.8991 86.7887 78.5143 86.7887 79.2731H86.7882ZM84.0404 80.6471H10.1364V83.8771H84.0404V80.6471ZM9.09659 64.5957L2.64595 58.1452C1.93404 57.4333 1.54199 56.4844 1.54199 55.4732C1.54199 54.4621 1.93404 53.5133 2.64595 52.8014L15.552 39.8953C16.8495 38.598 18.8627 38.4445 20.3312 39.4323L26.4429 33.3166C24.5746 30.1612 23.5002 26.4829 23.5002 22.5576C23.5002 10.877 33.0032 1.37402 44.6838 1.37402C56.3644 1.37402 65.8674 10.877 65.8674 22.5576C65.8674 34.2382 56.3644 43.7412 44.6838 43.7412C40.7587 43.7412 37.0802 42.6668 33.9248 40.7985L27.8102 46.9094C28.2261 47.5266 28.4502 48.2541 28.4502 49.0176C28.4502 50.0287 28.0582 50.9775 27.3463 51.6894L14.4402 64.5955C13.7035 65.332 12.7359 65.7005 11.7684 65.7005C10.8009 65.7005 9.83324 65.3321 9.09659 64.5955V64.5957ZM36.6184 14.4908C34.4621 16.6451 33.2749 19.5096 33.2749 22.5576C33.2749 25.6056 34.4619 28.4699 36.6174 30.6232L36.6182 30.6242C38.7715 32.7797 41.636 33.9667 44.6838 33.9667C47.7317 33.9667 50.5961 32.7795 52.7496 30.6242C54.9059 28.4699 56.0931 25.6055 56.0931 22.5576C56.0931 19.5098 54.9059 16.6453 52.7506 14.4919C50.5963 12.3355 47.7318 11.1484 44.6838 11.1484C41.6358 11.1484 38.7715 12.3355 36.6182 14.4908H36.6184ZM22.3251 41.3243L25.9173 44.9167L31.6172 39.2202C30.2802 38.1694 29.0722 36.9614 28.0214 35.6244L22.3249 41.3245L22.3251 41.3243Z" fill="#1A747B"/>
</svg>
