<svg width="88" height="88" viewBox="0 0 88 88" fill="none" xmlns="http://www.w3.org/2000/svg">
<path d="M79.6121 21.0391H69.2252V8.79298C69.2254 7.98883 69.0721 7.19251 68.7739 6.44952C68.4757 5.70653 68.0385 5.03144 67.4873 4.46282C66.9361 3.89419 66.2817 3.44318 65.5615 3.13555C64.8413 2.82792 64.0694 2.66969 63.2899 2.66992H24.7102C23.9307 2.66969 23.1588 2.82792 22.4385 3.13555C21.7183 3.44318 21.0639 3.89419 20.5128 4.46282C19.9616 5.03144 19.5244 5.70653 19.2262 6.44952C18.928 7.19251 18.7746 7.98883 18.7748 8.79298V21.0391H8.38798C7.60848 21.0389 6.83657 21.1971 6.11636 21.5047C5.39615 21.8124 4.74176 22.2634 4.19057 22.832C3.63938 23.4006 3.20219 24.0757 2.90399 24.8187C2.60579 25.5617 2.45242 26.358 2.45264 27.1622V36.3467C2.46219 39.1856 3.55958 41.9054 5.50542 43.9128C7.45127 45.9201 10.0877 47.0522 12.8395 47.0621H28.4198V42.4698C28.4195 41.6657 28.5729 40.8693 28.8711 40.1263C29.1693 39.3834 29.6065 38.7083 30.1577 38.1396C30.7089 37.571 31.3633 37.12 32.0835 36.8124C32.8037 36.5047 33.5756 36.3465 34.3551 36.3467H53.6449C54.4244 36.3465 55.1964 36.5047 55.9166 36.8124C56.6368 37.12 57.2912 37.571 57.8424 38.1396C58.3936 38.7083 58.8307 39.3834 59.1289 40.1263C59.4271 40.8693 59.5805 41.6657 59.5803 42.4698V47.0621H75.1606C77.2847 47.0678 79.3584 46.3939 81.0959 45.1333C82.4681 44.146 83.5893 42.8318 84.3642 41.3022C85.1392 39.7726 85.545 38.0727 85.5474 36.3467V27.1622C85.5476 26.358 85.3942 25.5617 85.096 24.8187C84.7979 24.0757 84.3607 23.4006 83.8095 22.832C83.2583 22.2634 82.6039 21.8124 81.8837 21.5047C81.1635 21.1971 80.3916 21.0389 79.6121 21.0391ZM66.2575 21.0391H21.7425V8.79298C21.7448 7.98174 22.0582 7.20441 22.6142 6.63077C23.1703 6.05714 23.9238 5.73382 24.7102 5.73145H63.2899C64.0762 5.73382 64.8297 6.05714 65.3858 6.63077C65.9418 7.20441 66.2552 7.98174 66.2575 8.79298V21.0391ZM75.1606 50.1236H59.5803C59.5156 50.1262 59.4509 50.121 59.3874 50.1083C59.0633 51.4258 58.3227 52.5943 57.2827 53.4288C56.2426 54.2633 54.9625 54.7162 53.6449 54.7159H34.3551C33.0375 54.7162 31.7574 54.2633 30.7174 53.4288C29.6773 52.5943 28.9367 51.4258 28.6126 50.1083C28.5491 50.121 28.4844 50.1262 28.4198 50.1236H12.8395C10.7802 50.1205 8.74925 49.6281 6.90414 48.6847V79.2082C6.90393 80.0123 7.05731 80.8086 7.35551 81.5516C7.65371 82.2946 8.0909 82.9697 8.64209 83.5383C9.19328 84.1069 9.84767 84.5579 10.5679 84.8656C11.2881 85.1732 12.06 85.3314 12.8395 85.3312H75.1606C75.9401 85.3314 76.712 85.1732 77.4322 84.8656C78.1524 84.5579 78.8068 84.1069 79.3579 83.5383C79.9091 82.9697 80.3463 82.2946 80.6445 81.5516C80.9427 80.8086 81.0961 80.0123 81.0959 79.2082V48.6847C79.2508 49.6281 77.2199 50.1205 75.1606 50.1236ZM44 68.4928C45.2009 68.5058 46.3581 68.9596 47.2641 69.7728C48.1701 70.586 48.7658 71.7056 48.9444 72.9307C49.123 74.1559 48.8727 75.4066 48.2386 76.4588C47.6044 77.5109 46.6278 78.2957 45.4837 78.6724C45.5534 78.9111 45.5679 79.1634 45.5262 79.4089C45.4845 79.6545 45.3877 79.8866 45.2435 80.0867C45.0993 80.2868 44.9118 80.4493 44.6959 80.5613C44.4799 80.6733 44.2416 80.7316 43.9999 80.7316C43.7583 80.7316 43.5199 80.6733 43.304 80.5613C43.0881 80.4493 42.9005 80.2868 42.7564 80.0867C42.6122 79.8866 42.5154 79.6545 42.4737 79.4089C42.432 79.1634 42.4465 78.9111 42.5162 78.6724C41.4864 78.3424 40.5857 77.6819 39.9452 76.7871C39.3046 75.8922 38.9577 74.8098 38.955 73.6974C38.955 73.2914 39.1113 72.9021 39.3896 72.615C39.6679 72.3279 40.0453 72.1666 40.4388 72.1666C40.8324 72.1666 41.2098 72.3279 41.488 72.615C41.7663 72.9021 41.9226 73.2914 41.9226 73.6974C41.9226 74.1213 42.0445 74.5356 42.2728 74.888C42.501 75.2405 42.8255 75.5151 43.205 75.6774C43.5846 75.8396 44.0023 75.882 44.4053 75.7993C44.8083 75.7166 45.1784 75.5125 45.4689 75.2128C45.7595 74.9131 45.9573 74.5312 46.0375 74.1155C46.1176 73.6998 46.0765 73.2689 45.9193 72.8773C45.762 72.4857 45.4958 72.151 45.1541 71.9155C44.8125 71.68 44.4109 71.5543 44 71.5543C42.792 71.5542 41.6241 71.107 40.7086 70.2939C39.7931 69.4808 39.1908 68.3558 39.0112 67.1234C38.8315 65.891 39.0865 64.633 39.7297 63.5781C40.3729 62.5232 41.3616 61.7414 42.5162 61.3748C42.4466 61.136 42.432 60.8838 42.4737 60.6382C42.5155 60.3927 42.6123 60.1606 42.7565 59.9605C42.9006 59.7604 43.0882 59.5979 43.3041 59.4859C43.52 59.374 43.7584 59.3156 44 59.3156C44.2417 59.3156 44.48 59.374 44.6959 59.4859C44.9118 59.5979 45.0994 59.7604 45.2436 59.9605C45.3878 60.1606 45.4846 60.3927 45.5263 60.6382C45.568 60.8838 45.5535 61.136 45.4839 61.3748C46.5136 61.7047 47.4143 62.3652 48.0549 63.2601C48.6954 64.1549 49.0423 65.2374 49.0451 66.3497C49.0375 66.7505 48.8778 67.1323 48.6003 67.413C48.3229 67.6937 47.9498 67.8509 47.5612 67.8509C47.1726 67.8509 46.7995 67.6936 46.522 67.4129C46.2446 67.1322 46.085 66.7505 46.0774 66.3496C46.0774 65.9258 45.9555 65.5115 45.7272 65.159C45.499 64.8066 45.1745 64.532 44.7949 64.3698C44.4153 64.2076 43.9977 64.1652 43.5947 64.2479C43.1917 64.3306 42.8216 64.5347 42.5311 64.8344C42.2406 65.1341 42.0427 65.516 41.9626 65.9317C41.8824 66.3474 41.9236 66.7783 42.0808 67.1699C42.238 67.5615 42.5043 67.8962 42.8459 68.1316C43.1875 68.3671 43.5892 68.4928 44 68.4928ZM34.3551 51.6544C33.5687 51.652 32.8152 51.3287 32.2592 50.7551C31.7031 50.1814 31.3897 49.4041 31.3874 48.5929V42.4698C31.3897 41.6586 31.7031 40.8812 32.2592 40.3076C32.8152 39.734 33.5687 39.4106 34.3551 39.4083H53.6449C54.4313 39.4106 55.1848 39.734 55.7409 40.3076C56.2969 40.8812 56.6103 41.6586 56.6126 42.4698V48.5929C56.6103 49.4041 56.2969 50.1814 55.7409 50.7551C55.1848 51.3287 54.4313 51.652 53.6449 51.6544H34.3551Z" fill="#1A747B"/>
</svg>
