<svg width="88" height="88" viewBox="0 0 88 88" fill="none" xmlns="http://www.w3.org/2000/svg">
<g clip-path="url(#clip0_645_184)">
<path fill-rule="evenodd" clip-rule="evenodd" d="M44 87.6652C38.1928 87.6652 33.4105 83.9362 32.095 78.9414H55.905C54.5895 83.938 49.8072 87.6652 44 87.6652ZM22.3195 57.8096C22.7076 57.4585 23.3385 57.4585 23.7265 57.8096C24.1146 58.1607 24.1146 58.7315 23.7265 59.0826L16.5262 65.5972H19.3701C19.9194 65.5972 20.3652 66.0005 20.3652 66.4975C20.3652 66.9944 19.9194 67.3978 19.3701 67.3978H14.1241C13.5749 67.3978 13.1291 66.9944 13.1291 66.4975V61.7511C13.1291 61.2541 13.5749 60.8508 14.1241 60.8508C14.6734 60.8508 15.1192 61.2541 15.1192 61.7511V64.3241L22.3195 57.8096ZM14.3331 38.5666C14.8824 38.5666 15.3282 38.97 15.3282 39.4669C15.3282 39.9639 14.8824 40.3672 14.3331 40.3672H4.1496L6.15964 42.1876C6.54771 42.5387 6.54771 43.1095 6.15964 43.4606C5.77156 43.8118 5.14069 43.8118 4.75261 43.4606L1.04301 40.1043C0.654934 39.7532 0.654934 39.1824 1.04301 38.8313L4.75261 35.475C5.14069 35.1239 5.77156 35.1239 6.15964 35.475C6.54771 35.8261 6.54771 36.3969 6.15964 36.748L4.1496 38.5666H14.3331ZM23.7265 19.8512C24.1146 20.2024 24.1146 20.7731 23.7265 21.1243C23.3385 21.4754 22.7076 21.4754 22.3195 21.1243L15.1192 14.6097V17.1828C15.1192 17.6797 14.6734 18.0831 14.1241 18.0831C13.5749 18.0831 13.1291 17.6797 13.1291 17.1828V12.4364C13.1291 11.9394 13.5749 11.5361 14.1241 11.5361H19.3701C19.9194 11.5361 20.3652 11.9394 20.3652 12.4364C20.3652 12.9334 19.9194 13.3367 19.3701 13.3367H16.5262L23.7265 19.8512ZM64.2755 59.0844C63.8874 58.7333 63.8874 58.1625 64.2755 57.8114C64.6635 57.4603 65.2944 57.4603 65.6825 57.8114L72.8828 64.3259V61.7529C72.8828 61.2559 73.3286 60.8526 73.8778 60.8526C74.4271 60.8526 74.8729 61.2559 74.8729 61.7529V66.4993C74.8729 66.9962 74.4271 67.3996 73.8778 67.3996H68.6319C68.0826 67.3996 67.6368 66.9962 67.6368 66.4993C67.6368 66.0023 68.0826 65.599 68.6319 65.599H71.4758L64.2755 59.0844ZM73.6689 40.369C73.1196 40.369 72.6738 39.9657 72.6738 39.4687C72.6738 38.9718 73.1196 38.5684 73.6689 38.5684H83.8524L81.8404 36.7498C81.4523 36.3987 81.4523 35.8279 81.8404 35.4768C82.2284 35.1257 82.8593 35.1257 83.2474 35.4768L86.957 38.8331C87.3451 39.1842 87.3451 39.755 86.957 40.1061L83.2474 43.4624C82.8593 43.8136 82.2284 43.8136 81.8404 43.4624C81.4523 43.1113 81.4523 42.5405 81.8404 42.1894L83.8524 40.369H73.6689ZM65.6825 21.1261C65.2944 21.4772 64.6635 21.4772 64.2755 21.1261C63.8874 20.7749 63.8874 20.2042 64.2755 19.853L71.4758 13.3385H68.6319C68.0826 13.3385 67.6368 12.9352 67.6368 12.4382C67.6368 11.9412 68.0826 11.5379 68.6319 11.5379H73.8778C74.4271 11.5379 74.8729 11.9412 74.8729 12.4382V17.1846C74.8729 17.6815 74.4271 18.0849 73.8778 18.0849C73.3286 18.0849 72.8828 17.6815 72.8828 17.1846V14.6115L65.6825 21.1261ZM44.9971 12.6273C44.9971 13.1242 44.5513 13.5275 44.002 13.5275C43.4527 13.5275 43.0069 13.1242 43.0069 12.6273V3.41L40.9969 5.2286C40.6088 5.57972 39.9779 5.57972 39.5899 5.2286C39.2018 4.87749 39.2018 4.3067 39.5899 3.95558L43.2995 0.599275C43.6875 0.248158 44.3184 0.248158 44.7065 0.599275L48.4161 3.95558C48.8042 4.3067 48.8042 4.87749 48.4161 5.2286C48.028 5.57972 47.3972 5.57972 47.0091 5.2286L44.999 3.41V12.6236L44.9971 12.6273ZM31.7826 77.1426C31.7527 76.8203 31.7388 76.4926 31.7388 76.163V69.3172H56.2672V76.163C56.2672 76.4926 56.2513 76.8185 56.2234 77.1426H31.7846H31.7826ZM31.7189 67.5166H56.2851C56.7707 54.6531 67.6308 54.3326 67.6308 39.4669C67.6308 27.0068 57.0513 16.9055 44.002 16.9055C30.9527 16.9055 20.3732 27.0068 20.3732 39.4669C20.3732 54.3326 31.2333 54.6531 31.7189 67.5166ZM44.002 25.0568C49.6938 25.0568 54.3089 29.2323 54.3089 34.382C54.3089 37.7654 52.3187 40.7255 49.3395 42.3605C49.033 42.5279 48.8599 42.807 48.8599 43.1293V44.5518C48.8599 45.0866 48.3783 45.5241 47.7852 45.5241H47.4947C47.2758 45.5241 47.0966 45.6862 47.0966 45.8842V49.3414C47.0966 49.4944 47.035 49.6277 46.9116 49.7321L45.7812 50.7062C45.6578 50.8125 45.5961 50.9439 45.5961 51.097C45.5961 51.25 45.6578 51.3833 45.7812 51.4877L46.6429 52.2295C46.7663 52.3358 46.828 52.4672 46.828 52.6203C46.828 52.7733 46.7663 52.9048 46.6429 53.011L45.7812 53.7528C45.6578 53.8591 45.5961 53.9905 45.5961 54.1436C45.5961 54.2966 45.6578 54.4299 45.7812 54.5343L46.9116 55.5084C47.035 55.6147 47.0966 55.7461 47.0966 55.8991V58.3696C47.0966 58.6018 47.0111 58.8017 46.8379 58.9746L44.7383 61.0687C44.5433 61.2631 44.2926 61.364 44.002 61.364C43.7114 61.364 43.4607 61.2631 43.2656 61.0687L41.1661 58.9746C40.9929 58.8017 40.9073 58.6018 40.9073 58.3696V45.8806C40.9073 45.6826 40.7282 45.5205 40.5093 45.5205H40.2188C39.6277 45.5205 39.1441 45.0848 39.1441 44.5482V43.1257C39.1441 42.8016 38.9709 42.5243 38.6645 42.3569C35.6852 40.7219 33.6951 37.7618 33.6951 34.3784C33.6951 29.2287 38.3102 25.0532 44.002 25.0532V25.0568ZM44.002 29.0937C45.1025 29.0937 45.9941 29.9004 45.9941 30.8961C45.9941 31.8918 45.1025 32.6985 44.002 32.6985C42.9014 32.6985 42.0099 31.8918 42.0099 30.8961C42.0099 29.9004 42.9014 29.0937 44.002 29.0937Z" fill="#1A747B"/>
</g>
<defs>
<clipPath id="clip0_645_184">
<rect width="88" height="88" fill="white"/>
</clipPath>
</defs>
</svg>
