<svg width="88" height="88" viewBox="0 0 88 88" fill="none" xmlns="http://www.w3.org/2000/svg">
<path d="M85.0962 23.3403C85.0962 26.2016 83.0066 28.6073 80.2204 29.2238V43.4432C80.2204 45.6612 78.3467 47.4637 76.0411 47.4637H56.5378V48.8039C56.5378 49.541 55.911 50.1441 55.1447 50.1441H44V53.4946C44 54.0106 43.6935 54.473 43.2129 54.7008C43.0248 54.7879 42.8159 54.8348 42.6069 54.8348C42.3004 54.8348 41.994 54.7343 41.7432 54.5467L32.3746 47.4638H15.2884C14.7513 49.7153 12.9062 51.491 10.5658 52.007V67.5666C10.5658 68.3037 11.1927 68.9068 11.9589 68.9068H21.8638C22.5046 66.2265 25.0052 64.2162 27.9794 64.2162C31.4343 64.2162 34.2484 66.9234 34.2484 70.247C34.2484 73.5707 31.4343 76.2779 27.9794 76.2779C25.0052 76.2779 22.5046 74.2676 21.8638 71.5872H11.9589C9.65332 71.5872 7.77962 69.7847 7.77962 67.5667V52.0071C4.99344 51.3906 2.90381 48.985 2.90381 46.1236C2.90381 42.8 5.71786 40.0928 9.17273 40.0928C12.147 40.0928 14.6476 42.1031 15.2884 44.7834H32.3747L41.7432 37.7005C42.1681 37.3789 42.7393 37.3253 43.2129 37.5464C43.6935 37.7743 44 38.2366 44 38.7526V42.1031H55.1447C55.9109 42.1031 56.5378 42.7062 56.5378 43.4433V44.7835H76.0411C76.8073 44.7835 77.4342 44.1804 77.4342 43.4433V29.2239C75.0938 28.7072 73.248 26.9322 72.7116 24.6806H48.1793C47.4131 24.6806 46.7862 24.0776 46.7862 23.3404C46.7862 22.6033 47.4131 22.0002 48.1793 22.0002H72.7116C73.3525 19.3198 75.8531 17.3096 78.8273 17.3096C82.2822 17.3095 85.0962 20.0166 85.0962 23.3403Z" fill="#1A747B"/>
<path d="M77.4343 72.9268V83.6483C77.4343 85.1292 76.1874 86.3287 74.6481 86.3287H62.1102V72.9268H77.4343Z" fill="#1A747B"/>
<path d="M42.6069 27.3601V30.0405C42.6069 31.5214 41.36 32.7209 39.8207 32.7209H16.1381C14.5987 32.7209 13.3519 31.5214 13.3519 30.0405V27.3601C13.3519 23.6679 16.4794 20.6592 20.3174 20.6592H35.6414C39.4794 20.6592 42.6069 23.6679 42.6069 27.3601Z" fill="#1A747B"/>
<path d="M27.9794 19.3193C33.3651 19.3193 37.731 15.1191 37.731 9.93796C37.731 4.7568 33.3651 0.556641 27.9794 0.556641C22.5937 0.556641 18.2278 4.7568 18.2278 9.93796C18.2278 15.1191 22.5937 19.3193 27.9794 19.3193Z" fill="#1A747B"/>
<path d="M59.324 72.9268V86.3287H46.7862C45.2468 86.3287 44 85.1292 44 83.6483V72.9268H59.324Z" fill="#1A747B"/>
<path d="M59.324 68.3569V70.2466H42.0358L38.4277 66.7822C37.5291 65.9178 37.0345 64.7652 37.0345 63.5456C37.0345 62.0647 38.2814 60.8652 39.8207 60.8652H52.3586C53.8979 60.8652 55.1448 62.0647 55.1448 63.5456C55.1448 64.0549 55.3468 64.5306 55.7229 64.8858L59.324 68.3569Z" fill="#1A747B"/>
<path d="M84.3997 63.5456C84.3997 64.7652 83.9052 65.9178 83.0066 66.7822L79.3985 70.2466H62.1102V68.3569L65.7114 64.8858C66.0875 64.5307 66.2895 64.0549 66.2895 63.5456C66.2895 62.0647 67.5363 60.8652 69.0757 60.8652H81.6135C83.1529 60.8653 84.3997 62.0647 84.3997 63.5456Z" fill="#1A747B"/>
</svg>
