<svg width="88" height="88" viewBox="0 0 88 88" fill="none" xmlns="http://www.w3.org/2000/svg">
<path fill-rule="evenodd" clip-rule="evenodd" d="M68.0565 44C68.0559 39.7415 66.9249 35.5595 64.7791 31.8812C62.6332 28.2029 59.5495 25.1602 55.8428 23.0638C52.1361 20.9673 47.9393 19.8924 43.6812 19.9488C39.4231 20.0052 35.2563 21.1909 31.6064 23.3848C27.9566 25.5786 24.9545 28.702 22.9068 32.4359C20.8592 36.1697 19.8393 40.3802 19.9515 44.6372C20.0637 48.8942 21.3039 53.0451 23.5454 56.6659C25.7869 60.2867 28.9493 63.2476 32.7097 65.2462C30.1141 67.3903 28.1831 70.2297 27.1428 73.4317C25.0335 73.631 23.0629 74.5711 21.5808 76.0851C21.0725 76.5933 20.3832 76.8788 19.6644 76.8788C18.9456 76.8788 18.2563 76.5933 17.748 76.0851L11.9149 70.2515C11.6632 69.9998 11.4636 69.7011 11.3274 69.3722C11.1912 69.0434 11.1211 68.691 11.1211 68.3351C11.1211 67.9792 11.1912 67.6268 11.3274 67.2979C11.4636 66.9691 11.6632 66.6703 11.9149 66.4187C17.6586 60.6751 13.5829 50.8339 5.45961 50.8339C4.74108 50.834 4.05196 50.5486 3.54382 50.0406C3.03568 49.5326 2.75014 48.8435 2.75 48.125V39.875C2.74998 39.5192 2.82005 39.1668 2.95621 38.8381C3.09237 38.5093 3.29196 38.2106 3.54358 37.959C3.79519 37.7074 4.0939 37.5078 4.42266 37.3716C4.75142 37.2354 5.10377 37.1654 5.45961 37.1654C13.5829 37.1654 17.6586 27.3242 11.9149 21.5806C11.6632 21.329 11.4635 21.0302 11.3273 20.7014C11.1911 20.3726 11.121 20.0201 11.121 19.6642C11.121 19.3083 11.1911 18.9559 11.3273 18.627C11.4635 18.2982 11.6632 17.9995 11.9149 17.7478L17.7485 11.9142C18.0002 11.6625 18.2989 11.4629 18.6277 11.3267C18.9566 11.1905 19.309 11.1204 19.6649 11.1204C20.0208 11.1204 20.3732 11.1905 20.7021 11.3267C21.0309 11.4629 21.3297 11.6625 21.5813 11.9142C27.3249 17.6578 37.1661 13.5814 37.1661 5.45875C37.1663 4.74037 37.4517 4.05147 37.9597 3.54352C38.4677 3.03556 39.1566 2.75014 39.875 2.75H48.125C48.4808 2.74998 48.8332 2.82005 49.162 2.95621C49.4907 3.09237 49.7894 3.29196 50.041 3.54358C50.2926 3.79519 50.4922 4.0939 50.6284 4.42266C50.7646 4.75142 50.8346 5.10377 50.8346 5.45961C50.8346 13.5829 60.6758 17.6586 66.4194 11.9151C66.671 11.6634 66.9698 11.4637 67.2986 11.3275C67.6274 11.1913 67.9799 11.1212 68.3358 11.1212C68.6917 11.1212 69.0441 11.1913 69.3729 11.3275C69.7018 11.4637 70.0005 11.6634 70.2522 11.9151L76.0858 17.7487C76.594 18.2569 76.8796 18.9463 76.8796 19.6651C76.8796 20.3839 76.594 21.0732 76.0858 21.5815C70.3421 27.325 74.4178 37.1663 82.5411 37.1663C83.2595 37.1664 83.9484 37.4518 84.4564 37.9598C84.9644 38.4677 85.2498 39.1566 85.25 39.875V48.125C85.25 48.4808 85.18 48.8332 85.0438 49.162C84.9076 49.4907 84.708 49.7894 84.4564 50.041C84.2048 50.2926 83.9061 50.4922 83.5773 50.6284C83.2486 50.7646 82.8962 50.8346 82.5404 50.8346C74.4171 50.8346 70.3414 60.6758 76.0851 66.4194C76.5933 66.9277 76.8788 67.617 76.8788 68.3358C76.8788 69.0546 76.5933 69.7439 76.0851 70.2522L70.2515 76.0858C69.7432 76.594 69.0539 76.8795 68.3351 76.8795C67.6163 76.8795 66.927 76.594 66.4187 76.0858C64.9369 74.5729 62.9667 73.6344 60.8582 73.4372C59.8183 70.2332 57.8866 67.392 55.2894 65.2467C59.1458 63.1979 62.3717 60.1378 64.6209 56.3947C66.8701 52.6517 68.0577 48.3669 68.0565 44ZM57.4578 36.0893L56.2449 39.1703C56.2216 39.2317 56.181 39.2849 56.1279 39.3235C56.0748 39.3621 56.0116 39.3843 55.946 39.3874L52.642 39.5892C52.5732 39.5934 52.5072 39.6183 52.4527 39.6605C52.3981 39.7027 52.3575 39.7604 52.3362 39.826C52.3149 39.8917 52.3138 39.9622 52.3331 40.0284C52.3524 40.0946 52.3912 40.1535 52.4444 40.1974L54.9988 42.3029C55.05 42.344 55.088 42.3991 55.1083 42.4615C55.1285 42.5239 55.1302 42.5909 55.1129 42.6542L54.2838 45.859C54.2667 45.9258 54.27 45.9961 54.2934 46.061C54.3168 46.1258 54.3592 46.1821 54.4149 46.2226C54.4707 46.2631 54.5374 46.2858 54.6063 46.2879C54.6752 46.29 54.7432 46.2714 54.8013 46.2344L57.5929 44.4555C57.6478 44.4195 57.712 44.4004 57.7777 44.4004C57.8433 44.4004 57.9075 44.4195 57.9624 44.4555L60.754 46.2344C60.8122 46.2714 60.8802 46.2901 60.9492 46.288C61.0182 46.2859 61.0849 46.2631 61.1407 46.2226C61.1966 46.182 61.2389 46.1256 61.2622 46.0607C61.2856 45.9957 61.2888 45.9253 61.2715 45.8585L60.4424 42.6537C60.4252 42.5904 60.4268 42.5234 60.4471 42.461C60.4673 42.3986 60.5054 42.3435 60.5565 42.3024L63.111 40.1969C63.1642 40.153 63.2029 40.0941 63.2222 40.0279C63.2415 39.9617 63.2405 39.8912 63.2192 39.8256C63.1979 39.76 63.1573 39.7023 63.1028 39.6601C63.0483 39.6178 62.9823 39.5929 62.9135 39.5887L59.6092 39.3869C59.5436 39.3837 59.4805 39.3615 59.4274 39.3229C59.3743 39.2844 59.3337 39.2311 59.3105 39.1698L58.0975 36.0896C58.0722 36.0254 58.0282 35.9703 57.9712 35.9314C57.9141 35.8926 57.8467 35.8718 57.7777 35.8718C57.7087 35.8718 57.6412 35.8926 57.5842 35.9314C57.5271 35.9703 57.4831 36.0254 57.4578 36.0896V36.0893ZM29.9023 36.0893L28.6894 39.1703C28.6661 39.2317 28.6255 39.2849 28.5724 39.3235C28.5194 39.362 28.4562 39.3842 28.3907 39.3874L25.0865 39.5892C25.0177 39.5934 24.9517 39.6183 24.8971 39.6605C24.8426 39.7027 24.802 39.7604 24.7807 39.826C24.7594 39.8917 24.7583 39.9622 24.7776 40.0284C24.7969 40.0946 24.8357 40.1535 24.8889 40.1974L27.4433 42.3029C27.4945 42.344 27.5325 42.3991 27.5528 42.4615C27.5731 42.5239 27.5747 42.5909 27.5574 42.6542L26.7283 45.859C26.7112 45.9258 26.7145 45.9961 26.7379 46.061C26.7613 46.1258 26.8036 46.1821 26.8594 46.2226C26.9152 46.2631 26.9819 46.2858 27.0508 46.2879C27.1197 46.29 27.1876 46.2714 27.2458 46.2344L30.0376 44.4555C30.0925 44.4196 30.1566 44.4004 30.2222 44.4004C30.2878 44.4004 30.352 44.4196 30.4069 44.4555L33.1985 46.2344C33.2567 46.2714 33.3247 46.2901 33.3937 46.288C33.4627 46.2859 33.5294 46.2631 33.5852 46.2226C33.641 46.182 33.6834 46.1256 33.7067 46.0607C33.73 45.9957 33.7333 45.9253 33.716 45.8585L32.8869 42.6537C32.8697 42.5904 32.8713 42.5234 32.8916 42.461C32.9118 42.3986 32.9499 42.3435 33.001 42.3024L35.5556 40.1969C35.6088 40.153 35.6476 40.0941 35.6669 40.0279C35.6862 39.9616 35.6851 39.8911 35.6638 39.8255C35.6425 39.7599 35.6019 39.7022 35.5473 39.66C35.4928 39.6177 35.4268 39.5929 35.358 39.5887L32.0547 39.3865C31.9891 39.3834 31.9259 39.3612 31.8728 39.3226C31.8197 39.2841 31.7791 39.2308 31.7558 39.1695L30.5422 36.0893C30.5169 36.0251 30.4729 35.9699 30.4158 35.9311C30.3588 35.8922 30.2914 35.8714 30.2223 35.8714C30.1533 35.8714 30.0859 35.8922 30.0288 35.9311C29.9718 35.9699 29.9276 36.0251 29.9023 36.0893ZM43.6801 25.4021L42.4672 28.4821C42.444 28.5435 42.4033 28.5967 42.3502 28.6353C42.2971 28.6739 42.2339 28.6962 42.1683 28.6993L38.8644 28.901C38.7955 28.9052 38.7294 28.93 38.6749 28.9722C38.6203 29.0145 38.5797 29.0722 38.5583 29.1379C38.537 29.2035 38.5359 29.2741 38.5553 29.3403C38.5746 29.4066 38.6134 29.4655 38.6667 29.5094L41.2211 31.6147C41.2723 31.6558 41.3103 31.7109 41.3306 31.7733C41.3509 31.8357 41.3525 31.9027 41.3353 31.966L40.5061 35.1708C40.4889 35.2376 40.4921 35.308 40.5154 35.373C40.5388 35.4379 40.5811 35.4943 40.6369 35.5349C40.6928 35.5754 40.7595 35.5982 40.8285 35.6003C40.8974 35.6024 40.9654 35.5837 41.0236 35.5467L43.8152 33.7679C43.8701 33.7319 43.9343 33.7128 43.9999 33.7128C44.0655 33.7128 44.1297 33.7319 44.1846 33.7679L46.9764 35.5467C47.0346 35.5837 47.1026 35.6024 47.1715 35.6003C47.2405 35.5982 47.3072 35.5754 47.3631 35.5349C47.4189 35.4943 47.4612 35.4379 47.4846 35.373C47.5079 35.308 47.5111 35.2376 47.4939 35.1708L46.6641 31.966C46.6468 31.9027 46.6484 31.8357 46.6687 31.7733C46.689 31.7109 46.727 31.6558 46.7782 31.6147L49.3326 29.5094C49.3859 29.4655 49.4247 29.4066 49.444 29.3403C49.4634 29.2741 49.4623 29.2035 49.441 29.1379C49.4196 29.0722 49.379 29.0145 49.3245 28.9722C49.2699 28.93 49.2038 28.9052 49.1349 28.901L45.8308 28.6993C45.7653 28.6961 45.7021 28.6739 45.649 28.6353C45.5959 28.5967 45.5552 28.5435 45.5319 28.4821L44.319 25.4021C44.2937 25.3379 44.2497 25.2829 44.1926 25.244C44.1356 25.2052 44.0682 25.1845 43.9992 25.1845C43.9302 25.1845 43.8629 25.2052 43.8058 25.244C43.7488 25.2829 43.7048 25.3379 43.6795 25.4021H43.6801ZM59.3161 78.9068C59.3177 76.394 58.7003 73.9196 57.5185 71.7021C56.3367 69.4845 54.627 67.5922 52.5403 66.1923C52.4462 66.1284 52.3402 66.0839 52.2287 66.0614C52.1172 66.0388 52.0023 66.0388 51.8907 66.0612C51.7792 66.0836 51.6732 66.128 51.579 66.1918C51.4848 66.2557 51.4043 66.3376 51.3422 66.433L44 77.6139L36.6578 66.4333C36.5957 66.338 36.5152 66.256 36.421 66.1921C36.3268 66.1283 36.2209 66.0839 36.1093 66.0615C35.9977 66.0391 35.8828 66.0391 35.7713 66.0616C35.6597 66.0842 35.5538 66.1287 35.4597 66.1927C33.3731 67.5926 31.6634 69.4848 30.4816 71.7023C29.2998 73.9197 28.6824 76.3941 28.6839 78.9068C28.6839 87.3653 59.3161 87.3653 59.3161 78.9068ZM42.6207 63.591H42.2359C42.0577 63.5904 41.8818 63.6321 41.7229 63.7128C41.564 63.7934 41.4265 63.9106 41.3217 64.0548C41.2169 64.199 41.1479 64.366 41.1203 64.5421C41.0928 64.7182 41.1074 64.8983 41.163 65.0676L41.6969 66.7105C41.7716 66.946 41.9219 67.1502 42.1245 67.2916L41.7807 69.8526L44 73.2303L46.2187 69.8515L45.875 67.2906C46.0776 67.1492 46.2279 66.9449 46.3026 66.7093L46.8365 65.0664C46.8921 64.8971 46.9068 64.7169 46.8792 64.5409C46.8517 64.3648 46.7826 64.1977 46.6779 64.0536C46.5731 63.9094 46.4356 63.7921 46.2766 63.7115C46.1177 63.6309 45.9418 63.5892 45.7636 63.5898L42.6207 63.591ZM36.921 52.4327C36.9209 53.8328 37.336 55.2015 38.1138 56.3657C38.8917 57.5299 39.9972 58.4373 41.2907 58.9731C42.5843 59.509 44.0076 59.6492 45.3808 59.3761C46.7541 59.103 48.0154 58.4288 49.0055 57.4388C49.9955 56.4488 50.6698 55.1874 50.943 53.8142C51.2161 52.441 51.076 51.0176 50.5402 49.7241C50.0044 48.4306 49.0971 47.325 47.9329 46.5471C46.7688 45.7692 45.4001 45.354 44 45.354C42.1227 45.3539 40.3222 46.0996 38.9946 47.427C37.6671 48.7543 36.9212 50.5547 36.921 52.432V52.4327Z" fill="#1A747B"/>
</svg>
