<svg width="88" height="88" viewBox="0 0 88 88" fill="none" xmlns="http://www.w3.org/2000/svg">
<path d="M67.2531 65.3285C66.9337 65.3285 66.6159 65.2069 66.3726 64.9637C65.8862 64.4773 65.8862 63.6893 66.3726 63.2028L79.3168 50.2571C79.4838 50.09 79.5762 49.8695 79.5762 49.6328C79.5762 49.3977 79.4838 49.1755 79.3168 49.0085L76.39 46.0818C75.9036 45.5954 75.9036 44.8073 76.39 44.3209C76.8765 43.8344 77.6645 43.8344 78.1509 44.3209L81.0777 47.2476C81.7149 47.8849 82.0668 48.7329 82.0668 49.6328C82.0668 50.5343 81.7149 51.3824 81.0777 52.0196L68.1335 64.9637C67.8903 65.2069 67.5725 65.3285 67.2531 65.3285Z" fill="#1A747B"/>
<path d="M7.55943 15.9912C6.66276 15.9912 5.93311 16.7274 5.93311 17.6338V80.5287C5.93311 81.4107 6.67736 82.1566 7.55943 82.1566H56.1595C57.0562 82.1566 57.7859 81.4269 57.7859 80.5287V68.7277L56.3152 70.1983C56.314 70.1997 56.3136 70.2018 56.3119 70.2032L54.2235 72.29C52.9993 73.5142 51.3924 74.1255 49.7856 74.1255C48.5735 74.1255 47.3627 73.7766 46.3156 73.0815L43.2705 76.1264C43.0273 76.3696 42.7095 76.4912 42.3901 76.4912C42.0706 76.4912 41.7528 76.3696 41.5096 76.1264C41.0232 75.6399 41.0232 74.8519 41.5096 74.3655L44.5547 71.3206C42.9381 68.8846 43.2008 65.5608 45.346 63.4141L47.4344 61.3257C47.4344 61.3258 47.4344 61.3256 47.4344 61.3257L57.7859 50.975V17.6338C57.7859 16.7274 57.0562 15.9912 56.1595 15.9912H44.9974V17.8818C44.9974 19.1174 43.984 20.1227 42.7387 20.1227H20.9868C19.7415 20.1227 18.7297 19.1174 18.7297 17.8818V15.9912H7.55943ZM11.9828 49.2036C11.9828 46.8963 13.8653 45.0203 16.1775 45.0203C18.4848 45.0203 20.3609 46.8963 20.3609 49.2036C20.3609 51.511 18.4848 53.3886 16.1775 53.3886C13.8653 53.3886 11.9828 51.511 11.9828 49.2036ZM36.9209 68.3271C37.4073 68.8136 37.4073 69.6016 36.9209 70.0881C36.6777 70.3313 36.3598 70.4529 36.0404 70.4529C35.721 70.4529 35.4032 70.3313 35.16 70.0881L33.545 68.4731L31.93 70.0881C31.6868 70.3313 31.369 70.4529 31.0496 70.4529C30.7301 70.4529 30.4123 70.3313 30.1691 70.0881C29.6827 69.6016 29.6827 68.8136 30.1691 68.3271L31.7841 66.7122L30.1691 65.0972C29.6827 64.6108 29.6827 63.8227 30.1691 63.3363C30.6555 62.8498 31.4436 62.8498 31.93 63.3363L33.545 64.9513L35.16 63.3363C35.6464 62.8498 36.4344 62.8498 36.9209 63.3363C37.4073 63.8227 37.4073 64.6108 36.9209 65.0972L35.3059 66.7122L36.9209 68.3271ZM41.9279 49.8246C41.4415 50.3127 40.6535 50.3127 40.167 49.8279L38.2018 47.8687V56.2229C38.2018 57.9044 36.8333 59.2729 35.1519 59.2729H20.9203C20.6122 59.2729 20.3609 59.5226 20.3609 59.8307V67.3264C22.2114 67.8674 23.5746 69.5599 23.5746 71.583C23.5746 74.0396 21.577 76.0388 19.1205 76.0388C16.6575 76.0388 14.6533 74.0396 14.6533 71.583C14.6533 69.5622 16.0182 67.8715 17.8703 67.3284V59.8307C17.8703 58.1492 19.2388 56.7823 20.9203 56.7823H35.1519C35.4599 56.7823 35.7113 56.531 35.7113 56.2229V47.8621L33.746 49.8263C33.5028 50.0695 33.1834 50.1911 32.8656 50.1911C32.5462 50.1911 32.2284 50.0695 31.9851 49.8263C31.4987 49.3398 31.4987 48.5518 31.9851 48.0654L36.0696 43.9825C36.5544 43.4977 37.3408 43.4961 37.8289 43.9809L41.9247 48.0637C42.4128 48.5502 42.4128 49.3382 41.9279 49.8246ZM47.3712 24.4877C49.0656 24.4877 50.4455 25.8675 50.4455 27.562V35.2315C50.4455 36.9259 49.0656 38.3058 47.3712 38.3058H16.3559C14.6614 38.3058 13.2816 36.9259 13.2816 35.2315V27.562C13.2816 25.8675 14.6614 24.4877 16.3559 24.4877H47.3712Z" fill="#1A747B"/>
<path d="M15.7721 27.5613V35.2308C15.7721 35.5535 16.0332 35.8145 16.3558 35.8145H47.3711C47.6938 35.8145 47.9549 35.5535 47.9549 35.2308V27.5613C47.9549 27.2386 47.6938 26.9775 47.3711 26.9775H16.3558C16.0332 26.9775 15.7721 27.2386 15.7721 27.5613Z" fill="#1A747B"/>
<path d="M47.1069 65.1748C45.6314 66.6519 45.6314 69.0533 47.1069 70.5289C47.8447 71.2658 48.8147 71.6351 49.7847 71.6355C50.7548 71.6351 51.7248 71.2658 52.4626 70.5289L53.6698 69.3217L48.3149 63.9668L47.1069 65.1748Z" fill="#1A747B"/>
<path d="M66.9569 45.3262L50.0758 62.2059L55.4307 67.5607L58.1442 64.8474L58.1608 64.8307L72.3109 50.6804L66.9569 45.3262Z" fill="#1A747B"/>
<path d="M17.1439 71.5827C17.1439 72.6659 18.0309 73.5479 19.1205 73.5479C20.2036 73.5479 21.0841 72.6659 21.0841 71.5827C21.0841 70.4996 20.2036 69.6191 19.1205 69.6191C18.0309 69.6191 17.1439 70.4996 17.1439 71.5827Z" fill="#1A747B"/>
<path d="M25.8365 11.8707H21.2202V14.7215C21.2206 14.73 21.2251 14.7371 21.2251 14.7456C21.2251 14.7541 21.2206 14.7612 21.2202 14.7697V17.6318H42.5068V11.8707H37.9067C37.2192 11.8707 36.6614 11.3129 36.6614 10.6254C36.6614 7.98894 34.5097 5.84375 31.8635 5.84375C29.227 5.84375 27.0818 7.98894 27.0818 10.6254C27.0818 11.3129 26.524 11.8707 25.8365 11.8707ZM30.6182 10.2768C30.6182 9.58933 31.176 9.03154 31.8635 9.03154C32.551 9.03154 33.1088 9.58933 33.1088 10.2768V10.7908C33.1088 11.4783 32.551 12.0361 31.8635 12.0361C31.176 12.0361 30.6182 11.4783 30.6182 10.7908V10.2768Z" fill="#1A747B"/>
<path d="M17.8704 49.2035C17.8704 48.2696 17.1115 47.5107 16.1775 47.5107C15.2371 47.5107 14.4734 48.2696 14.4734 49.2035C14.4734 50.1375 15.2371 50.898 16.1775 50.898C17.1115 50.898 17.8704 50.1375 17.8704 49.2035Z" fill="#1A747B"/>
<path d="M80.6793 40.7436C80.6793 39.7319 80.2853 38.7817 79.5702 38.0666C78.0947 36.5911 75.6917 36.5911 74.2162 38.0666L68.7178 43.565L74.0718 48.9191L79.5702 43.4207C80.2853 42.7056 80.6793 41.7538 80.6793 40.7436Z" fill="#1A747B"/>
</svg>
