<svg width="57" height="57" viewBox="0 0 57 57" fill="none" xmlns="http://www.w3.org/2000/svg">
<path fill-rule="evenodd" clip-rule="evenodd" d="M28.4999 5.78678C24.261 3.1968 20.1292 1.42646 16.452 0.582098C10.7603 -0.724532 6.03831 0.189437 3.11375 3.11375C0.189437 6.03831 -0.724532 10.7603 0.582098 16.452C1.42646 20.129 3.1968 24.2611 5.78678 28.5002C3.1968 32.739 1.42646 36.8709 0.582098 40.5481C-0.724532 46.2398 0.189437 50.9618 3.11375 53.8863C6.03831 56.8106 10.7603 57.7246 16.452 56.4177C20.129 55.5736 24.2611 53.8033 28.5002 51.2131C32.739 53.8033 36.8709 55.5736 40.5481 56.4177C46.2398 57.7246 50.9618 56.8106 53.8863 53.8863C56.8106 50.9618 57.7246 46.2398 56.4177 40.5481C55.5736 36.8709 53.8033 32.739 51.2131 28.4997C53.8033 24.2611 55.5736 20.1292 56.4177 16.452C57.7246 10.7603 56.8106 6.03831 53.8863 3.11375C50.9618 0.189437 46.2398 -0.724532 40.5481 0.582098C36.8709 1.42646 32.739 3.1968 28.4999 5.78678ZM28.2371 6.79891C28.3982 6.89852 28.6019 6.89852 28.763 6.79891C32.9886 4.18589 37.1099 2.39756 40.7718 1.55679C46.0593 0.342806 50.4623 1.10413 53.179 3.82083C55.896 6.53754 56.657 10.9408 55.4431 16.2283C54.6023 19.8899 52.8139 24.0112 50.2009 28.2371C50.1013 28.3982 50.1013 28.6019 50.2009 28.763C52.8139 32.9886 54.6023 37.1099 55.4431 40.7718C56.657 46.0593 55.896 50.4623 53.179 53.179C50.4623 55.896 46.0593 56.657 40.7718 55.4431C37.1099 54.6023 32.9886 52.8139 28.763 50.2009C28.6019 50.1013 28.3982 50.1013 28.2371 50.2009C24.0112 52.8139 19.8899 54.6023 16.2283 55.4431C10.9408 56.657 6.53754 55.896 3.82083 53.179C1.10413 50.4623 0.342806 46.0593 1.55679 40.7718C2.39756 37.1099 4.18589 32.9886 6.79891 28.763C6.89852 28.6019 6.89852 28.3982 6.79891 28.2371C4.18589 24.0112 2.39756 19.8899 1.55679 16.2283C0.342806 10.9408 1.10413 6.53754 3.82083 3.82083C6.53754 1.10413 10.9408 0.342806 16.2283 1.55679C19.8899 2.39756 24.0112 4.18589 28.2371 6.79891ZM48.5086 32.0509C48.4246 31.9033 48.2712 31.8083 48.1015 31.7989C47.9321 31.7895 47.7691 31.8668 47.6693 32.0043C45.602 34.8519 43.1803 37.6989 40.4396 40.4396C37.6989 43.1803 34.8519 45.602 32.0043 47.6693C31.8668 47.7691 31.7895 47.9321 31.7989 48.1015C31.8083 48.2712 31.9033 48.4246 32.0509 48.5086C35.3617 50.392 38.568 51.7053 41.4767 52.3733C45.4936 53.2954 48.8881 53.0158 50.9519 50.9519C53.0158 48.8881 53.2954 45.4936 52.3733 41.4767C51.7053 38.568 50.392 35.3617 48.5086 32.0509ZM9.33057 32.0043C9.23096 31.8668 9.068 31.7895 8.89831 31.7989C8.72862 31.8083 8.57549 31.9033 8.49148 32.0509C6.6081 35.3617 5.29451 38.568 4.6268 41.4767C3.70443 45.4936 3.98428 48.8881 6.04815 50.9519C8.11202 53.0158 11.5065 53.2954 15.5234 52.3733C18.4321 51.7053 21.6382 50.392 24.9492 48.5086C25.0968 48.4246 25.1916 48.2712 25.2012 48.1015C25.2105 47.9321 25.133 47.7691 24.9955 47.6693C22.1482 45.602 19.3009 43.1803 16.5605 40.4396C13.8198 37.6989 11.398 34.8519 9.33057 32.0043ZM48.0161 33.2205C49.6455 36.1969 50.7952 39.0727 51.3986 41.7004C52.2283 45.315 52.1018 48.3876 50.2446 50.2446C48.3876 52.1018 45.315 52.2283 41.7004 51.3986C39.0727 50.7952 36.1969 49.6455 33.2205 48.0161C35.8986 46.0235 38.5692 43.7242 41.1467 41.1467C43.7242 38.5692 46.0235 35.8981 48.0161 33.2205ZM8.98399 33.2212C10.9766 35.8986 13.2757 38.5692 15.8532 41.1467C18.4309 43.7242 21.1015 46.0235 23.7789 48.0161C20.8032 49.6455 17.9271 50.7952 15.2994 51.3986C11.6849 52.2283 8.61245 52.1018 6.75523 50.2446C4.89801 48.3876 4.77152 45.315 5.60149 41.7004C6.20488 39.0727 7.35454 36.1976 8.98399 33.2212ZM28.7829 10.8976C28.6125 10.7805 28.3876 10.7805 28.2172 10.8976C25.0497 13.0704 21.852 15.7233 18.7876 18.7876C15.7233 21.852 13.0704 25.0497 10.8976 28.2172C10.7805 28.3876 10.7805 28.6125 10.8976 28.7829C13.0704 31.9503 15.7233 35.148 18.7876 38.2123C21.852 41.2768 25.0497 43.9296 28.2172 46.1025C28.3876 46.2194 28.6125 46.2194 28.7829 46.1025C31.9503 43.9296 35.148 41.2768 38.2123 38.2123C41.2768 35.148 43.9296 31.9503 46.1025 28.7829C46.2194 28.6125 46.2194 28.3876 46.1025 28.2172C43.9296 25.0497 41.2768 21.852 38.2123 18.7876C35.148 15.7233 31.9503 13.0704 28.7829 10.8976ZM28.5002 11.9177C31.5277 14.0209 34.578 16.5674 37.5052 19.4949C40.4324 22.4221 42.9789 25.4724 45.0824 28.4999C42.9792 31.5277 40.4324 34.578 37.5052 37.5052C34.578 40.4324 31.5277 42.9789 28.5002 45.0824C25.4724 42.9792 22.4221 40.4324 19.4949 37.5052C16.5674 34.578 14.0209 31.5277 11.9177 28.5002C14.0209 25.4724 16.5674 22.4221 19.4949 19.4949C22.4221 16.5674 25.4726 14.0209 28.5002 11.9177ZM24.9955 9.33057C25.133 9.23096 25.2105 9.068 25.2012 8.89831C25.1916 8.72862 25.0968 8.57549 24.9492 8.49148C21.6382 6.6081 18.4321 5.29451 15.5234 4.6268C11.5065 3.70443 8.11202 3.98428 6.04815 6.04815C3.98428 8.11202 3.70443 11.5065 4.6268 15.5234C5.29451 18.4321 6.6081 21.6382 8.49148 24.9492C8.57549 25.0968 8.72862 25.1916 8.89831 25.2012C9.068 25.2105 9.23096 25.133 9.33057 24.9955C11.398 22.1482 13.8198 19.3009 16.5605 16.5605C19.3009 13.8198 22.1482 11.398 24.9955 9.33057ZM47.6693 24.9955C47.7691 25.133 47.9321 25.2105 48.1015 25.2012C48.2712 25.1916 48.4246 25.0968 48.5086 24.9492C50.392 21.6382 51.7053 18.4321 52.3733 15.5234C53.2954 11.5065 53.0158 8.11202 50.9519 6.04815C48.8881 3.98428 45.4936 3.70443 41.4767 4.6268C38.568 5.29451 35.3617 6.6081 32.0509 8.49148C31.9033 8.57549 31.8083 8.72862 31.7989 8.89831C31.7895 9.068 31.8668 9.23096 32.0043 9.33057C34.8519 11.398 37.6989 13.8198 40.4396 16.5605C43.1803 19.3009 45.602 22.1482 47.6693 24.9955ZM48.0161 23.7789C46.0235 21.1015 43.7242 18.4307 41.1467 15.8532C38.5692 13.2757 35.8986 10.9766 33.221 8.98399C36.1969 7.35454 39.0727 6.20488 41.7004 5.60149C45.315 4.77152 48.3876 4.89801 50.2446 6.75523C52.1018 8.61245 52.2283 11.6849 51.3986 15.2994C50.7952 17.9271 49.6455 20.8025 48.0161 23.7789ZM23.7789 8.98399C21.1015 10.9766 18.4307 13.2757 15.8532 15.8532C13.2757 18.4309 10.9766 21.1015 8.98399 23.7789C7.35454 20.8032 6.20488 17.9271 5.60149 15.2994C4.77152 11.6849 4.89801 8.61245 6.75523 6.75523C8.61245 4.89801 11.6849 4.77152 15.2994 5.60149C17.9271 6.20488 20.8025 7.35454 23.7789 8.98399Z" fill="white"/>
<path fill-rule="evenodd" clip-rule="evenodd" d="M37.0127 28.3048C37.0127 26.9036 36.4561 25.5598 35.4653 24.5688C34.4746 23.578 33.1307 23.0214 31.7295 23.0214C29.6885 23.0214 27.3116 23.0214 25.2705 23.0214C23.8693 23.0214 22.5255 23.578 21.5347 24.5688C20.5437 25.5598 19.9871 26.9036 19.9871 28.3048V33.8812C19.9871 35.7973 21.5403 37.3502 23.456 37.3502H33.544C35.4598 37.3502 37.0127 35.7973 37.0127 33.8812C37.0127 32.2422 37.0127 30.1668 37.0127 28.3048ZM36.0128 28.3048V33.8812C36.0128 35.245 34.9073 36.3503 33.544 36.3503C30.6682 36.3503 26.3319 36.3503 23.456 36.3503C22.0925 36.3503 20.9873 35.245 20.9873 33.8815C20.9873 33.8813 20.9873 28.3048 20.9873 28.3048C20.9873 27.1688 21.4385 26.0792 22.2418 25.2761C23.0451 24.4727 24.1346 24.0215 25.2705 24.0215H31.7295C32.8655 24.0215 33.9549 24.4727 34.7583 25.2761C35.5616 26.0792 36.0128 27.1686 36.0128 28.3048Z" fill="white"/>
<path fill-rule="evenodd" clip-rule="evenodd" d="M22.2891 24.2155C22.2891 24.3959 22.3866 24.5625 22.5438 24.6511C22.7012 24.7396 22.8942 24.7365 23.0485 24.6429C23.5914 24.3134 24.203 24.1074 24.8395 24.0431C25.0949 24.0174 25.2893 23.8024 25.2893 23.5456V21.8765C25.2893 21.3922 25.6819 20.9998 26.166 20.9995H30.8338C31.3182 20.9998 31.7108 21.3922 31.7108 21.8765V23.5456C31.7108 23.8024 31.905 24.0174 32.1604 24.0431C32.7971 24.1074 33.4087 24.3134 33.9513 24.6429C34.1059 24.7365 34.2986 24.7396 34.4561 24.6511C34.6135 24.5625 34.711 24.3959 34.711 24.2155V21.8765C34.711 19.7354 32.975 17.9994 30.8338 17.9994H26.1663C24.0249 17.9994 22.2891 19.7354 22.2891 21.8765V24.2155ZM23.2892 23.4071V21.8765C23.2892 20.2876 24.5772 18.9995 26.1663 18.9995H30.8338C32.4227 18.9995 33.7108 20.2876 33.7108 21.8765V23.4071C33.3885 23.2765 33.0537 23.1781 32.7107 23.1133V21.8765C32.7107 20.8399 31.8704 19.9996 30.8338 19.9996H26.1663C25.1297 19.9996 24.2891 20.8399 24.2891 21.8765V23.1133C23.9464 23.1781 23.6113 23.2768 23.2892 23.4071Z" fill="white"/>
<path fill-rule="evenodd" clip-rule="evenodd" d="M37.0127 31.6491C37.0127 31.3729 36.789 31.1489 36.5127 31.1489H20.4873C20.2111 31.1489 19.9871 31.3729 19.9871 31.6491V33.8812C19.9871 35.7973 21.5403 37.3502 23.456 37.3502H33.544C35.4598 37.3502 37.0127 35.7973 37.0127 33.8812V31.6491ZM36.0128 32.1491V33.8812C36.0128 35.245 34.9073 36.3503 33.544 36.3503C30.6682 36.3503 26.3319 36.3503 23.456 36.3503C22.0925 36.3503 20.9873 35.245 20.9873 33.8815V32.1491H36.0128Z" fill="white"/>
</svg>
