<svg width="60" height="60" viewBox="0 0 60 60" fill="none" xmlns="http://www.w3.org/2000/svg">
<path fill-rule="evenodd" clip-rule="evenodd" d="M30.7642 22.3211V8.92223C30.7642 8.76434 30.733 8.62248 30.6731 8.49913C30.6119 8.37454 30.5195 8.26105 30.3945 8.16113C30.0299 7.86755 29.6093 7.63317 29.151 7.47281C28.7122 7.31985 28.2343 7.2372 27.7343 7.2372C26.8502 7.2372 26.0312 7.50118 25.3619 7.94896C24.9452 8.22774 24.5859 8.57931 24.3033 8.98268C24.8033 9.08753 25.2812 9.24789 25.7291 9.46006C26.5924 9.86714 27.3424 10.4605 27.9218 11.1846C28.1809 11.5102 28.1132 11.974 27.7695 12.2195C27.4257 12.465 26.9361 12.4009 26.677 12.0752C26.2447 11.5349 25.6822 11.0908 25.0338 10.7849C24.4114 10.4913 23.7096 10.3273 22.9648 10.3273C21.6796 10.3273 20.5168 10.8207 19.6744 11.6188C18.832 12.4169 18.3111 13.5185 18.3111 14.736C18.3111 15.3786 18.453 15.9843 18.707 16.5271C18.8619 16.8577 19.0598 17.1673 19.2929 17.4498C20.1275 16.685 21.2629 16.215 22.5142 16.215C23.0221 16.215 23.5129 16.2927 23.9713 16.437C24.4478 16.5863 24.8892 16.8071 25.2825 17.0847C25.6275 17.3289 25.6991 17.7927 25.4413 18.1196C25.1835 18.4465 24.6939 18.5143 24.3489 18.2701C24.0885 18.0863 23.7968 17.9407 23.483 17.8421C23.1796 17.7471 22.8541 17.6953 22.5142 17.6953C21.6653 17.6953 20.8971 18.0209 20.3411 18.5476C19.7851 19.0744 19.4413 19.8022 19.4413 20.6064C19.4413 20.9962 19.5195 21.3651 19.6627 21.6994C19.8111 22.0485 20.0312 22.3643 20.3046 22.6319C20.6028 22.9255 20.5937 23.393 20.2838 23.6755C19.9739 23.958 19.4804 23.9494 19.1822 23.6558C18.7721 23.2549 18.4426 22.7775 18.2174 22.2483C17.9999 21.7376 17.8801 21.1837 17.8801 20.6052C17.8801 19.9132 18.0494 19.2569 18.3515 18.6747C17.94 18.2417 17.595 17.7508 17.3306 17.2142C16.8762 17.5435 16.4869 17.9506 16.1874 18.412C15.7538 19.0793 15.5051 19.8638 15.5142 20.7039C15.5221 21.3552 15.6913 21.9794 15.9869 22.5431C16.2955 23.1328 16.7434 23.6533 17.2877 24.0715C17.6236 24.3268 17.677 24.7919 17.4062 25.1089C17.1366 25.4272 16.6458 25.4777 16.3111 25.2212C15.5911 24.6698 14.9986 23.979 14.5885 23.1957C14.5676 23.1562 14.5468 23.1155 14.5273 23.0748C14.2473 23.3597 14.0064 23.6792 13.8137 24.0259C13.4739 24.6365 13.2812 25.3359 13.2812 26.0797C13.2812 27.1726 13.6991 28.1706 14.3892 28.9391C14.845 29.4461 15.4192 29.8532 16.0702 30.1233C16.0702 30.1036 16.0702 30.0851 16.0702 30.0653C16.0702 29.0538 16.5038 28.1373 17.203 27.4749C17.9036 26.8112 18.8697 26.4017 19.9374 26.4017C20.3684 26.4017 20.7187 26.7335 20.7187 27.1418C20.7187 27.5501 20.3684 27.8819 19.9374 27.8819C19.3007 27.8819 18.7239 28.1262 18.3072 28.5209C17.8905 28.9157 17.6327 29.4621 17.6327 30.0653C17.6327 30.5698 17.8111 31.0324 18.1106 31.4C18.4192 31.7775 18.8541 32.0575 19.3541 32.1809C19.7708 32.2833 20.0208 32.6854 19.9127 33.0801C19.8046 33.4749 19.3801 33.7117 18.9635 33.6093C18.1223 33.4021 17.3931 32.9333 16.8775 32.3018C16.7538 32.1488 16.6418 31.9872 16.5429 31.817C16.1692 31.7356 15.8085 31.6233 15.4635 31.4814C15.4452 31.6406 15.4361 31.8059 15.4361 31.9798C15.4361 33.1097 15.8814 34.1385 16.6132 34.9157C16.6262 34.928 16.6392 34.9403 16.6523 34.9539C17.2603 35.5842 18.0585 36.0481 18.9596 36.2602C18.9973 36.1171 19.0416 35.9753 19.0911 35.8371C19.2864 35.2956 19.5741 34.7935 19.9387 34.3495C20.2017 34.0275 20.6913 33.9671 21.0312 34.2162C21.371 34.4654 21.4348 34.9292 21.1718 35.2512C20.914 35.567 20.7083 35.9247 20.5689 36.3108C20.4348 36.6821 20.3632 37.0818 20.3632 37.5012C20.3632 38.5164 20.7968 39.4342 21.4986 40.099C22.2004 40.7639 23.1705 41.1747 24.2408 41.1747C24.6848 41.1747 25.1106 41.1044 25.5064 40.9749C25.9205 40.8392 26.3007 40.6418 26.6327 40.3951C26.9713 40.1447 27.4609 40.2014 27.7252 40.5222C27.9895 40.8429 27.9296 41.3067 27.5911 41.5571C27.1184 41.9087 26.5859 42.1862 26.0129 42.3737C25.5976 42.5094 25.1601 42.5982 24.7083 42.6352V45.4958H30.7629V36.4243C29.9309 37.2273 28.8228 37.7738 27.5846 37.9268C27.1588 37.9798 26.7668 37.6948 26.7122 37.2902C26.6562 36.8869 26.957 36.5156 27.384 36.4638C28.3437 36.3453 29.1939 35.8951 29.802 35.2388C30.401 34.5912 30.7642 33.7413 30.7642 32.8087C30.7642 32.2561 30.6379 31.7343 30.4101 31.268C30.1731 30.7796 29.8254 30.3503 29.401 30.0049C29.0741 29.7397 29.0364 29.2734 29.315 28.9638C29.5937 28.6541 30.0872 28.6184 30.414 28.8823C30.5351 28.981 30.6523 29.0834 30.7642 29.192V23.9099C30.5598 23.8124 30.3463 23.7323 30.1249 23.6718C29.7838 23.5781 29.4166 23.5275 29.0312 23.5275C28.8359 23.5275 28.6536 23.5398 28.4817 23.562C28.2968 23.5867 28.1197 23.6225 27.9517 23.6681C27.539 23.7816 27.1067 23.5559 26.9869 23.1648C26.8671 22.7738 27.1054 22.3643 27.5182 22.2508C27.7655 22.1829 28.0168 22.1311 28.2681 22.0978C28.526 22.0633 28.7812 22.046 29.0312 22.046C29.5546 22.046 30.0676 22.1188 30.5585 22.2545C30.6275 22.2791 30.6965 22.3001 30.7642 22.3211ZM47.6679 7.79477C47.6679 6.33424 48.9218 5.1451 50.4648 5.1451C50.8958 5.1451 51.246 4.8145 51.246 4.40496C51.246 3.99666 50.8958 3.66483 50.4648 3.66483C48.9218 3.66483 47.6679 2.47692 47.6679 1.01516C47.6679 0.650031 47.3892 0.346577 47.0221 0.286133H46.7512C46.384 0.346577 46.1054 0.650031 46.1054 1.01516C46.1054 2.47569 44.8515 3.66483 43.3085 3.66483C42.8775 3.66483 42.5273 3.99543 42.5273 4.40496C42.5273 4.8145 42.8775 5.1451 43.3085 5.1451C44.8502 5.1451 46.1054 6.33301 46.1054 7.79477C46.1054 8.20307 46.4543 8.5349 46.8866 8.5349C47.3176 8.53367 47.6679 8.20307 47.6679 7.79477ZM52.4765 11.9938C53.7096 12.6069 54.7213 13.5666 55.3684 14.7335C56.0168 13.5653 57.0286 12.6069 58.2603 11.9938C57.0286 11.3807 56.0168 10.421 55.3684 9.25406C54.7213 10.4222 53.7096 11.3807 52.4765 11.9938ZM5.31502 41.2981C5.31502 40.03 6.40356 38.9987 7.74211 38.9987C8.1731 38.9987 8.52336 38.6669 8.52336 38.2586C8.52336 37.8503 8.1744 37.5184 7.74211 37.5184C6.40356 37.5184 5.31502 36.4872 5.31502 35.2191C5.31502 34.8108 4.96476 34.479 4.53377 34.479C4.10278 34.479 3.75252 34.8108 3.75252 35.2191C3.75252 36.4872 2.66398 37.5184 1.32544 37.5184C0.89445 37.5184 0.544189 37.8503 0.544189 38.2586C0.544189 38.6669 0.89445 38.9987 1.32544 38.9987C2.66398 38.9987 3.75252 40.03 3.75252 41.2981C3.75252 41.7064 4.10148 42.0382 4.53377 42.0382C4.96476 42.0382 5.31502 41.7076 5.31502 41.2981ZM11.5429 52.1052C10.582 50.0069 8.8007 48.3207 6.58586 47.4091C8.8007 46.4975 10.5806 44.8112 11.5429 42.7129C12.5051 44.8112 14.2851 46.4975 16.4999 47.4091C14.2851 48.3194 12.5038 50.0057 11.5429 52.1052ZM37.7408 52.7689H26.5663C26.1353 52.7689 25.7851 53.1007 25.7851 53.509V53.8161C25.7851 55.4457 26.4869 56.9247 27.6171 57.9967C28.7486 59.0686 30.3098 59.7323 32.0299 59.7323H32.276C33.996 59.7323 35.5572 59.0674 36.6887 57.9967C37.8202 56.9247 38.5208 55.4457 38.5208 53.8161V53.509C38.5221 53.1007 38.1731 52.7689 37.7408 52.7689ZM34.0051 8.24008C38.6106 8.42881 42.7629 10.2742 45.8137 13.1644C49.0351 16.2162 51.0286 20.4337 51.0286 25.0916C51.0286 27.9572 50.2773 30.6525 48.953 33.0086C47.5767 35.456 45.5793 37.5468 43.1588 39.0912C42.1627 39.7265 41.3892 40.5357 40.8632 41.4732C40.8528 41.493 40.8424 41.5127 40.8333 41.5324C40.3254 42.4588 40.0598 43.4987 40.0598 44.6077V45.4983H34.453L41.0377 32.2561C41.2135 32.287 41.3945 32.303 41.5793 32.303C42.3905 32.303 43.1262 31.9909 43.6588 31.4876C44.1913 30.9831 44.5195 30.2874 44.5195 29.5176C44.5195 28.7491 44.19 28.0522 43.6588 27.5476C43.1262 27.0431 42.3918 26.7323 41.5793 26.7323C40.7682 26.7323 40.0325 27.0444 39.4999 27.5476C38.9674 28.0522 38.6392 28.7479 38.6392 29.5176C38.6392 30.2861 38.9687 30.9831 39.4999 31.4876C39.5442 31.5296 39.5885 31.569 39.6353 31.6085L34.0025 42.935V8.24008H34.0051ZM41.5807 28.2138C41.2004 28.2138 40.8554 28.3593 40.6067 28.5962C40.358 28.8318 40.203 29.1587 40.203 29.5189C40.203 29.8791 40.3567 30.206 40.6067 30.4416C40.8554 30.6772 41.2004 30.824 41.5807 30.824C41.9609 30.824 42.3059 30.6784 42.5546 30.4416C42.8033 30.206 42.9583 29.8791 42.9583 29.5189C42.9583 29.1587 42.8046 28.8318 42.5546 28.5962C42.3046 28.3606 41.9609 28.2138 41.5807 28.2138ZM39.9908 49.0768H24.3176C23.8866 49.0768 23.5364 49.4087 23.5364 49.817C23.5364 50.2253 23.8866 50.5571 24.3176 50.5571H39.9921C40.4231 50.5571 40.7734 50.2253 40.7734 49.817C40.7721 49.4087 40.4231 49.0768 39.9908 49.0768Z" fill="#1A747B"/>
</svg>
