<svg width="60" height="60" viewBox="0 0 60 60" fill="none" xmlns="http://www.w3.org/2000/svg">
<g clip-path="url(#clip0_64_38)">
<path d="M30 19.2105L29.1738 21.0938H30.8262L30 19.2105ZM30 19.2105L29.1738 21.0938H30.8262L30 19.2105ZM30 0C19.3141 0 10.6641 8.64879 10.6641 19.3359C10.6641 24.6445 12.8812 29.7762 16.7484 33.416C19.425 35.9379 20.9836 39.027 21.1875 42.1875H24.7266V22.4836L30 10.4555L35.2734 22.4836V42.1875H38.8125C39.0164 39.027 40.575 35.9379 43.2516 33.416C47.1187 29.7762 49.3359 24.6445 49.3359 19.3359C49.3359 8.65172 40.6901 0 30 0ZM28.2422 42.1875H31.7578V24.6094H28.2422V42.1875ZM29.1738 21.0938H30.8262L30 19.2105L29.1738 21.0938Z" fill="#1A747B"/>
<path d="M21.2109 45.7031H38.7891V52.9688H21.2109V45.7031Z" fill="#1A747B"/>
<path d="M0 17.5781H7.14844V21.0938H0V17.5781Z" fill="#1A747B"/>
<path d="M52.8516 17.5781H60V21.0938H52.8516V17.5781Z" fill="#1A747B"/>
<path d="M3.64038 36.1025L8.16482 31.5781L10.6504 34.0636L6.12593 38.5881L3.64038 36.1025Z" fill="#1A747B"/>
<path d="M49.3936 4.69434L53.9302 0.157717L56.4157 2.64326L51.8791 7.17988L49.3936 4.69434Z" fill="#1A747B"/>
<path d="M49.4062 33.9609L51.8918 31.4754L56.4966 36.0802L54.0111 38.5657L49.4062 33.9609Z" fill="#1A747B"/>
<path d="M3.57715 2.55566L6.0627 0.0701168L10.6319 4.6393L8.14633 7.12485L3.57715 2.55566Z" fill="#1A747B"/>
<path d="M24.7266 56.4844H35.2734V60H24.7266V56.4844Z" fill="#1A747B"/>
</g>
<defs>
<clipPath id="clip0_64_38">
<rect width="60" height="60" fill="white"/>
</clipPath>
</defs>
</svg>
