<svg width="68" height="57" viewBox="0 0 68 57" fill="none" xmlns="http://www.w3.org/2000/svg">
<path d="M15.895 57L0 49.0824C2.18512 44.7031 3.91207 40.1137 5.1456 35.3491C6.37914 30.5495 6.97828 24.9791 6.97828 18.6029V0H33.6579V18.8132C33.6579 23.1223 32.812 27.6417 31.1203 32.4063C29.4286 37.1709 27.2435 41.6902 24.565 45.9994C21.8864 50.3085 18.9964 53.9871 15.895 57ZM50.152 57L34.257 49.0824C36.4421 44.7031 38.1691 40.1487 39.4026 35.3491C40.6362 30.5495 41.2353 24.9791 41.2353 18.6029V0H67.9149V18.8132C67.9149 23.1223 67.069 27.6417 65.3773 32.4063C63.6856 37.1709 61.5005 41.6902 58.822 45.9994C56.1435 50.3085 53.2535 53.9871 50.152 57Z" fill="#87AB42" fill-opacity="0.5"/>
</svg>
