<svg width="1920" height="950" viewBox="0 0 1920 950" fill="none" xmlns="http://www.w3.org/2000/svg">
<g clip-path="url(#clip0_401_189)">
<rect width="1920" height="950" fill="white"/>
<g opacity="0.7">
<rect y="490" width="1920" height="1" fill="#D9D9D9" fill-opacity="0.5"/>
<rect y="541" width="1920" height="1" fill="#D9D9D9" fill-opacity="0.5"/>
<rect y="592" width="1920" height="1" fill="#D9D9D9" fill-opacity="0.5"/>
<rect y="643" width="1920" height="1" fill="#D9D9D9" fill-opacity="0.5"/>
<rect y="694" width="1920" height="1" fill="#D9D9D9" fill-opacity="0.5"/>
<rect y="745" width="1920" height="1" fill="#D9D9D9" fill-opacity="0.5"/>
<rect y="796" width="1920" height="1" fill="#D9D9D9" fill-opacity="0.5"/>
<rect y="847" width="1920" height="1" fill="#D9D9D9" fill-opacity="0.5"/>
<rect y="898" width="1920" height="1" fill="#D9D9D9" fill-opacity="0.5"/>
<rect y="949" width="1920" height="1" fill="#D9D9D9" fill-opacity="0.5"/>
<rect y="31" width="1920" height="1" fill="#D9D9D9" fill-opacity="0.5"/>
<rect y="82" width="1920" height="1" fill="#D9D9D9" fill-opacity="0.5"/>
<rect y="133" width="1920" height="1" fill="#D9D9D9" fill-opacity="0.5"/>
<rect y="184" width="1920" height="1" fill="#D9D9D9" fill-opacity="0.5"/>
<rect y="235" width="1920" height="1" fill="#D9D9D9" fill-opacity="0.5"/>
<rect y="286" width="1920" height="1" fill="#D9D9D9" fill-opacity="0.5"/>
<rect y="337" width="1920" height="1" fill="#D9D9D9" fill-opacity="0.5"/>
<rect y="388" width="1920" height="1" fill="#D9D9D9" fill-opacity="0.5"/>
<rect y="439" width="1920" height="1" fill="#D9D9D9" fill-opacity="0.5"/>
<rect x="985" y="1425" width="1920" height="1" transform="rotate(-90 985 1425)" fill="#D9D9D9" fill-opacity="0.5"/>
<rect x="1036" y="1425" width="1920" height="1" transform="rotate(-90 1036 1425)" fill="#D9D9D9" fill-opacity="0.5"/>
<rect x="1087" y="1425" width="1920" height="1" transform="rotate(-90 1087 1425)" fill="#D9D9D9" fill-opacity="0.5"/>
<rect x="1138" y="1425" width="1920" height="1" transform="rotate(-90 1138 1425)" fill="#D9D9D9" fill-opacity="0.5"/>
<rect x="1189" y="1425" width="1920" height="1" transform="rotate(-90 1189 1425)" fill="#D9D9D9" fill-opacity="0.5"/>
<rect x="1240" y="1425" width="1920" height="1" transform="rotate(-90 1240 1425)" fill="#D9D9D9" fill-opacity="0.5"/>
<rect x="1291" y="1425" width="1920" height="1" transform="rotate(-90 1291 1425)" fill="#D9D9D9" fill-opacity="0.5"/>
<rect x="1342" y="1425" width="1920" height="1" transform="rotate(-90 1342 1425)" fill="#D9D9D9" fill-opacity="0.5"/>
<rect x="1393" y="1425" width="1920" height="1" transform="rotate(-90 1393 1425)" fill="#D9D9D9" fill-opacity="0.5"/>
<rect x="1444" y="1425" width="1920" height="1" transform="rotate(-90 1444 1425)" fill="#D9D9D9" fill-opacity="0.5"/>
<rect x="1495" y="1425" width="1920" height="1" transform="rotate(-90 1495 1425)" fill="#D9D9D9" fill-opacity="0.5"/>
<rect x="1546" y="1425" width="1920" height="1" transform="rotate(-90 1546 1425)" fill="#D9D9D9" fill-opacity="0.5"/>
<rect x="1597" y="1425" width="1920" height="1" transform="rotate(-90 1597 1425)" fill="#D9D9D9" fill-opacity="0.5"/>
<rect x="1648" y="1425" width="1920" height="1" transform="rotate(-90 1648 1425)" fill="#D9D9D9" fill-opacity="0.5"/>
<rect x="1699" y="1425" width="1920" height="1" transform="rotate(-90 1699 1425)" fill="#D9D9D9" fill-opacity="0.5"/>
<rect x="1750" y="1425" width="1920" height="1" transform="rotate(-90 1750 1425)" fill="#D9D9D9" fill-opacity="0.5"/>
<rect x="1801" y="1425" width="1920" height="1" transform="rotate(-90 1801 1425)" fill="#D9D9D9" fill-opacity="0.5"/>
<rect x="1852" y="1425" width="1920" height="1" transform="rotate(-90 1852 1425)" fill="#D9D9D9" fill-opacity="0.5"/>
<rect x="1903" y="1425" width="1920" height="1" transform="rotate(-90 1903 1425)" fill="#D9D9D9" fill-opacity="0.5"/>
<rect x="16" y="1425" width="1920" height="1" transform="rotate(-90 16 1425)" fill="#D9D9D9" fill-opacity="0.5"/>
<rect x="67" y="1425" width="1920" height="1" transform="rotate(-90 67 1425)" fill="#D9D9D9" fill-opacity="0.5"/>
<rect x="118" y="1425" width="1920" height="1" transform="rotate(-90 118 1425)" fill="#D9D9D9" fill-opacity="0.5"/>
<rect x="169" y="1425" width="1920" height="1" transform="rotate(-90 169 1425)" fill="#D9D9D9" fill-opacity="0.5"/>
<rect x="220" y="1425" width="1920" height="1" transform="rotate(-90 220 1425)" fill="#D9D9D9" fill-opacity="0.5"/>
<rect x="271" y="1425" width="1920" height="1" transform="rotate(-90 271 1425)" fill="#D9D9D9" fill-opacity="0.5"/>
<rect x="322" y="1425" width="1920" height="1" transform="rotate(-90 322 1425)" fill="#D9D9D9" fill-opacity="0.5"/>
<rect x="373" y="1425" width="1920" height="1" transform="rotate(-90 373 1425)" fill="#D9D9D9" fill-opacity="0.5"/>
<rect x="424" y="1425" width="1920" height="1" transform="rotate(-90 424 1425)" fill="#D9D9D9" fill-opacity="0.5"/>
<rect x="475" y="1425" width="1920" height="1" transform="rotate(-90 475 1425)" fill="#D9D9D9" fill-opacity="0.5"/>
<rect x="526" y="1425" width="1920" height="1" transform="rotate(-90 526 1425)" fill="#D9D9D9" fill-opacity="0.5"/>
<rect x="577" y="1425" width="1920" height="1" transform="rotate(-90 577 1425)" fill="#D9D9D9" fill-opacity="0.5"/>
<rect x="628" y="1425" width="1920" height="1" transform="rotate(-90 628 1425)" fill="#D9D9D9" fill-opacity="0.5"/>
<rect x="679" y="1425" width="1920" height="1" transform="rotate(-90 679 1425)" fill="#D9D9D9" fill-opacity="0.5"/>
<rect x="730" y="1425" width="1920" height="1" transform="rotate(-90 730 1425)" fill="#D9D9D9" fill-opacity="0.5"/>
<rect x="781" y="1425" width="1920" height="1" transform="rotate(-90 781 1425)" fill="#D9D9D9" fill-opacity="0.5"/>
<rect x="832" y="1425" width="1920" height="1" transform="rotate(-90 832 1425)" fill="#D9D9D9" fill-opacity="0.5"/>
<rect x="883" y="1425" width="1920" height="1" transform="rotate(-90 883 1425)" fill="#D9D9D9" fill-opacity="0.5"/>
<rect x="934" y="1425" width="1920" height="1" transform="rotate(-90 934 1425)" fill="#D9D9D9" fill-opacity="0.5"/>
</g>
</g>
<defs>
<clipPath id="clip0_401_189">
<rect width="1920" height="950" fill="white"/>
</clipPath>
</defs>
</svg>
