<svg width="66" height="66" viewBox="0 0 66 66" fill="none" xmlns="http://www.w3.org/2000/svg">
<path d="M34.9375 5.9209H22.9963C22.5888 5.9209 22.2583 6.25141 22.2583 6.65889C22.2583 7.06636 22.5888 7.39688 22.9963 7.39688H34.9375C35.345 7.39688 35.6755 7.06636 35.6755 6.65889C35.6755 6.25154 35.345 5.9209 34.9375 5.9209Z" fill="#87AB42"/>
<path d="M21.0482 52.6815C20.6408 52.6815 20.3103 53.012 20.3103 53.4195V58.0849C20.3103 61.2094 17.7686 63.7511 14.6443 63.7511H14.6426C11.4712 63.7511 8.97952 61.1802 8.97952 58.0829V8.52364C8.97952 7.90245 9.48716 7.39688 10.1113 7.39688H11.9808C12.3886 7.39688 12.7188 7.06636 12.7188 6.65889C12.7188 6.25141 12.3884 5.9209 11.9808 5.9209H10.1112C8.67337 5.9209 7.50342 7.0884 7.50342 8.52364V58.0831C7.50342 62.0029 10.6602 65.2272 14.6425 65.2272H14.6442H49.693C54.1365 65.2272 58.4963 61.3349 58.4963 56.1515V53.4196C58.4963 53.0122 58.1658 52.6816 57.7583 52.6816H50.4311V8.52364C50.4311 7.08853 49.2612 5.9209 47.8231 5.9209H45.9488C45.5413 5.9209 45.2108 6.25141 45.2108 6.65889C45.2108 7.06636 45.5413 7.39688 45.9488 7.39688H47.8231C48.4473 7.39688 48.9552 7.90232 48.9552 8.52364V52.6815H21.0482ZM57.0203 56.1515C57.0203 60.3423 53.6109 63.7512 49.4201 63.7512H18.9875C20.6885 62.4444 21.7864 60.3907 21.7864 58.085V54.1576H57.0203V56.1515Z" fill="#87AB42"/>
<path d="M36.8372 18.918L33.8607 21.816L34.5642 25.9143C34.6528 26.4112 34.4511 26.9081 34.0378 27.2084C33.8065 27.3757 33.536 27.4593 33.2604 27.4593C33.0537 27.4593 32.8422 27.4101 32.6453 27.3068L28.9652 25.3733L25.29 27.3068C24.8372 27.543 24.3059 27.5037 23.8926 27.2085C23.4842 26.9083 23.2825 26.4113 23.3662 25.9144L24.0697 21.8161L21.0932 18.9181C20.7291 18.559 20.6011 18.0424 20.7586 17.5602C20.916 17.0781 21.3244 16.7288 21.8262 16.6598L25.9394 16.0596L27.7795 12.3352C28.0059 11.8775 28.4585 11.5972 28.9652 11.5972C29.4719 11.5972 29.9295 11.8775 30.151 12.3352L31.9911 16.0596L36.1043 16.6598C36.6061 16.7287 37.0145 17.078 37.1719 17.5602C37.3293 18.0422 37.2014 18.5638 36.8372 18.918Z" fill="#87AB42"/>
<path d="M20.7833 2.41625V10.2932C20.7833 11.1985 20.0453 11.9365 19.14 11.9365H15.8386C14.9333 11.9365 14.1953 11.1985 14.1953 10.2932V2.41625C14.1953 1.51094 14.9333 0.772949 15.8386 0.772949H19.14C20.0453 0.772949 20.7833 1.51094 20.7833 2.41625Z" fill="#87AB42"/>
<path d="M43.7353 2.41625V10.2932C43.7353 11.1985 42.9973 11.9365 42.092 11.9365H38.7956C37.8903 11.9365 37.1523 11.1985 37.1523 10.2932V2.41625C37.1523 1.51094 37.8903 0.772949 38.7956 0.772949H42.092C42.9973 0.772949 43.7353 1.51094 43.7353 2.41625Z" fill="#87AB42"/>
<path d="M25.9942 31.1309H16.6276C16.2199 31.1309 15.8896 31.4614 15.8896 31.8688C15.8896 32.2763 16.22 32.6068 16.6276 32.6068H25.9942C26.4017 32.6068 26.7322 32.2763 26.7322 31.8688C26.7322 31.4615 26.4017 31.1309 25.9942 31.1309Z" fill="#87AB42"/>
<path d="M42.043 31.8688C42.043 31.4614 41.7125 31.1309 41.305 31.1309H31.9382C31.5307 31.1309 31.2002 31.4614 31.2002 31.8688C31.2002 32.2763 31.5307 32.6068 31.9382 32.6068H41.305C41.7124 32.607 42.043 32.2763 42.043 31.8688Z" fill="#87AB42"/>
<path d="M18.0103 37.8298C18.0103 38.2373 18.3406 38.5678 18.7482 38.5678H39.1847C39.5921 38.5678 39.9226 38.2373 39.9226 37.8298C39.9226 37.4223 39.5921 37.0918 39.1847 37.0918H18.7484C18.3406 37.0918 18.0103 37.4224 18.0103 37.8298Z" fill="#87AB42"/>
<path d="M19.2034 42.0591C18.2031 42.0591 17.3892 42.873 17.3892 43.8733V47.6931C17.3892 48.6934 18.2031 49.5073 19.2034 49.5073H38.7291C39.7294 49.5073 40.5433 48.6934 40.5433 47.6931V43.8733C40.5433 42.873 39.7294 42.0591 38.7291 42.0591H19.2034ZM39.0673 43.8733V47.6931C39.0673 47.8795 38.9155 48.0313 38.7291 48.0313H19.2034C19.017 48.0313 18.8651 47.8795 18.8651 47.6931V43.8733C18.8651 43.6869 19.017 43.5351 19.2034 43.5351H38.7291C38.9156 43.5351 39.0673 43.6869 39.0673 43.8733Z" fill="#87AB42"/>
</svg>
