<svg width="88" height="88" viewBox="0 0 88 88" fill="none" xmlns="http://www.w3.org/2000/svg">
<path fill-rule="evenodd" clip-rule="evenodd" d="M24.2221 16.5188V13.3862C24.2221 9.38218 27.4988 6.10547 31.5028 6.10547H49.0974C53.1014 6.10547 56.3781 9.38218 56.3781 13.3862V16.5188H53.6173V13.3862C53.6173 10.9004 51.5832 8.86625 49.0974 8.86625H31.5028C29.017 8.86625 26.9828 10.9004 26.9828 13.3862V16.5188H24.2221ZM67.3074 45.4342C62.6839 46.8177 56.5469 47.7345 49.9229 48.1817C49.3276 43.4088 45.258 39.6942 40.3 39.6942C35.3401 39.6942 31.2691 43.4119 30.6764 48.1876C20.8404 47.5286 12.0725 45.8292 7.73086 43.08C7.12728 42.6966 6.55217 42.2918 6.01969 41.8516C4.03865 40.2255 2.66119 38.1949 2.66119 35.5322V22.0983C2.66119 20.5433 3.93202 19.2796 5.48703 19.2796H19.2659V26.4559C19.2659 29.161 21.4773 31.3723 24.1824 31.3723H56.4178C59.1229 31.3723 61.3342 29.161 61.3342 26.4559V19.2796H75.1131C76.668 19.2796 77.939 20.5433 77.939 22.0983V33.938L66.2472 38.1706C65.0349 38.6094 64.1723 39.6927 64.0162 40.9724C63.86 42.2522 64.4367 43.511 65.5077 44.2286C66.0236 44.5742 66.667 45.0053 67.3074 45.4342ZM74.5805 64.3277V66.6176C74.5805 69.6423 72.1025 72.1274 69.0707 72.1274H66.9122C69.8989 69.5975 72.4493 66.9181 74.5805 64.3277ZM39.0554 72.1274H11.5295C8.49766 72.1274 6.01969 69.6423 6.01969 66.6176V45.2618C6.09613 45.3115 6.17308 45.3611 6.25039 45.4102L6.25384 45.4123C10.8685 48.3344 20.2441 50.2282 30.7253 50.942C31.466 55.5641 35.4676 59.0899 40.3 59.0899C45.1347 59.0899 49.1374 55.5611 49.876 50.9363C55.9485 50.5196 61.6479 49.7084 66.2624 48.5363C59.4994 58.7531 50.3453 67.0862 39.0554 72.1274ZM22.0267 19.2796H58.5735V26.4559C58.5735 27.642 57.6039 28.6116 56.4178 28.6116H24.1824C22.9963 28.6116 22.0267 27.642 22.0267 26.4559V19.2796ZM33.363 49.3921C33.363 45.5721 36.4587 42.455 40.3 42.455C44.1413 42.455 47.2372 45.5721 47.2372 49.3921C47.2372 53.2264 44.1342 56.3291 40.3 56.3291C36.466 56.3291 33.363 53.2264 33.363 49.3921ZM80.6259 51.0438C80.4623 50.9342 80.2584 50.9033 80.0696 50.9598C79.881 51.016 79.7273 51.1537 79.6507 51.3352C75.8204 59.9333 57.9756 87.4275 22.359 80.9043C22.0405 80.8456 21.8126 80.5631 21.8224 80.2394C21.8323 79.9159 22.0769 79.6478 22.3984 79.6086C44.4615 76.7771 61.1548 63.4395 71.3374 45.5459C71.5076 45.2455 71.4175 44.8648 71.1307 44.6726C70.2155 44.0594 68.27 42.7561 67.0442 41.9349C66.8377 41.7965 66.7266 41.5538 66.7566 41.3068C66.7868 41.0601 66.9531 40.8511 67.1869 40.7666L82.6258 35.1774C82.8163 35.1084 83.0281 35.1308 83.2 35.2383C83.3719 35.3458 83.4849 35.5263 83.5063 35.7278L85.3351 52.898C85.3622 53.1529 85.2394 53.4003 85.0201 53.5328C84.8006 53.6652 84.5245 53.6586 84.3116 53.5159L80.6259 51.0438Z" fill="#1A747B"/>
</svg>
