<svg width="158" height="163" viewBox="0 0 158 163" fill="none" xmlns="http://www.w3.org/2000/svg">
<g clip-path="url(#clip0_2952_1301)">
<path d="M12.8259 57.3484C12.4541 58.3741 11.8965 59.2134 11.3388 59.7729C10.7812 60.3324 10.1306 60.7054 9.38706 60.7986C8.64353 60.8919 7.9 60.7986 7.15647 60.5189L7.71412 59.0269C8.27176 59.2134 8.82941 59.3066 9.29412 59.2134C9.75882 59.1201 10.2235 58.9336 10.6882 58.4674C11.1529 58.0011 11.4318 57.5349 11.7106 56.7889C11.9894 56.1361 12.0824 55.5766 12.0824 55.0172C12.0824 54.4577 11.9894 54.0847 11.8035 53.6184C11.6176 53.2454 11.2459 52.9657 10.6882 52.7792C10.3165 52.5927 9.94471 52.5927 9.66588 52.5927C9.38706 52.5927 9.10824 52.6859 8.82941 52.9657C8.55059 53.1522 8.27176 53.4319 7.99294 53.8049C7.71412 54.1779 7.43529 54.6442 7.06353 55.2037C6.69176 55.8564 6.32 56.4159 5.94824 56.8821C5.57647 57.3484 5.20471 57.7214 4.83294 58.0011C4.46118 58.2809 4.08941 58.3741 3.62471 58.4674C3.16 58.4674 2.69529 58.4674 2.23059 58.2809C1.58 58.0011 1.02235 57.6281 0.650588 57.0686C0.278824 56.6956 0 56.0429 0 55.2969C0 54.5509 0.0929412 53.7117 0.464706 52.7792C0.836471 51.8467 1.20824 51.1007 1.76588 50.6344C2.32353 50.0749 2.88118 49.7952 3.53176 49.6087C4.18235 49.4222 4.83294 49.5154 5.57647 49.7952L5.01882 51.2872C4.46118 51.1007 3.99647 51.1007 3.53176 51.1939C3.06706 51.2872 2.69529 51.5669 2.32353 51.9399C1.95176 52.3129 1.67294 52.7792 1.48706 53.3387C1.30118 53.8982 1.20824 54.4577 1.20824 54.9239C1.20824 55.3902 1.30118 55.7631 1.58 56.1361C1.76588 56.5091 2.13765 56.6956 2.50941 56.8821C2.97412 57.0686 3.34588 57.0686 3.71765 56.9754C4.08941 56.8821 4.36824 56.6024 4.74 56.1361C5.11176 55.6699 5.48353 55.1104 5.94824 54.2712C6.22706 53.8049 6.50588 53.2454 6.87765 52.8724C7.24941 52.4062 7.52824 52.0332 7.99294 51.7534C8.45765 51.4737 8.82941 51.2872 9.38706 51.1939C9.85176 51.1007 10.5024 51.1939 11.1529 51.4737C11.8035 51.7534 12.3612 52.1264 12.7329 52.6859C13.1047 53.2454 13.2906 53.8982 13.3835 54.7374C13.3835 55.4834 13.1976 56.4159 12.8259 57.3484Z" fill="#18292C"/>
<path d="M15.2415 51.3804L3.7168 45.599L4.36738 44.2935L15.8921 50.075L15.2415 51.3804Z" fill="#18292C"/>
<path d="M16.8222 47.9302L6.04102 40.8432L7.15631 39.1648H20.261L20.354 39.0715L16.7293 36.7403L11.1528 33.1035L11.9893 31.8913L22.6775 39.0715L21.6551 40.6567H8.64337L8.55043 40.75L11.9893 42.988L17.5657 46.718L16.8222 47.9302Z" fill="#18292C"/>
<path d="M27.8818 33.663C27.2312 34.3158 26.4877 34.8753 25.7441 35.2483C25.0006 35.6213 24.1641 35.8078 23.4206 35.8078C22.5841 35.8078 21.8406 35.6213 21.0041 35.2483C20.2606 34.8753 19.4241 34.409 18.7736 33.663C18.03 32.917 17.4724 32.171 17.1006 31.425C16.7289 30.6791 16.543 29.8398 16.543 29.0938C16.543 28.3478 16.6359 27.5086 17.0077 26.7626C17.2865 26.0166 17.8441 25.2706 18.4947 24.6178C19.2383 23.8718 19.9818 23.3123 20.8183 23.0326C21.6547 22.7529 22.4912 22.5664 23.3277 22.6596C24.1641 22.7529 24.9077 23.0326 25.6512 23.5921L24.6289 24.7111C24.0712 24.3381 23.6065 24.1516 22.9559 24.1516C22.3983 24.1516 21.7477 24.2448 21.19 24.4313C20.6324 24.7111 19.9818 25.0841 19.5171 25.6436C18.8665 26.3896 18.4018 27.1356 18.2159 27.8816C18.03 28.7208 18.123 29.4668 18.4018 30.3061C18.6806 31.1453 19.2383 31.8913 19.9818 32.7305C20.5394 33.29 21.19 33.7563 21.8406 34.036C22.4912 34.3158 23.0489 34.5023 23.6994 34.5023C24.35 34.5023 24.9077 34.409 25.4653 34.1293C26.023 33.8495 26.5806 33.4765 27.1383 32.917C27.6959 32.3575 28.0677 31.798 28.2536 31.1453C28.4394 30.4926 28.5324 29.9331 28.4394 29.2803C28.3465 28.7208 28.1606 28.0681 27.7889 27.6018L28.8112 26.4828C29.3689 27.2288 29.7406 27.9748 29.8336 28.8141C29.9265 29.6533 29.8336 30.4926 29.5547 31.3318C29.09 32.171 28.6253 32.917 27.8818 33.663Z" fill="#18292C"/>
<path d="M32.8079 28.8141L25.0938 18.3701L32.1573 13.0549L32.9008 14.0807L26.6738 18.6499L26.7667 18.1837L33.2726 26.9491L32.9008 27.0423L39.1279 22.4731L39.9643 23.5921L32.8079 28.8141ZM30.1126 23.3124L29.369 22.2866L34.8526 18.1837L35.5961 19.2094L30.1126 23.3124Z" fill="#18292C"/>
<path d="M42.0088 17.6241L41.4512 16.5051L46.0053 14.2672L46.5629 15.3861L42.0088 17.6241Z" fill="#18292C"/>
<path d="M52.6973 17.1579L52.6044 16.7849C52.4185 16.1322 52.3256 15.5727 52.4185 15.0132C52.5115 14.4537 52.6973 13.8942 52.8832 13.4279C53.0691 12.9617 53.4409 12.4022 53.8126 11.9359C54.1844 11.4697 54.4632 11.0034 54.835 10.5372C55.2068 10.0709 55.4856 9.60469 55.7644 9.13844C56.0432 8.6722 56.2291 8.20595 56.322 7.7397C56.415 7.27346 56.415 6.80721 56.322 6.34096C56.1362 5.87471 55.9503 5.50172 55.6715 5.22197C55.3926 4.94222 55.0209 4.66247 54.5562 4.66247C54.0915 4.56922 53.7197 4.66247 53.162 4.75572C52.6044 4.94222 52.2326 5.22197 51.8609 5.50172C51.4891 5.78146 51.3032 6.24771 51.2103 6.71396C51.1173 7.18021 51.2103 7.64645 51.3032 8.1127L49.9091 8.57895C49.7232 7.83295 49.6303 7.08696 49.8162 6.43421C50.002 5.78146 50.2809 5.22197 50.8385 4.66247C51.3962 4.10297 52.0468 3.72998 52.7903 3.54348C53.5338 3.26373 54.2773 3.26373 54.9279 3.35698C55.6715 3.45023 56.2291 3.72998 56.6938 4.19622C57.1585 4.66247 57.5303 5.22197 57.7162 5.87471C57.902 6.43421 57.902 6.90046 57.8091 7.45995C57.8091 7.9262 57.6232 8.39245 57.3444 8.8587C57.0656 9.32494 56.7868 9.79119 56.5079 10.2574C56.2291 10.7237 55.8573 11.1899 55.4856 11.5629C55.1138 12.0292 54.835 12.4022 54.5562 12.8684C54.2773 13.3347 54.0915 13.7077 53.9056 14.1739C53.7197 14.6402 53.7197 15.0132 53.8126 15.4794L60.1326 13.5212L60.5044 14.7334L52.6973 17.1579Z" fill="#18292C"/>
<path d="M65.8958 13.8942C65.2452 13.9874 64.5946 13.9874 63.944 13.8009C63.3864 13.6144 62.8287 13.2414 62.364 12.7752C61.8993 12.3089 61.5275 11.6562 61.1558 10.9102C60.784 10.1642 60.5981 9.2317 60.4122 8.20596C60.1334 6.71397 60.1334 5.50172 60.4122 4.47598C60.5981 3.45024 61.0628 2.70424 61.6205 2.14474C62.1781 1.58525 62.9217 1.21225 63.8511 1.119C64.5017 0.932501 65.1522 0.932501 65.7099 1.119C66.2675 1.3055 66.8252 1.6785 67.2899 2.14474C67.7546 2.61099 68.1264 3.26374 68.4981 4.00973C68.8699 4.75573 69.0558 5.68822 69.2417 6.71397C69.5205 8.20596 69.5205 9.4182 69.2417 10.4439C69.0558 11.4697 68.5911 12.2157 68.0334 12.7752C67.4758 13.4279 66.7322 13.8009 65.8958 13.8942ZM65.7099 12.6819C66.2675 12.5887 66.6393 12.4022 67.0111 12.1224C67.3828 11.8427 67.5687 11.4697 67.7546 11.0034C67.9405 10.5372 68.0334 9.9777 68.0334 9.2317C68.0334 8.57895 68.0334 7.83296 67.8475 6.90046C67.6617 5.96797 67.5687 5.31522 67.2899 4.66248C67.104 4.00973 66.8252 3.54349 66.4534 3.07724C66.1746 2.70424 65.8028 2.42449 65.3381 2.23799C64.9664 2.05149 64.5017 2.05149 63.944 2.14474C63.4793 2.23799 63.0146 2.42449 62.6428 2.70424C62.2711 2.98399 62.0852 3.35699 61.8993 3.82323C61.7134 4.28948 61.6205 4.84898 61.6205 5.59497C61.6205 6.24772 61.7134 6.99371 61.8064 7.92621C61.8993 8.8587 62.0852 9.51145 62.364 10.1642C62.5499 10.8169 62.8287 11.2832 63.2005 11.7494C63.4793 12.1224 63.8511 12.4022 64.3158 12.5887C64.6875 12.7752 65.1522 12.7752 65.7099 12.6819Z" fill="#18292C"/>
<path d="M76.1186 13.0549C75.468 13.0549 74.8174 12.9617 74.2597 12.6819C73.7021 12.4022 73.2374 12.0292 72.8656 11.4697C72.4939 10.9102 72.1221 10.2574 71.9362 9.41819C71.7503 8.57895 71.5645 7.64645 71.5645 6.62071C71.5645 5.12872 71.7503 3.91648 72.0292 2.89073C72.4009 1.95824 72.8656 1.21224 73.6092 0.745995C74.2597 0.279748 75.0033 0 75.9327 0C76.6762 0 77.2339 0.0932494 77.7915 0.372998C78.3492 0.652746 78.8139 1.02574 79.1856 1.58524C79.5574 2.14474 79.9292 2.79748 80.115 3.63673C80.3009 4.47597 80.4868 5.40847 80.4868 6.43421C80.4868 7.9262 80.3009 9.13844 80.0221 10.1642C79.6503 11.0967 79.1856 11.8427 78.4421 12.3089C77.7915 12.7752 77.048 13.0549 76.1186 13.0549ZM76.1186 11.8427C76.6762 11.8427 77.048 11.7494 77.4198 11.4697C77.7915 11.1899 78.0703 10.9102 78.3492 10.4439C78.628 9.97769 78.7209 9.41819 78.9068 8.76545C78.9997 8.1127 79.0927 7.3667 79.0927 6.52746C78.9997 5.59497 78.9998 4.84897 78.8139 4.19622C78.628 3.54348 78.4421 2.98398 78.2562 2.51773C77.9774 2.05149 77.6986 1.77174 77.3268 1.49199C76.955 1.30549 76.4903 1.21224 75.9327 1.21224C75.375 1.21224 75.0033 1.30549 74.6315 1.58524C74.2598 1.77174 73.9809 2.14474 73.7021 2.61098C73.4233 3.07723 73.3303 3.63673 73.1445 4.28947C72.9586 4.94222 72.9586 5.68821 73.0515 6.62071C73.0515 7.45995 73.1445 8.20595 73.2374 8.95195C73.3303 9.60469 73.5162 10.1642 73.795 10.6304C74.0739 11.0967 74.3527 11.3764 74.7245 11.6562C75.1892 11.7494 75.5609 11.8427 76.1186 11.8427Z" fill="#18292C"/>
<path d="M86.3428 13.7077C85.6922 13.6144 85.0416 13.4279 84.5769 13.0549C84.1122 12.6819 83.6475 12.2157 83.3687 11.6562C83.0899 11.0967 82.904 10.3507 82.811 9.51145C82.7181 8.67221 82.7181 7.73971 82.904 6.62072C83.0899 5.12873 83.4616 3.91649 84.0193 3.07724C84.484 2.14475 85.1346 1.58525 85.8781 1.119C86.6216 0.746005 87.4581 0.652756 88.2946 0.746005C89.0381 0.839254 89.5958 1.02575 90.0605 1.39875C90.5252 1.77175 90.9899 2.238 91.2687 2.79749C91.5475 3.35699 91.7334 4.10298 91.8263 4.94223C91.9193 5.78147 91.9193 6.71397 91.7334 7.83296C91.5475 9.32495 91.1758 10.5372 90.711 11.3764C90.2463 12.3089 89.5958 12.9617 88.8522 13.3347C88.0158 13.7077 87.1793 13.8942 86.3428 13.7077ZM86.4358 12.4954C86.9934 12.5887 87.3652 12.4954 87.8299 12.3089C88.2016 12.1224 88.5734 11.8427 88.8522 11.4697C89.131 11.0967 89.4099 10.5372 89.5958 9.88445C89.7816 9.2317 89.9675 8.48571 90.0605 7.64646C90.1534 6.80722 90.2463 6.06122 90.1534 5.31523C90.1534 4.66248 90.0605 4.10298 89.8746 3.54349C89.8746 3.17049 89.5958 2.79749 89.224 2.51774C88.8522 2.238 88.4805 2.0515 87.9228 1.95825C87.3652 1.865 86.9934 1.95825 86.5287 2.14475C86.1569 2.33125 85.7852 2.61099 85.5063 2.98399C85.2275 3.35699 84.9487 3.91649 84.7628 4.56923C84.5769 5.22198 84.391 5.96797 84.2981 6.80722C84.2052 7.64646 84.1122 8.39246 84.1122 9.13845C84.1122 9.7912 84.2052 10.3507 84.3911 10.8169C84.5769 11.2832 84.8558 11.6562 85.1346 11.9359C85.5063 12.3089 85.9711 12.4954 86.4358 12.4954Z" fill="#18292C"/>
<path d="M114.504 19.4891L115.154 18.4634L119.337 21.2609L118.686 22.2866L114.504 19.4891Z" fill="#18292C"/>
<path d="M132.627 41.6825L146.103 39.1648L147.219 41.0298L138.482 51.6602L137.646 50.2614L144.523 42.0555L145.639 40.75L145.546 40.6568L143.873 41.0298L133.37 43.0812L132.627 41.6825ZM136.716 42.242L137.925 41.7757L140.992 46.9045L140.062 47.7437L136.716 42.242Z" fill="#18292C"/>
<path d="M139.227 53.3387L150.194 45.8787L150.751 47.464L144.06 51.9399L140.9 53.8982V53.9914L144.617 53.5252L152.61 52.6859L153.261 54.5509L146.662 59.0269L143.409 61.1716V61.2649L147.219 60.7054L155.119 59.7729L155.677 61.3581L142.48 62.7569L141.736 60.7986L147.87 56.6024L151.495 54.0847V53.9914L147.405 54.5509L139.97 55.2969L139.227 53.3387Z" fill="#18292C"/>
<path d="M143.129 64.3421L156.605 66.8598L156.977 68.9113L145.081 75.7185L144.802 74.1333L154.096 68.9113L155.583 68.0721V67.9788L153.91 67.6991L143.408 65.8341L143.129 64.3421ZM146.661 66.3003H147.962L148.984 72.2683L147.776 72.7346L146.661 66.3003Z" fill="#18292C"/>
<path d="M144.988 76.651L157.814 76.4645L157.907 82.4325C157.907 82.8988 157.907 83.365 157.814 83.8312C157.721 84.2975 157.628 84.6705 157.442 84.9502C157.257 85.3232 157.071 85.603 156.792 85.7895C156.513 85.976 156.234 86.1625 155.862 86.349C155.491 86.4422 155.119 86.5355 154.654 86.5355C153.911 86.5355 153.167 86.349 152.609 85.976C152.052 85.603 151.68 85.0435 151.401 84.2042H151.308C151.215 84.6705 151.122 85.1367 150.844 85.4165C150.658 85.6962 150.379 85.976 150.007 86.0692C149.635 86.2557 149.264 86.2557 148.706 86.2557H146.475C146.289 86.2557 146.011 86.2557 145.825 86.2557C145.639 86.2557 145.36 86.349 145.081 86.4422V84.9502C145.267 84.857 145.453 84.7637 145.732 84.7637C145.918 84.7637 146.197 84.6705 146.568 84.6705H148.52C148.985 84.6705 149.357 84.5772 149.728 84.484C150.1 84.3907 150.286 84.111 150.379 83.738C150.565 83.365 150.565 82.8987 150.565 82.246L150.472 77.77H151.68L151.773 82.0595C151.773 83.0852 152.052 83.8312 152.517 84.2042C152.981 84.5772 153.632 84.857 154.282 84.857C154.654 84.857 155.026 84.7637 155.305 84.6705C155.584 84.5772 155.862 84.2975 156.048 84.111C156.234 83.8312 156.42 83.5515 156.42 83.1785C156.513 82.8055 156.513 82.4325 156.513 82.0595L156.42 77.9565L144.988 78.143V76.651Z" fill="#18292C"/>
<path d="M144.988 88.0275L157.721 90.1722L156.885 95.2077C156.699 96.4199 156.234 97.4457 155.584 98.1917C154.933 98.9376 154.097 99.4971 153.074 99.7769C152.052 100.057 150.937 100.057 149.635 99.8701C148.706 99.6836 147.87 99.4039 147.126 99.0309C146.383 98.6579 145.825 98.1917 145.267 97.5389C144.71 96.8862 144.431 96.3267 144.245 95.4874C144.059 94.6482 144.059 93.9022 144.245 92.9697L144.988 88.0275ZM146.011 89.706L145.453 93.0629C145.36 93.7157 145.36 94.3684 145.453 94.9279C145.546 95.4874 145.825 96.0469 146.197 96.5132C146.568 96.9794 147.033 97.3524 147.684 97.6322C148.334 97.9119 148.985 98.1917 149.821 98.2849C150.937 98.4714 151.866 98.4714 152.703 98.1917C153.539 97.9119 154.19 97.5389 154.654 96.9794C155.119 96.4199 155.491 95.6739 155.584 94.7414L156.141 91.3844L146.011 89.706Z" fill="#18292C"/>
<path d="M140.991 105.465L154.003 107.89L153.352 109.382L145.452 107.89L141.734 107.05L141.642 107.144L144.709 109.382L151.029 114.417L150.192 116.189L142.385 114.79L138.574 113.951L138.482 114.044L141.642 116.282L147.869 121.131L147.218 122.623L136.809 114.324L137.645 112.366L144.987 113.671L148.984 114.51V114.417L145.731 111.899L139.876 107.237L140.991 105.465Z" fill="#18292C"/>
<path d="M134.579 118.054L145.36 125.047L144.523 126.353L133.742 119.359L134.579 118.054Z" fill="#18292C"/>
<path d="M132.72 121.224L142.665 129.43L141.457 130.922L128.445 129.523L128.352 129.617L131.791 132.321L136.81 136.517L135.88 137.636L125.936 129.43L127.144 128.031L140.063 129.337L140.156 129.244L136.903 126.633L131.791 122.343L132.72 121.224Z" fill="#18292C"/>
<path d="M124.634 130.736L132.906 140.62L131.419 141.832L118.872 138.102L118.779 138.196L121.66 141.553L125.842 146.588L124.727 147.521L116.455 137.636L117.849 136.424L130.396 140.061L130.489 139.967L127.794 136.797L123.519 131.668L124.634 130.736Z" fill="#18292C"/>
<path d="M114.503 138.662L121.474 149.479L120.173 150.318L113.109 139.501L114.503 138.662Z" fill="#18292C"/>
<path d="M111.529 140.807L117.199 152.37L115.433 153.209L104.094 146.588H104.001L105.953 150.505L108.834 156.379L107.533 157.032L101.863 145.469L103.536 144.63L114.782 151.157H114.875L113.016 147.427L110.042 141.366L111.529 140.807Z" fill="#18292C"/>
<path d="M94.9857 147.521C95.9151 147.241 96.7516 147.241 97.4951 147.334C98.3316 147.427 99.0751 147.707 99.7257 148.08C100.376 148.453 101.027 149.013 101.492 149.759C101.956 150.411 102.328 151.251 102.607 152.276C102.886 153.209 102.979 154.141 102.886 155.074C102.793 155.913 102.607 156.752 102.235 157.405C101.863 158.151 101.306 158.711 100.655 159.27C100.005 159.83 99.168 160.203 98.2386 160.389C97.2163 160.669 96.2869 160.762 95.4504 160.669C94.6139 160.576 93.7774 160.296 93.1269 159.83C92.4763 159.363 91.9186 158.711 91.5469 157.965L93.0339 157.592C93.3127 158.151 93.6845 158.524 94.1492 158.804C94.6139 159.084 95.1716 159.27 95.8222 159.363C96.4727 159.457 97.1233 159.363 97.8669 159.177C98.8892 158.897 99.6327 158.431 100.19 157.871C100.748 157.219 101.12 156.473 101.306 155.633C101.492 154.794 101.399 153.862 101.12 152.836C100.934 152.09 100.655 151.344 100.19 150.784C99.8186 150.225 99.3539 149.759 98.7963 149.386C98.2386 149.013 97.681 148.826 97.0304 148.733C96.3798 148.64 95.7292 148.733 94.9857 148.919C94.1492 149.106 93.4986 149.479 92.941 150.038C92.3833 150.505 92.0116 151.157 91.8257 151.81C91.6398 152.463 91.6398 153.209 91.8257 154.048L92.0116 154.887L91.4539 154.608L96.5657 153.209L96.8445 154.328L90.6174 156.006L88.8516 149.386L90.0598 149.106L90.8033 151.624H90.8963C90.8963 151.064 91.0822 150.505 91.4539 149.945C91.8257 149.386 92.2904 148.919 92.848 148.546C93.5916 147.987 94.2421 147.707 94.9857 147.521Z" fill="#18292C"/>
<path d="M83.8334 149.945L84.2981 162.813L78.5357 163C77.3275 163 76.3051 162.813 75.6546 162.161C75.004 161.601 74.6322 160.762 74.5393 159.829C74.5393 159.363 74.6322 158.897 74.7251 158.524C74.911 158.151 75.0969 157.778 75.4687 157.498C75.7475 157.219 76.2122 157.032 76.6769 156.846V156.752C76.1193 156.659 75.5616 156.473 75.1898 156.193C74.8181 155.913 74.5393 155.54 74.2604 155.167C74.0746 154.794 73.9816 154.328 73.8887 153.768C73.8887 153.022 73.9816 152.37 74.3534 151.81C74.7251 151.251 75.1898 150.878 75.7475 150.505C76.3981 150.225 77.1416 150.038 78.071 150.038L83.8334 149.945ZM82.4393 151.157L78.4428 151.344C77.4204 151.344 76.7698 151.624 76.3051 152.09C75.8404 152.556 75.6546 153.209 75.6546 153.862C75.6546 154.608 75.9334 155.167 76.3981 155.54C76.8628 155.913 77.5134 156.1 78.3499 156.1L82.811 155.913V157.125L78.4428 157.312C77.8851 157.312 77.4204 157.405 77.1416 157.592C76.7698 157.778 76.491 158.058 76.3981 158.431C76.3051 158.804 76.1193 159.177 76.1193 159.55C76.1193 160.296 76.3981 160.855 76.8628 161.228C77.3275 161.601 77.9781 161.788 78.8146 161.788L82.811 161.601L82.4393 151.157Z" fill="#18292C"/>
<path d="M67.6617 149.386C68.684 149.572 69.6134 149.852 70.357 150.318C71.1005 150.784 71.5652 151.437 71.937 152.183C72.2158 152.929 72.3087 153.862 72.2158 154.887L71.1005 163L69.6134 162.814L70.6358 154.701C70.7287 153.955 70.6358 153.209 70.4499 152.649C70.264 152.09 69.8922 151.624 69.3346 151.344C68.777 151.064 68.2193 150.784 67.4758 150.691C66.6393 150.598 65.9887 150.598 65.4311 150.878C64.8734 151.157 64.4087 151.437 64.037 151.903C63.6652 152.37 63.4793 153.022 63.3864 153.675L62.364 161.788L60.877 161.601L61.9922 153.489C62.0852 152.463 62.457 151.717 62.9217 150.971C63.3864 150.318 64.037 149.852 64.8734 149.479C65.7099 149.106 66.5464 149.199 67.6617 149.386Z" fill="#18292C"/>
<path d="M56.6932 146.961C57.8085 147.334 58.552 147.707 59.2026 148.267C59.7602 148.826 60.2249 149.479 60.3179 150.132C60.5038 150.878 60.4108 151.624 60.2249 152.37L58.7379 151.903C58.9238 151.344 58.9238 150.784 58.8308 150.318C58.7379 149.852 58.4591 149.386 58.0873 149.013C57.7155 148.64 57.0649 148.36 56.3214 148.08C55.6708 147.894 55.1132 147.8 54.5555 147.8C53.9979 147.8 53.6261 147.987 53.2543 148.173C52.8826 148.453 52.6038 148.826 52.5108 149.292C52.4179 149.665 52.3249 150.038 52.4179 150.318C52.4179 150.598 52.6038 150.878 52.7896 151.157C52.9755 151.437 53.3473 151.717 53.7191 151.903C54.0908 152.183 54.6485 152.463 55.2061 152.743C55.8567 153.116 56.4144 153.395 56.8791 153.768C57.3438 154.141 57.7155 154.421 57.9944 154.794C58.2732 155.167 58.4591 155.54 58.552 156.006C58.6449 156.473 58.552 156.939 58.4591 157.405C58.2732 158.058 57.9014 158.617 57.3438 159.084C56.8791 159.457 56.2285 159.736 55.4849 159.83C54.7414 159.923 53.9049 159.83 52.9755 159.55C52.0461 159.27 51.3026 158.897 50.7449 158.338C50.1873 157.871 49.8155 157.312 49.6296 156.659C49.4438 156.006 49.4438 155.354 49.6296 154.608L51.1167 155.074C50.9308 155.633 50.9308 156.1 51.1167 156.566C51.2096 157.032 51.4885 157.405 51.8602 157.685C52.232 157.965 52.6967 158.244 53.3473 158.431C53.9049 158.617 54.4626 158.711 54.9273 158.617C55.392 158.617 55.7638 158.431 56.1355 158.244C56.4144 157.965 56.6932 157.685 56.7861 157.219C56.972 156.752 56.972 156.379 56.7861 156.006C56.6932 155.633 56.3214 155.354 55.8567 154.981C55.392 154.701 54.7414 154.328 53.9049 153.862C53.3473 153.582 52.8826 153.302 52.4179 153.022C51.9532 152.743 51.5814 152.37 51.2096 151.997C50.8379 151.624 50.652 151.157 50.5591 150.691C50.4661 150.225 50.5591 149.572 50.7449 148.919C50.9308 148.267 51.3026 147.707 51.8602 147.241C52.4179 146.775 53.0685 146.588 53.812 146.495C54.7414 146.588 55.6708 146.681 56.6932 146.961Z" fill="#18292C"/>
<path d="M50.5594 144.91L45.5406 156.846L44.1465 156.286L49.1653 144.443L50.5594 144.91Z" fill="#18292C"/>
<path d="M47.1219 143.604L40.709 154.794L39.036 153.862L38.1996 140.807H38.1066L35.969 144.63L32.716 150.318L31.5078 149.572L37.9208 138.382L39.5008 139.315L40.3372 152.37H40.4302L42.4749 148.733L45.8208 142.951L47.1219 143.604Z" fill="#18292C"/>
<path d="M36.3405 137.077L28.1617 147.054L21.377 141.366L22.2134 140.34L28.1617 145.283L27.697 145.376L34.6675 136.89L34.7605 137.356L28.8122 132.414L29.6487 131.388L36.3405 137.077ZM31.6934 140.993L30.9499 141.926L25.6522 137.543L26.3958 136.61L31.6934 140.993Z" fill="#18292C"/>
<path d="M26.0235 127.379C26.767 128.218 27.2317 129.057 27.5105 129.803C27.6964 130.549 27.7893 131.295 27.5105 132.041C27.3246 132.694 26.8599 133.347 26.3023 133.906L25.2799 132.787C25.7446 132.414 26.0235 131.948 26.2093 131.388C26.3952 130.922 26.3952 130.363 26.2093 129.896C26.0235 129.337 25.7446 128.777 25.187 128.218C24.7223 127.752 24.2576 127.379 23.7929 127.099C23.3282 126.819 22.8635 126.726 22.4917 126.726C22.027 126.726 21.6552 126.912 21.2835 127.285C21.0046 127.565 20.7258 127.845 20.6329 128.125C20.5399 128.404 20.447 128.684 20.5399 129.057C20.6329 129.43 20.7258 129.803 20.9117 130.176C21.0976 130.642 21.3764 131.109 21.7482 131.668C22.1199 132.321 22.4917 132.88 22.6776 133.44C22.9564 133.999 23.0493 134.466 23.1423 134.932C23.2352 135.398 23.1423 135.771 22.9564 136.237C22.7705 136.704 22.4917 136.983 22.1199 137.356C21.5623 137.823 21.0046 138.102 20.354 138.196C19.7035 138.289 19.0529 138.196 18.4023 137.823C17.7517 137.543 17.1011 136.983 16.4505 136.237C15.7999 135.491 15.3352 134.745 15.1493 134.093C14.9635 133.347 14.8705 132.694 15.0564 132.041C15.2423 131.388 15.614 130.829 16.1717 130.269L17.194 131.388C16.8223 131.761 16.5435 132.228 16.4505 132.694C16.3576 133.16 16.3576 133.626 16.5435 134.093C16.7293 134.559 17.0082 135.025 17.3799 135.491C17.7517 135.958 18.2164 136.331 18.6811 136.517C19.1458 136.704 19.5176 136.797 19.8893 136.797C20.2611 136.797 20.6329 136.61 21.0046 136.237C21.3764 135.864 21.5623 135.585 21.6552 135.212C21.7482 134.839 21.6552 134.372 21.3764 133.906C21.1905 133.347 20.8188 132.787 20.2611 131.948C19.9823 131.482 19.7035 130.922 19.4246 130.456C19.1458 129.99 19.0529 129.43 18.9599 128.964C18.867 128.498 18.9599 128.031 19.1458 127.472C19.3317 126.912 19.7035 126.539 20.1682 125.98C20.7258 125.514 21.2835 125.234 21.934 125.141C22.5846 125.047 23.2352 125.141 23.9788 125.514C24.6293 126.073 25.3729 126.633 26.0235 127.379Z" fill="#18292C"/>
<path d="M19.5169 118.8C20.1675 119.732 20.4463 120.571 20.6322 121.411C20.7252 122.25 20.6322 122.996 20.2605 123.649C19.8887 124.301 19.424 124.861 18.7734 125.327L17.9369 124.022C18.4016 123.649 18.7734 123.276 19.0522 122.809C19.331 122.343 19.331 121.877 19.331 121.317C19.2381 120.758 18.9593 120.199 18.5875 119.453C18.2157 118.893 17.844 118.427 17.4722 118.147C17.1005 117.867 16.6357 117.681 16.171 117.588C15.7063 117.588 15.3346 117.681 14.8699 117.961C14.4981 118.147 14.3122 118.427 14.1263 118.707C13.9405 118.986 13.8475 119.266 13.8475 119.639C13.8475 120.012 13.9405 120.385 14.0334 120.851C14.1263 121.317 14.4052 121.877 14.684 122.436C14.9628 123.089 15.1487 123.742 15.3346 124.301C15.5205 124.861 15.5205 125.42 15.5205 125.793C15.5205 126.26 15.3346 126.633 15.1487 127.006C14.9628 127.379 14.591 127.752 14.1263 128.031C13.5687 128.404 12.9181 128.591 12.2675 128.591C11.6169 128.591 10.9663 128.404 10.4087 127.938C9.85104 127.472 9.20045 126.912 8.73575 126.073C8.1781 125.234 7.89928 124.488 7.80634 123.742C7.7134 122.996 7.80634 122.343 8.08516 121.69C8.36398 121.131 8.82869 120.571 9.38634 120.105L10.2228 121.411C9.7581 121.784 9.47928 122.157 9.2934 122.53C9.10751 122.903 9.10751 123.369 9.20045 123.928C9.2934 124.395 9.47928 124.954 9.85104 125.42C10.2228 125.98 10.5946 126.353 10.9663 126.633C11.3381 126.912 11.7099 127.099 12.1746 127.099C12.6393 127.099 12.9181 127.006 13.3828 126.726C13.7546 126.446 14.0334 126.166 14.1263 125.793C14.2193 125.42 14.2193 124.954 14.1263 124.488C14.0334 124.022 13.7546 123.276 13.3828 122.436C13.104 121.877 12.9181 121.411 12.8252 120.851C12.6393 120.292 12.5463 119.825 12.5463 119.359C12.5463 118.893 12.6393 118.427 12.9181 117.961C13.1969 117.494 13.5687 117.121 14.2193 116.655C14.8699 116.189 15.4275 116.096 16.0781 116.096C16.7287 116.096 17.3793 116.375 18.0299 116.748C18.3087 117.215 18.8663 117.867 19.5169 118.8Z" fill="#18292C"/>
<path d="M5.20453 93.4359L3.99629 93.6224L3.3457 88.5869L4.55394 88.4005L5.20453 93.4359Z" fill="#18292C"/>
</g>
<defs>
<clipPath id="clip0_2952_1301">
<rect width="158" height="163" fill="white"/>
</clipPath>
</defs>
</svg>
