<svg width="65" height="65" viewBox="0 0 65 65" fill="none" xmlns="http://www.w3.org/2000/svg">
<g clip-path="url(#clip0_294_169)">
<path d="M33.5484 26.2095C33.5484 26.7885 33.079 27.2579 32.5 27.2579C31.9211 27.2579 31.4517 26.7885 31.4517 26.2095C31.4517 25.6306 31.9211 25.1611 32.5 25.1611C33.079 25.1611 33.5484 25.6306 33.5484 26.2095Z" fill="#87AB42"/>
<path d="M32.4998 33.5483C28.4542 33.5483 25.1611 36.8414 25.1611 40.8871C25.1611 44.9327 28.4542 48.2258 32.4998 48.2258C36.5455 48.2258 39.8386 44.9327 39.8386 40.8871C39.8386 36.8414 36.5455 33.5483 32.4998 33.5483ZM32.4998 46.129C29.6096 46.129 27.2579 43.7773 27.2579 40.8871C27.2579 37.9968 29.6096 35.6451 32.4998 35.6451C35.3901 35.6451 37.7418 37.9968 37.7418 40.8871C37.7418 43.7773 35.3901 46.129 32.4998 46.129Z" fill="#87AB42"/>
<path d="M32.5001 50.3228C30.7663 50.3228 29.355 51.7341 29.355 53.4679C29.355 55.2017 30.7663 56.6131 32.5001 56.6131C34.234 56.6131 35.6453 55.2017 35.6453 53.4679C35.6453 51.7341 34.234 50.3228 32.5001 50.3228ZM32.5001 54.5163C31.9217 54.5163 31.4518 54.0464 31.4518 53.4679C31.4518 52.8895 31.9217 52.4195 32.5001 52.4195C33.0786 52.4195 33.5485 52.8895 33.5485 53.4679C33.5485 54.0464 33.0786 54.5163 32.5001 54.5163Z" fill="#87AB42"/>
<path d="M42.9838 39.6459C42.9838 32.194 39.2822 25.2766 33.082 21.144L32.4999 20.756L31.9179 21.144C31.3927 21.4941 30.8915 21.8714 30.4031 22.2605V11.5324H28.0622L32.4999 4.13382L36.9377 11.5324H34.5967V19.9195H36.6935V13.6292H40.6428L32.4999 0.0600586L24.357 13.6292H28.3064V24.1591C24.313 28.2636 22.0161 33.7866 22.0161 39.6469V48.7179L12.5806 55.0896V61.2136L23.7509 58.1677L24.312 60.8066H26.6089L28.7057 65.0002H36.2921L38.3889 60.8066H40.6858L41.2464 58.1667L52.4193 61.2136V55.0896L42.9838 48.7179V39.6459ZM32.4999 23.2909C34.7856 24.9316 36.6653 27.0033 38.0638 29.355H26.936C28.3345 27.0033 30.2143 24.9316 32.4999 23.2909ZM34.997 62.9034H30.0028L28.9544 60.8066H36.0454L34.997 62.9034ZM50.3225 56.203V58.4667L39.6595 55.5606L38.9894 58.7098H26.0105L25.3404 55.5606L14.6773 58.4677V56.2041L24.1128 49.8323V39.6469C24.1128 36.7756 24.722 33.9919 25.8513 31.4528H39.1476C40.2778 33.9908 40.887 36.7746 40.887 39.6459V49.8308L50.3225 56.203Z" fill="#87AB42"/>
<path d="M61.0509 14.6774H58.7099V40.8871H60.8067V16.7742H64.756L56.6131 3.20508L48.4702 16.7742H52.4196V38.7903H54.5164V14.6774H52.1754L56.6131 7.27884L61.0509 14.6774Z" fill="#87AB42"/>
<path d="M58.7095 42.9839H60.8062V45.0807H58.7095V42.9839Z" fill="#87AB42"/>
<path d="M10.4838 38.7903H12.5806V16.7742H16.53L8.38706 3.20508L0.244141 16.7742H4.19351V40.8871H6.29028V14.6774H3.94933L8.38706 7.27884L12.8248 14.6774H10.4838V38.7903Z" fill="#87AB42"/>
<path d="M4.19336 42.9839H6.29013V45.0807H4.19336V42.9839Z" fill="#87AB42"/>
<path d="M60.8066 50.3228H62.9034V52.4195H60.8066V50.3228Z" fill="#87AB42"/>
<path d="M62.9033 52.4194H65.0001V54.5162H62.9033V52.4194Z" fill="#87AB42"/>
<path d="M60.8066 54.5161H62.9034V56.6129H60.8066V54.5161Z" fill="#87AB42"/>
<path d="M58.7095 52.4194H60.8062V54.5162H58.7095V52.4194Z" fill="#87AB42"/>
<path d="M2.09668 49.2744H4.19345V51.3712H2.09668V49.2744Z" fill="#87AB42"/>
<path d="M4.19336 51.3711H6.29013V53.4679H4.19336V51.3711Z" fill="#87AB42"/>
<path d="M2.09668 53.4678H4.19345V55.5645H2.09668V53.4678Z" fill="#87AB42"/>
<path d="M0 51.3711H2.09677V53.4679H0V51.3711Z" fill="#87AB42"/>
<path d="M13.6289 40.8872H15.7257V42.984H13.6289V40.8872Z" fill="#87AB42"/>
<path d="M15.7256 42.9839H17.8224V45.0807H15.7256V42.9839Z" fill="#87AB42"/>
<path d="M13.6289 45.0806H15.7257V47.1773H13.6289V45.0806Z" fill="#87AB42"/>
<path d="M11.5322 42.9839H13.629V45.0807H11.5322V42.9839Z" fill="#87AB42"/>
<path d="M17.8228 0H19.9195V2.09677H17.8228V0Z" fill="#87AB42"/>
<path d="M19.9194 2.09668H22.0162V4.19345H19.9194V2.09668Z" fill="#87AB42"/>
<path d="M17.8228 4.19336H19.9195V6.29013H17.8228V4.19336Z" fill="#87AB42"/>
<path d="M15.7256 2.09668H17.8224V4.19345H15.7256V2.09668Z" fill="#87AB42"/>
<path d="M44.0322 5.2417H46.129V7.33847H44.0322V5.2417Z" fill="#87AB42"/>
<path d="M46.1289 7.33887H48.2257V9.43564H46.1289V7.33887Z" fill="#87AB42"/>
<path d="M44.0322 9.43555H46.129V11.5323H44.0322V9.43555Z" fill="#87AB42"/>
<path d="M41.9355 7.33887H44.0323V9.43564H41.9355V7.33887Z" fill="#87AB42"/>
<path d="M50.3228 42.9839H52.4195V45.0807H50.3228V42.9839Z" fill="#87AB42"/>
<path d="M52.4194 45.0806H54.5162V47.1773H52.4194V45.0806Z" fill="#87AB42"/>
<path d="M50.3228 47.1772H52.4195V49.274H50.3228V47.1772Z" fill="#87AB42"/>
<path d="M48.2256 45.0806H50.3224V47.1773H48.2256V45.0806Z" fill="#87AB42"/>
</g>
<defs>
<clipPath id="clip0_294_169">
<rect width="65" height="65" fill="white"/>
</clipPath>
</defs>
</svg>
