<svg width="78" height="78" viewBox="0 0 78 78" fill="none" xmlns="http://www.w3.org/2000/svg">
<path d="M72.0874 44.542C73.4898 42.9934 75.0758 41.2384 75.0758 39.0008C75.0758 36.7632 73.4898 35.0082 72.0874 33.4595C71.2439 32.6699 70.5641 31.7218 70.087 30.6694C69.9544 29.468 70.0649 28.2522 70.412 27.0944C70.8362 25.0908 71.3188 22.8207 70.2382 20.9519C69.1429 19.0588 66.915 18.3389 64.9488 17.7019C63.7969 17.4356 62.7097 16.9422 61.7508 16.2508C61.0545 15.2902 60.5573 14.2001 60.2883 13.0447C59.6513 11.0784 58.9314 8.85053 57.0383 7.75528C55.1712 6.67303 52.8994 7.15566 50.8958 7.58141C49.7379 7.92775 48.5228 8.04097 47.3208 7.91453C46.2726 7.43586 45.3286 6.75624 44.542 5.91416C42.9934 4.51178 41.2384 2.92578 39.0008 2.92578C36.7632 2.92578 35.0082 4.51178 33.4595 5.91416C32.6699 6.7577 31.7218 7.43743 30.6694 7.91453C29.4674 8.04102 28.2523 7.92779 27.0944 7.58141C25.0908 7.15566 22.819 6.67628 20.9519 7.75528C19.0588 8.85053 18.3389 11.0784 17.7019 13.0447C17.4366 14.1994 16.9432 15.2894 16.2508 16.2508C15.2902 16.947 14.2001 17.4443 13.0447 17.7133C11.0784 18.3503 8.85053 19.0702 7.75528 20.9633C6.67466 22.832 7.15728 25.1022 7.58141 27.1058C7.93111 28.263 8.0444 29.4788 7.91453 30.6808C7.43586 31.7289 6.75624 32.673 5.91416 33.4595C4.51178 35.0082 2.92578 36.7632 2.92578 39.0008C2.92578 41.2384 4.51178 42.9934 5.91416 44.542C6.7577 45.3317 7.43743 46.2798 7.91453 47.3322C8.04453 48.5341 7.93124 49.7499 7.58141 50.9072C7.15728 52.9108 6.67466 55.1809 7.75528 57.0497C8.85053 58.9428 11.0784 59.6627 13.0447 60.2997C14.1994 60.565 15.2894 61.0584 16.2508 61.7508C16.947 62.7114 17.4443 63.8014 17.7133 64.9569C18.3503 66.9232 19.0702 69.151 20.9633 70.2463C22.8304 71.3285 25.1022 70.8459 27.1058 70.4202C28.2638 70.074 29.4794 69.9635 30.6808 70.0952C31.7324 70.5727 32.6799 71.2524 33.4693 72.0955C35.0179 73.4979 36.7729 75.0839 39.0105 75.0839C41.2482 75.0839 43.0032 73.4979 44.5518 72.0955C45.3414 71.252 46.2895 70.5723 47.3419 70.0952C48.5433 69.9637 49.7589 70.0742 50.9169 70.4202C52.9205 70.8459 55.1923 71.3253 57.0594 70.2463C58.9525 69.151 59.6724 66.9232 60.3094 64.9569C60.5718 63.803 61.0618 62.713 61.7508 61.7508C62.7114 61.0546 63.8014 60.5573 64.9569 60.2883C66.9232 59.6513 69.151 58.9314 70.2463 57.0383C71.3269 55.1695 70.8443 52.8994 70.4202 50.8958C70.0732 49.738 69.9627 48.5222 70.0952 47.3208C70.5714 46.2733 71.2482 45.3293 72.0874 44.542Z" fill="#0075FF"/>
<path d="M40.625 36.5625H37.375C36.7285 36.5625 36.1085 36.3057 35.6514 35.8486C35.1943 35.3915 34.9375 34.7715 34.9375 34.125C34.9375 33.4785 35.1943 32.8585 35.6514 32.4014C36.1085 31.9443 36.7285 31.6875 37.375 31.6875H45.5C46.1465 31.6875 46.7665 31.4307 47.2236 30.9736C47.6807 30.5165 47.9375 29.8965 47.9375 29.25C47.9375 28.6035 47.6807 27.9835 47.2236 27.5264C46.7665 27.0693 46.1465 26.8125 45.5 26.8125H41.4375V24.375C41.4375 23.7285 41.1807 23.1085 40.7236 22.6514C40.2665 22.1943 39.6465 21.9375 39 21.9375C38.3535 21.9375 37.7335 22.1943 37.2764 22.6514C36.8193 23.1085 36.5625 23.7285 36.5625 24.375V26.8954C34.7075 27.0997 33.0015 28.0074 31.7955 29.4316C30.5895 30.8558 29.9754 32.6881 30.0795 34.5514C30.1836 36.4146 30.998 38.1671 32.3552 39.4481C33.7123 40.7291 35.5088 41.441 37.375 41.4375H40.625C41.2715 41.4375 41.8915 41.6943 42.3486 42.1514C42.8057 42.6085 43.0625 43.2285 43.0625 43.875C43.0625 44.5215 42.8057 45.1415 42.3486 45.5986C41.8915 46.0557 41.2715 46.3125 40.625 46.3125H32.5C31.8535 46.3125 31.2335 46.5693 30.7764 47.0264C30.3193 47.4835 30.0625 48.1035 30.0625 48.75C30.0625 49.3965 30.3193 50.0165 30.7764 50.4736C31.2335 50.9307 31.8535 51.1875 32.5 51.1875H36.5625V53.625C36.5625 54.2715 36.8193 54.8915 37.2764 55.3486C37.7335 55.8057 38.3535 56.0625 39 56.0625C39.6465 56.0625 40.2665 55.8057 40.7236 55.3486C41.1807 54.8915 41.4375 54.2715 41.4375 53.625V51.1046C43.2925 50.9003 44.9985 49.9926 46.2045 48.5684C47.4105 47.1442 48.0246 45.3119 47.9205 43.4486C47.8164 41.5854 47.002 39.8329 45.6448 38.5519C44.2877 37.2709 42.4912 36.559 40.625 36.5625Z" fill="white"/>
</svg>
