<svg width="57" height="57" viewBox="0 0 57 57" fill="none" xmlns="http://www.w3.org/2000/svg">
<path fill-rule="evenodd" clip-rule="evenodd" d="M52.1818 56.9272H15.0137C12.5236 56.9272 10.5096 55.093 10.5096 52.8253V15.3407H0.915471C0.402807 15.3407 0 14.9738 0 14.5403V5.63603C0 2.63459 2.59994 0.200096 5.82239 0.0666986C5.89563 0.0333493 6.00549 0 6.15196 0H52.2551C54.7818 0 56.8324 1.86756 56.8324 4.16866V52.7252C56.8324 55.093 54.7451 56.9272 52.1818 56.9272ZM28.1599 39.1854H21.6783C21.1657 39.1854 20.7629 38.8186 20.7629 38.3517V32.3822C20.7629 31.9153 21.1657 31.5484 21.6783 31.5484H28.1599C28.6725 31.5484 29.0754 31.9153 29.0754 32.3822V34.5499H34.3118V33.0825C34.3118 32.6156 34.7146 32.2488 35.2273 32.2488H39.5483V27.4131C36.7653 27.0463 34.5682 25.012 34.1654 22.4774H28.819V24.6451C28.7824 25.0787 28.3796 25.4455 27.9035 25.4455H21.3854C20.8727 25.4455 20.4699 25.0787 20.4699 24.6118V18.6756C20.4699 18.2087 20.8727 17.8419 21.3854 17.8419H27.9035C28.4162 17.8419 28.819 18.2087 28.819 18.6756V20.81H34.202C34.6048 18.3088 36.8019 16.3412 39.5483 15.9743V11.072H35.2273C34.7146 11.072 34.3118 10.6718 34.3118 10.2382V5.63603C34.3118 5.16914 34.7146 4.8023 35.2273 4.8023H45.5904C46.1031 4.8023 46.5059 5.16914 46.5059 5.63603V10.2716C46.5059 10.6718 46.1031 11.072 45.5904 11.072H41.3793V15.9743C44.4553 16.3745 46.7989 18.7756 46.7989 21.677C46.7989 24.6118 44.4553 27.0129 41.3793 27.4131V32.2488H45.5904C46.1031 32.2488 46.5059 32.6156 46.5059 33.0825V37.6513C46.5059 38.1182 46.1031 38.4851 45.5904 38.4851H35.2273C34.7146 38.4851 34.3118 38.1182 34.3118 37.6513V36.2173H29.0754V38.3517C29.0754 38.8186 28.6725 39.1854 28.1599 39.1854ZM22.5206 37.5513H27.3176V35.6504C27.281 35.5837 27.2444 35.4836 27.2444 35.3836C27.2444 35.2835 27.281 35.1835 27.3176 35.1168V33.2159H22.5206V37.5513ZM22.2276 23.8114H27.0247V21.6437V19.476H22.2276V23.8114ZM36.1428 36.851H44.7482V33.9162H40.4638H36.1428V35.3836V36.851ZM36.1428 9.43785H44.7482V6.46976H36.1428V9.43785ZM40.4638 17.475C37.9371 17.475 35.8865 19.3759 35.8865 21.6437C35.8865 23.9114 37.9737 25.8123 40.4638 25.8123C42.9539 25.8123 45.0412 23.9114 45.0412 21.6437C45.0412 19.3759 42.9539 17.475 40.4638 17.475ZM50.8636 52.1249H42.075C41.599 52.1249 41.1596 51.7581 41.1596 51.2912C41.1596 50.8243 41.599 50.4575 42.075 50.4575H50.8636C51.3762 50.4575 51.779 50.8243 51.779 51.2912C51.779 51.7581 51.3396 52.1249 50.8636 52.1249ZM38.1202 52.1249H16.4419C15.9292 52.1249 15.5264 51.7581 15.5264 51.2912C15.5264 50.8243 15.9292 50.4575 16.4419 50.4575H38.1934C38.7061 50.4575 39.1089 50.8243 39.1089 51.2912C39.1089 51.7581 38.6329 52.1249 38.1202 52.1249ZM50.8636 47.9563H35.6301C35.1175 47.9563 34.7146 47.5894 34.7146 47.1225C34.7146 46.6557 35.1175 46.2888 35.6301 46.2888H50.8636C51.3762 46.2888 51.779 46.6557 51.779 47.1225C51.779 47.5894 51.3396 47.9563 50.8636 47.9563ZM31.6753 47.9563H16.4419C15.9292 47.9563 15.5264 47.5894 15.5264 47.1225C15.5264 46.6557 15.9292 46.2888 16.4419 46.2888H31.6753C32.188 46.2888 32.5908 46.6557 32.5908 47.1225C32.5908 47.5894 32.1513 47.9563 31.6753 47.9563ZM10.5096 13.7399V10.405V5.63603C10.5096 3.43498 8.53219 1.66746 6.15196 1.66746C3.73512 1.66746 1.7577 3.46833 1.7577 5.63603V13.7399H10.5096ZM12.3405 10.405V52.8253C12.3405 54.1926 13.549 55.3265 15.087 55.3265H52.2551C53.7564 55.3265 55.0381 54.1926 55.0381 52.8253V4.20201C55.0381 2.83469 53.7564 1.66746 52.2551 1.66746H10.3997C11.5349 2.66794 12.2307 4.10196 12.2307 5.63603C12.2307 7.2368 12.3405 8.87091 12.3405 10.405Z" fill="white"/>
</svg>
