<svg width="65" height="65" viewBox="0 0 65 65" fill="none" xmlns="http://www.w3.org/2000/svg">
<g clip-path="url(#clip0_68_82)">
<path d="M38.8876 47.3269C38.7175 47.2973 38.5436 47.2752 38.3771 47.2603C39.1706 46.3326 39.7887 45.2683 40.2011 44.1193C41.728 43.2736 43.1063 42.1838 44.2813 40.8931C44.6715 41.778 45.1915 42.5998 45.8241 43.3313C43.412 43.5607 41.1141 44.8888 39.4938 46.661L38.8876 47.3269ZM4.76895 34.8516C4.84083 32.6349 5.77048 30.5328 7.36196 28.9882C8.95344 27.4436 11.0824 26.5773 13.3002 26.5717C14.5169 26.5705 15.7195 26.8317 16.8261 27.3375C17.4913 23.6651 19.4249 20.3428 22.2894 17.9505C25.154 15.5582 28.7677 14.2477 32.4998 14.2477C36.232 14.2477 39.8456 15.5582 42.7102 17.9505C45.5748 20.3428 47.5084 23.6651 48.1736 27.3375C49.2802 26.8317 50.4828 26.5705 51.6995 26.5717C53.9172 26.5773 56.0462 27.4436 57.6377 28.9882C59.2292 30.5328 60.1588 32.6349 60.2307 34.8516L62.3913 34.3077C62.7663 31.5666 62.7663 28.7873 62.3913 26.0462L59.1393 25.225L56.4792 24.5553C55.8711 21.9525 54.8413 19.4668 53.4306 17.1966L54.8398 14.8398L56.5577 11.9615C54.8839 9.75858 52.9185 7.79327 50.7156 6.11952L47.8372 7.83631L45.4767 9.24549C43.2078 7.83489 40.7233 6.80511 38.1218 6.19696L37.4521 3.53323L36.6307 0.284883C33.8901 -0.094961 31.1101 -0.094961 28.3694 0.284883L27.548 3.53323L26.8783 6.19696C24.2766 6.80441 21.792 7.83424 19.5234 9.24549L17.163 7.83631L14.2846 6.11952C12.0808 7.79232 10.1153 9.75775 8.44246 11.9615L10.1591 14.8398L11.5683 17.2002C10.1576 19.4691 9.12778 21.9537 8.51978 24.5553L5.85592 25.225L2.60757 26.0462C2.22772 28.7869 2.22772 31.567 2.60757 34.3077L4.76895 34.8516ZM25.5059 46.661L26.1126 47.3269C26.2827 47.2973 26.4529 47.2751 26.6232 47.2603C25.8283 46.3336 25.21 45.269 24.7991 44.1193C23.2715 43.2746 21.8931 42.1847 20.7188 40.8931C20.3286 41.778 19.8086 42.5997 19.176 43.3313C21.5878 43.5607 23.8853 44.8888 25.5059 46.661ZM39.2094 39.0359C39.2094 37.2565 38.5025 35.5499 37.2443 34.2916C35.986 33.0333 34.2794 32.3265 32.5 32.3265C30.7205 32.3265 29.0139 33.0333 27.7556 34.2916C26.4974 35.5499 25.7905 37.2565 25.7905 39.0359C25.7907 51.2522 39.2094 51.2522 39.2094 39.0359ZM28.7985 49.0362C28.789 49.0419 28.7792 49.0468 28.7689 49.051C29.3054 50.9192 30.8963 51.8628 32.4982 51.8923C34.1039 51.8628 35.6947 50.9192 36.2306 49.051C36.2204 49.0468 36.2105 49.0418 36.201 49.0362C35.0719 49.6745 33.7968 50.0099 32.4998 50.0099C31.2027 50.0099 29.9276 49.6745 28.7985 49.0362ZM47.9999 45.1068C47.9905 45.1125 47.9806 45.1174 47.9703 45.1215C48.5068 46.99 50.094 47.9371 51.6997 47.963C53.3053 47.9376 54.8963 46.99 55.429 45.1215C55.4187 45.1174 55.4088 45.1125 55.3994 45.1068C54.2708 45.7453 52.9963 46.0808 51.6996 46.0808C50.403 46.0808 49.1285 45.7453 47.9999 45.1068ZM58.4073 35.1066C58.4073 33.3276 57.7006 31.6215 56.4427 30.3636C55.1848 29.1057 53.4787 28.399 51.6997 28.399C49.9207 28.399 48.2147 29.1057 46.9567 30.3636C45.6988 31.6215 44.9921 33.3276 44.9921 35.1066C44.9923 47.3232 58.4073 47.3232 58.4073 35.1069V35.1066ZM38.1255 49.0732L37.9848 49.5541C37.2745 52.0404 35.1066 53.6757 32.5316 53.72H32.4681C31.2291 53.714 30.0258 53.304 29.041 52.5522C28.0561 51.8004 27.3435 50.7477 27.0111 49.5541L26.8742 49.0732C23.2781 49.3691 19.7707 52.8802 19.7707 56.0139V65.0004H22.9229V56.2099C22.9229 55.9675 23.0192 55.735 23.1906 55.5636C23.362 55.3921 23.5945 55.2958 23.8369 55.2958C24.0793 55.2958 24.3118 55.3921 24.4833 55.5636C24.6547 55.735 24.751 55.9675 24.751 56.2099V65.0004H39.9903V56.2099C39.9903 55.9675 40.0866 55.735 40.258 55.5636C40.4295 55.3921 40.662 55.2958 40.9044 55.2958C41.1468 55.2958 41.3793 55.3921 41.5507 55.5636C41.7221 55.735 41.8184 55.9675 41.8184 56.2099V65.0004H45.2295V56.0139C45.2289 52.8802 41.7216 49.3691 38.1255 49.0732ZM57.3269 45.1441L57.1864 45.6287C56.4723 48.1156 54.308 49.7465 51.7335 49.7914H51.6668C49.0918 49.747 46.9275 48.1156 46.2136 45.6292L46.0729 45.1447C44.1231 45.3037 42.1993 46.4142 40.8452 47.8934C44.1824 49.2549 47.057 52.5256 47.057 56.0144V61.0718H59.1921V52.2808C59.1921 52.0384 59.2884 51.8059 59.4598 51.6345C59.6312 51.4631 59.8637 51.3668 60.1062 51.3668C60.3486 51.3668 60.5811 51.4631 60.7525 51.6345C60.9239 51.8059 61.0202 52.0384 61.0202 52.2808V61.0713H64.4313V52.0847C64.4303 48.9511 60.923 45.4401 57.3269 45.1441ZM9.60078 45.1068C9.59131 45.1125 9.58142 45.1174 9.5712 45.1215C10.1044 46.99 11.6949 47.9371 13.3004 47.963C14.9062 47.9376 16.4933 46.99 17.0298 45.1215C17.0196 45.1174 17.0097 45.1125 17.0002 45.1068C15.8717 45.7453 14.5971 46.0808 13.3005 46.0808C12.0039 46.0808 10.7293 45.7453 9.60078 45.1068ZM24.1555 47.8929C22.8014 46.413 20.8775 45.3031 18.9241 45.1441L18.7871 45.6287C18.0731 48.1156 15.9088 49.7465 13.3338 49.7914H13.2667C10.6917 49.747 8.52739 48.1156 7.81328 45.6292L7.67274 45.1447C4.07667 45.4406 0.569336 48.9516 0.569336 52.0852V61.0718H3.72196V52.2808C3.72196 52.0384 3.81827 51.8059 3.98969 51.6345C4.16111 51.4631 4.3936 51.3668 4.63603 51.3668C4.87845 51.3668 5.11095 51.4631 5.28237 51.6345C5.45379 51.8059 5.55009 52.0384 5.55009 52.2808V61.0713H17.9436V56.0139C17.9436 52.5251 20.8182 49.2544 24.1555 47.8929ZM20.0079 35.1069C20.0079 34.226 19.8344 33.3538 19.4973 32.54C19.1602 31.7262 18.6661 30.9867 18.0433 30.3639C17.4204 29.741 16.681 29.247 15.8672 28.9099C15.0534 28.5728 14.1812 28.3993 13.3003 28.3993C12.4195 28.3993 11.5472 28.5728 10.7334 28.9099C9.91965 29.247 9.18021 29.741 8.55736 30.3639C7.9345 30.9867 7.44042 31.7262 7.10334 32.54C6.76625 33.3538 6.59275 34.226 6.59275 35.1069C6.59288 47.3232 20.0079 47.3232 20.0079 35.1069Z" fill="#1A747B"/>
</g>
<defs>
<clipPath id="clip0_68_82">
<rect width="65" height="65" fill="white"/>
</clipPath>
</defs>
</svg>
