<svg width="88" height="88" viewBox="0 0 88 88" fill="none" xmlns="http://www.w3.org/2000/svg">
<g clip-path="url(#clip0_719_84)">
<path d="M80.1556 85.5893H79.3332C78.6179 78.5642 72.928 73.0481 65.9228 72.8657C66.4181 74.1429 66.6923 75.547 66.6923 77.0506V85.5893H64.9233V77.0506C64.9233 71.4617 60.6245 67.5575 54.4771 67.5575H49.4176C49.3468 66.8962 49.3026 66.2531 49.3026 65.6371C50.7356 64.1787 51.8058 62.1678 52.363 59.7944H53.0353C53.8845 59.7944 54.5832 59.0878 54.5832 58.2092V55.6729C54.5832 54.7942 53.8845 54.0877 53.0353 54.0877H52.823C56.255 46.859 52.2393 42.5111 52.08 42.348C46.4191 36.0343 40.6343 39.4675 38.9979 40.6723C38.7503 40.8534 38.5026 40.9711 38.2549 41.0346C35.6632 41.6505 33.9385 42.9549 33.1247 44.9116C31.7272 48.2722 33.5227 52.4934 34.3188 54.0877H34.195C33.337 54.0877 32.647 54.7942 32.647 55.6729V58.2092C32.647 59.0878 33.337 59.7944 34.195 59.7944H34.8584C35.451 62.2764 36.5832 64.3598 38.0957 65.8273C38.1045 66.3889 38.0869 66.9687 38.0426 67.5575H32.4878C26.3404 67.5575 22.0416 71.4617 22.0416 77.0506V85.5893H20.2726V77.0506C20.2726 75.547 20.5468 74.1429 21.0421 72.8657C14.0369 73.0481 8.34701 78.5642 7.63174 85.5893H6.177C5.6881 85.5893 5.29248 85.9944 5.29248 86.4951C5.29248 86.9958 5.6881 87.401 6.177 87.401C55.6163 87.4038 75.3714 87.401 80.1556 87.401C80.6445 87.401 81.0401 86.9958 81.0401 86.4951C81.0401 85.9944 80.6445 85.5893 80.1556 85.5893ZM49.5591 69.3692H52.3808L51.0363 71.978C50.8594 72.3222 50.9125 72.7388 51.1601 73.0197L52.3188 74.3059L47.1886 82.2501L48.9179 72.8537C48.9191 72.8461 48.9209 72.8392 48.9219 72.8317L49.5591 69.3692ZM39.4844 69.034H39.6879C39.7674 68.3908 39.8294 67.7567 39.8559 67.1499C40.9881 67.793 42.253 68.1462 43.6063 68.1462C45.0481 68.1462 46.3925 67.7477 47.5867 67.0139C47.6309 67.6662 47.7105 68.3456 47.8078 69.034H47.8254L47.2856 71.9634C44.8769 72.5322 42.4443 72.5611 40.0401 72.0493L39.4844 69.034ZM37.6888 62.3398C36.7247 60.5826 36.1674 58.3361 36.1674 55.836C36.1674 55.4464 36.1763 55.075 36.1763 54.7037C36.2559 54.5586 36.309 54.4047 36.3001 54.2417C36.3001 54.1783 36.2648 48.3356 38.8829 46.9769C39.7321 47.8374 41.793 49.4135 45.5699 49.5313C45.6141 49.5404 45.6584 49.5313 45.6938 49.5313C45.7291 49.5313 48.9754 49.1871 49.7449 51.2252L50.992 54.3051C51.0363 54.8214 51.054 55.3287 51.054 55.836C51.054 58.0825 50.6029 60.1206 49.8156 61.7873C49.8156 61.7964 49.8156 61.7964 49.8068 61.8053C49.223 63.0374 48.4623 64.0699 47.5512 64.84C46.4191 65.7911 45.0746 66.3345 43.6063 66.3345C42.2176 66.3345 40.935 65.8545 39.8471 64.9848C39.0068 64.3145 38.2726 63.4177 37.6888 62.3398ZM37.7419 69.3692L40.1213 82.2501L34.9911 74.3059L36.1409 73.0197C36.3974 72.7388 36.4505 72.3222 36.2736 71.978L34.9291 69.3692H37.7419ZM40.3927 73.9627C41.416 74.1391 42.4425 74.2327 43.4695 74.2327C44.624 74.2327 45.7788 74.1171 46.9297 73.8944L44.7745 85.5893H42.5354L40.3927 73.9627Z" fill="#1A747B"/>
<path d="M2.48254 85.5889H1.05469C0.565783 85.5889 0.170166 85.994 0.170166 86.4947C0.170166 86.9954 0.565783 87.4005 1.05469 87.4005H2.48254C2.97144 87.4005 3.36706 86.9954 3.36706 86.4947C3.36706 85.994 2.97144 85.5889 2.48254 85.5889Z" fill="#1A747B"/>
<path d="M85.9102 85.5889H83.6289C83.14 85.5889 82.7444 85.994 82.7444 86.4947C82.7444 86.9954 83.14 87.4005 83.6289 87.4005H85.9102C86.3991 87.4005 86.7947 86.9954 86.7947 86.4947C86.7947 85.994 86.3991 85.5889 85.9102 85.5889Z" fill="#1A747B"/>
<path d="M21.4064 68.9018C25.2846 68.9018 28.4284 65.6822 28.4284 61.7107C28.4284 57.7391 25.2846 54.5195 21.4064 54.5195C17.5283 54.5195 14.3845 57.7391 14.3845 61.7107C14.3845 65.6822 17.5283 68.9018 21.4064 68.9018Z" fill="#1A747B"/>
<path d="M65.5579 54.5195C61.6798 54.5195 58.5359 57.7391 58.5359 61.7107C58.5359 65.6822 61.6798 68.9018 65.5579 68.9018C69.436 68.9018 72.5798 65.6822 72.5798 61.7107C72.5798 57.7391 69.436 54.5195 65.5579 54.5195Z" fill="#1A747B"/>
<path d="M19.4144 45.0836L26.9506 52.8285L31.2442 50.8302C30.754 48.7868 30.5884 46.3857 31.4972 44.2021C32.2013 42.5082 33.8382 40.3105 37.6085 39.3354C33.6891 37.3057 30.9929 33.1512 30.9929 28.3437C30.9929 21.55 36.3796 16.0335 43.0135 16.0335C49.6474 16.0335 55.0342 21.55 55.0342 28.3437C55.0342 32.4556 53.0586 36.0878 50.0366 38.3256C51.2057 39.0194 52.3252 39.943 53.3831 41.1228C54.7706 42.5421 56.6634 46.2065 55.6832 51.1036L59.3772 52.8285L66.931 45.0836L63.3664 37.0399L71.4332 33.9419V23.0174L66.9399 21.2963H66.7188L61.1374 25.6897C60.7217 26.0158 60.2263 26.1878 59.7045 26.1878C59.103 26.1878 58.5281 25.9524 58.0947 25.5266C57.617 25.0737 57.3605 24.4486 57.3605 23.7874V21.2963H56.9271C54.3089 21.2963 52.1861 19.1224 52.1861 16.4411V7.50043L51.5403 7.79942L48.5153 -0.461914H37.8302L34.814 7.79942L26.9506 4.13981L19.4144 11.8848L22.9614 19.9285L14.8945 23.0174V33.9419L22.9614 37.0399L19.4144 45.0836Z" fill="#1A747B"/>
<path d="M85.4355 16.4504V2.72691C85.4355 1.05103 84.1088 -0.307617 82.4723 -0.307617H56.9185C55.2819 -0.307617 53.9553 1.05103 53.9553 2.72691V16.4413C53.9553 18.1222 55.2859 19.4849 56.9273 19.4849H59.1298V23.7854C59.1298 24.275 59.6783 24.5517 60.0574 24.2534L66.1175 19.4849H82.4723C84.1087 19.4849 85.4355 18.1352 85.4355 16.4504ZM60.7245 11.6676C59.3952 11.6676 58.3175 10.564 58.3175 9.20256C58.3175 7.84116 59.3952 6.7375 60.7245 6.7375C62.0539 6.7375 63.1315 7.84116 63.1315 9.20256C63.1315 10.564 62.0539 11.6676 60.7245 11.6676ZM69.6963 11.6676C68.3669 11.6676 67.2892 10.564 67.2892 9.20256C67.2892 7.84116 68.3669 6.7375 69.6963 6.7375C71.0256 6.7375 72.1033 7.84116 72.1033 9.20256C72.1033 10.564 71.0256 11.6676 69.6963 11.6676ZM78.668 11.6676C77.3387 11.6676 76.261 10.564 76.261 9.20256C76.261 7.84116 77.3387 6.7375 78.668 6.7375C79.9974 6.7375 81.075 7.84116 81.075 9.20256C81.075 10.564 79.9974 11.6676 78.668 11.6676Z" fill="#1A747B"/>
</g>
<defs>
<clipPath id="clip0_719_84">
<rect width="88" height="88" fill="white"/>
</clipPath>
</defs>
</svg>
