<svg width="88" height="88" viewBox="0 0 88 88" fill="none" xmlns="http://www.w3.org/2000/svg">
<g clip-path="url(#clip0_719_95)">
<path d="M1.50245 81.7755H10.9464C11.3638 81.7755 11.7641 81.6097 12.0593 81.3145C12.3545 81.0194 12.5203 80.619 12.5203 80.2016V58.1658C12.5203 57.7483 12.3545 57.348 12.0593 57.0528C11.7641 56.7576 11.3638 56.5918 10.9464 56.5918H1.50245C1.085 56.5918 0.684655 56.7576 0.389476 57.0528C0.0942967 57.348 -0.0715332 57.7483 -0.0715332 58.1658V80.2016C-0.0715332 80.619 0.0942967 81.0194 0.389476 81.3145C0.684655 81.6097 1.085 81.7755 1.50245 81.7755ZM4.65042 59.7398H7.79839C8.21583 59.7398 8.61618 59.9056 8.91136 60.2008C9.20654 60.496 9.37237 60.8963 9.37237 61.3137C9.37237 61.7312 9.20654 62.1315 8.91136 62.4267C8.61618 62.7219 8.21583 62.8877 7.79839 62.8877H4.65042C4.23297 62.8877 3.83262 62.7219 3.53744 62.4267C3.24226 62.1315 3.07643 61.7312 3.07643 61.3137C3.07643 60.8963 3.24226 60.496 3.53744 60.2008C3.83262 59.9056 4.23297 59.7398 4.65042 59.7398ZM4.65042 75.4796H7.79839C8.21583 75.4796 8.61618 75.6454 8.91136 75.9406C9.20654 76.2358 9.37237 76.6361 9.37237 77.0536C9.37237 77.471 9.20654 77.8714 8.91136 78.1666C8.61618 78.4617 8.21583 78.6276 7.79839 78.6276H4.65042C4.23297 78.6276 3.83262 78.4617 3.53744 78.1666C3.24226 77.8714 3.07643 77.471 3.07643 77.0536C3.07643 76.6361 3.24226 76.2358 3.53744 75.9406C3.83262 75.6454 4.23297 75.4796 4.65042 75.4796Z" fill="#1A747B"/>
<path d="M77.384 15.275C77.5099 15.1181 77.5824 14.925 77.5909 14.724C77.5994 14.523 77.5435 14.3245 77.4313 14.1575C76.4854 12.8738 75.4436 11.6636 74.3148 10.5374C73.1828 9.40387 71.9674 8.35686 70.6789 7.40512C70.5118 7.29877 70.3155 7.24762 70.1178 7.25892C69.9201 7.27022 69.7309 7.34339 69.5771 7.46808L63.1238 12.4419C62.8824 12.6295 62.5917 12.7429 62.287 12.768C61.9823 12.7932 61.6769 12.7291 61.4081 12.5835C59.8036 11.7228 58.1161 11.0267 56.3714 10.5059C56.0814 10.4174 55.8232 10.247 55.6277 10.0152C55.4323 9.78347 55.3079 9.5002 55.2696 9.19946L54.215 1.10919C54.1961 0.911343 54.114 0.724858 53.9807 0.577415C53.8474 0.429972 53.6702 0.329431 53.4752 0.290716C50.3086 -0.189353 47.0877 -0.189353 43.9211 0.290716C43.7262 0.329431 43.549 0.429972 43.4157 0.577415C43.2824 0.724858 43.2002 0.911343 43.1814 1.10919L42.1268 9.19946C42.0885 9.5002 41.9641 9.78347 41.7687 10.0152C41.5732 10.247 41.315 10.4174 41.025 10.5059C39.2803 11.0267 37.5928 11.7228 35.9883 12.5835C35.7194 12.7291 35.414 12.7932 35.1094 12.768C34.8047 12.7429 34.5139 12.6295 34.2726 12.4419L27.8035 7.46808C27.648 7.34578 27.458 7.27542 27.2603 7.26695C27.0626 7.25847 26.8672 7.31231 26.7018 7.42086C25.415 8.3629 24.2045 9.40496 23.0816 10.5374C21.9557 11.6763 20.9092 12.8912 19.9494 14.1733C19.8404 14.3394 19.7877 14.5362 19.7991 14.7345C19.8104 14.9329 19.8852 15.1224 20.0123 15.275L24.9861 21.7284C25.1738 21.9697 25.2871 22.2604 25.3123 22.5651C25.3374 22.8698 25.2733 23.1752 25.1278 23.444C24.2671 25.0485 23.571 26.7361 23.0501 28.4808C22.9616 28.7707 22.7912 29.029 22.5595 29.2244C22.3277 29.4199 22.0444 29.5442 21.7437 29.5826L13.6377 30.6371C13.4404 30.6643 13.2562 30.7513 13.1098 30.8864C12.9635 31.0215 12.8621 31.1981 12.8192 31.3926C12.586 32.9716 12.4702 34.5657 12.4729 36.1618C12.4713 37.7631 12.5871 39.3623 12.8192 40.9467C12.8686 41.1349 12.9728 41.3042 13.1185 41.4331C13.2642 41.562 13.4449 41.6447 13.6377 41.6708L21.7437 42.7253C22.0444 42.7636 22.3277 42.888 22.5595 43.0835C22.7912 43.2789 22.9616 43.5371 23.0501 43.8271C23.571 45.5718 24.2671 47.2593 25.1278 48.8639C25.2733 49.1327 25.3374 49.4381 25.3123 49.7428C25.2871 50.0474 25.1738 50.3382 24.9861 50.5795L22.09 54.3413C24.5806 53.454 27.2539 53.205 29.8655 53.6173L62.1951 58.8272C62.2357 58.8401 62.2784 58.8455 62.321 58.8429L65.0125 59.2994C65.9329 59.4501 66.7925 59.856 67.4936 60.4709C68.1948 61.0858 68.7094 61.8851 68.979 62.7779L77.5414 57.93C77.5902 57.7815 77.6013 57.6233 77.5738 57.4694C77.5464 57.3156 77.4812 57.171 77.384 57.0486L72.4103 50.5795C72.2226 50.3382 72.1093 50.0474 72.0841 49.7428C72.0589 49.4381 72.123 49.1327 72.2686 48.8639C73.1293 47.2593 73.8254 45.5718 74.3463 43.8271C74.4348 43.5371 74.6051 43.2789 74.8369 43.0835C75.0687 42.888 75.3519 42.7636 75.6527 42.7253L83.7429 41.6708C83.9385 41.6526 84.1233 41.5726 84.2704 41.4424C84.4176 41.3123 84.5195 41.1386 84.5614 40.9467C84.8005 39.3629 84.9215 37.7635 84.9234 36.1618C84.9221 34.5653 84.8011 32.9711 84.5614 31.3926C84.5262 31.1946 84.4272 31.0135 84.2794 30.8771C84.1316 30.7407 83.9432 30.6564 83.7429 30.6371L75.6527 29.5826C75.3519 29.5442 75.0687 29.4199 74.8369 29.2244C74.6051 29.029 74.4348 28.7707 74.3463 28.4808C73.8254 26.7361 73.1293 25.0485 72.2686 23.444C72.123 23.1752 72.0589 22.8698 72.0841 22.5651C72.1093 22.2604 72.2226 21.9697 72.4103 21.7284L77.384 15.275ZM70.065 46.0936C69.6228 46.9017 68.9718 47.5762 68.18 48.0468C67.3882 48.5175 66.4846 48.767 65.5634 48.7694H31.8802C30.959 48.767 30.0554 48.5175 29.2636 48.0468C28.4718 47.5762 27.8208 46.9017 27.3786 46.0936C26.9066 45.239 26.6697 44.2746 26.6918 43.2986C26.7139 42.3226 26.9943 41.3698 27.5045 40.5375L44.3461 13.4492C44.8071 12.7033 45.451 12.0876 46.2169 11.6606C46.9827 11.2336 47.845 11.0095 48.7218 11.0095C49.5986 11.0095 50.4609 11.2336 51.2267 11.6606C51.9926 12.0876 52.6365 12.7033 53.0975 13.4492L69.9391 40.5217C70.4493 41.357 70.7296 42.3123 70.7517 43.2908C70.7738 44.2692 70.5369 45.2362 70.065 46.0936Z" fill="#1A747B"/>
<path d="M50.4216 15.1175C50.245 14.8245 49.9957 14.5821 49.6979 14.4139C49.4001 14.2456 49.0638 14.1572 48.7217 14.1572C48.3797 14.1572 48.0434 14.2456 47.7455 14.4139C47.4477 14.5821 47.1984 14.8245 47.0218 15.1175L30.1802 42.19C29.9568 42.5414 29.8342 42.9475 29.8259 43.3638C29.8176 43.7802 29.9238 44.1909 30.133 44.5509C30.2983 44.8722 30.5487 45.1418 30.8568 45.3306C31.1649 45.5193 31.5188 45.6198 31.8801 45.6213H65.5634C65.9246 45.6198 66.2786 45.5193 66.5867 45.3306C66.8947 45.1418 67.1451 44.8722 67.3105 44.5509C67.5197 44.1909 67.6259 43.7802 67.6176 43.3638C67.6092 42.9475 67.4867 42.5414 67.2633 42.19L50.4216 15.1175ZM50.2957 40.8993C50.2957 41.3168 50.1299 41.7171 49.8347 42.0123C49.5395 42.3075 49.1392 42.4733 48.7217 42.4733C48.3043 42.4733 47.9039 42.3075 47.6087 42.0123C47.3136 41.7171 47.1477 41.3168 47.1477 40.8993V39.3253C47.1477 38.9079 47.3136 38.5075 47.6087 38.2123C47.9039 37.9172 48.3043 37.7513 48.7217 37.7513C49.1392 37.7513 49.5395 37.9172 49.8347 38.2123C50.1299 38.5075 50.2957 38.9079 50.2957 39.3253V40.8993ZM50.2957 33.0294C50.2957 33.4468 50.1299 33.8472 49.8347 34.1424C49.5395 34.4375 49.1392 34.6034 48.7217 34.6034C48.3043 34.6034 47.9039 34.4375 47.6087 34.1424C47.3136 33.8472 47.1477 33.4468 47.1477 33.0294V20.4375C47.1477 20.0201 47.3136 19.6197 47.6087 19.3245C47.9039 19.0294 48.3043 18.8635 48.7217 18.8635C49.1392 18.8635 49.5395 19.0294 49.8347 19.3245C50.1299 19.6197 50.2957 20.0201 50.2957 20.4375V33.0294Z" fill="#1A747B"/>
<path d="M85.3597 57.1321L68.5543 66.6295C68.3314 67.0342 68.0521 67.4051 67.7248 67.7313C66.7895 68.6582 65.527 69.1801 64.2101 69.1841H64.0401L53.9509 74.8834C53.2438 75.2783 52.4471 75.4847 51.6373 75.4828C50.8274 75.4809 50.0317 75.2707 49.3265 74.8724L40.1659 69.1841H34.3202C33.9027 69.1841 33.5024 69.0182 33.2072 68.723C32.912 68.4279 32.7462 68.0275 32.7462 67.6101C32.7462 67.1926 32.912 66.7923 33.2072 66.4971C33.5024 66.2019 33.9027 66.0361 34.3202 66.0361H64.2101C64.7018 66.0329 65.1727 65.8368 65.5212 65.4899C65.6826 65.3261 65.8099 65.1319 65.8959 64.9186V64.9012C65.986 64.6819 66.0336 64.4474 66.0359 64.2103C66.031 63.7768 65.8735 63.3588 65.5912 63.0298C65.3088 62.7009 64.9196 62.4818 64.4919 62.4112L61.8728 61.9673L61.772 61.9548L29.3621 56.7291C27.273 56.3925 25.1327 56.5896 23.1402 57.3021L15.6685 60.5382V77.353H15.711C16.3301 77.3524 16.9457 77.4458 17.5368 77.6301L49.5799 87.8798C50.2989 88.0902 51.0576 88.1275 51.7937 87.9885C52.5299 87.8495 53.2227 87.5383 53.8155 87.0803L87.3697 60.1793C87.5879 60.0064 87.7643 59.7866 87.8858 59.5362C88.0073 59.2858 88.0709 59.0112 88.0717 58.7328C88.0703 58.4182 87.9908 58.1088 87.8403 57.8325C87.6031 57.4119 87.2091 57.1023 86.7444 56.971C86.2797 56.8398 85.7819 56.8977 85.3597 57.1321Z" fill="#1A747B"/>
</g>
<defs>
<clipPath id="clip0_719_95">
<rect width="88" height="88" fill="white"/>
</clipPath>
</defs>
</svg>
