<svg width="88" height="88" viewBox="0 0 88 88" fill="none" xmlns="http://www.w3.org/2000/svg">
<g clip-path="url(#clip0_719_101)">
<path d="M52.4593 69.739V86.4531C52.4593 87.2125 51.8437 87.8281 51.0843 87.8281H36.9155C36.1561 87.8281 35.5405 87.2125 35.5405 86.4531V80.455C31.5186 79.5271 27.7154 77.9506 24.2064 75.757L19.9628 80.0008C19.7048 80.2588 19.3552 80.4036 18.9905 80.4036C18.6257 80.4036 18.2762 80.2588 18.0182 80.0008L7.99941 69.9817C7.46247 69.4447 7.46247 68.5743 7.99941 68.0372L12.2428 63.7938C10.0499 60.2864 8.47361 56.4829 7.54497 52.4595H1.54688C0.787531 52.4595 0.171875 51.8439 0.171875 51.0845V36.9158C0.171875 36.1565 0.787531 35.5408 1.54688 35.5408H7.54497C8.47309 31.519 10.0497 27.7157 12.2432 24.2069L7.99906 19.9628C7.74125 19.705 7.59636 19.3552 7.59636 18.9905C7.59636 18.6257 7.74125 18.276 7.99906 18.0182L18.0182 7.99923C18.5555 7.4623 19.4258 7.4623 19.9628 7.99923L24.2065 12.2432C27.7138 10.0504 31.5171 8.47413 35.5405 7.54548V1.54688C35.5405 0.787531 36.1561 0.171875 36.9155 0.171875H51.0843C51.8437 0.171875 52.4593 0.787531 52.4593 1.54688V18.261C52.4593 18.69 52.2591 19.0945 51.9181 19.3545C51.5769 19.6145 51.1333 19.7007 50.7203 19.587C48.5378 18.9877 46.2767 18.6838 43.9998 18.6838C30.0403 18.6838 18.6835 30.0407 18.6835 44C18.6835 57.9595 30.0403 69.3163 43.9998 69.3163C46.2765 69.3163 48.5375 69.0125 50.7203 68.4131C51.1344 68.2999 51.5769 68.3855 51.9181 68.6458C52.2591 68.9057 52.4593 69.31 52.4593 69.739ZM87.8281 60.8623C87.8281 63.7911 85.4454 66.1738 82.5167 66.1738C80.0635 66.1738 77.9941 64.5014 77.3867 62.2373H70.4612C69.7018 62.2373 69.0862 61.6217 69.0862 60.8623V52.1027H64.5495C63.4444 54.8955 61.7849 57.4102 59.7085 59.5124H62.9539C63.7132 59.5124 64.3289 60.1281 64.3289 60.8874V72.7717H69.8794C70.4868 70.5074 72.5562 68.8353 75.0093 68.8353C77.9383 68.8353 80.321 71.218 80.321 74.1467C80.321 77.0755 77.9383 79.4582 75.0093 79.4582C72.5562 79.4582 70.4868 77.7858 69.8794 75.5217H62.9539C62.1945 75.5217 61.5789 74.906 61.5789 74.1467V62.2624H56.4113C52.8717 64.6755 48.598 66.0883 44.0003 66.0883H44.0002C31.8206 66.0882 21.9117 56.1792 21.9117 43.9997C21.9117 31.8199 31.8204 21.9111 44.0002 21.9108H44.0003C48.5985 21.9108 52.8729 23.324 56.4126 25.7376H61.5789V13.8533C61.5789 13.094 62.1945 12.4783 62.9539 12.4783H69.8794C70.4868 10.214 72.5562 8.54184 75.0093 8.54184C77.9383 8.54184 80.321 10.9245 80.321 13.8533C80.321 16.782 77.9383 19.1647 75.0093 19.1647C72.5562 19.1647 70.4868 17.4924 69.8794 15.2283H64.3289V27.1128C64.3289 27.8721 63.7132 28.4878 62.9539 28.4878H59.7094C61.7855 30.59 63.4447 33.1048 64.5497 35.8975H69.086V27.1379C69.086 26.3785 69.7017 25.7629 70.461 25.7629H77.3865C77.994 23.4986 80.0632 21.8262 82.5165 21.8262C85.4453 21.8262 87.828 24.2089 87.828 27.1379C87.828 30.0668 85.4453 32.4495 82.5165 32.4495C80.0632 32.4495 77.994 30.7771 77.3865 28.5129H71.836V37.2725C71.836 38.0318 71.2204 38.6475 70.461 38.6475H65.4318C65.7528 39.9328 65.9606 41.2622 66.0447 42.6248H76.1308C76.7384 40.3605 78.8076 38.6884 81.261 38.6884C84.1897 38.6884 86.5724 41.0711 86.5724 44C86.5724 46.9288 84.1897 49.3115 81.261 49.3115C78.8074 49.3115 76.7382 47.6391 76.1307 45.3748H66.0447C65.9605 46.7376 65.7527 48.0673 65.4314 49.3527H70.461C71.2204 49.3527 71.836 49.9684 71.836 50.7277V59.4873H77.3865C77.994 57.223 80.0633 55.5509 82.5165 55.5509C85.4454 55.5507 87.8281 57.9336 87.8281 60.8623ZM28.6378 32.2676H34.166C34.9846 29.7251 36.0663 27.5402 37.344 25.8416C33.8649 27.1208 30.8531 29.374 28.6378 32.2676ZM33.4165 52.9822C32.8859 50.6433 32.559 48.082 32.476 45.3748H24.7108C24.9037 48.1047 25.6658 50.6798 26.8785 52.9822H33.4165ZM42.625 55.7322H37.0803C37.3715 56.5395 37.6941 57.3078 38.048 58.0286C39.3477 60.6757 40.9628 62.4365 42.6248 63.073V55.7322H42.625ZM42.625 35.0176H36.2517C35.6675 37.3649 35.3188 39.9407 35.2297 42.625H42.625V35.0176ZM45.375 32.2676H50.92C50.6287 31.4602 50.3063 30.6917 49.9522 29.9705C48.6525 27.3235 47.0372 25.5625 45.375 24.9262V32.2676ZM45.375 52.9822H51.7485C52.3327 50.6349 52.6816 48.0592 52.7706 45.3748H45.375V52.9822ZM59.3622 55.7322H53.834C53.0154 58.2746 51.9338 60.4593 50.656 62.1579C54.1351 60.8786 57.1469 58.6257 59.3622 55.7322ZM63.2894 42.6248C63.0967 39.8949 62.3346 37.3199 61.1218 35.0175H54.5835C55.1141 37.3563 55.441 39.9176 55.524 42.6248H63.2894Z" fill="#1A747B"/>
</g>
<defs>
<clipPath id="clip0_719_101">
<rect width="88" height="88" fill="white"/>
</clipPath>
</defs>
</svg>
