<svg width="88" height="88" viewBox="0 0 88 88" fill="none" xmlns="http://www.w3.org/2000/svg">
<path fill-rule="evenodd" clip-rule="evenodd" d="M30.7795 40.9317V18.9953C30.7795 15.4358 32.6203 11.7078 35.8309 8.76703C38.6239 6.20781 42.07 4.53375 45.4199 4.08516V3.38391C45.4199 1.45375 47.6869 0.0117188 49.7116 0.0117188C49.9608 0.0117188 50.2014 0.0340625 50.4283 0.0804688C50.9095 0.176719 51.2567 0.599531 51.2567 1.09109V6.81453L62.8755 18.435C63.2347 18.7942 63.2794 19.3614 62.9803 19.7722L58.3981 26.0577C58.2366 26.2794 57.9925 26.4272 57.7227 26.4684C57.4511 26.5114 57.1744 26.4427 56.9527 26.2794L54.2577 24.2942C53.9947 24.0983 53.8383 23.7906 53.8383 23.4641V21.3053L46.6384 20.0609L45.4542 25.6056C47.3002 27.3261 54.0583 34.0206 55.2872 40.9317H30.7795ZM50.9663 16.8658C49.617 16.8658 48.5205 15.7692 48.5205 14.42C48.5205 13.0708 49.617 11.9742 50.9663 11.9742C52.3155 11.9742 53.412 13.0708 53.412 14.42C53.412 15.7692 52.3155 16.8658 50.9663 16.8658ZM50.9663 14.035C50.7549 14.035 50.5813 14.2069 50.5813 14.42C50.5813 14.6314 50.7549 14.805 50.9663 14.805C51.1777 14.805 51.3513 14.6314 51.3513 14.42C51.3513 14.2069 51.1777 14.035 50.9663 14.035Z" fill="#1A747B"/>
<path fill-rule="evenodd" clip-rule="evenodd" d="M28.002 45.8367C28.3045 44.2194 29.7241 42.9922 31.4257 42.9922H54.7801C56.4834 42.9922 57.9048 44.2194 58.2055 45.8367H28.002Z" fill="#1A747B"/>
<path fill-rule="evenodd" clip-rule="evenodd" d="M60.354 57.4864H25.8535C25.2829 57.4864 24.8223 57.024 24.8223 56.4551V54.2912H61.3852V56.4551C61.3852 57.024 60.9246 57.4864 60.354 57.4864ZM24.8223 52.2287V50.0648C24.8223 48.8703 25.7951 47.8975 26.9896 47.8975H59.2179C60.4124 47.8975 61.3852 48.8703 61.3852 50.0665V52.2287H24.8223Z" fill="#1A747B"/>
<path fill-rule="evenodd" clip-rule="evenodd" d="M11.3938 72.4746V33.5758C11.3938 30.886 13.5818 28.6963 16.2716 28.6963H28.7171V41.6385C27.1633 42.5116 26.0702 44.1135 25.9035 45.9783C24.0954 46.4579 22.7599 48.1079 22.7599 50.0655V56.4558C22.7599 58.1625 24.1452 59.5496 25.8536 59.5496H60.3541C62.0625 59.5496 63.4479 58.1643 63.4479 56.4558V50.0672C63.4479 48.1096 62.1124 46.4579 60.3043 45.9783C60.1375 44.1049 59.0341 42.4961 57.4666 41.6264C57.2122 39.1824 56.3236 36.8036 55.1824 34.6432C54.1082 32.6082 52.716 30.5869 51.1708 28.6963H52.4375H71.7288C74.4186 28.6963 76.6066 30.886 76.6066 33.5758V72.4746H11.3938Z" fill="#1A747B"/>
<path fill-rule="evenodd" clip-rule="evenodd" d="M79.0162 87.988H8.98401C5.27495 87.988 2.25854 84.9699 2.25854 81.2626V75.5684C2.25854 74.9977 2.72089 74.5371 3.28979 74.5371H36.0578V79.946C36.0578 80.5149 36.5201 80.9755 37.089 80.9755H50.9112C51.4801 80.9755 51.9425 80.5149 51.9425 79.946V74.5371H84.7104C85.281 74.5371 85.7417 74.9977 85.7417 75.5684V81.2626C85.7417 84.9699 82.7253 87.988 79.0162 87.988ZM38.1203 74.5371H49.88V78.9148H38.1203V74.5371Z" fill="#1A747B"/>
</svg>
