<svg width="46" height="46" viewBox="0 0 46 46" fill="none" xmlns="http://www.w3.org/2000/svg">
<path d="M41.6156 10.9966H36.1861V4.59522C36.1862 4.17487 36.106 3.75861 35.9501 3.37023C35.7943 2.98185 35.5657 2.62896 35.2776 2.33173C34.9895 2.03449 34.6474 1.79874 34.2709 1.63793C33.8945 1.47712 33.491 1.39441 33.0835 1.39453H12.9168C12.5094 1.39441 12.1059 1.47712 11.7294 1.63793C11.3529 1.79874 11.0109 2.03449 10.7227 2.33173C10.4346 2.62896 10.2061 2.98185 10.0502 3.37023C9.89433 3.75861 9.81416 4.17487 9.81428 4.59522V10.9966H4.38479C3.97732 10.9965 3.57383 11.0792 3.19735 11.24C2.82088 11.4008 2.47881 11.6366 2.19069 11.9338C1.90257 12.231 1.67404 12.5839 1.51816 12.9723C1.36228 13.3607 1.28211 13.7769 1.28223 14.1973V18.9983C1.28722 20.4823 1.86086 21.904 2.878 22.9533C3.89515 24.0026 5.27326 24.5944 6.71171 24.5995H14.8559V22.199C14.8558 21.7787 14.936 21.3624 15.0919 20.974C15.2478 20.5856 15.4763 20.2328 15.7644 19.9355C16.0525 19.6383 16.3946 19.4025 16.7711 19.2417C17.1475 19.0809 17.551 18.9982 17.9585 18.9983H28.0418C28.4493 18.9982 28.8528 19.0809 29.2293 19.2417C29.6058 19.4025 29.9478 19.6383 30.2359 19.9355C30.5241 20.2328 30.7526 20.5856 30.9085 20.974C31.0643 21.3624 31.1445 21.7787 31.1444 22.199V24.5995H39.2886C40.399 24.6025 41.4829 24.2503 42.3912 23.5913C43.1085 23.0752 43.6946 22.3882 44.0996 21.5887C44.5047 20.7891 44.7169 19.9005 44.7181 18.9983V14.1973C44.7182 13.7769 44.6381 13.3607 44.4822 12.9723C44.3263 12.5839 44.0978 12.231 43.8097 11.9338C43.5215 11.6366 43.1795 11.4008 42.803 11.24C42.4265 11.0792 42.023 10.9965 41.6156 10.9966ZM34.6348 10.9966H11.3656V4.59522C11.3668 4.17116 11.5306 3.76483 11.8212 3.46498C12.1119 3.16512 12.5058 2.99612 12.9168 2.99488H33.0835C33.4946 2.99612 33.8884 3.16512 34.1791 3.46498C34.4698 3.76483 34.6336 4.17116 34.6348 4.59522V10.9966ZM39.2886 26.1999H31.1444C31.1106 26.2012 31.0768 26.1985 31.0436 26.1919C30.8742 26.8806 30.487 27.4914 29.9434 27.9276C29.3997 28.3638 28.7306 28.6006 28.0418 28.6004H17.9585C17.2698 28.6006 16.6006 28.3638 16.057 27.9276C15.5133 27.4914 15.1262 26.8806 14.9568 26.1919C14.9236 26.1985 14.8897 26.2012 14.8559 26.1999H6.71171C5.63526 26.1982 4.57364 25.9409 3.60915 25.4477V41.4032C3.60904 41.8235 3.68921 42.2398 3.84509 42.6281C4.00097 43.0165 4.2295 43.3694 4.51762 43.6666C4.80574 43.9639 5.14781 44.1996 5.52428 44.3604C5.90075 44.5213 6.30425 44.604 6.71171 44.6038H39.2886C39.6961 44.604 40.0996 44.5213 40.4761 44.3604C40.8525 44.1996 41.1946 43.9639 41.4827 43.6666C41.7709 43.3694 41.9994 43.0165 42.1553 42.6281C42.3111 42.2398 42.3913 41.8235 42.3912 41.4032V25.4477C41.4267 25.9409 40.3651 26.1982 39.2886 26.1999ZM23.0002 35.8019C23.6279 35.8087 24.2328 36.0459 24.7064 36.471C25.18 36.8961 25.4914 37.4813 25.5847 38.1218C25.6781 38.7622 25.5473 39.416 25.2158 39.966C24.8843 40.5159 24.3738 40.9262 23.7757 41.1231C23.8121 41.2479 23.8198 41.3797 23.798 41.5081C23.7762 41.6365 23.7256 41.7578 23.6502 41.8624C23.5748 41.967 23.4768 42.052 23.3639 42.1105C23.251 42.169 23.1265 42.1995 23.0001 42.1995C22.8738 42.1995 22.7492 42.169 22.6364 42.1105C22.5235 42.052 22.4254 41.967 22.3501 41.8624C22.2747 41.7578 22.2241 41.6365 22.2023 41.5081C22.1805 41.3797 22.1881 41.2479 22.2245 41.1231C21.6863 40.9506 21.2154 40.6053 20.8806 40.1376C20.5458 39.6698 20.3644 39.104 20.363 38.5225C20.363 38.3103 20.4447 38.1068 20.5902 37.9567C20.7356 37.8067 20.9329 37.7224 21.1386 37.7224C21.3443 37.7224 21.5416 37.8067 21.6871 37.9567C21.8326 38.1068 21.9143 38.3103 21.9143 38.5225C21.9143 38.7441 21.978 38.9607 22.0973 39.1449C22.2166 39.3291 22.3862 39.4727 22.5846 39.5575C22.783 39.6423 23.0014 39.6645 23.212 39.6213C23.4227 39.578 23.6162 39.4713 23.768 39.3147C23.9199 39.158 24.0233 38.9584 24.0652 38.7411C24.1071 38.5238 24.0856 38.2985 24.0034 38.0938C23.9212 37.8891 23.782 37.7142 23.6035 37.5911C23.4249 37.468 23.2149 37.4023 23.0002 37.4023C22.3687 37.4022 21.7582 37.1684 21.2797 36.7434C20.8011 36.3184 20.4863 35.7303 20.3924 35.0861C20.2985 34.4419 20.4317 33.7843 20.7679 33.2329C21.1042 32.6815 21.621 32.2728 22.2245 32.0811C22.1881 31.9564 22.1805 31.8245 22.2024 31.6961C22.2242 31.5678 22.2748 31.4465 22.3501 31.3419C22.4255 31.2373 22.5235 31.1523 22.6364 31.0938C22.7493 31.0353 22.8739 31.0048 23.0002 31.0048C23.1265 31.0048 23.2511 31.0353 23.3639 31.0938C23.4768 31.1523 23.5748 31.2373 23.6502 31.3419C23.7256 31.4465 23.7762 31.5678 23.798 31.6961C23.8198 31.8245 23.8122 31.9564 23.7758 32.0811C24.3141 32.2536 24.7849 32.5989 25.1198 33.0667C25.4546 33.5344 25.6359 34.1002 25.6374 34.6817C25.6334 34.8912 25.5499 35.0908 25.4049 35.2375C25.2599 35.3842 25.0648 35.4664 24.8617 35.4664C24.6586 35.4664 24.4635 35.3842 24.3185 35.2375C24.1735 35.0907 24.09 34.8912 24.0861 34.6817C24.0861 34.4601 24.0224 34.2435 23.903 34.0593C23.7837 33.8751 23.6141 33.7315 23.4157 33.6467C23.2173 33.5619 22.9989 33.5398 22.7883 33.583C22.5777 33.6262 22.3842 33.7329 22.2323 33.8896C22.0805 34.0463 21.977 34.2459 21.9351 34.4632C21.8932 34.6805 21.9148 34.9057 21.9969 35.1104C22.0791 35.3151 22.2183 35.4901 22.3969 35.6132C22.5755 35.7362 22.7854 35.8019 23.0002 35.8019ZM17.9585 27.0001C17.5475 26.9988 17.1536 26.8298 16.8629 26.5299C16.5723 26.2301 16.4084 25.8238 16.4072 25.3997V22.199C16.4084 21.775 16.5723 21.3686 16.8629 21.0688C17.1536 20.7689 17.5475 20.5999 17.9585 20.5987H28.0418C28.4529 20.5999 28.8468 20.7689 29.1374 21.0688C29.4281 21.3686 29.5919 21.775 29.5931 22.199V25.3997C29.5919 25.8238 29.4281 26.2301 29.1374 26.5299C28.8468 26.8298 28.4529 26.9988 28.0418 27.0001H17.9585Z" fill="#1A747B"/>
</svg>
