<svg width="46" height="46" viewBox="0 0 46 46" fill="none" xmlns="http://www.w3.org/2000/svg">
<path fill-rule="evenodd" clip-rule="evenodd" d="M39.5389 19.3394C37.9358 19.3394 36.6269 18.0305 36.6269 16.4249C36.6269 14.8219 37.9358 13.5128 39.5389 13.5128C41.1444 13.5128 42.4508 14.8219 42.4508 16.4249C42.4508 18.0305 41.1444 19.3394 39.5389 19.3394ZM34.4312 26.9378L27.0784 26.9403C26.2653 26.9403 25.6057 26.2807 25.6057 25.4677C25.6057 24.6547 26.2653 23.9951 27.0784 23.9951H34.0017L36.5993 22.3205C37.2819 21.8808 38.1895 22.0802 38.6292 22.7628C39.0664 23.4454 38.8695 24.3556 38.1869 24.7928L35.2238 26.7026C34.9784 26.8611 34.7023 26.9378 34.4312 26.9378ZM6.46108 19.3394C4.8555 19.3394 3.54648 18.0305 3.54648 16.4249C3.54648 14.8219 4.8555 13.5128 6.46108 13.5128C8.06414 13.5128 9.37306 14.8219 9.37306 16.4249C9.37306 18.0305 8.06414 19.3394 6.46108 19.3394ZM11.5687 26.9378C11.2977 26.9378 11.0216 26.8611 10.7762 26.7026L7.81303 24.7928C7.13043 24.3556 6.93353 23.4454 7.37071 22.7628C7.81041 22.0802 8.71806 21.8808 9.40066 22.3205L11.9982 23.9951H18.9216C19.7346 23.9951 20.3942 24.6547 20.3942 25.4677C20.3942 26.2807 19.7346 26.9403 18.9216 26.9403L11.5687 26.9378ZM16.2134 44.6476H15.6548L13.4739 37.2257C13.2464 36.4511 12.8526 35.8477 12.0959 35.8477H11.0406C11.0406 36.246 10.7173 36.5692 10.319 36.5692V44.6476H8.38108V36.5692H4.22142C2.24721 36.5692 0.631348 34.9534 0.631348 32.9791V22.4381C0.631348 22.0399 0.954701 21.7165 1.35292 21.7165C1.75113 21.7165 2.07448 22.0399 2.07448 22.4381V32.9791C2.07448 34.1598 3.04085 35.1261 4.22142 35.1261H7.29061C6.78362 34.8504 6.32101 34.5034 5.91648 34.0989C4.83503 33.0175 4.16523 31.5244 4.16523 29.8805V21.7632C4.16523 20.5028 5.19301 19.475 6.45341 19.475C7.31596 19.475 8.0709 19.9458 8.46551 20.6468C7.55913 20.6917 6.68711 21.1592 6.15748 21.9813C6.15685 21.9824 6.15613 21.9834 6.15541 21.9845C5.2888 23.3376 5.68152 25.1414 7.03473 26.0081C7.03274 26.0068 7.9449 26.5947 8.75693 27.1181V29.8805C8.75693 30.2588 8.91036 30.6015 9.16092 30.8521C9.41148 31.1025 9.75405 31.2585 10.1324 31.2585H10.8892C13.5918 31.2585 15.137 32.8005 16.2134 35.3914V44.6476ZM29.7865 35.3914C30.8629 32.8005 32.4081 31.2585 35.1108 31.2585H35.8675C36.2459 31.2585 36.5885 31.1025 36.839 30.8521C37.0896 30.6015 37.243 30.2588 37.243 29.8805V27.1181L38.9687 26.0058C40.3184 25.1414 40.7111 23.3376 39.8445 21.9845C39.8438 21.9834 39.8431 21.9824 39.8425 21.9813C39.3128 21.1592 38.4408 20.6917 37.5344 20.6468C37.929 19.9458 38.684 19.475 39.5465 19.475C40.8069 19.475 41.8347 20.5028 41.8347 21.7632V29.8805C41.8347 31.5244 41.1649 33.0175 40.0835 34.0989C39.6789 34.5034 39.2163 34.8504 38.7093 35.1261H41.7785C42.9591 35.1261 43.9255 34.1598 43.9255 32.9791V22.4381C43.9255 22.0399 44.2488 21.7165 44.647 21.7165C45.0452 21.7165 45.3686 22.0399 45.3686 22.4381V32.9791C45.3686 34.9534 43.7527 36.5692 41.7785 36.5692H37.6189V44.6476H35.6809V36.5692C35.2827 36.5692 34.9593 36.246 34.9593 35.8477H33.904C33.1473 35.8477 32.7535 36.4511 32.526 37.2257L30.3452 44.6476H29.7865V35.3914ZM13.18 29.9362V27.8398H32.82V29.9362H13.18ZM17.6566 31.3793H28.3434V44.6476H17.6566V31.3793ZM21.576 11.5162C21.576 12.2831 20.9495 12.907 20.1851 12.907H13.8984L11.9544 14.9314C11.8268 15.0641 11.6315 15.1061 11.4607 15.0373C11.2899 14.9686 11.1781 14.803 11.1781 14.619V12.907H10.002C9.23506 12.907 8.61117 12.2831 8.61117 11.5162V2.74434C8.61117 1.97993 9.23506 1.35352 10.002 1.35352H20.1851C20.9495 1.35352 21.576 1.97993 21.576 2.74434V11.5162ZM11.8991 7.85304H18.2881C18.6863 7.85304 19.0097 7.52978 19.0097 7.13148C19.0097 6.73326 18.6863 6.40991 18.2881 6.40991H11.8991C11.5008 6.40991 11.1775 6.73326 11.1775 7.13148C11.1775 7.52978 11.5008 7.85304 11.8991 7.85304ZM11.8991 10.5759H18.2881C18.6863 10.5759 19.0097 10.2526 19.0097 9.85432C19.0097 9.4561 18.6863 9.13275 18.2881 9.13275H11.8991C11.5008 9.13275 11.1775 9.4561 11.1775 9.85432C11.1775 10.2526 11.5008 10.5759 11.8991 10.5759ZM11.8991 5.1303H18.2881C18.6863 5.1303 19.0097 4.80694 19.0097 4.40873C19.0097 4.01042 18.6863 3.68716 18.2881 3.68716H11.8991C11.5008 3.68716 11.1775 4.01042 11.1775 4.40873C11.1775 4.80694 11.5008 5.1303 11.8991 5.1303ZM23.6596 11.5162V2.74434C23.6596 1.97993 24.286 1.35352 25.0504 1.35352H35.2334C36.0005 1.35352 36.6243 1.97993 36.6243 2.74434V11.5162C36.6243 12.2831 36.0005 12.907 35.2334 12.907H34.0575V14.619C34.0575 14.803 33.9455 14.9686 33.7748 15.0373C33.6041 15.1061 33.4087 15.0641 33.2812 14.9314L31.3372 12.907H25.0504C24.286 12.907 23.6596 12.2831 23.6596 11.5162ZM26.2525 10.5853H28.1458C28.5443 10.5853 28.8674 10.2622 28.8674 9.8637V8.69196H29.9156C30.3141 8.69196 30.6371 8.36897 30.6371 7.97039V6.88109H32.0969C32.4955 6.88109 32.8184 6.55801 32.8184 6.15952V5.39944H34.0313C34.4295 5.39944 34.7529 5.07609 34.7529 4.67787C34.7529 4.27957 34.4295 3.9563 34.0313 3.9563H32.0969C31.6984 3.9563 31.3753 4.2793 31.3753 4.67787V5.43795H29.9156C29.5171 5.43795 29.194 5.76095 29.194 6.15952V7.24882H28.1458C27.7473 7.24882 27.4243 7.5719 27.4243 7.97039V9.14213H26.2525C25.8543 9.14213 25.531 9.46539 25.531 9.8637C25.531 10.2619 25.8543 10.5853 26.2525 10.5853Z" fill="#1A747B"/>
</svg>
