<svg width="53" height="53" viewBox="0 0 53 53" fill="none" xmlns="http://www.w3.org/2000/svg">
<g clip-path="url(#clip0_2304_30)">
<path fill-rule="evenodd" clip-rule="evenodd" d="M52.9866 31.9368C52.9881 31.5869 52.7859 31.2681 52.4688 31.1202C52.2482 31.0025 51.9875 30.9858 51.7537 31.0746L47.3368 32.7031L42.9875 34.3005L41.086 35.0001C40.7676 35.119 40.5416 35.4047 40.4992 35.7418C40.4568 36.079 40.6052 36.4118 40.8842 36.6058L42.0642 37.4278L43.1676 38.1986L44.3175 39.0023C38.9648 46.6928 29.2958 50.1019 20.3033 47.4693C11.3108 44.8367 5.00689 36.7514 4.64684 27.3884C4.62035 26.7013 4.28958 26.0615 3.74412 25.6427C3.19876 25.2239 2.49532 25.0694 1.82456 25.2211C0.731579 25.4695 -0.0293941 26.4611 0.0134397 27.5811C0.449744 38.9352 8.09372 48.74 18.9983 51.9329C29.9029 55.1258 41.6281 50.9922 48.1194 41.6665L51.5517 44.0658C51.8291 44.2635 52.1939 44.2894 52.4963 44.1326C52.7989 43.9759 52.9881 43.663 52.9865 43.3223L52.9801 35.633L52.9866 31.9368Z" fill="#FF5E14"/>
<path fill-rule="evenodd" clip-rule="evenodd" d="M0.399949 21.7963C0.442266 21.8278 0.487169 21.8557 0.534244 21.8794C0.754828 21.9971 1.01556 22.0138 1.24938 21.925L5.66623 20.2965L11.9171 17.9995C12.2354 17.8806 12.4615 17.595 12.5038 17.2578C12.5462 16.9206 12.3979 16.5878 12.1188 16.3939L8.69015 13.9945C14.0453 6.31011 23.711 2.90576 32.6997 5.53838C41.6885 8.171 47.9904 16.252 48.3535 25.6113C48.3795 26.2988 48.7101 26.939 49.2555 27.3583C49.801 27.7775 50.5047 27.9323 51.1757 27.7805C52.2693 27.532 53.0306 26.5393 52.9868 25.4186C52.5505 14.0645 44.9065 4.25968 34.0019 1.0668C23.0973 -2.12608 11.3721 2.00749 4.88084 11.3333L1.44855 8.93394C1.17127 8.73633 0.806663 8.71036 0.504344 8.8669C0.202024 9.02344 0.0124791 9.336 0.0137206 9.6765V21.063C0.0106167 21.3569 0.155879 21.6326 0.399949 21.7963Z" fill="#FF5E14"/>
<path fill-rule="evenodd" clip-rule="evenodd" d="M35.6334 12.7998H34.72C34.2156 12.7998 33.8066 13.2087 33.8066 13.7132V15.3069L36.5467 17.9327V13.7132C36.5468 13.2087 36.1378 12.7998 35.6334 12.7998Z" fill="#FF5E14"/>
<path fill-rule="evenodd" clip-rule="evenodd" d="M23.7598 32.8933V38.3734H29.2397V32.8933C29.2397 31.3801 28.0129 30.1533 26.4997 30.1533C24.9865 30.1533 23.7598 31.3801 23.7598 32.8933Z" fill="#FF5E14"/>
<path fill-rule="evenodd" clip-rule="evenodd" d="M35.633 38.3735C36.1374 38.3735 36.5464 37.9646 36.5464 37.4602V25.5869H16.4531V37.4603C16.4531 37.9646 16.862 38.3736 17.3665 38.3736H21.9332V32.8936C21.9332 30.3715 23.9777 28.3269 26.4998 28.3269C29.0219 28.3269 31.0665 30.3715 31.0665 32.8936V38.3736H35.633V38.3735Z" fill="#FF5E14"/>
<path fill-rule="evenodd" clip-rule="evenodd" d="M39.1396 22.9481L26.7548 11.0802C26.6874 11.012 26.5955 10.9736 26.4996 10.9736C26.4037 10.9736 26.3117 11.012 26.2443 11.0802L13.8595 22.9481C13.7262 23.0719 13.6761 23.2613 13.7308 23.4349C13.7854 23.6084 13.935 23.7349 14.1151 23.76H38.8837C39.0639 23.7349 39.2135 23.6084 39.2681 23.4349C39.3229 23.2613 39.2728 23.0719 39.1396 22.9481Z" fill="#FF5E14"/>
</g>
<defs>
<clipPath id="clip0_2304_30">
<rect width="53" height="53" fill="white"/>
</clipPath>
</defs>
</svg>
