<svg width="88" height="88" viewBox="0 0 88 88" fill="none" xmlns="http://www.w3.org/2000/svg">
<g clip-path="url(#clip0_43_20746)">
<path d="M69.6094 51.9062C59.6594 51.9062 51.5625 60.0031 51.5625 69.9531C51.5625 79.9031 59.6594 88 69.6094 88C79.5594 88 88 79.9031 88 69.9531C88 60.0031 79.5594 51.9062 69.6094 51.9062ZM74.7656 72.5312H69.6094C68.1844 72.5312 67.0312 71.3781 67.0312 69.9531V64.7969C67.0312 63.3719 68.1844 62.2188 69.6094 62.2188C71.0344 62.2188 72.1875 63.3719 72.1875 64.7969V67.375H74.7656C76.1906 67.375 77.3438 68.5281 77.3438 69.9531C77.3438 71.3781 76.1906 72.5312 74.7656 72.5312Z" fill="#1A747B"/>
<path d="M10.3125 64.7969H5.15625C2.30845 64.7969 0 67.1053 0 69.9531C0 72.8006 2.30845 75.1094 5.15625 75.1094H10.3125C13.1603 75.1094 15.4688 72.8006 15.4688 69.9531C15.4688 67.1053 13.1603 64.7969 10.3125 64.7969Z" fill="#1A747B"/>
<path d="M10.3125 39.0156H5.15625C2.30845 39.0156 0 41.3241 0 44.1719C0 47.0193 2.30845 49.3281 5.15625 49.3281H10.3125C13.1603 49.3281 15.4688 47.0193 15.4688 44.1719C15.4688 41.3241 13.1603 39.0156 10.3125 39.0156Z" fill="#1A747B"/>
<path d="M10.3125 12.8906H5.15625C2.30845 12.8906 0 15.1991 0 18.0469C0 20.8943 2.30845 23.2031 5.15625 23.2031H10.3125C13.1603 23.2031 15.4688 20.8943 15.4688 18.0469C15.4688 15.1991 13.1603 12.8906 10.3125 12.8906Z" fill="#1A747B"/>
<path d="M74.7656 0H18.0469C13.782 0 10.3125 3.46947 10.3125 7.73438C16 7.73438 20.625 12.3594 20.625 18.0469C20.625 23.7344 16 28.3594 10.3125 28.3594V33.8594C16 33.8594 20.625 38.4844 20.625 44.1719C20.625 49.8594 16 54.4844 10.3125 54.4844V59.6406C16 59.6406 20.625 64.2656 20.625 69.9531C20.625 75.6406 16 80.2656 10.3125 80.2656C10.3125 84.5305 13.782 88 18.0469 88H55.2052C49.886 83.7444 46.4062 77.2796 46.4062 69.9531C46.4062 57.1582 56.8145 46.75 69.6094 46.75C74.3775 46.75 79.1534 48.202 82.8438 50.6779V7.73438C82.8438 3.46947 79.0305 0 74.7656 0ZM45.651 56.3071L35.3384 66.6196C34.8348 67.1232 34.1751 67.375 33.5156 67.375C32.8561 67.375 32.1963 67.1232 31.6929 66.6196L25.8115 60.7382C24.8045 59.7312 24.8045 58.0996 25.8115 57.0926C26.8185 56.0856 28.4501 56.0856 29.4571 57.0926L33.5156 61.1512L42.0054 52.6615C43.0124 51.6545 44.644 51.6545 45.651 52.6615C46.658 53.6685 46.658 55.3001 45.651 56.3071ZM45.651 35.6821L35.3385 45.9946C34.8349 46.4982 34.1753 46.75 33.5158 46.75C32.8563 46.75 32.1965 46.4982 31.6931 45.9946L25.8117 40.1132C24.8043 39.1062 24.8043 37.4748 25.8115 36.4678C26.8185 35.4607 28.4501 35.4607 29.4571 36.4678L33.5156 40.5262L42.0054 32.0365C43.0124 31.0295 44.644 31.0295 45.651 32.0365C46.658 33.0435 46.658 34.6751 45.651 35.6821ZM45.651 14.7134L35.3385 25.0259C34.8349 25.5295 34.1753 25.7812 33.5158 25.7812C32.8563 25.7812 32.1965 25.5295 31.6931 25.0259L25.8117 19.1445C24.8043 18.1375 24.8043 16.506 25.8115 15.499C26.8185 14.492 28.4501 14.492 29.4571 15.499L33.5156 19.5575L42.0054 11.0677C43.0124 10.0607 44.644 10.0607 45.651 11.0677C46.658 12.0747 46.658 13.7063 45.651 14.7134ZM69.6094 41.5938H54.1406C52.7156 41.5938 51.5625 40.4406 51.5625 39.0156C51.5625 37.5906 52.7156 36.4375 54.1406 36.4375H69.6094C71.0344 36.4375 72.1875 37.5906 72.1875 39.0156C72.1875 40.4406 71.0344 41.5938 69.6094 41.5938ZM69.6094 20.625H54.1406C52.7156 20.625 51.5625 19.4719 51.5625 18.0469C51.5625 16.6219 52.7156 15.4688 54.1406 15.4688H69.6094C71.0344 15.4688 72.1875 16.6219 72.1875 18.0469C72.1875 19.4719 71.0344 20.625 69.6094 20.625Z" fill="#1A747B"/>
</g>
<defs>
<clipPath id="clip0_43_20746">
<rect width="88" height="88" fill="white"/>
</clipPath>
</defs>
</svg>
