<svg width="17" height="17" viewBox="0 0 17 17" fill="none" xmlns="http://www.w3.org/2000/svg">
<path d="M15.75 15.1992C16.0625 15.5534 16.0729 15.9076 15.7812 16.2617C15.6354 16.4076 15.4583 16.4805 15.25 16.4805C15.0625 16.4805 14.875 16.4076 14.6875 16.2617L10.5 12.0742C9.375 12.9909 8.03125 13.4596 6.46875 13.4805C4.63542 13.4388 3.11458 12.8034 1.90625 11.5742C0.677083 10.3451 0.0416667 8.8138 0 6.98047C0.0416667 5.14714 0.666667 3.61589 1.875 2.38672C3.10417 1.15755 4.63542 0.522135 6.46875 0.480469C8.30208 0.522135 9.83333 1.15755 11.0625 2.38672C12.2917 3.61589 12.9271 5.14714 12.9688 6.98047C12.9479 8.52214 12.4792 9.86589 11.5625 11.0117L15.75 15.1992ZM1.5 6.98047C1.54167 8.39714 2.03125 9.57422 2.96875 10.5117C3.90625 11.4492 5.08333 11.9388 6.5 11.9805C7.91667 11.9388 9.09375 11.4492 10.0312 10.5117C10.9688 9.57422 11.4583 8.39714 11.5 6.98047C11.4583 5.5638 10.9688 4.38672 10.0312 3.44922C9.09375 2.51172 7.91667 2.02214 6.5 1.98047C5.08333 2.02214 3.90625 2.51172 2.96875 3.44922C2.03125 4.38672 1.54167 5.5638 1.5 6.98047Z" fill="#1F242E"/>
</svg>
