<svg width="157" height="49" viewBox="0 0 157 49" fill="none" xmlns="http://www.w3.org/2000/svg">
<path d="M8.81641 4.71007V18.8632L9.92647 19.5475V3.89404L8.81641 4.71007Z" fill="#FE5E14"/>
<path d="M10.5742 3.41792V19.9468L11.6843 20.6311V2.60205L10.5742 3.41792Z" fill="#FE5E14"/>
<path d="M12.332 2.12584V21.0303L13.4421 21.7146V1.30981L12.332 2.12584Z" fill="#FE5E14"/>
<path d="M14.0898 0.833848V22.1139L15.1999 22.7983V0.0178223L14.0898 0.833848Z" fill="#FE5E14"/>
<path d="M20.0078 18.8549L26.3782 15.6697L32.5211 17.831L32.6349 43.1887H26.7839L26.2645 16.6935L20.0078 18.8549Z" fill="#1F242E"/>
<path d="M15.1987 23.9548L8.78013 19.9712L2.6372 22.1326L2.52344 43.2003L8.60574 43.1887L8.89386 20.995L15.1987 23.9548Z" fill="#1F242E"/>
<path d="M17.2331 4.024L15.6836 3.19144V0L17.2331 0.832566V4.024Z" fill="#FE5E14"/>
<path d="M19.3815 5.13411L17.832 4.30158V1.11011L19.3815 1.94267V5.13411Z" fill="#FE5E14"/>
<path d="M17.2331 7.80525L15.6836 6.97269V3.78125L17.2331 4.61378V7.80525Z" fill="#FE5E14"/>
<path d="M19.3815 8.91536L17.832 8.08283V4.89136L19.3815 5.72392V8.91536Z" fill="#FE5E14"/>
<path d="M17.2331 11.5865L15.6836 10.754V7.5625L17.2331 8.39506V11.5865Z" fill="#FE5E14"/>
<path d="M19.3815 12.6966L17.832 11.864V8.67261L19.3815 9.50514V12.6966Z" fill="#FE5E14"/>
<path d="M17.2331 15.3675L15.6836 14.535V11.3435L17.2331 12.1761V15.3675Z" fill="#FE5E14"/>
<path d="M19.3815 16.4779L17.832 15.6453V12.4539L19.3815 13.2864V16.4779Z" fill="#FE5E14"/>
<path d="M17.2331 19.1488L15.6836 18.3162V15.1248L17.2331 15.9573V19.1488Z" fill="#FE5E14"/>
<path d="M19.3815 20.2589L17.832 19.4263V16.2349L19.3815 17.0674V20.2589Z" fill="#FE5E14"/>
<path d="M17.2331 22.9298L15.6836 22.0972V18.9058L17.2331 19.7383V22.9298Z" fill="#FE5E14"/>
<path d="M19.3815 24.0399L17.832 23.2073V20.0159L19.3815 20.8484V24.0399Z" fill="#FE5E14"/>
<path d="M17.2331 26.711L15.6836 25.8785V22.687L17.2331 23.5195V26.711Z" fill="#FE5E14"/>
<path d="M19.3815 27.8211L17.832 26.9886V23.7971L19.3815 24.6297V27.8211Z" fill="#FE5E14"/>
<path d="M17.2331 30.4923L15.6836 29.6597V26.4683L17.2331 27.3008V30.4923Z" fill="#FE5E14"/>
<path d="M19.3815 31.6024L17.832 30.7698V27.5784L19.3815 28.4109V31.6024Z" fill="#FE5E14"/>
<path d="M17.2331 34.2736L15.6836 33.441V30.2495L17.2331 31.0821V34.2736Z" fill="#FE5E14"/>
<path d="M19.3815 35.3836L17.832 34.5511V31.3596L19.3815 32.1922V35.3836Z" fill="#FE5E14"/>
<path d="M17.2331 38.0548L15.6836 37.2222V34.0308L17.2331 34.8633V38.0548Z" fill="#FE5E14"/>
<path d="M19.3815 39.1649L17.832 38.3323V35.1409L19.3815 35.9734V39.1649Z" fill="#FE5E14"/>
<path d="M17.2331 41.836L15.6836 41.0035V37.812L17.2331 38.6446V41.836Z" fill="#FE5E14"/>
<path d="M19.3815 42.9459L17.832 42.1134V38.9219L19.3815 39.7544V42.9459Z" fill="#FE5E14"/>
<path d="M35.8909 47.4167H0.109143C0.0488572 47.4167 0 47.2935 0 47.1415V45.692C0 45.54 0.0488572 45.4167 0.109143 45.4167H35.8909C35.9511 45.4167 36 45.54 36 45.692V47.1415C36 47.2935 35.9511 47.4167 35.8909 47.4167Z" fill="#FE5E14"/>
<path d="M66.0131 13.6003H62.1246C62.0536 13.0973 61.9086 12.6504 61.6896 12.2598C61.4706 11.8632 61.1895 11.5259 60.8462 11.2477C60.503 10.9695 60.1064 10.7565 59.6566 10.6085C59.2127 10.4605 58.7304 10.3866 58.2095 10.3866C57.2685 10.3866 56.4487 10.6203 55.7504 11.0879C55.052 11.5496 54.5104 12.2243 54.1257 13.1121C53.741 13.9939 53.5487 15.0652 53.5487 16.3258C53.5487 17.622 53.741 18.711 54.1257 19.5929C54.5163 20.4747 55.0608 21.1406 55.7592 21.5904C56.4576 22.0402 57.2655 22.2651 58.1829 22.2651C58.6978 22.2651 59.1742 22.1971 59.6122 22.0609C60.0561 21.9248 60.4497 21.7265 60.793 21.4661C61.1362 21.1998 61.4203 20.8772 61.6452 20.4984C61.8761 20.1196 62.0359 19.6876 62.1246 19.2023L66.0131 19.22C65.9125 20.0545 65.661 20.8595 65.2585 21.6348C64.862 22.4042 64.3263 23.0937 63.6516 23.7033C62.9828 24.307 62.1838 24.7864 61.2546 25.1415C60.3313 25.4907 59.2867 25.6653 58.1207 25.6653C56.4991 25.6653 55.049 25.2984 53.7706 24.5645C52.4981 23.8306 51.492 22.7682 50.7521 21.3773C50.0182 19.9865 49.6513 18.3026 49.6513 16.3258C49.6513 14.3431 50.0241 12.6563 50.7699 11.2655C51.5156 9.87461 52.5277 8.81519 53.8061 8.0872C55.0845 7.3533 56.5227 6.98635 58.1207 6.98635C59.1742 6.98635 60.1508 7.13431 61.0504 7.43024C61.956 7.72617 62.7579 8.15822 63.4563 8.72641C64.1547 9.28867 64.7229 9.97818 65.1609 10.7949C65.6048 11.6117 65.8888 12.5468 66.0131 13.6003ZM85.4778 16.3258C85.4778 18.3086 85.102 19.9953 84.3503 21.3862C83.6046 22.7771 82.5866 23.8395 81.2963 24.5734C80.012 25.3013 78.5679 25.6653 76.964 25.6653C75.3482 25.6653 73.8981 25.2984 72.6138 24.5645C71.3295 23.8306 70.3145 22.7682 69.5687 21.3773C68.823 19.9865 68.4501 18.3026 68.4501 16.3258C68.4501 14.3431 68.823 12.6563 69.5687 11.2655C70.3145 9.87461 71.3295 8.81519 72.6138 8.0872C73.8981 7.3533 75.3482 6.98635 76.964 6.98635C78.5679 6.98635 80.012 7.3533 81.2963 8.0872C82.5866 8.81519 83.6046 9.87461 84.3503 11.2655C85.102 12.6563 85.4778 14.3431 85.4778 16.3258ZM81.5804 16.3258C81.5804 15.0415 81.3881 13.9584 81.0034 13.0765C80.6246 12.1947 80.089 11.5259 79.3965 11.0702C78.704 10.6144 77.8932 10.3866 76.964 10.3866C76.0347 10.3866 75.2239 10.6144 74.5314 11.0702C73.839 11.5259 73.3004 12.1947 72.9157 13.0765C72.5369 13.9584 72.3475 15.0415 72.3475 16.3258C72.3475 17.6102 72.5369 18.6933 72.9157 19.5751C73.3004 20.457 73.839 21.1258 74.5314 21.5815C75.2239 22.0372 76.0347 22.2651 76.964 22.2651C77.8932 22.2651 78.704 22.0372 79.3965 21.5815C80.089 21.1258 80.6246 20.457 81.0034 19.5751C81.3881 18.6933 81.5804 17.6102 81.5804 16.3258ZM103.533 7.23493V25.4167H100.213L92.3026 13.9732H92.1695V25.4167H88.3254V7.23493H91.699L99.547 18.6696H99.7068V7.23493H103.533ZM116.572 12.464C116.501 11.7478 116.197 11.1915 115.658 10.7949C115.119 10.3984 114.388 10.2001 113.465 10.2001C112.838 10.2001 112.308 10.2889 111.876 10.4665C111.444 10.6381 111.113 10.8778 110.882 11.1856C110.657 11.4933 110.544 11.8425 110.544 12.2332C110.533 12.5587 110.601 12.8428 110.749 13.0854C110.902 13.3281 111.113 13.5382 111.379 13.7158C111.645 13.8874 111.953 14.0383 112.302 14.1685C112.651 14.2928 113.024 14.3993 113.421 14.4881L115.054 14.8788C115.847 15.0563 116.575 15.293 117.238 15.589C117.901 15.8849 118.475 16.2489 118.961 16.681C119.446 17.113 119.822 17.622 120.088 18.2079C120.36 18.7939 120.499 19.4656 120.505 20.2232C120.499 21.3359 120.215 22.3006 119.653 23.1174C119.097 23.9282 118.292 24.5586 117.238 25.0084C116.191 25.4523 114.927 25.6742 113.447 25.6742C111.98 25.6742 110.701 25.4493 109.612 24.9995C108.529 24.5497 107.683 23.8838 107.073 23.002C106.469 22.1142 106.153 21.0163 106.123 19.7083H109.843C109.884 20.3179 110.059 20.8269 110.367 21.2353C110.681 21.6377 111.098 21.9426 111.619 22.1497C112.145 22.3509 112.74 22.4515 113.403 22.4515C114.054 22.4515 114.619 22.3569 115.099 22.1675C115.584 21.9781 115.96 21.7147 116.226 21.3773C116.493 21.04 116.626 20.6523 116.626 20.2143C116.626 19.806 116.504 19.4627 116.262 19.1845C116.025 18.9063 115.676 18.6696 115.214 18.4743C114.758 18.279 114.199 18.1014 113.536 17.9416L111.556 17.4444C110.024 17.0716 108.813 16.4886 107.925 15.6955C107.038 14.9024 106.597 13.8341 106.603 12.4906C106.597 11.3898 106.89 10.428 107.482 9.60531C108.079 8.78263 108.899 8.14047 109.941 7.67882C110.982 7.21717 112.166 6.98635 113.492 6.98635C114.841 6.98635 116.019 7.21717 117.025 7.67882C118.037 8.14047 118.824 8.78263 119.387 9.60531C119.949 10.428 120.239 11.3809 120.257 12.464H116.572ZM122.399 10.4043V7.23493H137.331V10.4043H131.765V25.4167H127.965V10.4043H122.399ZM143.395 7.23493L147.061 13.4317H147.203L150.888 7.23493H155.229L149.68 16.3258L155.353 25.4167H150.932L147.203 19.2111H147.061L143.332 25.4167H138.929L144.62 16.3258L139.036 7.23493H143.395Z" fill="#1F242E"/>
<path d="M56.1641 42.2517H57.4766C57.4082 42.8806 57.2282 43.4434 56.9365 43.9402C56.6449 44.4369 56.2324 44.8311 55.6992 45.1228C55.166 45.4099 54.5007 45.5535 53.7031 45.5535C53.1198 45.5535 52.5889 45.4441 52.1104 45.2253C51.6364 45.0066 51.2285 44.6967 50.8867 44.2957C50.5449 43.8901 50.2806 43.4047 50.0938 42.8396C49.9115 42.2699 49.8203 41.6365 49.8203 40.9392V39.948C49.8203 39.2507 49.9115 38.6195 50.0938 38.0544C50.2806 37.4848 50.5472 36.9972 50.8936 36.5916C51.2445 36.186 51.666 35.8738 52.1582 35.655C52.6504 35.4363 53.2041 35.3269 53.8193 35.3269C54.5713 35.3269 55.207 35.4682 55.7266 35.7507C56.2461 36.0333 56.6494 36.4252 56.9365 36.9265C57.2282 37.4233 57.4082 37.9998 57.4766 38.656H56.1641C56.1003 38.1912 55.9818 37.7924 55.8086 37.4597C55.6354 37.1225 55.3893 36.8627 55.0703 36.6804C54.7513 36.4981 54.3343 36.407 53.8193 36.407C53.3773 36.407 52.9876 36.4913 52.6504 36.6599C52.3177 36.8285 52.0374 37.0678 51.8096 37.3777C51.5863 37.6876 51.4176 38.059 51.3037 38.4919C51.1898 38.9249 51.1328 39.4057 51.1328 39.9343V40.9392C51.1328 41.4268 51.1829 41.8848 51.2832 42.3132C51.388 42.7416 51.5452 43.1176 51.7549 43.4412C51.9645 43.7647 52.2311 44.0199 52.5547 44.2068C52.8783 44.3891 53.2611 44.4802 53.7031 44.4802C54.2637 44.4802 54.7103 44.3914 55.043 44.2136C55.3757 44.0359 55.6263 43.7807 55.7949 43.448C55.9681 43.1153 56.0911 42.7166 56.1641 42.2517ZM61.128 41.8005V41.6433C61.128 41.1101 61.2055 40.6156 61.3605 40.1599C61.5154 39.6996 61.7387 39.3009 62.0304 38.9636C62.3221 38.6218 62.6752 38.3575 63.09 38.1707C63.5047 37.9792 63.9695 37.8835 64.4845 37.8835C65.004 37.8835 65.4711 37.9792 65.8859 38.1707C66.3051 38.3575 66.6606 38.6218 66.9523 38.9636C67.2485 39.3009 67.4741 39.6996 67.629 40.1599C67.784 40.6156 67.8614 41.1101 67.8614 41.6433V41.8005C67.8614 42.3337 67.784 42.8282 67.629 43.2839C67.4741 43.7397 67.2485 44.1384 66.9523 44.4802C66.6606 44.8175 66.3074 45.0818 65.8927 45.2732C65.4825 45.46 65.0177 45.5535 64.4982 45.5535C63.9786 45.5535 63.5115 45.46 63.0968 45.2732C62.6821 45.0818 62.3266 44.8175 62.0304 44.4802C61.7387 44.1384 61.5154 43.7397 61.3605 43.2839C61.2055 42.8282 61.128 42.3337 61.128 41.8005ZM62.3927 41.6433V41.8005C62.3927 42.1697 62.436 42.5183 62.5226 42.8464C62.6092 43.17 62.739 43.4571 62.9122 43.7078C63.09 43.9584 63.311 44.1567 63.5753 44.3025C63.8396 44.4438 64.1473 44.5144 64.4982 44.5144C64.8445 44.5144 65.1476 44.4438 65.4073 44.3025C65.6717 44.1567 65.8904 43.9584 66.0636 43.7078C66.2368 43.4571 66.3667 43.17 66.4532 42.8464C66.5444 42.5183 66.59 42.1697 66.59 41.8005V41.6433C66.59 41.2787 66.5444 40.9347 66.4532 40.6111C66.3667 40.283 66.2345 39.9936 66.0568 39.7429C65.8836 39.4877 65.6648 39.2872 65.4005 39.1414C65.1407 38.9955 64.8354 38.9226 64.4845 38.9226C64.1381 38.9226 63.8328 38.9955 63.5685 39.1414C63.3087 39.2872 63.09 39.4877 62.9122 39.7429C62.739 39.9936 62.6092 40.283 62.5226 40.6111C62.436 40.9347 62.3927 41.2787 62.3927 41.6433ZM73.092 39.5994V45.4167H71.8274V38.0203H73.0237L73.092 39.5994ZM72.7913 41.4382L72.2649 41.4177C72.2694 40.9119 72.3446 40.4447 72.4905 40.0164C72.6363 39.5834 72.8414 39.2074 73.1057 38.8884C73.37 38.5694 73.6845 38.3233 74.0491 38.1501C74.4182 37.9724 74.8261 37.8835 75.2727 37.8835C75.6373 37.8835 75.9654 37.9337 76.2571 38.0339C76.5487 38.1296 76.7971 38.2846 77.0022 38.4988C77.2118 38.713 77.3713 38.991 77.4807 39.3328C77.5901 39.67 77.6448 40.0824 77.6448 40.5701V45.4167H76.3733V40.5564C76.3733 40.169 76.3163 39.8591 76.2024 39.6267C76.0885 39.3897 75.9221 39.2188 75.7034 39.114C75.4846 39.0046 75.2157 38.95 74.8967 38.95C74.5823 38.95 74.2952 39.016 74.0354 39.1482C73.7802 39.2804 73.5592 39.4626 73.3723 39.6951C73.19 39.9275 73.0465 40.1941 72.9416 40.4949C72.8414 40.7911 72.7913 41.1056 72.7913 41.4382ZM86.2523 43.4548C86.2523 43.2725 86.2113 43.1039 86.1293 42.949C86.0518 42.7895 85.89 42.6459 85.6439 42.5183C85.4024 42.3861 85.0378 42.2722 84.5502 42.1765C84.14 42.0899 83.7686 41.9874 83.4359 41.8689C83.1078 41.7504 82.8275 41.6069 82.5951 41.4382C82.3672 41.2696 82.1918 41.0714 82.0687 40.8435C81.9457 40.6156 81.8841 40.349 81.8841 40.0437C81.8841 39.752 81.9479 39.4763 82.0755 39.2166C82.2077 38.9568 82.3923 38.7266 82.6293 38.5261C82.8708 38.3256 83.1602 38.1684 83.4974 38.0544C83.8347 37.9405 84.2106 37.8835 84.6254 37.8835C85.2178 37.8835 85.7237 37.9884 86.1429 38.198C86.5622 38.4076 86.8835 38.6879 87.1068 39.0388C87.3301 39.3852 87.4418 39.7703 87.4418 40.1941H86.1771C86.1771 39.989 86.1156 39.7908 85.9925 39.5994C85.874 39.4034 85.6986 39.2416 85.4662 39.114C85.2383 38.9864 84.958 38.9226 84.6254 38.9226C84.2744 38.9226 83.9896 38.9773 83.7709 39.0867C83.5567 39.1915 83.3994 39.3259 83.2992 39.49C83.2035 39.6541 83.1556 39.8272 83.1556 40.0095C83.1556 40.1462 83.1784 40.2693 83.224 40.3787C83.2741 40.4835 83.3607 40.5815 83.4837 40.6726C83.6068 40.7592 83.78 40.8412 84.0033 40.9187C84.2266 40.9962 84.5114 41.0736 84.8578 41.1511C85.4639 41.2878 85.9629 41.4519 86.3548 41.6433C86.7468 41.8347 87.0384 42.0694 87.2298 42.3474C87.4212 42.6254 87.517 42.9626 87.517 43.3591C87.517 43.6827 87.4486 43.9789 87.3119 44.2478C87.1797 44.5167 86.986 44.7491 86.7308 44.9451C86.4802 45.1365 86.1794 45.2869 85.8285 45.3962C85.4821 45.5011 85.0925 45.5535 84.6595 45.5535C84.0078 45.5535 83.4564 45.4373 83.0052 45.2048C82.5541 44.9724 82.2123 44.6716 81.9798 44.3025C81.7474 43.9333 81.6312 43.5437 81.6312 43.1335H82.9027C82.9209 43.4799 83.0212 43.7556 83.2035 43.9607C83.3858 44.1612 83.6091 44.3048 83.8734 44.3914C84.1377 44.4734 84.3998 44.5144 84.6595 44.5144C85.0059 44.5144 85.2953 44.4688 85.5277 44.3777C85.7647 44.2865 85.9447 44.1612 86.0677 44.0017C86.1908 43.8422 86.2523 43.6599 86.2523 43.4548ZM94.6548 38.0203V38.991H90.6557V38.0203H94.6548ZM92.0093 36.2224H93.2739V43.5847C93.2739 43.8354 93.3126 44.0245 93.3901 44.1521C93.4676 44.2797 93.5679 44.364 93.6909 44.405C93.8139 44.446 93.9461 44.4666 94.0874 44.4666C94.1922 44.4666 94.3016 44.4574 94.4155 44.4392C94.534 44.4164 94.6229 44.3982 94.6821 44.3845L94.6889 45.4167C94.5887 45.4486 94.4565 45.4783 94.2925 45.5056C94.133 45.5375 93.9393 45.5535 93.7114 45.5535C93.4015 45.5535 93.1167 45.4919 92.8569 45.3689C92.5971 45.2458 92.3898 45.0408 92.2348 44.7537C92.0845 44.462 92.0093 44.0701 92.0093 43.5779V36.2224ZM99.7828 39.1824V45.4167H98.5182V38.0203H99.7486L99.7828 39.1824ZM102.093 37.9792L102.087 39.155C101.982 39.1322 101.881 39.1186 101.786 39.114C101.695 39.1049 101.59 39.1003 101.471 39.1003C101.18 39.1003 100.922 39.1459 100.699 39.2371C100.476 39.3282 100.286 39.4558 100.131 39.6199C99.9765 39.7839 99.8535 39.9799 99.7623 40.2078C99.6757 40.4311 99.6188 40.6772 99.5914 40.946L99.2359 41.1511C99.2359 40.7045 99.2792 40.2852 99.3658 39.8933C99.457 39.5014 99.596 39.155 99.7828 38.8542C99.9697 38.5489 100.207 38.3119 100.494 38.1433C100.785 37.9701 101.132 37.8835 101.533 37.8835C101.624 37.8835 101.729 37.8949 101.847 37.9177C101.966 37.936 102.048 37.9565 102.093 37.9792ZM110.168 43.7078V38.0203H111.439V45.4167H110.229L110.168 43.7078ZM110.407 42.1492L110.933 42.1355C110.933 42.6277 110.881 43.0834 110.776 43.5027C110.676 43.9174 110.512 44.2774 110.284 44.5828C110.056 44.8881 109.758 45.1274 109.388 45.3005C109.019 45.4692 108.57 45.5535 108.042 45.5535C107.682 45.5535 107.351 45.5011 107.051 45.3962C106.754 45.2914 106.499 45.1296 106.285 44.9109C106.071 44.6921 105.904 44.4073 105.786 44.0564C105.672 43.7055 105.615 43.2839 105.615 42.7917V38.0203H106.88V42.8054C106.88 43.1381 106.916 43.4138 106.989 43.6326C107.066 43.8468 107.169 44.0177 107.297 44.1453C107.429 44.2683 107.575 44.3549 107.734 44.405C107.898 44.4552 108.067 44.4802 108.24 44.4802C108.778 44.4802 109.204 44.3777 109.518 44.1726C109.833 43.963 110.058 43.6827 110.195 43.3318C110.336 42.9763 110.407 42.5821 110.407 42.1492ZM118.707 44.5144C119.008 44.5144 119.286 44.4529 119.541 44.3298C119.796 44.2068 120.006 44.0382 120.17 43.824C120.334 43.6052 120.427 43.3569 120.45 43.0789H121.653C121.63 43.5164 121.482 43.9242 121.209 44.3025C120.94 44.6762 120.587 44.9792 120.149 45.2117C119.712 45.4395 119.231 45.5535 118.707 45.5535C118.151 45.5535 117.666 45.4555 117.251 45.2595C116.841 45.0636 116.499 44.7947 116.225 44.4529C115.957 44.1111 115.754 43.7192 115.617 43.2771C115.485 42.8305 115.419 42.3588 115.419 41.8621V41.575C115.419 41.0782 115.485 40.6088 115.617 40.1667C115.754 39.7201 115.957 39.3259 116.225 38.9841C116.499 38.6423 116.841 38.3735 117.251 38.1775C117.666 37.9815 118.151 37.8835 118.707 37.8835C119.286 37.8835 119.792 38.002 120.224 38.239C120.657 38.4714 120.997 38.7904 121.243 39.196C121.494 39.5971 121.63 40.0528 121.653 40.5632H120.45C120.427 40.2579 120.341 39.9822 120.19 39.7361C120.044 39.49 119.844 39.294 119.589 39.1482C119.338 38.9978 119.044 38.9226 118.707 38.9226C118.32 38.9226 117.994 39.0001 117.729 39.155C117.47 39.3054 117.262 39.5105 117.107 39.7703C116.957 40.0255 116.848 40.3103 116.779 40.6248C116.715 40.9347 116.683 41.2514 116.683 41.575V41.8621C116.683 42.1856 116.715 42.5046 116.779 42.8191C116.843 43.1335 116.95 43.4184 117.1 43.6736C117.255 43.9288 117.463 44.1339 117.723 44.2888C117.987 44.4392 118.315 44.5144 118.707 44.5144ZM128.552 38.0203V38.991H124.553V38.0203H128.552ZM125.906 36.2224H127.171V43.5847C127.171 43.8354 127.21 44.0245 127.287 44.1521C127.365 44.2797 127.465 44.364 127.588 44.405C127.711 44.446 127.843 44.4666 127.984 44.4666C128.089 44.4666 128.199 44.4574 128.312 44.4392C128.431 44.4164 128.52 44.3982 128.579 44.3845L128.586 45.4167C128.486 45.4486 128.353 45.4783 128.189 45.5056C128.03 45.5375 127.836 45.5535 127.608 45.5535C127.298 45.5535 127.014 45.4919 126.754 45.3689C126.494 45.2458 126.287 45.0408 126.132 44.7537C125.981 44.462 125.906 44.0701 125.906 43.5779V36.2224ZM133.789 38.0203V45.4167H132.518V38.0203H133.789ZM132.422 36.0583C132.422 35.8533 132.483 35.6801 132.607 35.5388C132.734 35.3975 132.921 35.3269 133.167 35.3269C133.409 35.3269 133.593 35.3975 133.721 35.5388C133.853 35.6801 133.919 35.8533 133.919 36.0583C133.919 36.2543 133.853 36.4229 133.721 36.5642C133.593 36.7009 133.409 36.7693 133.167 36.7693C132.921 36.7693 132.734 36.7009 132.607 36.5642C132.483 36.4229 132.422 36.2543 132.422 36.0583ZM137.864 41.8005V41.6433C137.864 41.1101 137.942 40.6156 138.097 40.1599C138.252 39.6996 138.475 39.3009 138.767 38.9636C139.058 38.6218 139.412 38.3575 139.826 38.1707C140.241 37.9792 140.706 37.8835 141.221 37.8835C141.74 37.8835 142.208 37.9792 142.622 38.1707C143.042 38.3575 143.397 38.6218 143.689 38.9636C143.985 39.3009 144.21 39.6996 144.365 40.1599C144.52 40.6156 144.598 41.1101 144.598 41.6433V41.8005C144.598 42.3337 144.52 42.8282 144.365 43.2839C144.21 43.7397 143.985 44.1384 143.689 44.4802C143.397 44.8175 143.044 45.0818 142.629 45.2732C142.219 45.46 141.754 45.5535 141.235 45.5535C140.715 45.5535 140.248 45.46 139.833 45.2732C139.418 45.0818 139.063 44.8175 138.767 44.4802C138.475 44.1384 138.252 43.7397 138.097 43.2839C137.942 42.8282 137.864 42.3337 137.864 41.8005ZM139.129 41.6433V41.8005C139.129 42.1697 139.172 42.5183 139.259 42.8464C139.346 43.17 139.475 43.4571 139.649 43.7078C139.826 43.9584 140.047 44.1567 140.312 44.3025C140.576 44.4438 140.884 44.5144 141.235 44.5144C141.581 44.5144 141.884 44.4438 142.144 44.3025C142.408 44.1567 142.627 43.9584 142.8 43.7078C142.973 43.4571 143.103 43.17 143.19 42.8464C143.281 42.5183 143.326 42.1697 143.326 41.8005V41.6433C143.326 41.2787 143.281 40.9347 143.19 40.6111C143.103 40.283 142.971 39.9936 142.793 39.7429C142.62 39.4877 142.401 39.2872 142.137 39.1414C141.877 38.9955 141.572 38.9226 141.221 38.9226C140.875 38.9226 140.569 38.9955 140.305 39.1414C140.045 39.2872 139.826 39.4877 139.649 39.7429C139.475 39.9936 139.346 40.283 139.259 40.6111C139.172 40.9347 139.129 41.2787 139.129 41.6433ZM149.828 39.5994V45.4167H148.564V38.0203H149.76L149.828 39.5994ZM149.528 41.4382L149.001 41.4177C149.006 40.9119 149.081 40.4447 149.227 40.0164C149.373 39.5834 149.578 39.2074 149.842 38.8884C150.106 38.5694 150.421 38.3233 150.785 38.1501C151.155 37.9724 151.562 37.8835 152.009 37.8835C152.374 37.8835 152.702 37.9337 152.993 38.0339C153.285 38.1296 153.534 38.2846 153.739 38.4988C153.948 38.713 154.108 38.991 154.217 39.3328C154.326 39.67 154.381 40.0824 154.381 40.5701V45.4167H153.11V40.5564C153.11 40.169 153.053 39.8591 152.939 39.6267C152.825 39.3897 152.659 39.2188 152.44 39.114C152.221 39.0046 151.952 38.95 151.633 38.95C151.319 38.95 151.032 39.016 150.772 39.1482C150.517 39.2804 150.296 39.4626 150.109 39.6951C149.926 39.9275 149.783 40.1941 149.678 40.4949C149.578 40.7911 149.528 41.1056 149.528 41.4382Z" fill="#FD5D14"/>
</svg>
