<svg width="58" height="48" viewBox="0 0 58 48" fill="none" xmlns="http://www.w3.org/2000/svg">
<path d="M57.9486 25.1034C57.912 25.0732 57.8588 25.0637 57.8173 25.0776C57.7667 25.0931 57.7204 25.1066 57.6766 25.1193L57.6552 25.1256C57.5474 25.157 57.4542 25.184 57.3619 25.221C55.9035 25.799 54.7553 26.7892 53.8517 28.2482C53.6285 28.6086 53.4557 28.9833 53.318 29.357C53.5437 28.1001 53.5961 27.6104 53.6361 26.204C53.638 26.145 53.638 26.0849 53.638 26.0253C53.638 25.8626 53.638 25.7089 53.6736 25.5687C53.7163 25.4025 53.8022 25.2368 53.8854 25.0764C53.9088 25.031 53.9322 24.9856 53.9515 24.9458C53.9582 24.9379 53.9799 24.9247 53.9883 24.9234C54.4054 24.8599 54.7742 24.6833 55.1161 24.3836C55.4607 24.0801 55.744 23.7086 55.9584 23.2791C56.728 21.7397 57.1131 20.0381 57.1034 18.2224C57.1025 18.0472 57.0819 17.8767 57.0592 17.6912C57.0489 17.6081 57.0384 17.5231 57.0297 17.4351C57.0247 17.3868 56.9949 17.3439 56.9518 17.323C56.9092 17.3024 56.8577 17.3039 56.8147 17.3299C56.7887 17.3461 56.7664 17.3593 56.7462 17.371C56.7071 17.3942 56.6773 17.4124 56.6491 17.4327C55.9926 17.9021 55.4136 18.4864 54.9279 19.1691C54.1353 20.285 53.6743 21.5467 53.5501 22.9347C53.5378 22.7799 53.5253 22.6252 53.5128 22.4705L53.5084 22.4144C53.4597 21.8078 53.4094 21.1805 53.3684 20.5637C53.3581 20.4075 53.328 20.2555 53.2989 20.1085C53.2428 19.8259 53.1898 19.5589 53.2747 19.2792C53.294 19.216 53.3103 19.1523 53.3265 19.0888C53.3667 18.9315 53.5605 18.6891 53.858 18.4242L53.8692 18.4142C53.979 18.3214 54.5428 17.8069 54.8626 16.7893C55.1872 15.7554 55.1626 14.6751 55.1448 13.8862L55.1443 13.8652C55.1205 12.7808 55.003 11.9637 54.7634 11.2153C54.7325 11.1196 54.6957 11.0252 54.6567 10.926C54.6365 10.8744 54.6159 10.8211 54.5947 10.7652C54.5772 10.718 54.5354 10.6836 54.4864 10.6755L54.4624 10.6733C54.4199 10.6733 54.3802 10.6923 54.3533 10.7251L54.1206 11.008C53.0047 12.3655 52.4565 13.9577 52.4908 15.7404C52.4968 16.0544 52.5203 16.3764 52.562 16.7089C52.2784 15.7326 51.9458 14.7822 51.5675 13.868C51.5597 13.8479 51.5546 13.8231 51.554 13.8021L51.5514 13.6771C51.5475 13.4967 51.5434 13.3101 51.5511 13.1265C51.5522 13.0961 51.572 13.0414 51.6132 12.9876C51.6716 12.9106 51.7364 12.8354 51.8036 12.7571C51.918 12.6242 52.0362 12.4871 52.1298 12.3304C52.4313 11.8267 52.5729 11.2316 52.5753 10.4574C52.5793 9.54602 52.4385 8.58694 52.1314 7.43892C51.9637 6.81263 51.7104 5.999 51.2388 5.26135C51.2068 5.21176 51.1711 5.16506 51.133 5.11562C51.1158 5.09372 51.0978 5.07037 51.0795 5.04529C51.0527 5.00947 51.0158 4.98859 50.9562 4.98859C50.9087 4.99207 50.8662 5.01904 50.8425 5.06095C50.2506 6.12661 49.9557 7.26506 49.9418 8.54141C49.9299 9.60562 50.0965 10.5213 50.3054 11.2451C49.7737 10.2763 49.1829 9.34025 48.5425 8.45237L48.5279 8.43222C48.5133 8.41293 48.5072 8.40351 48.5082 8.41018C48.468 8.12292 48.4401 7.89308 48.4207 7.69297C48.4212 7.68993 48.4249 7.67311 48.4549 7.62322C48.4972 7.5513 48.5436 7.48083 48.5928 7.40629C48.6917 7.25636 48.7938 7.1012 48.8592 6.92748C49.0566 6.40313 49.1009 5.80846 48.9944 5.11011C48.7605 3.56448 48.0773 2.1727 46.9065 0.85502C46.786 0.719728 46.6528 0.600097 46.5119 0.473651L46.473 0.438414C46.4179 0.388677 46.3613 0.33778 46.3042 0.283982C46.2679 0.24947 46.2158 0.236565 46.1654 0.251356C46.1177 0.266436 46.0809 0.305878 46.0696 0.35489L46.044 0.466836C46.0265 0.54108 46.013 0.599662 46.003 0.658535C45.8454 1.59673 45.8569 2.60163 46.0383 3.73094C46.2183 4.85098 46.5769 5.81702 47.1272 6.65617C46.302 5.68637 45.4994 4.87201 44.6606 4.15031C44.6568 4.14538 44.6513 4.13044 44.6509 4.12667C44.7164 3.56332 44.5771 3.03259 44.2248 2.50419C43.762 1.80975 43.119 1.28047 42.3137 0.931294C41.8317 0.722774 41.3324 0.53818 40.8435 0.357356C40.6093 0.270642 40.3751 0.184217 40.1339 0.0915578C39.8916 -0.00458188 39.7879 -0.0216928 39.7316 0.0302198C39.6592 0.097503 39.6767 0.154926 39.7082 0.259331L39.7184 0.293407C40.014 1.28642 40.4062 2.07177 40.9178 2.69429C41.8569 3.83825 42.9552 4.41944 44.2738 4.47077C44.32 4.47353 44.3566 4.48629 44.3716 4.49789C44.5572 4.63651 44.6939 4.74744 44.8147 4.85736C45.1967 5.20567 45.573 5.57674 45.9411 5.96753C45.3936 5.62822 44.7244 5.47509 43.9708 5.51308C43.5584 5.53382 43.149 5.59414 42.7531 5.65243L42.738 5.65475C42.621 5.67186 42.5045 5.68883 42.3884 5.70522C42.134 5.73958 41.8775 5.78453 41.651 5.82398C41.5593 5.84036 41.3402 5.8901 41.2898 5.9961C41.2723 6.03235 41.2738 6.07208 41.2936 6.10819C41.311 6.13966 41.3302 6.16924 41.3511 6.19621C42.0049 7.04233 42.7507 7.59959 43.631 7.89961C44.7045 8.26735 45.6904 8.23704 46.5763 7.80448C46.7118 7.73009 46.8752 7.69239 47.0619 7.69239C47.2028 7.69239 47.3085 7.71458 47.3435 7.72255C47.396 7.73125 47.4672 7.76055 47.4817 7.7794C48.0327 8.50197 48.5556 9.27369 49.0439 10.0844C48.6314 9.68421 48.0933 9.41435 47.3604 9.2386C46.7179 9.08591 46.0611 9.05314 45.4261 9.02124L45.2135 9.01051C45.0143 9.00036 44.8151 8.98774 44.61 8.97483L44.266 8.95366C44.2216 8.95366 44.1793 8.97513 44.1534 9.0108C44.1247 9.04922 44.1179 9.09911 44.1348 9.14391C44.1486 9.18132 44.1737 9.2473 44.1867 9.26934C44.8564 10.3868 45.6429 11.1597 46.5907 11.6324C47.5174 12.0941 48.3546 12.2162 49.1991 12.0148C49.2968 11.9913 49.41 11.9788 49.527 11.9788C49.8862 11.9788 50.1367 12.0881 50.1894 12.1894C50.654 13.1454 51.0686 14.1388 51.4262 15.1521C51.0511 14.6363 50.5266 14.2174 49.8626 13.9041C49.2028 13.5935 48.5159 13.3095 47.8401 13.0301C47.5496 12.9103 47.258 12.7901 46.9677 12.6671C46.9245 12.6483 46.8735 12.6522 46.8332 12.6788C46.7937 12.705 46.7701 12.7488 46.7701 12.7959C46.7701 12.8864 47.734 15.5547 49.1338 16.6061C49.7048 17.0351 50.4081 17.4763 51.2951 17.497C51.5605 17.5024 51.835 17.5398 52.0423 17.7749C52.074 17.8123 52.116 17.8414 52.1618 17.857C52.2326 17.8802 52.2521 17.9234 52.287 18.0707C52.5742 19.2737 52.7834 20.5136 52.9122 21.7727C52.8733 21.645 52.8281 21.5159 52.7762 21.3853C52.4629 20.5928 51.9356 19.8994 51.1169 19.2029C50.6948 18.8424 50.2529 18.4934 49.8255 18.1557L49.8051 18.1397C49.6105 17.9859 49.4163 17.8326 49.2226 17.6774C49.1826 17.6454 49.1437 17.6123 49.0985 17.5738L48.9777 17.4705C48.9354 17.4348 48.8724 17.4274 48.823 17.4521C48.7722 17.4778 48.7419 17.5308 48.7458 17.5875C48.7517 17.6726 48.7565 17.7531 48.761 17.8304L48.7634 17.8665C48.773 18.0256 48.782 18.1757 48.7981 18.3239C48.9496 19.7668 49.3798 20.9716 50.1132 22.0068C50.5672 22.6467 51.2185 23.4288 52.2341 23.7988C52.4812 23.8892 52.6604 24.0263 52.8525 24.2722C53.0336 24.5025 53.0673 24.7129 53.0633 24.9777C53.046 26.0868 52.9668 27.1871 52.827 28.2647C52.7943 27.9648 52.7251 27.6561 52.6189 27.3353C52.3989 26.6712 52.0561 26.0255 51.5707 25.3614C51.1517 24.7863 50.7158 24.2091 50.2942 23.6507L50.2661 23.6134C50.0989 23.3923 49.9319 23.1709 49.7692 22.9542C49.7387 22.9097 49.6946 22.8938 49.6692 22.8849C49.6332 22.8674 49.5901 22.8656 49.5519 22.8819C49.5144 22.8978 49.4856 22.9293 49.4729 22.9679L49.468 22.983C49.461 23.0033 49.4555 23.0212 49.4526 23.0392C49.1618 24.7686 49.3402 26.318 49.9978 27.7764C50.3189 28.4896 50.7496 29.297 51.5091 29.8779C51.8558 30.1431 52.1295 30.5152 52.2799 30.9254C52.3117 31.0137 52.3105 31.052 52.3069 31.0668C51.9855 32.3948 51.5656 33.6756 51.0552 34.8879C51.1866 34.249 51.1776 33.5779 51.0276 32.8826C50.8146 31.8971 50.4486 30.9421 50.122 30.1243L50.0242 29.8793C49.8711 29.4961 49.717 29.1098 49.5578 28.7094C49.5376 28.6582 49.4889 28.6233 49.424 28.6201C49.3728 28.6201 49.3257 28.6492 49.3013 28.6965L49.2499 28.7928C49.2274 28.835 49.2063 28.8743 49.1883 28.9149C48.5315 30.3931 48.3097 31.9084 48.5293 33.4188C48.6863 34.4988 48.9524 35.2722 49.392 35.9264C49.6195 36.2646 49.8357 36.6413 49.8749 37.1046C49.8842 37.2142 49.8798 37.2898 49.8309 37.3758C49.2764 38.3443 48.6548 39.2583 47.974 40.1074C47.9766 40.1028 47.9791 40.0981 47.9817 40.0935C48.4715 39.2007 48.4863 38.2354 48.4363 37.4087C48.3931 36.7 48.3117 35.9924 48.2333 35.3083L48.2288 35.2687C48.1973 34.9946 48.1659 34.7207 48.1372 34.4462C48.1207 34.2906 48.1022 34.135 48.0832 33.9771L48.058 33.7634C48.0525 33.7161 48.0236 33.6752 47.982 33.6546C47.9046 33.6143 47.7795 33.6765 47.6443 33.836C46.7152 34.9321 46.1386 36.1708 45.9304 37.5177C45.7146 38.9143 45.8316 40.1094 46.2887 41.1715C46.3009 41.1998 46.3006 41.2575 46.3004 41.2768L46.2759 41.8878C46.2722 41.9317 46.249 41.9813 46.2298 41.9998C45.302 42.891 44.2806 43.6657 43.1845 44.3106C43.7033 43.8428 44.0763 43.2325 44.3181 42.459C44.586 41.6017 44.7235 40.7095 44.8568 39.8444L44.8685 39.7674C44.9157 39.4634 44.965 39.1601 45.0153 38.8501L45.0721 38.4996C45.0803 38.4485 45.0601 38.3975 45.0204 38.3669C44.981 38.3356 44.924 38.328 44.8787 38.3475L44.8291 38.3679C44.7762 38.3895 44.7301 38.4088 44.6866 38.431C42.6144 39.4633 41.2504 41.871 41.4431 44.1557C41.4734 44.5136 41.4405 44.8497 41.3425 45.1827C41.3334 45.213 41.304 45.2459 41.2921 45.2514C40.3079 45.6654 39.3721 45.9674 38.4305 46.1748C38.3821 46.186 38.3438 46.2205 38.3281 46.267C38.3122 46.3139 38.3218 46.3648 38.3541 46.403C38.4564 46.524 38.5455 46.654 38.6188 46.7902C38.6489 46.8459 38.7206 46.8745 38.7742 46.8605C39.5414 46.6859 40.2884 46.4599 40.9954 46.1881C41.0525 46.1652 41.0961 46.1544 41.137 46.161C41.2943 46.1819 41.4605 46.2141 41.6449 46.2598C41.683 46.2691 41.7146 46.2866 41.7151 46.285C42.1181 47.0863 42.8107 47.5967 43.8331 47.8451C44.0555 47.8984 44.2849 47.9376 44.5149 47.9617C44.7557 47.9871 45.0242 48 45.3127 48C45.7125 48 45.9976 47.9754 46.0011 47.9751C46.8873 47.8762 47.6441 47.6772 48.3145 47.3668C48.5895 47.2396 48.9029 47.0683 49.1438 46.7625C49.1899 46.7039 49.1822 46.6194 49.1262 46.5702C48.4453 45.9709 47.752 45.5355 47.0064 45.2391C45.9017 44.8011 44.8954 44.6825 43.909 44.8718C43.7616 44.9003 43.6177 44.9363 43.4778 44.9776C44.4005 44.4275 45.284 43.7809 46.1183 43.0442C46.1343 43.0297 46.1606 43.017 46.1811 43.0134C46.3176 42.9907 46.4989 42.9629 46.6844 42.9496C46.7015 42.9496 46.7233 42.9578 46.7258 42.9587C47.2285 43.5199 47.8761 43.7926 48.7058 43.7926C48.7481 43.7926 48.7906 43.7918 48.8329 43.7903C49.7349 43.7613 50.6418 43.5141 51.5287 43.0551C52.1733 42.7197 52.8452 42.3292 53.3901 41.7469C53.5109 41.6174 53.6188 41.4709 53.714 41.3417L53.7233 41.3291C53.7654 41.2721 53.808 41.2147 53.8518 41.158C53.8756 41.1274 53.8857 41.088 53.8794 41.0482C53.8727 41.0099 53.8505 40.9759 53.8125 40.9512C53.8029 40.946 53.5722 40.8226 53.3616 40.7412C51.9512 40.1976 50.5272 40.1419 49.1688 40.5785C48.7241 40.7211 48.3056 40.9351 47.8981 41.2309C48.6517 40.3571 49.3495 39.3992 49.9831 38.3685C49.9899 38.3576 50.0079 38.3282 50.0137 38.3228C50.0691 38.2876 50.1258 38.2542 50.1824 38.2213C50.2837 38.162 50.3887 38.1007 50.4872 38.0276C50.5704 37.9657 50.5938 37.9641 50.6778 38.018C50.7967 38.095 50.935 38.135 51.0555 38.1665C51.7606 38.3466 52.4713 38.2568 53.2575 37.8887C53.9757 37.5528 54.5278 37.022 55.0177 36.4985C55.7303 35.7349 56.196 35.0459 56.4832 34.3302C56.5436 34.18 56.5866 34.0247 56.6314 33.8622C56.6498 33.7941 56.6687 33.7259 56.6888 33.659C56.7107 33.587 56.6724 33.5109 56.6011 33.4858L56.5421 33.4813C56.2515 33.4813 53.6592 33.5238 52.1429 34.9913C51.8131 35.3106 51.5174 35.6499 51.2474 36.0214C51.8472 34.7543 52.3559 33.419 52.7658 32.0328L52.7718 32.0125C52.7767 31.9956 52.7842 31.9699 52.7891 31.9629L53.1857 31.4197C53.2005 31.398 53.2023 31.398 53.2255 31.398C53.2358 31.398 53.2472 31.3987 53.2601 31.3994L53.3449 31.4045C53.64 31.4228 53.8137 31.4202 53.9566 31.3979C54.5212 31.309 55.0309 31.0253 55.5146 30.5306C56.6458 29.3734 57.4244 27.9297 57.8948 26.1174C57.9453 25.9233 57.9594 25.7272 57.9745 25.5193C57.9812 25.425 57.9886 25.3279 57.9993 25.2275C58.0039 25.1794 57.985 25.1334 57.9486 25.1034Z" fill="#1A747B"/>
<path d="M19.5692 46.173C18.6285 45.9658 17.6929 45.6638 16.7084 45.2498C16.6966 45.2443 16.6674 45.2114 16.6583 45.1818C16.5601 44.8481 16.5273 44.512 16.5575 44.1541C16.7503 41.8692 15.3862 39.4617 13.3145 38.4295C13.2704 38.4072 13.2245 38.3879 13.1716 38.3663L13.1224 38.346C13.0758 38.3261 13.0189 38.3344 12.9813 38.3646C12.9406 38.3959 12.9204 38.4469 12.9287 38.4981L12.9854 38.8485C13.0357 39.1585 13.0849 39.4618 13.1322 39.7655L13.1441 39.8449C13.2771 40.7079 13.4146 41.6003 13.6826 42.4575C13.9243 43.231 14.2974 43.8413 14.8162 44.309C13.7201 43.6643 12.6987 42.8895 11.771 41.9984C11.7516 41.9797 11.7284 41.9301 11.7251 41.8892L11.7002 41.2778C11.7001 41.256 11.6998 41.1983 11.7122 41.1697C12.1691 40.108 12.2861 38.9128 12.0702 37.5163C11.862 36.1693 11.2855 34.9307 10.3564 33.8345C10.2476 33.7062 10.1517 33.6412 10.0712 33.6412C10.0515 33.6412 10.0338 33.6452 10.0198 33.6524C9.9771 33.6736 9.94817 33.7146 9.9425 33.762L9.91764 33.9753C9.89845 34.1337 9.87999 34.2891 9.86342 34.4449C9.83478 34.7192 9.80338 34.9932 9.77183 35.2672L9.76733 35.3068C9.68882 35.9911 9.60741 36.6987 9.56438 37.4072C9.51437 38.2338 9.5292 39.1991 10.019 40.092C10.0216 40.0965 10.0239 40.1013 10.0265 40.1058C9.34574 39.2566 8.72426 38.3428 8.1698 37.3745C8.12081 37.2883 8.11659 37.2128 8.12575 37.1031C8.16515 36.6396 8.38117 36.2628 8.60869 35.925C9.04815 35.2707 9.31419 34.4974 9.47134 33.4174C9.691 31.907 9.46916 30.3918 8.81236 28.9136C8.79433 28.8728 8.77325 28.8335 8.75072 28.7913L8.6994 28.6948C8.67483 28.6476 8.62235 28.6166 8.56696 28.6191C8.51172 28.622 8.46302 28.6569 8.44296 28.7077C8.28363 29.1085 8.12953 29.4946 7.97645 29.8779L7.87861 30.1228C7.5521 30.9408 7.1859 31.8958 6.97307 32.8811C6.82304 33.5764 6.81388 34.2475 6.94545 34.8864C6.43489 33.6743 6.01519 32.3935 5.69377 31.0653C5.69013 31.0506 5.68897 31.0123 5.72081 30.924C5.87113 30.5136 6.14487 30.1415 6.49173 29.8763C7.25103 29.2954 7.68177 28.488 8.00291 27.7748C8.66044 26.3164 8.83881 24.767 8.54806 23.0378C8.54501 23.0196 8.53949 23.0016 8.53295 22.9821L8.52771 22.9664C8.51506 22.9277 8.48628 22.8964 8.44819 22.88C8.41098 22.8645 8.36417 22.8674 8.33524 22.8816C8.30616 22.8922 8.26211 22.9083 8.23347 22.9502C8.06891 23.1694 7.90187 23.3907 7.73469 23.6118L7.70663 23.6491C7.28504 24.2075 6.84906 24.7847 6.43009 25.3596C5.94469 26.0239 5.60189 26.6696 5.38194 27.3337C5.27581 27.6545 5.20647 27.9632 5.17376 28.2631C5.03406 27.1855 4.95483 26.0854 4.93753 24.9761C4.93346 24.7113 4.96718 24.5009 5.14847 24.2705C5.34036 24.0248 5.51961 23.8876 5.76675 23.7972C6.78219 23.4271 7.43362 22.6451 7.88762 22.0052C8.62104 20.97 9.05121 19.7654 9.20269 18.3226C9.21883 18.1741 9.22798 18.0238 9.23743 17.8649L9.23976 17.8288C9.24427 17.7515 9.24906 17.671 9.25517 17.5858C9.25895 17.5292 9.22857 17.4762 9.17783 17.4505C9.12869 17.4258 9.06575 17.4331 9.023 17.4692L8.90249 17.5721C8.85713 17.6107 8.81832 17.6438 8.77805 17.676C8.58455 17.831 8.39033 17.9844 8.19567 18.1383L8.17532 18.1542C7.74806 18.4918 7.30612 18.8408 6.8841 19.2013C6.0652 19.8979 5.53793 20.5913 5.22464 21.3838C5.17289 21.5145 5.12753 21.6437 5.08857 21.7716C5.21737 20.5123 5.42657 19.2722 5.71383 18.0691C5.74872 17.9219 5.7682 17.8787 5.83987 17.8552C5.88494 17.84 5.92695 17.8107 5.95762 17.7744C6.16595 17.5382 6.44027 17.5008 6.70602 17.4954C7.5928 17.4747 8.29613 17.0334 8.86702 16.6045C10.2668 15.5529 11.2307 12.8848 11.2307 12.7943C11.2307 12.7472 11.2071 12.7032 11.1671 12.6767C11.1277 12.6508 11.0745 12.6471 11.0344 12.665C10.7428 12.7884 10.4512 12.9086 10.1492 13.0331C9.48486 13.3079 8.79796 13.5919 8.13825 13.9023C7.47432 14.2157 6.94966 14.6347 6.5746 15.1504C6.93207 14.1372 7.34654 13.1439 7.81058 12.1893C7.86393 12.0864 8.11456 11.9771 8.47392 11.9771C8.5908 11.9771 8.70405 11.9895 8.80189 12.013C9.64623 12.2149 10.4834 12.0925 11.4101 11.6306C12.3581 11.1579 13.1445 10.385 13.8144 9.26716C13.8272 9.24555 13.8524 9.17958 13.8659 9.1426C13.8829 9.09736 13.8761 9.04747 13.8479 9.00963C13.8217 8.97367 13.7798 8.9522 13.7265 8.9522H13.7253L13.3907 8.97323C13.1855 8.98614 12.9864 8.99875 12.7872 9.0089L12.5745 9.01963C11.9395 9.05153 11.2827 9.08431 10.6402 9.237C9.90732 9.41275 9.36929 9.68261 8.95671 10.0828C9.44503 9.27209 9.96794 8.50065 10.5188 7.77808C10.5336 7.75894 10.6047 7.72965 10.663 7.71993C10.6921 7.71312 10.7979 7.69093 10.9386 7.69093C11.1253 7.69093 11.2887 7.72878 11.4272 7.80476C12.3075 8.23413 13.296 8.26603 14.3693 7.89829C15.2497 7.59827 15.9953 7.04101 16.649 6.19519C16.6702 6.16792 16.6894 6.1382 16.7068 6.10688C16.7267 6.07077 16.728 6.03104 16.7106 5.99479C16.66 5.88893 16.4411 5.83919 16.3489 5.82266C16.1227 5.78322 15.8664 5.73827 15.6123 5.7039C15.4958 5.68766 15.3792 5.67069 15.2624 5.65344L15.2474 5.65112C14.8514 5.59283 14.442 5.5325 14.0296 5.51177C13.276 5.47334 12.6068 5.62676 12.0592 5.96636C12.4274 5.57543 12.8036 5.2045 13.1857 4.85605C13.3065 4.74613 13.4431 4.63534 13.6294 4.49628C13.6438 4.48526 13.6804 4.47236 13.7253 4.46975C15.0452 4.41827 16.1435 3.83708 17.0826 2.69327C17.5942 2.07061 17.9864 1.28525 18.2819 0.292239L18.2921 0.258163C18.3237 0.153757 18.3411 0.0963344 18.2686 0.0290511C18.2126 -0.0228614 18.114 -0.00749022 17.8579 0.0937247C17.6253 0.182904 17.3912 0.269473 17.1509 0.358363C16.6681 0.536866 16.1688 0.72146 15.6869 0.92998C14.8815 1.27916 14.2383 1.80843 13.7756 2.50287C13.4232 3.03128 13.284 3.56215 13.3495 4.12303C13.3491 4.12927 13.3436 4.14421 13.3427 4.14595C12.502 4.86997 11.6983 5.68505 10.8732 6.65515C11.4234 5.81599 11.7821 4.84981 11.9621 3.72978C12.1435 2.60061 12.155 1.59556 11.9974 0.657367C11.9874 0.598639 11.9738 0.539911 11.9565 0.466393L11.9308 0.353142C11.9192 0.304565 11.8825 0.265268 11.8344 0.250187C11.7863 0.235976 11.7324 0.248592 11.6965 0.282669C11.6389 0.336756 11.5825 0.387799 11.5274 0.437391L11.4886 0.472338C11.3476 0.599074 11.2144 0.718705 11.0939 0.853997C9.92288 2.17168 9.2399 3.56345 9.006 5.10894C8.89944 5.80744 8.94363 6.40211 9.14119 6.92646C9.20661 7.10017 9.30867 7.25533 9.41028 7.40933C9.4568 7.47966 9.50333 7.55028 9.54592 7.62278C9.57732 7.67484 9.57994 7.68832 9.57979 7.68586C9.56046 7.89249 9.53269 8.12276 9.49518 8.39915C9.49358 8.40263 9.48835 8.41075 9.47163 8.43279L9.45811 8.4515C8.81773 9.33937 8.22693 10.2754 7.69529 11.2442C7.90434 10.5206 8.0708 9.60474 8.05902 8.54053C8.04478 7.26403 7.7501 6.12558 7.15784 5.05964C7.13444 5.01816 7.09199 4.99119 7.03253 4.98713C6.98935 4.98713 6.94777 5.00845 6.92059 5.04484C6.90285 5.0695 6.88483 5.0927 6.86767 5.11474C6.82944 5.16404 6.79368 5.21073 6.76169 5.26062C6.2901 5.99827 6.03714 6.81161 5.86924 7.4379C5.56235 8.5865 5.42134 9.54557 5.42541 10.4564C5.42773 11.2306 5.56918 11.8257 5.87069 12.3293C5.96446 12.486 6.0825 12.6232 6.20113 12.7612C6.26408 12.8345 6.32877 12.9097 6.38735 12.9869C6.42835 13.0405 6.44812 13.0952 6.44928 13.1257C6.45699 13.3092 6.45292 13.4959 6.44899 13.6762L6.44623 13.801C6.44579 13.8224 6.44085 13.8471 6.43344 13.8659C6.05488 14.7808 5.72212 15.7316 5.43834 16.7081C5.48007 16.3756 5.50362 16.0536 5.50958 15.7396C5.54389 13.9568 4.99568 12.3648 3.87978 11.0071L3.64718 10.7245C3.62028 10.6913 3.58045 10.6724 3.538 10.6724L3.51474 10.6745C3.46502 10.6827 3.42315 10.7171 3.40585 10.7639C3.38463 10.8203 3.36384 10.8735 3.34363 10.925C3.30467 11.0245 3.26789 11.1188 3.23678 11.2146C2.99735 11.9627 2.87989 12.78 2.85604 13.864L2.85561 13.8852C2.83773 14.6739 2.81316 15.7543 3.13793 16.7882C3.45761 17.806 4.02137 18.3204 4.13069 18.4128L4.14232 18.4232C4.43991 18.6881 4.63369 18.9304 4.67382 19.0878C4.68995 19.1513 4.70638 19.2149 4.72557 19.2779C4.81047 19.5579 4.75741 19.8247 4.70013 20.1128C4.67164 20.2583 4.64198 20.4085 4.63166 20.5626C4.59066 21.1795 4.54036 21.8068 4.49166 22.4134L4.4873 22.4695C4.4748 22.6242 4.46229 22.7789 4.44994 22.9336C4.32579 21.5456 3.86495 20.2839 3.07207 19.1681C2.58652 18.4854 2.00764 17.9013 1.35112 17.4316C1.32277 17.4113 1.29297 17.3932 1.25314 17.3696C1.2338 17.3584 1.21142 17.3451 1.18423 17.3281C1.14323 17.3036 1.09061 17.3014 1.0483 17.322C1.00498 17.343 0.975181 17.3858 0.970238 17.4342C0.96137 17.522 0.951048 17.6069 0.940145 17.6951C0.918193 17.8756 0.897405 18.0462 0.896533 18.2213C0.886792 20.0371 1.27189 21.7386 2.04151 23.278C2.25594 23.7075 2.53927 24.0791 2.88396 24.3827C3.22573 24.6821 3.59455 24.8588 4.01076 24.9223C4.01992 24.9239 4.04172 24.9371 4.04507 24.9397C4.0676 24.9848 4.09101 25.03 4.11441 25.0754C4.19757 25.2356 4.28348 25.4014 4.32622 25.5675C4.36184 25.7081 4.36184 25.8616 4.36184 26.0243C4.36184 26.0839 4.36184 26.1439 4.36373 26.2028C4.40371 27.6094 4.45619 28.0992 4.68181 29.356C4.54414 28.9823 4.37129 28.6076 4.14814 28.2471C3.24449 26.7882 2.09646 25.798 0.638492 25.2201C0.545742 25.1828 0.452702 25.156 0.344834 25.1247L0.323318 25.1183C0.27956 25.1056 0.233186 25.0919 0.183613 25.0768C0.138837 25.0622 0.0878105 25.0722 0.0513214 25.1024C0.0149776 25.1324 -0.00406658 25.1783 0.000730799 25.2262C0.0114886 25.326 0.0189027 25.423 0.0257353 25.5177C0.040709 25.7253 0.0548104 25.9214 0.105256 26.1154C0.57569 27.9278 1.35432 29.3714 2.48548 30.5287C2.96915 31.0234 3.47883 31.3071 4.04361 31.396C4.18608 31.4181 4.36024 31.4209 4.65506 31.4026L4.73996 31.3976C4.7529 31.3968 4.76424 31.3961 4.77456 31.3961C4.79782 31.3961 4.79971 31.3961 4.81585 31.4199L5.21083 31.9609C5.21592 31.968 5.22333 31.9937 5.22842 32.0114L5.23424 32.0308C5.6442 33.4171 6.15286 34.7523 6.75268 36.0195C6.48272 35.6479 6.18688 35.3085 5.85717 34.9894C4.34091 33.5219 1.74858 33.4794 1.45797 33.4794L1.42177 33.4797L1.39895 33.4839C1.32772 33.5091 1.28919 33.5851 1.31114 33.6566C1.33135 33.724 1.35025 33.7922 1.37191 33.8722C1.41334 34.0226 1.45637 34.1779 1.5167 34.3281C1.80396 35.0442 2.2696 35.733 2.98238 36.4966C3.47214 37.0201 4.02428 37.5509 4.74229 37.8866C5.52862 38.2549 6.23863 38.3448 6.94472 38.1645C7.0648 38.133 7.20291 38.0931 7.32168 38.0163C7.40629 37.9622 7.4294 37.9639 7.51256 38.0257C7.61112 38.0988 7.71594 38.1601 7.8177 38.2196C7.87396 38.2525 7.93066 38.2857 7.98357 38.319C7.992 38.3261 8.01003 38.3556 8.01672 38.3664C8.65026 39.3972 9.34821 40.3551 10.1018 41.2289C9.6942 40.9331 9.27567 40.719 8.83111 40.5765C7.47258 40.1399 6.04863 40.1954 4.63834 40.7393C4.42784 40.8207 4.19713 40.9439 4.18172 40.9526C4.14945 40.9738 4.1272 41.008 4.12023 41.0473C4.11412 41.0859 4.12415 41.1254 4.1477 41.1555C4.19175 41.2126 4.23435 41.2701 4.2765 41.3271L4.28581 41.3395C4.38103 41.4689 4.4889 41.6152 4.60985 41.7448C5.15457 42.3273 5.82635 42.7178 6.47123 43.0531C7.35802 43.512 8.26487 43.7593 9.16678 43.7883C9.20923 43.7897 9.25168 43.7906 9.29398 43.7906C10.1236 43.7906 10.7713 43.5178 11.2705 42.96C11.2766 42.9556 11.2983 42.9474 11.3102 42.9472C11.5009 42.9608 11.6822 42.9885 11.8177 43.011C11.8391 43.0148 11.8654 43.0276 11.8818 43.0423C12.7158 43.7788 13.5991 44.4253 14.5218 44.9754C14.382 44.9341 14.2379 44.8981 14.0905 44.8693C13.1044 44.6802 12.0981 44.7988 10.9931 45.2367C10.2476 45.5331 9.55435 45.9686 8.87356 46.5679C8.81744 46.6171 8.80959 46.7016 8.85582 46.7602C9.09671 47.066 9.41014 47.2373 9.68504 47.3643C10.3555 47.675 11.1123 47.874 11.9996 47.9729C12.0022 47.973 12.2873 47.9977 12.687 47.9977C12.9756 47.9977 13.2441 47.9848 13.4847 47.9594C13.7147 47.9353 13.9441 47.896 14.1667 47.8427C15.1889 47.5944 15.8817 47.084 16.2785 46.2915C16.2857 46.2847 16.3162 46.267 16.3549 46.2576C16.5393 46.2119 16.7054 46.1797 16.8632 46.1587C16.9004 46.1527 16.9468 46.1628 17.0053 46.1862C17.7112 46.4576 18.4583 46.6836 19.2243 46.8579C19.235 46.8605 19.2462 46.8618 19.2574 46.8618C19.3089 46.8618 19.3563 46.8336 19.3813 46.7874C19.4544 46.6517 19.5435 46.5215 19.646 46.4004C19.6781 46.3623 19.6877 46.3115 19.6719 46.2645C19.6568 46.219 19.6184 46.1845 19.5692 46.173Z" fill="#1A747B"/>
<path d="M35.8952 27.4597L41.7364 21.7803C41.9344 21.5878 42.0059 21.2995 41.9203 21.0372C41.8348 20.7746 41.6075 20.5832 41.3336 20.5436L33.2619 19.3744L29.6515 12.0786C29.5291 11.8311 29.2765 11.6745 28.9998 11.6745C28.7232 11.6745 28.4703 11.8314 28.3481 12.0786L24.739 19.3744L16.666 20.5436C16.3923 20.5832 16.1648 20.7747 16.0793 21.0372C15.9937 21.2995 16.065 21.5878 16.2632 21.7803L22.1044 27.4597L20.7262 35.4784C20.6794 35.7503 20.7915 36.0252 21.0154 36.1874C21.2389 36.3496 21.5355 36.3711 21.7808 36.2426L29.0001 32.4572L36.2194 36.2426C36.3257 36.2984 36.4419 36.3258 36.5574 36.3258C36.7082 36.3258 36.8581 36.2792 36.9847 36.1874C37.2086 36.0254 37.3208 35.7503 37.2738 35.4784L35.8952 27.4597Z" fill="#1A747B"/>
</svg>
