<svg width="41" height="55" viewBox="0 0 41 55" fill="none" xmlns="http://www.w3.org/2000/svg">
<path d="M41 20.3036C41 18.7124 40.398 17.1938 39.3049 16.0281C38.9638 15.6643 38.8325 15.178 38.9439 14.6937C39.3023 13.1428 39.057 11.5298 38.2537 10.1518C37.45 8.77377 36.1625 7.75661 34.6271 7.28874C34.1479 7.1423 33.7886 6.78646 33.6412 6.31187C33.1683 4.7916 32.1418 3.51597 30.75 2.72038C29.3586 1.92478 27.7296 1.68182 26.1641 2.0364C25.6752 2.14718 25.1842 2.01668 24.8168 1.67889C23.6399 0.596275 22.107 0 20.5 0C18.8934 0 17.3601 0.596275 16.1832 1.67889C15.8158 2.01668 15.3248 2.14718 14.8363 2.0364C13.2704 1.6814 11.6418 1.92436 10.25 2.72038C8.85865 3.51597 7.83166 4.79118 7.35926 6.31187C7.21139 6.78646 6.85212 7.1423 6.37294 7.28874C4.83754 7.75661 3.54998 8.77377 2.74627 10.1518C1.94298 11.5298 1.69767 13.1432 2.0561 14.6937C2.16795 15.178 2.03619 15.6643 1.69513 16.0281C0.602044 17.1938 0 18.7124 0 20.3036C0 21.8948 0.602044 23.4134 1.69513 24.579C2.03619 24.9429 2.16753 25.4292 2.0561 25.9134C1.69767 27.4639 1.94298 29.0773 2.74669 30.4554C3.54998 31.8334 4.83754 32.8505 6.37294 33.3188C6.85212 33.4649 7.21139 33.8207 7.35926 34.2953C7.83166 35.816 8.85865 37.0912 10.25 37.8872C10.5576 38.063 10.877 38.2099 11.2045 38.3316V53.3689C11.2045 53.9661 11.5337 54.5149 12.0625 54.8007C12.5917 55.0864 13.2361 55.0634 13.7428 54.7403L20.5 50.43L27.2581 54.7403C27.5288 54.9127 27.8389 55 28.1499 55C28.4206 55 28.6918 54.9337 28.9384 54.8007C29.4671 54.5149 29.7963 53.9661 29.7963 53.3689V38.3311C30.1234 38.2099 30.4428 38.0626 30.75 37.8872C32.1414 37.0916 33.1683 35.816 33.6412 34.2953C33.7886 33.8211 34.1479 33.4649 34.6271 33.3188C36.162 32.8505 37.45 31.8338 38.2537 30.4554C39.057 29.0773 39.3023 27.4643 38.9439 25.9134C38.832 25.4292 38.9638 24.9433 39.3049 24.579C40.398 23.4134 41 21.8948 41 20.3036ZM36.8916 22.3593C35.8129 23.5099 35.3799 25.1103 35.7337 26.6406C35.9057 27.3859 35.7879 28.1617 35.4015 28.8243C35.0151 29.4873 34.3957 29.9762 33.6577 30.2011C32.143 30.6635 30.9601 31.8351 30.4937 33.3352C30.2662 34.0662 29.7726 34.6796 29.1036 35.0619C28.4342 35.445 27.6512 35.5617 26.8984 35.3909C25.3532 35.0409 23.7373 35.4698 22.576 36.5381C22.01 37.0584 21.2728 37.345 20.5 37.345C19.7272 37.345 18.9904 37.0584 18.4244 36.5381C17.5292 35.7148 16.3645 35.2713 15.1702 35.2713C14.8147 35.2713 14.4563 35.3107 14.1016 35.3909C13.3492 35.5617 12.5658 35.4446 11.8968 35.0619C11.2278 34.6792 10.7338 34.0662 10.5067 33.3352C10.0403 31.8346 8.85738 30.6631 7.34231 30.2011C6.60427 29.9762 5.98527 29.4873 5.59888 28.8243C5.21249 28.1613 5.09471 27.3859 5.26672 26.6402C5.62007 25.1099 5.18707 23.5094 4.10839 22.3593C3.58303 21.7991 3.29366 21.069 3.29366 20.3036C3.29366 19.5382 3.58303 18.8081 4.10839 18.2479C5.18707 17.0973 5.62007 15.4969 5.26672 13.9665C5.09471 13.2209 5.21249 12.4454 5.59888 11.7824C5.98527 11.1198 6.60427 10.6306 7.34231 10.4057C8.85738 9.94366 10.0403 8.77209 10.5067 7.27154C10.7338 6.54057 11.2278 5.92751 11.8968 5.54482C12.5662 5.16212 13.3492 5.04547 14.1021 5.21584C15.6476 5.5658 17.2631 5.13695 18.4244 4.0686C18.99 3.54828 19.7272 3.26168 20.5 3.26168C21.2728 3.26168 22.01 3.54828 22.576 4.06902C23.7373 5.13737 25.3532 5.56622 26.8984 5.21626C27.6508 5.04547 28.4342 5.16254 29.1036 5.54523C29.7726 5.92793 30.2662 6.54099 30.4937 7.27196C30.9601 8.77209 32.143 9.94408 33.6577 10.4061C34.3957 10.631 35.0151 11.1198 35.4015 11.7828C35.7879 12.4454 35.9057 13.2213 35.7337 13.9665C35.3799 15.4969 35.8129 17.0973 36.8916 18.2479C37.4174 18.8085 37.7068 19.5386 37.7068 20.3036C37.7068 21.069 37.4174 21.7991 36.8916 22.3593ZM14.4978 50.3788V38.637C14.6109 38.6177 14.7236 38.5963 14.8363 38.5707C15.3248 38.46 15.8158 38.5905 16.1832 38.9283C16.9487 39.6324 17.8647 40.1288 18.8536 40.3915V47.6009L14.4978 50.3788ZM22.1468 40.3915C23.1357 40.1288 24.0517 39.6324 24.8168 38.9283C25.1842 38.5905 25.6752 38.46 26.1637 38.5707C26.2768 38.5963 26.3895 38.6177 26.5031 38.637V50.3788L22.1468 47.6005V40.3915Z" fill="#1A747B"/>
<path d="M20.4995 7.07343C13.1339 7.07343 7.14186 13.0085 7.14186 20.3035C7.14186 27.5986 13.1339 33.5336 20.4995 33.5336C27.8651 33.5336 33.8576 27.5986 33.8576 20.3035C33.8576 13.0085 27.8651 7.07343 20.4995 7.07343ZM20.4995 30.2715C14.9498 30.2715 10.4351 25.8001 10.4351 20.3035C10.4351 14.807 14.9498 10.3355 20.4995 10.3355C26.0493 10.3355 30.564 14.807 30.564 20.3035C30.564 25.8001 26.0493 30.2715 20.4995 30.2715Z" fill="#1A747B"/>
<path d="M27.4563 18.1349C27.1377 17.164 26.3962 16.4166 25.4218 16.0843L24.0016 15.6L23.0979 14.4121C22.4781 13.5972 21.5312 13.1293 20.5004 13.1293C19.47 13.1293 18.5231 13.5972 17.9028 14.4121L16.9991 15.6L15.5789 16.0843C14.6045 16.4166 13.8631 17.164 13.5444 18.1349C13.2263 19.1055 13.3826 20.142 13.9736 20.9779L14.835 22.1964L14.8612 23.6835C14.8794 24.704 15.3679 25.6335 16.2013 26.2336C17.0351 26.8336 18.0786 27.0065 19.0645 26.7081L20.5004 26.273L21.9366 26.7081C22.2535 26.8038 22.5764 26.8512 22.8963 26.8512C23.5712 26.8512 24.2338 26.6406 24.7994 26.2336C25.6332 25.6335 26.1217 24.704 26.1395 23.6835L26.1658 22.1964L27.0271 20.9779C27.6181 20.142 27.7749 19.1055 27.4563 18.1349ZM22.8729 22.1272L22.8475 23.5728L21.4511 23.1502C21.1401 23.0558 20.8202 23.0088 20.5004 23.0088C20.1805 23.0088 19.8606 23.0558 19.5492 23.1502L18.1532 23.5728L18.1278 22.1272C18.1163 21.4831 17.9134 20.8633 17.5401 20.3354L16.7025 19.1508L18.0833 18.68C18.6985 18.4702 19.2302 18.0875 19.6217 17.5727L20.5004 16.4179L21.3791 17.5727C21.7705 18.0875 22.3027 18.4702 22.9179 18.68L24.2982 19.1508L23.4606 20.3354C23.0878 20.8633 22.8844 21.4831 22.8729 22.1272Z" fill="#1A747B"/>
</svg>
