<svg width="109" height="133" viewBox="0 0 109 133" fill="none" xmlns="http://www.w3.org/2000/svg">
<g opacity="0.5">
<path d="M-31.6074 112.141C-33.663 112.141 -35.6725 112.753 -37.3817 113.899C-39.0909 115.046 -40.4229 116.675 -41.2094 118.581C-41.9958 120.487 -42.2013 122.584 -41.8 124.607C-41.3986 126.63 -40.4083 128.489 -38.9544 129.947C-37.5005 131.405 -35.6482 132.398 -33.6319 132.8C-31.6157 133.202 -29.5259 132.995 -27.627 132.205C-25.7281 131.415 -24.1053 130.077 -22.9639 128.361C-21.8225 126.646 -21.2138 124.629 -21.2148 122.566C-21.2148 121.197 -21.4836 119.841 -22.0059 118.576C-22.5283 117.31 -23.2939 116.161 -24.259 115.193C-25.2241 114.225 -26.3698 113.457 -27.6307 112.934C-28.8915 112.41 -30.2428 112.141 -31.6074 112.141Z" fill="url(#paint0_linear_1_758)"/>
<path d="M-31.6074 56.0707C-33.6628 56.0707 -35.6722 56.6824 -37.3812 57.8284C-39.0903 58.9743 -40.4223 60.6032 -41.2089 62.5089C-41.9955 64.4146 -42.2013 66.5116 -41.8003 68.5347C-41.3993 70.5577 -40.4095 72.4161 -38.9561 73.8746C-37.5026 75.3332 -35.6508 76.3265 -33.6349 76.7289C-31.6189 77.1313 -29.5293 76.9248 -27.6303 76.1354C-25.7313 75.346 -24.1082 74.0093 -22.9662 72.2942C-21.8243 70.5791 -21.2148 68.5627 -21.2148 66.5C-21.2141 65.1302 -21.4825 63.7738 -22.0046 62.5081C-22.5266 61.2425 -23.2921 60.0925 -24.2573 59.124C-25.2225 58.1554 -26.3684 57.3872 -27.6296 56.8633C-28.8907 56.3394 -30.2424 56.0701 -31.6074 56.0707Z" fill="url(#paint1_linear_1_758)"/>
<path d="M-31.6074 20.8586C-29.5517 20.8595 -27.5419 20.2487 -25.8322 19.1033C-24.1226 17.9579 -22.7898 16.3294 -22.0024 14.4238C-21.2151 12.5181 -21.0086 10.421 -21.4091 8.3976C-21.8095 6.3742 -22.799 4.51542 -24.2522 3.05638C-25.7054 1.59733 -27.5572 0.60356 -29.5733 0.200753C-31.5894 -0.202054 -33.6793 0.00419962 -35.5786 0.793427C-37.4778 1.58265 -39.1012 2.9194 -40.2434 4.63459C-41.3856 6.34979 -41.9952 8.36637 -41.9952 10.4293C-41.9952 13.1945 -40.9009 15.8465 -38.953 17.8022C-37.005 19.758 -34.3628 20.8573 -31.6074 20.8586Z" fill="url(#paint2_linear_1_758)"/>
<path d="M33.5024 112.141C31.4465 112.14 29.4366 112.751 27.7268 113.897C26.017 115.043 24.6842 116.671 23.897 118.577C23.1098 120.483 22.9036 122.581 23.3044 124.604C23.7053 126.628 24.6952 128.486 26.1489 129.945C27.6026 131.404 29.4549 132.398 31.4713 132.8C33.4877 133.202 35.5777 132.995 37.4769 132.205C39.3761 131.415 40.9992 130.078 42.1407 128.362C43.2823 126.646 43.8912 124.629 43.8902 122.566C43.8902 121.197 43.6215 119.841 43.0995 118.577C42.5775 117.312 41.8123 116.163 40.8477 115.195C39.8831 114.227 38.738 113.459 37.4776 112.935C36.2173 112.411 34.8665 112.141 33.5024 112.141Z" fill="#FF5E14"/>
<path d="M33.5024 76.9245C39.2394 76.9245 43.8902 72.2573 43.8902 66.5C43.8902 60.7427 39.2394 56.0755 33.5024 56.0755C27.7654 56.0755 23.1146 60.7427 23.1146 66.5C23.1146 72.2573 27.7654 76.9245 33.5024 76.9245Z" fill="url(#paint3_linear_1_758)"/>
<path d="M33.5024 20.8538C39.2394 20.8538 43.8902 16.1866 43.8902 10.4293C43.8902 4.67202 39.2394 0.00481857 33.5024 0.00481857C27.7654 0.00481857 23.1146 4.67202 23.1146 10.4293C23.1146 16.1866 27.7654 20.8538 33.5024 20.8538Z" fill="url(#paint4_linear_1_758)"/>
<path d="M98.5882 112.141C96.5323 112.14 94.5224 112.751 92.8126 113.897C91.1028 115.043 89.77 116.671 88.9828 118.577C88.1956 120.483 87.9894 122.581 88.3902 124.604C88.7911 126.628 89.781 128.486 91.2347 129.945C92.6884 131.404 94.5406 132.398 96.5571 132.8C98.5735 133.202 100.663 132.995 102.563 132.205C104.462 131.415 106.085 130.078 107.227 128.362C108.368 126.646 108.977 124.629 108.976 122.566C108.976 121.197 108.707 119.841 108.185 118.577C107.663 117.312 106.898 116.163 105.933 115.195C104.969 114.227 103.824 113.459 102.563 112.935C101.303 112.411 99.9523 112.141 98.5882 112.141Z" fill="#FF5E14"/>
<path d="M98.6074 76.9245C104.344 76.9245 108.995 72.2573 108.995 66.5C108.995 60.7427 104.344 56.0755 98.6074 56.0755C92.8703 56.0755 88.2196 60.7427 88.2196 66.5C88.2196 72.2573 92.8703 76.9245 98.6074 76.9245Z" fill="url(#paint5_linear_1_758)"/>
<path d="M88.2148 10.4293C88.2138 12.493 88.823 14.5107 89.9652 16.2268C91.1075 17.943 92.7314 19.2804 94.6314 20.07C96.5315 20.8595 98.6222 21.0656 100.639 20.6622C102.656 20.2587 104.508 19.2639 105.961 17.8036C107.414 16.3433 108.403 14.4832 108.802 12.4587C109.202 10.4342 108.993 8.33639 108.204 6.43074C107.414 4.5251 106.079 2.89731 104.368 1.75344C102.656 0.609556 100.645 0.00100762 98.5882 0.00481857C98.3867 0.00481857 98.19 0.00481857 97.9932 0.00481857C94.9225 2.99012 91.7158 5.82295 88.3731 8.5033C88.2609 9.13898 88.2079 9.78376 88.2148 10.4293Z" fill="url(#paint6_linear_1_758)"/>
</g>
<defs>
<linearGradient id="paint0_linear_1_758" x1="-41.9651" y1="66.4693" x2="109" y2="66.4693" gradientUnits="userSpaceOnUse">
<stop stop-color="#FFB715"/>
<stop offset="1" stop-color="#FF3E0B"/>
</linearGradient>
<linearGradient id="paint1_linear_1_758" x1="-41.9651" y1="66.5" x2="109" y2="66.5" gradientUnits="userSpaceOnUse">
<stop stop-color="#FFB715"/>
<stop offset="1" stop-color="#FF3E0B"/>
</linearGradient>
<linearGradient id="paint2_linear_1_758" x1="-42" y1="66.5" x2="108.965" y2="66.5" gradientUnits="userSpaceOnUse">
<stop stop-color="#FFB715"/>
<stop offset="1" stop-color="#FF3E0B"/>
</linearGradient>
<linearGradient id="paint3_linear_1_758" x1="-42.0349" y1="66.5" x2="109" y2="66.5" gradientUnits="userSpaceOnUse">
<stop stop-color="#FF5E14"/>
<stop offset="1" stop-color="#FF5E14"/>
</linearGradient>
<linearGradient id="paint4_linear_1_758" x1="-42.0349" y1="66.5" x2="109" y2="66.5" gradientUnits="userSpaceOnUse">
<stop stop-color="#FF5E14"/>
<stop offset="1" stop-color="#FF5E14"/>
</linearGradient>
<linearGradient id="paint5_linear_1_758" x1="-42.0349" y1="66.5" x2="109" y2="66.5" gradientUnits="userSpaceOnUse">
<stop stop-color="#FF5E14"/>
<stop offset="1" stop-color="#FF5E14"/>
</linearGradient>
<linearGradient id="paint6_linear_1_758" x1="88.2147" y1="10.4301" x2="108.995" y2="10.4301" gradientUnits="userSpaceOnUse">
<stop stop-color="#FF5E14"/>
<stop offset="1" stop-color="#FF5E14"/>
</linearGradient>
</defs>
</svg>
