<svg width="57" height="57" viewBox="0 0 57 57" fill="none" xmlns="http://www.w3.org/2000/svg">
<rect width="57" height="57" rx="4" fill="#1F242E"/>
<path d="M20.13 45.3036C20.0267 45.3041 19.9252 45.2768 19.836 45.2247C19.7468 45.1725 19.6733 45.0974 19.623 45.0072L15.5241 37.7766C14.213 35.4606 13.5237 32.8446 13.5234 30.1833V21.3342C13.5462 20.8183 13.7671 20.3312 14.1402 19.9742C14.5133 19.6172 15.0097 19.418 15.5261 19.418C16.0424 19.418 16.5389 19.6172 16.9119 19.9742C17.285 20.3312 17.506 20.8183 17.5287 21.3342V25.1172C17.523 26.987 17.8882 28.8395 18.6032 30.5673C19.3181 32.2951 20.3687 33.864 21.6939 35.1831L23.0394 36.5091C23.094 36.5634 23.1373 36.6279 23.1669 36.6989C23.1965 36.7699 23.2119 36.8461 23.2121 36.923C23.2122 37 23.1973 37.0762 23.168 37.1474C23.1387 37.2186 23.0957 37.2833 23.0414 37.3378C22.9871 37.3924 22.9226 37.4357 22.8516 37.4653C22.7805 37.4949 22.7044 37.5103 22.6274 37.5104C22.5505 37.5106 22.4742 37.4956 22.4031 37.4664C22.3319 37.4371 22.2672 37.3941 22.2126 37.3398L20.8827 36.0099C19.4454 34.5839 18.3055 32.8868 17.5289 31.017C16.7523 29.1472 16.3546 27.1418 16.3587 25.1172V21.3342C16.3443 21.1232 16.2503 20.9256 16.0957 20.7812C15.9412 20.6369 15.7376 20.5566 15.5261 20.5566C15.3146 20.5566 15.111 20.6369 14.9565 20.7812C14.8019 20.9256 14.7079 21.1232 14.6934 21.3342V30.1833C14.6935 32.6436 15.3303 35.062 16.542 37.2033L20.6409 44.43C20.6915 44.5191 20.7177 44.62 20.7171 44.7225C20.7164 44.8249 20.6888 44.9254 20.6371 45.0139C20.5853 45.1024 20.5113 45.1757 20.4223 45.2265C20.3333 45.2774 20.2325 45.3039 20.13 45.3036Z" fill="white"/>
<path d="M27.2179 45.6618C27.0627 45.6618 26.9139 45.6001 26.8042 45.4904C26.6945 45.3807 26.6329 45.2319 26.6329 45.0768V37.4952C26.633 36.8173 26.383 36.1633 25.9309 35.6583L22.9357 32.3121C22.4538 31.7789 21.7834 31.4543 21.0663 31.4069C20.3492 31.3596 19.6419 31.5933 19.0942 32.0586C18.9763 32.1594 18.8231 32.2093 18.6684 32.1972C18.5137 32.1851 18.3702 32.1121 18.2693 31.9942C18.1685 31.8763 18.1186 31.7231 18.1307 31.5685C18.1427 31.4138 18.2158 31.2702 18.3337 31.1694C19.1142 30.5124 20.1188 30.1833 21.1367 30.2509C22.1547 30.3185 23.1069 30.7777 23.7937 31.5321L26.7889 34.8783C27.432 35.5982 27.7874 36.5298 27.7873 37.4952V45.0768C27.7873 45.2292 27.7279 45.3757 27.6215 45.485C27.5151 45.5943 27.3703 45.6577 27.2179 45.6618Z" fill="white"/>
<path d="M37.4922 45.3036C37.3912 45.3046 37.2917 45.279 37.2036 45.2295C37.0685 45.1525 36.9694 45.0253 36.9277 44.8755C36.8861 44.7258 36.9053 44.5656 36.9813 44.43L41.0802 37.1994C42.2919 35.0581 42.9287 32.6397 42.9288 30.1794V21.3342C42.9143 21.1232 42.8203 20.9256 42.6658 20.7812C42.5112 20.6369 42.3076 20.5566 42.0961 20.5566C41.8847 20.5566 41.6811 20.6369 41.5265 20.7812C41.372 20.9256 41.2779 21.1232 41.2635 21.3342V25.1172C41.2686 27.1406 40.8729 29.145 40.0991 31.0146C39.3252 32.8842 38.1887 34.5819 36.7551 36.0099L35.4252 37.3398C35.315 37.4494 35.1658 37.5108 35.0104 37.5104C34.855 37.5101 34.7061 37.448 34.5964 37.3378C34.4868 37.2277 34.4254 37.0785 34.4258 36.923C34.4261 36.7676 34.4882 36.6187 34.5984 36.5091L35.9244 35.1831C37.2509 33.8647 38.3025 32.296 39.0182 30.5681C39.7338 28.8402 40.0993 26.9874 40.0935 25.1172V21.3342C40.1163 20.8183 40.3372 20.3312 40.7103 19.9742C41.0834 19.6172 41.5798 19.418 42.0961 19.418C42.6125 19.418 43.1089 19.6172 43.482 19.9742C43.8551 20.3312 44.076 20.8183 44.0988 21.3342V30.1833C44.0965 32.8444 43.4074 35.4598 42.0981 37.7766L37.9992 45.0072C37.9489 45.0974 37.8754 45.1725 37.7862 45.2247C37.697 45.2768 37.5955 45.3041 37.4922 45.3036Z" fill="white"/>
<path d="M30.4073 45.6618C30.2521 45.6618 30.1033 45.6001 29.9936 45.4904C29.8839 45.3807 29.8223 45.2319 29.8223 45.0768V37.4952C29.8275 36.5272 30.19 35.5953 30.8402 34.8783L33.8354 31.5321C34.5221 30.7777 35.4744 30.3185 36.4923 30.2509C37.5103 30.1833 38.5148 30.5124 39.2954 31.1694C39.4133 31.2728 39.4853 31.4188 39.4955 31.5753C39.5058 31.7319 39.4534 31.886 39.35 32.004C39.2987 32.0623 39.2365 32.1101 39.1669 32.1444C39.0972 32.1787 39.0215 32.199 38.944 32.2041C38.7875 32.2143 38.6333 32.162 38.5154 32.0586C37.9676 31.5933 37.2603 31.3596 36.5433 31.4069C35.8262 31.4543 35.1557 31.7789 34.6739 32.3121L31.6826 35.6583C31.2304 36.1633 30.9805 36.8173 30.9806 37.4952V45.0768C30.9806 45.2299 30.9206 45.377 30.8134 45.4863C30.7062 45.5957 30.5604 45.6587 30.4073 45.6618Z" fill="white"/>
<path d="M27.1078 27.7211L24.4051 26.3171L21.7024 27.7211L22.2172 24.7103L20.0293 22.5809L23.0401 22.1558L24.3934 19.4258L25.7467 22.1558L28.7692 22.5965L26.5813 24.7259L27.1078 27.7211ZM24.4051 24.9911L25.5751 25.5956L25.3528 24.3125L26.2654 23.4311L24.9901 23.2244L24.4168 22.0544L23.8435 23.2244L22.5565 23.4116L23.4886 24.3164L23.2663 25.5995L24.4051 24.9911Z" fill="white"/>
<path d="M36.0785 27.7211L33.3758 26.3171L30.6731 27.7211L31.1879 24.7103L29 22.5809L32.0108 22.1558L33.3641 19.4258L34.7174 22.1558L37.7399 22.5965L35.552 24.7259L36.0785 27.7211ZM33.3758 24.9911L34.5458 25.5956L34.3235 24.3125L35.2361 23.4311L33.9608 23.2244L33.3875 22.0544L32.8142 23.2244L31.5272 23.4116L32.4593 24.3164L32.237 25.5995L33.3758 24.9911Z" fill="white"/>
<path d="M31.7875 19.5297L29.0848 18.1257L26.3821 19.5297L26.8969 16.5189L24.709 14.3895L27.7198 13.9644L29.0731 11.2344L30.4264 13.9644L33.4489 14.4051L31.261 16.5345L31.7875 19.5297ZM29.0848 16.7997L30.2548 17.4042L30.0325 16.1211L30.9451 15.2397L29.6698 15.033L29.0965 13.863L28.5232 15.033L27.2362 15.2202L28.1683 16.125L27.946 17.4081L29.0848 16.7997Z" fill="white"/>
</svg>
